<svg width="515" height="529" viewBox="0 0 515 529" fill="none" xmlns="http://www.w3.org/2000/svg">
<g opacity="0.6">
<path fill-rule="evenodd" clip-rule="evenodd" d="M73.5811 87.8633L166.654 87.8633L263.191 323.386H265.957L362.494 87.8633L455.567 87.8633L455.567 440.409H381.678L381.678 212.246H380.445L289.727 438.697L239.42 438.697L148.702 211.39H147.47L147.47 440.409H73.5811L73.5811 87.8633ZM146.47 210.39H149.38L240.097 437.697L289.051 437.697L379.768 211.246H382.678L382.678 439.409H454.567L454.567 88.8633L363.165 88.8633L266.628 324.386H262.52L165.983 88.8633L74.5811 88.8633L74.5811 439.409H146.47L146.47 210.39Z" fill="white"/>
<path fill-rule="evenodd" clip-rule="evenodd" d="M73.5811 87.8633L166.654 87.8633L263.191 323.386H265.957L362.494 87.8633L455.567 87.8633L455.567 440.409H381.678L381.678 212.246H380.445L289.727 438.697L239.42 438.697L148.702 211.39H147.47L147.47 440.409H73.5811L73.5811 87.8633ZM146.47 210.39H149.38L240.097 437.697L289.051 437.697L379.768 211.246H382.678L382.678 439.409H454.567L454.567 88.8633L363.165 88.8633L266.628 324.386H262.52L165.983 88.8633L74.5811 88.8633L74.5811 439.409H146.47L146.47 210.39Z" fill="url(#paint0_linear_108_302)" fill-opacity="0.6"/>
</g>
<path opacity="0.3" d="M15.3825 141.476L0.905273 141.476L0.905271 83.955L15.3825 83.955L15.3825 103.861L67.0871 103.861L67.0871 121.57L15.3825 121.57L15.3825 141.476Z" fill="white"/>
<path opacity="0.3" d="M0.904295 171.633L0.904294 153.665L43.302 153.665C48.3432 153.665 52.7058 154.872 56.3897 157.285C60.0521 159.676 62.8851 163.015 64.8887 167.302C66.8707 171.59 67.8617 176.566 67.8617 182.232C67.8617 187.941 66.8707 192.939 64.8887 197.226C62.8851 201.514 60.0521 204.853 56.3897 207.244C52.7058 209.614 48.3432 210.799 43.302 210.799L0.904297 210.799L0.904296 192.831L41.7509 192.831C43.7975 192.831 45.6287 192.379 47.2445 191.474C48.8387 190.569 50.0882 189.32 50.9931 187.726C51.8979 186.11 52.3503 184.279 52.3503 182.232C52.3503 180.164 51.8979 178.333 50.9931 176.738C50.0882 175.144 48.8387 173.895 47.2445 172.99C45.6287 172.085 43.7975 171.633 41.7509 171.633L0.904295 171.633Z" fill="white"/>
<path opacity="0.3" d="M33.9957 224.573C41.3636 224.573 47.579 226.006 52.6417 228.871C57.6829 231.736 61.5069 235.603 64.1136 240.472C66.6989 245.341 67.9915 250.77 67.9915 256.759C67.9915 262.791 66.6881 268.242 64.0813 273.111C61.453 277.958 57.6183 281.814 52.5771 284.68C47.5143 287.523 41.3205 288.945 33.9957 288.945C26.6278 288.945 20.4233 287.523 15.3821 284.68C10.3194 281.814 6.49538 277.958 3.91016 273.111C1.30338 268.242 -1.14322e-06 262.791 -1.4069e-06 256.759C-1.66869e-06 250.77 1.30338 245.341 3.91015 240.472C6.49538 235.603 10.3194 231.736 15.3821 228.871C20.4233 226.006 26.6278 224.573 33.9957 224.573ZM33.9957 243.058C30.0317 243.058 26.6925 243.585 23.978 244.641C21.2419 245.675 19.1738 247.215 17.7734 249.262C16.3516 251.287 15.6406 253.786 15.6406 256.759C15.6406 259.732 16.3516 262.242 17.7734 264.289C19.1738 266.314 21.242 267.854 23.978 268.91C26.6925 269.944 30.0317 270.461 33.9957 270.461C37.9598 270.461 41.3098 269.944 44.0458 268.91C46.7603 267.854 48.8285 266.314 50.2504 264.289C51.6507 262.242 52.3509 259.732 52.3509 256.759C52.3509 253.786 51.6507 251.287 50.2504 249.262C48.8285 247.215 46.7603 245.675 44.0458 244.641C41.3098 243.585 37.9598 243.058 33.9957 243.058Z" fill="white"/>
<path opacity="0.3" d="M67.0871 354.932L0.905273 354.932L0.905272 326.236C0.905272 321.194 1.5839 316.961 2.94114 313.536C4.29838 310.089 6.21576 307.493 8.69327 305.748C11.1708 303.981 14.0899 303.098 17.4507 303.098C19.8851 303.098 22.1041 303.636 24.1077 304.714C26.1112 305.769 27.7916 307.256 29.1489 309.173C30.4846 311.09 31.411 313.331 31.928 315.895L32.5743 315.895C32.682 313.051 33.4037 310.466 34.7394 308.139C36.0536 305.812 37.874 303.96 40.2007 302.581C42.5059 301.202 45.2204 300.513 48.3442 300.513C51.9635 300.513 55.1843 301.461 58.0065 303.356C60.8287 305.231 63.0477 307.902 64.6634 311.371C66.2792 314.839 67.0871 318.975 67.0871 323.78L67.0871 354.932ZM52.7391 336.964L52.7391 328.562C52.7391 325.546 52.1789 323.284 51.0587 321.776C49.9169 320.268 48.2365 319.514 46.0175 319.514C44.4664 319.514 43.1522 319.869 42.075 320.58C40.9978 321.291 40.1792 322.304 39.6191 323.618C39.0589 324.911 38.7789 326.473 38.7789 328.304L38.7789 336.964L52.7391 336.964ZM27.6624 336.964L27.6624 329.596C27.6624 328.024 27.4146 326.634 26.9191 325.428C26.4236 324.221 25.7127 323.284 24.7863 322.616C23.8384 321.927 22.6858 321.582 21.3286 321.582C19.2819 321.582 17.72 322.315 16.6428 323.78C15.5441 325.245 14.9948 327.097 14.9948 329.338L14.9948 336.964L27.6624 336.964Z" fill="white"/>
<path opacity="0.3" d="M67.0871 415.626L67.0871 435.016L0.905272 413.17L0.905271 388.611L67.0871 366.766L67.0871 386.155L19.1311 400.632L19.1311 401.149L67.0871 415.626ZM40.9763 419.246L40.9763 382.794L54.4195 382.794L54.4195 419.246L40.9763 419.246Z" fill="white"/>
<path opacity="0.3" d="M130.182 78.801V12.6191L167.021 12.6191V16.3677L134.221 16.3677V43.8034L165.05 43.8034V47.552L134.221 47.552V75.0524H167.797V78.801H130.182Z" fill="white"/>
<path opacity="0.3" d="M64.9072 78.801L64.9072 12.6191H68.9466V43.8034L108.824 43.8034V12.6191H112.863V78.801L108.824 78.801V47.552L68.9466 47.552L68.9466 78.801H64.9072Z" fill="white"/>
<path opacity="0.3" d="M5.63477 16.3677L5.63477 12.6191L52.0073 12.6191V16.3677L30.8407 16.3677L30.8407 78.801H26.8013L26.8013 16.3677L5.63477 16.3677Z" fill="white"/>
<path opacity="0.3" d="M501.284 439.887C504.404 439.626 506.928 438.352 508.855 436.065C510.783 433.794 511.747 430.854 511.747 427.244C511.747 424.81 511.297 422.645 510.399 420.75C509.5 418.855 508.275 417.369 506.723 416.291C505.172 415.213 503.391 414.674 501.382 414.674C500.091 414.674 498.923 414.919 497.878 415.409C496.849 415.915 495.926 416.626 495.109 417.54C494.309 418.455 493.606 419.542 493.002 420.799C492.397 422.057 491.867 423.446 491.409 424.965L489.792 430.453C489.22 432.332 488.559 434.064 487.807 435.648C487.056 437.249 486.157 438.637 485.112 439.814C484.083 441.006 482.874 441.929 481.486 442.582C480.097 443.252 478.496 443.587 476.683 443.587C474.037 443.587 471.668 442.901 469.577 441.529C467.486 440.173 465.836 438.237 464.628 435.722C463.435 433.222 462.839 430.274 462.839 426.876C462.839 423.642 463.386 420.824 464.481 418.423C465.575 416.038 467.094 414.151 469.038 412.762C470.998 411.374 473.253 410.59 475.801 410.41L475.801 413.547C473.726 413.71 471.929 414.371 470.41 415.531C468.907 416.707 467.748 418.267 466.931 420.211C466.114 422.155 465.706 424.377 465.706 426.876C465.706 429.571 466.163 431.948 467.078 434.006C468.009 436.065 469.299 437.674 470.949 438.833C472.599 439.993 474.519 440.573 476.707 440.573C478.472 440.573 479.983 440.157 481.241 439.324C482.498 438.49 483.585 437.257 484.499 435.624C485.414 434.006 486.231 431.997 486.95 429.596L488.714 423.74C489.906 419.819 491.532 416.822 493.59 414.747C495.648 412.689 498.213 411.66 501.284 411.66C503.865 411.66 506.152 412.346 508.145 413.718C510.154 415.09 511.73 416.952 512.874 419.305C514.017 421.673 514.589 424.344 514.589 427.317C514.589 430.306 514.009 432.945 512.849 435.232C511.706 437.518 510.129 439.332 508.12 440.671C506.127 442.011 503.848 442.754 501.284 442.901L501.284 439.887Z" fill="white"/>
<path opacity="0.3" d="M501.284 405.311C504.404 405.05 506.928 403.775 508.855 401.488C510.783 399.218 511.747 396.278 511.747 392.667C511.747 390.234 511.297 388.069 510.399 386.174C509.5 384.279 508.275 382.793 506.723 381.715C505.172 380.637 503.391 380.097 501.382 380.097C500.091 380.097 498.923 380.343 497.878 380.833C496.849 381.339 495.926 382.05 495.109 382.964C494.309 383.879 493.606 384.965 493.002 386.223C492.397 387.481 491.867 388.869 491.409 390.389L489.792 395.877C489.22 397.756 488.559 399.487 487.807 401.072C487.056 402.673 486.157 404.061 485.112 405.237C484.083 406.43 482.874 407.353 481.486 408.006C480.097 408.676 478.496 409.011 476.683 409.011C474.037 409.011 471.668 408.325 469.577 406.953C467.486 405.597 465.836 403.661 464.628 401.145C463.435 398.646 462.839 395.698 462.839 392.3C462.839 389.066 463.386 386.248 464.481 383.846C465.575 381.461 467.094 379.575 469.038 378.186C470.998 376.798 473.253 376.014 475.801 375.834L475.801 378.97C473.726 379.134 471.929 379.795 470.41 380.955C468.907 382.131 467.748 383.691 466.931 385.635C466.114 387.579 465.706 389.801 465.706 392.3C465.706 394.995 466.163 397.372 467.078 399.43C468.009 401.488 469.299 403.097 470.949 404.257C472.599 405.417 474.519 405.997 476.707 405.997C478.472 405.997 479.983 405.58 481.241 404.747C482.498 403.914 483.585 402.681 484.499 401.047C485.414 399.43 486.231 397.421 486.95 395.02L488.714 389.164C489.906 385.243 491.532 382.246 493.59 380.171C495.648 378.113 498.213 377.084 501.284 377.084C503.865 377.084 506.152 377.77 508.145 379.142C510.154 380.514 511.73 382.376 512.874 384.729C514.017 387.097 514.589 389.768 514.589 392.741C514.589 395.73 514.009 398.368 512.849 400.655C511.706 402.942 510.129 404.756 508.12 406.095C506.127 407.434 503.848 408.178 501.284 408.325L501.284 405.311Z" fill="white"/>
<path opacity="0.3" d="M463.647 340.672L463.647 337.437L513.829 355.545L513.829 359.074L463.647 377.181L463.647 373.947L509.884 357.432L509.884 357.187L463.647 340.672ZM482.539 345.254L482.539 369.365L479.697 369.365L479.697 345.254L482.539 345.254Z" fill="white"/>
<path opacity="0.3" d="M463.647 308.906L513.829 308.906L513.829 311.969L466.49 311.969L466.49 336.472L463.647 336.472L463.647 308.906Z" fill="white"/>
<path opacity="0.3" d="M498.148 305.413L498.148 302.277C499.847 301.95 501.488 301.338 503.073 300.439C504.674 299.541 506.111 298.381 507.385 296.96C508.676 295.555 509.697 293.922 510.448 292.059C511.2 290.197 511.575 288.139 511.575 285.885C511.575 282.585 510.693 279.547 508.929 276.77C507.181 274.009 504.608 271.795 501.211 270.129C497.813 268.479 493.656 267.654 488.739 267.654C483.789 267.654 479.615 268.479 476.218 270.129C472.82 271.795 470.247 274.009 468.499 276.77C466.768 279.547 465.902 282.585 465.902 285.885C465.902 288.139 466.27 290.197 467.005 292.059C467.756 293.922 468.769 295.555 470.043 296.96C471.333 298.381 472.779 299.541 474.38 300.439C475.981 301.338 477.631 301.95 479.33 302.277L479.33 305.413C477.304 305.054 475.319 304.36 473.375 303.331C471.431 302.318 469.667 300.978 468.083 299.312C466.515 297.662 465.265 295.71 464.334 293.456C463.419 291.218 462.962 288.694 462.962 285.885C462.962 281.703 464.023 278.019 466.147 274.834C468.287 271.648 471.293 269.149 475.164 267.336C479.036 265.539 483.56 264.641 488.739 264.641C493.917 264.641 498.442 265.539 502.313 267.336C506.185 269.149 509.182 271.648 511.306 274.834C513.446 278.019 514.516 281.703 514.516 285.885C514.516 288.694 514.05 291.218 513.119 293.456C512.204 295.71 510.963 297.662 509.395 299.312C507.843 300.978 506.095 302.318 504.151 303.331C502.207 304.36 500.206 305.054 498.148 305.413Z" fill="white"/>
<path opacity="0.3" d="M463.647 232.479L513.829 232.479L513.829 247.94C513.829 251.109 513.208 253.837 511.967 256.124C510.725 258.411 509.002 260.167 506.797 261.392C504.608 262.617 502.06 263.23 499.152 263.23C496.277 263.23 493.745 262.617 491.556 261.392C489.383 260.167 487.685 258.411 486.459 256.124C485.234 253.853 484.622 251.133 484.622 247.964L484.622 234.12L487.489 234.12L487.489 247.891C487.489 250.472 487.97 252.677 488.934 254.507C489.898 256.336 491.246 257.741 492.977 258.721C494.725 259.701 496.783 260.191 499.152 260.191C501.537 260.191 503.611 259.701 505.376 258.721C507.156 257.741 508.536 256.328 509.517 254.482C510.497 252.653 510.987 250.447 510.987 247.866L510.987 235.541L463.647 235.541L463.647 232.479ZM486.386 253.085L463.647 265.435L463.647 261.906L486.386 249.631L486.386 253.085Z" fill="white"/>
<path opacity="0.3" d="M463.647 200.127L513.829 200.127L513.829 228.06L510.987 228.06L510.987 203.19L490.184 203.19L490.184 226.566L487.342 226.566L487.342 203.19L466.49 203.19L466.49 228.648L463.647 228.648L463.647 200.127Z" fill="white"/>
<path opacity="0.3" d="M510.987 162.084L513.829 162.084L513.829 197.246L510.987 197.246L510.987 181.196L463.647 181.196L463.647 178.133L510.987 178.133L510.987 162.084Z" fill="white"/>
<path opacity="0.3" d="M501.284 157.893C504.404 157.632 506.928 156.357 508.855 154.07C510.783 151.8 511.747 148.86 511.747 145.249C511.747 142.816 511.297 140.651 510.399 138.756C509.5 136.861 508.275 135.375 506.723 134.297C505.172 133.219 503.391 132.68 501.382 132.68C500.091 132.68 498.923 132.925 497.878 133.415C496.849 133.921 495.926 134.632 495.109 135.546C494.309 136.461 493.606 137.547 493.002 138.805C492.397 140.063 491.867 141.452 491.409 142.971L489.792 148.459C489.22 150.338 488.559 152.069 487.807 153.654C487.056 155.255 486.157 156.643 485.112 157.819C484.083 159.012 482.874 159.935 481.486 160.588C480.097 161.258 478.496 161.593 476.683 161.593C474.037 161.593 471.668 160.907 469.577 159.535C467.486 158.179 465.836 156.243 464.628 153.727C463.435 151.228 462.839 148.28 462.839 144.882C462.839 141.648 463.386 138.83 464.481 136.428C465.575 134.043 467.094 132.157 469.038 130.768C470.998 129.38 473.253 128.596 475.801 128.416L475.801 131.552C473.726 131.716 471.929 132.377 470.41 133.537C468.907 134.713 467.748 136.273 466.931 138.217C466.114 140.161 465.706 142.383 465.706 144.882C465.706 147.577 466.163 149.954 467.078 152.012C468.009 154.07 469.299 155.68 470.949 156.839C472.599 157.999 474.519 158.579 476.707 158.579C478.472 158.579 479.983 158.162 481.241 157.329C482.498 156.496 483.585 155.263 484.499 153.629C485.414 152.012 486.231 150.003 486.95 147.602L488.714 141.746C489.906 137.825 491.532 134.828 493.59 132.753C495.648 130.695 498.213 129.666 501.284 129.666C503.865 129.666 506.152 130.352 508.145 131.724C510.154 133.096 511.73 134.958 512.874 137.311C514.017 139.679 514.589 142.35 514.589 145.323C514.589 148.312 514.009 150.95 512.849 153.237C511.706 155.524 510.129 157.338 508.12 158.677C506.127 160.017 503.848 160.76 501.284 160.907L501.284 157.893Z" fill="white"/>
<path opacity="0.3" d="M463.647 93.252L463.647 90.0176L513.829 108.125L513.829 111.654L463.647 129.761L463.647 126.527L509.884 110.012L509.884 109.767L463.647 93.252ZM482.539 97.834L482.539 121.945L479.697 121.945L479.697 97.834L482.539 97.834Z" fill="white"/>
<path opacity="0.3" d="M455.418 87.709V5.21289" stroke="white" stroke-linecap="round" stroke-linejoin="round" stroke-dasharray="2 2"/>
<path opacity="0.3" d="M361.718 87.709V5.21289" stroke="white" stroke-linecap="round" stroke-linejoin="round" stroke-dasharray="2 2"/>
<path opacity="0.3" d="M382.165 527.632V439.344" stroke="white" stroke-linecap="round" stroke-linejoin="round" stroke-dasharray="2 2"/>
<path opacity="0.3" d="M264.73 325.822L264.729 1.39453" stroke="white" stroke-linecap="round" stroke-linejoin="round" stroke-dasharray="2 2"/>
<path opacity="0.3" d="M290.07 527.633L290.07 436.643" stroke="white" stroke-linecap="round" stroke-linejoin="round" stroke-dasharray="2 2"/>
<path opacity="0.4" d="M363.654 43.0312C363.459 43.2265 363.459 43.5431 363.654 43.7383L366.836 46.9203C367.032 47.1156 367.348 47.1156 367.543 46.9203C367.739 46.725 367.739 46.4085 367.543 46.2132L364.715 43.3848L367.543 40.5563C367.739 40.3611 367.739 40.0445 367.543 39.8492C367.348 39.654 367.032 39.654 366.836 39.8492L363.654 43.0312ZM453.694 43.7383C453.889 43.543 453.889 43.2265 453.694 43.0312L450.512 39.8492C450.317 39.654 450 39.654 449.805 39.8492C449.61 40.0445 449.61 40.3611 449.805 40.5563L452.633 43.3848L449.805 46.2132C449.61 46.4084 449.61 46.725 449.805 46.9203C450 47.1156 450.317 47.1156 450.512 46.9203L453.694 43.7383ZM364.008 43.8848L453.34 43.8848L453.34 42.8848L364.008 42.8848L364.008 43.8848Z" fill="white"/>
<path opacity="0.4" d="M266.821 43.0312C266.626 43.2265 266.626 43.5431 266.821 43.7383L270.003 46.9203C270.198 47.1156 270.515 47.1156 270.71 46.9203C270.906 46.725 270.906 46.4085 270.71 46.2132L267.882 43.3848L270.71 40.5563C270.906 40.3611 270.906 40.0445 270.71 39.8492C270.515 39.654 270.198 39.654 270.003 39.8492L266.821 43.0312ZM360.271 43.7383C360.466 43.5431 360.466 43.2265 360.271 43.0312L357.089 39.8492C356.893 39.654 356.577 39.654 356.381 39.8492C356.186 40.0445 356.186 40.3611 356.381 40.5563L359.21 43.3848L356.381 46.2132C356.186 46.4085 356.186 46.725 356.381 46.9203C356.577 47.1156 356.893 47.1156 357.089 46.9203L360.271 43.7383ZM267.175 43.8848H359.917V42.8848H267.175V43.8848Z" fill="white"/>
<path opacity="0.4" d="M292.039 487.279C291.844 487.475 291.844 487.791 292.039 487.986L295.221 491.168C295.416 491.364 295.733 491.364 295.928 491.168C296.123 490.973 296.123 490.657 295.928 490.461L293.1 487.633L295.928 484.804C296.123 484.609 296.123 484.293 295.928 484.097C295.733 483.902 295.416 483.902 295.221 484.097L292.039 487.279ZM380.809 487.986C381.004 487.791 381.004 487.475 380.809 487.279L377.627 484.097C377.431 483.902 377.115 483.902 376.919 484.097C376.724 484.293 376.724 484.609 376.919 484.804L379.748 487.633L376.919 490.461C376.724 490.657 376.724 490.973 376.919 491.168C377.115 491.364 377.431 491.364 377.627 491.168L380.809 487.986ZM292.393 488.133H380.455V487.133H292.393V488.133Z" fill="white"/>
<rect x="387.368" y="20.3066" width="42.9304" height="17.5469" rx="4" fill="white" fill-opacity="0.1"/>
<path d="M396.016 25.7079C396.364 25.7103 396.702 25.7718 397.032 25.8926C397.363 26.0109 397.661 26.2051 397.926 26.475C398.192 26.7425 398.402 27.1011 398.559 27.551C398.715 28.0008 398.793 28.5571 398.793 29.22C398.795 29.845 398.729 30.4037 398.594 30.8961C398.461 31.3862 398.271 31.8005 398.022 32.139C397.774 32.4776 397.474 32.7356 397.124 32.9132C396.773 33.0907 396.379 33.1795 395.941 33.1795C395.482 33.1795 395.075 33.0895 394.72 32.9096C394.367 32.7297 394.082 32.4835 393.864 32.171C393.646 31.8585 393.512 31.501 393.463 31.0985H394.759C394.825 31.3874 394.96 31.617 395.164 31.7875C395.37 31.9556 395.629 32.0396 395.941 32.0396C396.446 32.0396 396.834 31.8206 397.106 31.3826C397.378 30.9447 397.514 30.3362 397.514 29.5574H397.465C397.349 29.7657 397.198 29.9456 397.014 30.0971C396.829 30.2463 396.62 30.3611 396.385 30.4416C396.153 30.5221 395.907 30.5623 395.647 30.5623C395.22 30.5623 394.837 30.4605 394.496 30.2569C394.157 30.0533 393.889 29.774 393.69 29.4189C393.493 29.0637 393.394 28.6577 393.392 28.2008C393.392 27.7273 393.501 27.3024 393.718 26.926C393.938 26.5472 394.245 26.2489 394.638 26.0311C395.031 25.8109 395.49 25.7032 396.016 25.7079ZM396.019 26.7733C395.764 26.7733 395.533 26.836 395.327 26.9615C395.123 27.0846 394.962 27.2527 394.844 27.4657C394.728 27.6764 394.67 27.912 394.67 28.1724C394.672 28.4305 394.73 28.6648 394.844 28.8755C394.96 29.0862 395.117 29.2531 395.316 29.3762C395.518 29.4993 395.747 29.5609 396.005 29.5609C396.197 29.5609 396.376 29.5242 396.541 29.4508C396.707 29.3774 396.852 29.2756 396.975 29.1454C397.1 29.0128 397.197 28.8625 397.266 28.6944C397.337 28.5263 397.371 28.3488 397.369 28.1618C397.369 27.9132 397.31 27.6835 397.191 27.4728C397.075 27.2621 396.916 27.0929 396.712 26.965C396.511 26.8372 396.28 26.7733 396.019 26.7733ZM401.975 33.0801V32.1284L404.5 29.6532C404.742 29.4094 404.943 29.1928 405.104 29.0034C405.265 28.814 405.386 28.6305 405.466 28.4529C405.547 28.2754 405.587 28.086 405.587 27.8848C405.587 27.6551 405.535 27.4586 405.431 27.2953C405.326 27.1296 405.183 27.0017 405.001 26.9118C404.819 26.8218 404.612 26.7768 404.38 26.7768C404.14 26.7768 403.931 26.8265 403.751 26.926C403.571 27.023 403.431 27.1615 403.332 27.3414C403.235 27.5214 403.186 27.7356 403.186 27.9842H401.933C401.933 27.5225 402.038 27.1213 402.249 26.7804C402.46 26.4395 402.75 26.1755 403.119 25.9885C403.491 25.8014 403.917 25.7079 404.397 25.7079C404.885 25.7079 405.313 25.7991 405.683 25.9814C406.052 26.1636 406.339 26.4134 406.542 26.7306C406.748 27.0479 406.851 27.4101 406.851 27.8173C406.851 28.0895 406.799 28.3571 406.695 28.6199C406.591 28.8826 406.407 29.1738 406.144 29.4934C405.884 29.813 405.518 30.2001 405.047 30.6547L403.794 31.9295V31.9792H406.961V33.0801H401.975ZM410.201 35.1255V27.6255H411.465V28.5275H411.539C411.606 28.3949 411.699 28.2541 411.82 28.1049C411.941 27.9534 412.104 27.8244 412.31 27.7179C412.516 27.609 412.779 27.5545 413.098 27.5545C413.52 27.5545 413.9 27.6622 414.238 27.8777C414.579 28.0907 414.849 28.4068 415.048 28.8258C415.249 29.2425 415.35 29.7538 415.35 30.3599C415.35 30.9589 415.251 31.4679 415.055 31.8869C414.858 32.3059 414.591 32.6255 414.252 32.8457C413.914 33.0659 413.53 33.176 413.102 33.176C412.789 33.176 412.53 33.1239 412.324 33.0197C412.118 32.9155 411.952 32.7901 411.827 32.6433C411.704 32.4941 411.608 32.3533 411.539 32.2207H411.486V35.1255H410.201ZM411.461 30.3528C411.461 30.7056 411.511 31.0145 411.61 31.2797C411.712 31.5448 411.858 31.752 412.047 31.9011C412.239 32.0479 412.471 32.1213 412.743 32.1213C413.027 32.1213 413.265 32.0455 413.457 31.894C413.649 31.7401 413.793 31.5306 413.89 31.2654C413.99 30.9979 414.039 30.6937 414.039 30.3528C414.039 30.0143 413.991 29.7136 413.894 29.4508C413.797 29.188 413.652 28.9821 413.46 28.8329C413.269 28.6838 413.03 28.6092 412.743 28.6092C412.469 28.6092 412.235 28.6814 412.044 28.8258C411.852 28.9702 411.706 29.1726 411.607 29.4331C411.51 29.6935 411.461 30.0001 411.461 30.3528ZM419.297 27.6255L420.397 29.639L421.516 27.6255H422.876L421.232 30.3528L422.905 33.0801H421.552L420.397 31.1163L419.254 33.0801H417.89L419.552 30.3528L417.933 27.6255H419.297Z" fill="white"/>
<rect x="294.118" y="20.3066" width="42.9304" height="17.5469" rx="4" fill="white" fill-opacity="0.1"/>
<path d="M302.766 25.7079C303.114 25.7103 303.452 25.7718 303.782 25.8926C304.113 26.0109 304.411 26.2051 304.676 26.475C304.942 26.7425 305.152 27.1011 305.309 27.551C305.465 28.0008 305.543 28.5571 305.543 29.22C305.545 29.845 305.479 30.4037 305.344 30.8961C305.211 31.3862 305.021 31.8005 304.772 32.139C304.524 32.4776 304.224 32.7356 303.874 32.9132C303.523 33.0907 303.129 33.1795 302.691 33.1795C302.232 33.1795 301.825 33.0895 301.47 32.9096C301.117 32.7297 300.832 32.4835 300.614 32.171C300.396 31.8585 300.262 31.501 300.213 31.0985H301.509C301.575 31.3874 301.71 31.617 301.914 31.7875C302.12 31.9556 302.379 32.0396 302.691 32.0396C303.196 32.0396 303.584 31.8206 303.856 31.3826C304.128 30.9447 304.264 30.3362 304.264 29.5574H304.215C304.099 29.7657 303.948 29.9456 303.764 30.0971C303.579 30.2463 303.37 30.3611 303.135 30.4416C302.903 30.5221 302.657 30.5623 302.397 30.5623C301.97 30.5623 301.587 30.4605 301.246 30.2569C300.907 30.0533 300.639 29.774 300.44 29.4189C300.243 29.0637 300.144 28.6577 300.142 28.2008C300.142 27.7273 300.251 27.3024 300.468 26.926C300.688 26.5472 300.995 26.2489 301.388 26.0311C301.781 25.8109 302.24 25.7032 302.766 25.7079ZM302.769 26.7733C302.514 26.7733 302.283 26.836 302.077 26.9615C301.873 27.0846 301.712 27.2527 301.594 27.4657C301.478 27.6764 301.42 27.912 301.42 28.1724C301.422 28.4305 301.48 28.6648 301.594 28.8755C301.71 29.0862 301.867 29.2531 302.066 29.3762C302.268 29.4993 302.497 29.5609 302.755 29.5609C302.947 29.5609 303.126 29.5242 303.291 29.4508C303.457 29.3774 303.602 29.2756 303.725 29.1454C303.85 29.0128 303.947 28.8625 304.016 28.6944C304.087 28.5263 304.121 28.3488 304.119 28.1618C304.119 27.9132 304.06 27.6835 303.941 27.4728C303.825 27.2621 303.666 27.0929 303.462 26.965C303.261 26.8372 303.03 26.7733 302.769 26.7733ZM311.389 33.1795C311.041 33.1771 310.701 33.1168 310.37 32.9984C310.038 32.8777 309.74 32.6824 309.475 32.4125C309.21 32.1402 308.999 31.7792 308.843 31.3294C308.686 30.8772 308.609 30.3173 308.612 29.6497C308.612 29.027 308.678 28.4719 308.811 27.9842C308.943 27.4965 309.134 27.0846 309.382 26.7484C309.631 26.4099 309.93 26.1518 310.281 25.9743C310.634 25.7967 311.028 25.7079 311.463 25.7079C311.92 25.7079 312.325 25.7979 312.678 25.9778C313.033 26.1577 313.319 26.4039 313.537 26.7164C313.755 27.0266 313.89 27.377 313.942 27.7676H312.646C312.58 27.4882 312.443 27.2657 312.237 27.1C312.034 26.9319 311.776 26.8478 311.463 26.8478C310.959 26.8478 310.571 27.0668 310.299 27.5048C310.029 27.9428 309.893 28.5441 309.89 29.3088H309.94C310.056 29.1004 310.206 28.9217 310.391 28.7725C310.576 28.6234 310.784 28.5086 311.016 28.4281C311.25 28.3452 311.498 28.3038 311.758 28.3038C312.184 28.3038 312.567 28.4056 312.905 28.6092C313.246 28.8128 313.516 29.0933 313.715 29.4508C313.914 29.8059 314.012 30.2131 314.009 30.6724C314.012 31.1506 313.903 31.5803 313.683 31.9615C313.463 32.3403 313.156 32.6386 312.763 32.8564C312.37 33.0742 311.912 33.1819 311.389 33.1795ZM311.382 32.1142C311.64 32.1142 311.871 32.0514 312.074 31.926C312.278 31.8005 312.439 31.6312 312.557 31.4181C312.675 31.2051 312.733 30.966 312.731 30.7008C312.733 30.4404 312.677 30.2048 312.561 29.9941C312.447 29.7834 312.29 29.6165 312.088 29.4934C311.887 29.3703 311.657 29.3088 311.399 29.3088C311.208 29.3088 311.029 29.3455 310.863 29.4189C310.697 29.4922 310.553 29.594 310.43 29.7243C310.307 29.8521 310.21 30.0012 310.139 30.1717C310.07 30.3398 310.035 30.5197 310.032 30.7115C310.035 30.9648 310.094 31.198 310.21 31.411C310.326 31.6241 310.486 31.7946 310.689 31.9224C310.893 32.0502 311.124 32.1142 311.382 32.1142ZM317.224 35.1255V27.6255H318.488V28.5275H318.563C318.629 28.3949 318.723 28.2541 318.843 28.1049C318.964 27.9534 319.127 27.8244 319.333 27.7179C319.539 27.609 319.802 27.5545 320.122 27.5545C320.543 27.5545 320.923 27.6622 321.262 27.8777C321.603 28.0907 321.872 28.4068 322.071 28.8258C322.273 29.2425 322.373 29.7538 322.373 30.3599C322.373 30.9589 322.275 31.4679 322.078 31.8869C321.882 32.3059 321.614 32.6255 321.276 32.8457C320.937 33.0659 320.554 33.176 320.125 33.176C319.813 33.176 319.554 33.1239 319.348 33.0197C319.142 32.9155 318.976 32.7901 318.85 32.6433C318.727 32.4941 318.631 32.3533 318.563 32.2207H318.509V35.1255H317.224ZM318.485 30.3528C318.485 30.7056 318.534 31.0145 318.634 31.2797C318.736 31.5448 318.881 31.752 319.071 31.9011C319.262 32.0479 319.494 32.1213 319.767 32.1213C320.051 32.1213 320.289 32.0455 320.48 31.894C320.672 31.7401 320.817 31.5306 320.914 31.2654C321.013 30.9979 321.063 30.6937 321.063 30.3528C321.063 30.0143 321.014 29.7136 320.917 29.4508C320.82 29.188 320.676 28.9821 320.484 28.8329C320.292 28.6838 320.053 28.6092 319.767 28.6092C319.492 28.6092 319.259 28.6814 319.067 28.8258C318.875 28.9702 318.73 29.1726 318.63 29.4331C318.533 29.6935 318.485 30.0001 318.485 30.3528ZM326.32 27.6255L327.421 29.639L328.54 27.6255H329.9L328.255 30.3528L329.928 33.0801H328.575L327.421 31.1163L326.277 33.0801H324.914L326.576 30.3528L324.956 27.6255H326.32Z" fill="white"/>
<rect x="316.68" y="495.424" width="42.9304" height="17.5469" rx="4" fill="white" fill-opacity="0.1"/>
<path d="M325.327 500.825C325.675 500.827 326.014 500.889 326.343 501.01C326.674 501.128 326.973 501.322 327.238 501.592C327.503 501.86 327.714 502.218 327.87 502.668C328.026 503.118 328.104 503.674 328.104 504.337C328.107 504.962 328.04 505.521 327.906 506.013C327.773 506.503 327.582 506.918 327.334 507.256C327.085 507.595 326.786 507.853 326.435 508.03C326.085 508.208 325.691 508.297 325.253 508.297C324.794 508.297 324.386 508.207 324.031 508.027C323.679 507.847 323.393 507.601 323.175 507.288C322.958 506.976 322.824 506.618 322.774 506.216H324.07C324.137 506.505 324.272 506.734 324.475 506.905C324.681 507.073 324.94 507.157 325.253 507.157C325.757 507.157 326.145 506.938 326.418 506.5C326.69 506.062 326.826 505.453 326.826 504.675H326.776C326.66 504.883 326.51 505.063 326.325 505.214C326.141 505.363 325.931 505.478 325.697 505.559C325.465 505.639 325.219 505.68 324.958 505.68C324.532 505.68 324.148 505.578 323.808 505.374C323.469 505.171 323.2 504.891 323.001 504.536C322.805 504.181 322.705 503.775 322.703 503.318C322.703 502.845 322.812 502.42 323.03 502.043C323.25 501.664 323.557 501.366 323.95 501.148C324.343 500.928 324.802 500.82 325.327 500.825ZM325.331 501.89C325.075 501.89 324.844 501.953 324.638 502.079C324.435 502.202 324.274 502.37 324.156 502.583C324.04 502.794 323.982 503.029 323.982 503.29C323.984 503.548 324.042 503.782 324.156 503.993C324.272 504.203 324.429 504.37 324.628 504.493C324.829 504.617 325.059 504.678 325.317 504.678C325.509 504.678 325.687 504.641 325.853 504.568C326.019 504.495 326.163 504.393 326.286 504.263C326.412 504.13 326.509 503.98 326.577 503.812C326.648 503.644 326.683 503.466 326.68 503.279C326.68 503.03 326.621 502.801 326.503 502.59C326.387 502.379 326.227 502.21 326.023 502.082C325.822 501.954 325.591 501.89 325.331 501.89ZM333.95 508.297C333.602 508.294 333.263 508.234 332.931 508.116C332.6 507.995 332.301 507.8 332.036 507.53C331.771 507.257 331.56 506.896 331.404 506.447C331.248 505.994 331.171 505.434 331.173 504.767C331.173 504.144 331.24 503.589 331.372 503.101C331.505 502.614 331.695 502.202 331.944 501.866C332.192 501.527 332.492 501.269 332.842 501.091C333.195 500.914 333.589 500.825 334.025 500.825C334.482 500.825 334.887 500.915 335.239 501.095C335.594 501.275 335.881 501.521 336.099 501.834C336.317 502.144 336.451 502.494 336.504 502.885H335.207C335.141 502.605 335.005 502.383 334.799 502.217C334.595 502.049 334.337 501.965 334.025 501.965C333.521 501.965 333.132 502.184 332.86 502.622C332.59 503.06 332.454 503.661 332.452 504.426H332.501C332.617 504.218 332.768 504.039 332.952 503.89C333.137 503.741 333.345 503.626 333.577 503.545C333.812 503.462 334.059 503.421 334.32 503.421C334.746 503.421 335.128 503.523 335.467 503.726C335.808 503.93 336.077 504.211 336.276 504.568C336.475 504.923 336.573 505.33 336.571 505.79C336.573 506.268 336.464 506.698 336.244 507.079C336.024 507.457 335.718 507.756 335.325 507.974C334.932 508.191 334.473 508.299 333.95 508.297ZM333.943 507.231C334.201 507.231 334.432 507.169 334.636 507.043C334.839 506.918 335 506.748 335.119 506.535C335.237 506.322 335.295 506.083 335.293 505.818C335.295 505.558 335.238 505.322 335.122 505.111C335.009 504.901 334.851 504.734 334.65 504.611C334.449 504.488 334.219 504.426 333.961 504.426C333.769 504.426 333.59 504.463 333.425 504.536C333.259 504.609 333.115 504.711 332.991 504.841C332.868 504.969 332.771 505.118 332.7 505.289C332.632 505.457 332.596 505.637 332.594 505.829C332.596 506.082 332.655 506.315 332.771 506.528C332.887 506.741 333.047 506.912 333.251 507.04C333.454 507.167 333.685 507.231 333.943 507.231ZM339.786 510.243V502.743H341.05V503.645H341.124C341.191 503.512 341.284 503.371 341.405 503.222C341.526 503.071 341.689 502.942 341.895 502.835C342.101 502.726 342.364 502.672 342.683 502.672C343.105 502.672 343.485 502.779 343.823 502.995C344.164 503.208 344.434 503.524 344.633 503.943C344.834 504.36 344.935 504.871 344.935 505.477C344.935 506.076 344.836 506.585 344.64 507.004C344.443 507.423 344.176 507.743 343.837 507.963C343.499 508.183 343.115 508.293 342.687 508.293C342.374 508.293 342.115 508.241 341.909 508.137C341.703 508.033 341.537 507.907 341.412 507.76C341.289 507.611 341.193 507.47 341.124 507.338H341.071V510.243H339.786ZM341.046 505.47C341.046 505.823 341.096 506.132 341.195 506.397C341.297 506.662 341.443 506.869 341.632 507.018C341.824 507.165 342.056 507.238 342.328 507.238C342.612 507.238 342.85 507.163 343.042 507.011C343.234 506.857 343.378 506.648 343.475 506.383C343.575 506.115 343.624 505.811 343.624 505.47C343.624 505.131 343.576 504.831 343.479 504.568C343.382 504.305 343.237 504.099 343.045 503.95C342.854 503.801 342.615 503.726 342.328 503.726C342.054 503.726 341.82 503.799 341.629 503.943C341.437 504.087 341.291 504.29 341.192 504.55C341.095 504.811 341.046 505.117 341.046 505.47ZM348.882 502.743L349.982 504.756L351.101 502.743H352.461L350.817 505.47L352.49 508.197H351.137L349.982 506.233L348.839 508.197H347.475L349.137 505.47L347.518 502.743H348.882Z" fill="white"/>
<defs>
<linearGradient id="paint0_linear_108_302" x1="110.271" y1="90.5927" x2="328.469" y2="388.983" gradientUnits="userSpaceOnUse">
<stop stop-opacity="0"/>
<stop offset="1"/>
</linearGradient>
</defs>
</svg>
