<svg width="137" height="67" viewBox="0 0 137 67" fill="none" xmlns="http://www.w3.org/2000/svg">
<rect y="1" width="136" height="66" rx="16" fill="url(#paint0_linear_2291_70)"/>
<path d="M28.7226 41.5957V24.8684H39.6019V27.4086H31.7528V31.9498H39.0383V34.4899H31.7528V39.0556H39.6672V41.5957H28.7226ZM45.5193 34.2449V41.5957H42.5626V29.0502H45.3886V31.182H45.5356C45.8242 30.4796 46.2843 29.9215 46.916 29.5076C47.553 29.0938 48.3399 28.8869 49.2764 28.8869C50.1422 28.8869 50.8963 29.072 51.5388 29.4423C52.1868 29.8126 52.6878 30.3489 53.0417 31.0513C53.4011 31.7537 53.578 32.6059 53.5726 33.6078V41.5957H50.6159V34.0652C50.6159 33.2266 50.3981 32.5705 49.9625 32.0968C49.5323 31.623 48.9361 31.3862 48.1738 31.3862C47.6565 31.3862 47.1964 31.5005 46.7935 31.7292C46.396 31.9525 46.0829 32.2765 45.8542 32.7012C45.6309 33.1259 45.5193 33.6404 45.5193 34.2449ZM62.0342 46.5616C60.9724 46.5616 60.0604 46.4173 59.2981 46.1287C58.5358 45.8456 57.9232 45.4644 57.4604 44.9853C56.9975 44.5061 56.6763 43.9752 56.4966 43.3926L59.1592 42.7473C59.279 42.9924 59.4533 43.2347 59.682 43.4743C59.9106 43.7193 60.2183 43.9208 60.6049 44.0787C60.9969 44.242 61.4897 44.3237 62.0832 44.3237C62.9218 44.3237 63.616 44.1195 64.166 43.7111C64.7159 43.3082 64.9909 42.6439 64.9909 41.7182V39.3414H64.8439C64.6914 39.6464 64.4682 39.9595 64.1741 40.2807C63.8856 40.602 63.5017 40.8715 63.0225 41.0893C62.5488 41.3071 61.9525 41.416 61.2338 41.416C60.27 41.416 59.3961 41.19 58.612 40.7381C57.8333 40.2807 57.2126 39.6001 56.7498 38.6962C56.2924 37.7869 56.0637 36.6489 56.0637 35.2821C56.0637 33.9045 56.2924 32.742 56.7498 31.7946C57.2126 30.8417 57.8361 30.1202 58.6202 29.6301C59.4043 29.1346 60.2782 28.8869 61.242 28.8869C61.9771 28.8869 62.5815 29.0121 63.0552 29.2626C63.5343 29.5076 63.9155 29.8044 64.1986 30.1529C64.4818 30.4959 64.6969 30.8199 64.8439 31.1248H65.0072V29.0502H67.9231V41.7999C67.9231 42.8726 67.6672 43.7601 67.1553 44.4625C66.6435 45.165 65.9438 45.6904 65.0562 46.0389C64.1687 46.3874 63.1614 46.5616 62.0342 46.5616ZM62.0587 39.0964C62.6849 39.0964 63.2185 38.944 63.6596 38.639C64.1006 38.3341 64.4355 37.8958 64.6642 37.324C64.8929 36.7523 65.0072 36.0662 65.0072 35.2658C65.0072 34.4763 64.8929 33.7847 64.6642 33.1912C64.4409 32.5977 64.1088 32.1376 63.6677 31.8109C63.2321 31.4788 62.6958 31.3127 62.0587 31.3127C61.3999 31.3127 60.8499 31.4842 60.4089 31.8272C59.9678 32.1703 59.6357 32.6413 59.4124 33.2402C59.1892 33.8337 59.0775 34.5089 59.0775 35.2658C59.0775 36.0336 59.1892 36.706 59.4124 37.2832C59.6411 37.8549 59.976 38.3014 60.417 38.6227C60.8635 38.9385 61.4108 39.0964 62.0587 39.0964ZM73.9099 24.8684V41.5957H70.9533V24.8684H73.9099ZM76.9503 41.5957V29.0502H79.907V41.5957H76.9503ZM78.4368 27.2697C77.9686 27.2697 77.5656 27.1145 77.228 26.8042C76.8904 26.4883 76.7216 26.1099 76.7216 25.6689C76.7216 25.2224 76.8904 24.8439 77.228 24.5336C77.5656 24.2177 77.9686 24.0598 78.4368 24.0598C78.9106 24.0598 79.3135 24.2177 79.6456 24.5336C79.9832 24.8439 80.152 25.2224 80.152 25.6689C80.152 26.1099 79.9832 26.4883 79.6456 26.8042C79.3135 27.1145 78.9106 27.2697 78.4368 27.2697ZM92.8629 32.3663L90.1676 32.6603C90.0913 32.3881 89.9579 32.1322 89.7674 31.8926C89.5822 31.653 89.3318 31.4597 89.0159 31.3127C88.7001 31.1657 88.3135 31.0922 87.8561 31.0922C87.2408 31.0922 86.7236 31.2256 86.3043 31.4924C85.8905 31.7592 85.6863 32.1049 85.6917 32.5297C85.6863 32.8945 85.8197 33.1912 86.0919 33.4199C86.3696 33.6486 86.827 33.8365 87.4641 33.9835L89.604 34.4409C90.791 34.6968 91.6731 35.1024 92.2503 35.6578C92.8329 36.2132 93.127 36.9402 93.1324 37.8386C93.127 38.6281 92.8956 39.3251 92.4382 39.9295C91.9862 40.5285 91.3573 40.9967 90.5514 41.3343C89.7456 41.6719 88.8199 41.8407 87.7745 41.8407C86.2389 41.8407 85.0029 41.5195 84.0664 40.877C83.1298 40.229 82.5717 39.3278 82.392 38.1735L85.2752 37.8958C85.4059 38.4621 85.6835 38.8895 86.1083 39.1781C86.533 39.4667 87.0857 39.611 87.7663 39.611C88.4687 39.611 89.0323 39.4667 89.457 39.1781C89.8871 38.8895 90.1022 38.5328 90.1022 38.1081C90.1022 37.7488 89.9634 37.452 89.6857 37.2179C89.4134 36.9837 88.9887 36.804 88.4115 36.6788L86.2716 36.2296C85.0683 35.9791 84.178 35.5571 83.6008 34.9636C83.0236 34.3646 82.7378 33.6078 82.7432 32.693C82.7378 31.9198 82.9474 31.2501 83.3721 30.6838C83.8023 30.112 84.3985 29.671 85.1608 29.3606C85.9286 29.0448 86.8134 28.8869 87.8153 28.8869C89.2855 28.8869 90.4425 29.2 91.2865 29.8262C92.136 30.4524 92.6614 31.2991 92.8629 32.3663ZM98.5271 34.2449V41.5957H95.5704V24.8684H98.4618V31.182H98.6088C98.9028 30.4741 99.3575 29.916 99.9728 29.5076C100.594 29.0938 101.383 28.8869 102.341 28.8869C103.213 28.8869 103.972 29.0693 104.62 29.4341C105.268 29.7989 105.769 30.3326 106.123 31.035C106.482 31.7374 106.662 32.595 106.662 33.6078V41.5957H103.705V34.0652C103.705 33.2212 103.488 32.565 103.052 32.0968C102.622 31.623 102.017 31.3862 101.239 31.3862C100.716 31.3862 100.248 31.5005 99.8339 31.7292C99.4256 31.9525 99.1043 32.2765 98.8702 32.7012C98.6415 33.1259 98.5271 33.6404 98.5271 34.2449Z" fill="white"/>
<defs>
<linearGradient id="paint0_linear_2291_70" x1="0" y1="1" x2="136" y2="67" gradientUnits="userSpaceOnUse">
<stop stop-color="#007BFF"/>
<stop offset="1" stop-color="#FFEB3B"/>
</linearGradient>
</defs>
</svg>
