<svg width="137" height="67" viewBox="0 0 137 67" fill="none" xmlns="http://www.w3.org/2000/svg">
<path fill-rule="evenodd" clip-rule="evenodd" d="M120.699 2.73047H16.5535C8.82148 2.73047 2.55347 8.99848 2.55347 16.7305V50.4609C2.55347 58.1929 8.82148 64.4609 16.5535 64.4609H120.699C128.431 64.4609 134.699 58.1929 134.699 50.4609V16.7305C134.699 8.99848 128.431 2.73047 120.699 2.73047ZM16.5535 0.730469C7.71691 0.730469 0.553467 7.89391 0.553467 16.7305V50.4609C0.553467 59.2975 7.71691 66.4609 16.5535 66.4609H120.699C129.536 66.4609 136.699 59.2975 136.699 50.4609V16.7305C136.699 7.89391 129.536 0.730469 120.699 0.730469H16.5535Z" fill="url(#paint0_linear_2242_793)"/>
<path d="M29.2761 41.5957V24.8684H40.1553V27.4086H32.3063V31.9498H39.5918V34.4899H32.3063V39.0556H40.2207V41.5957H29.2761ZM46.0728 34.2449V41.5957H43.1161V29.0502H45.9421V31.182H46.0891C46.3777 30.4796 46.8378 29.9215 47.4694 29.5076C48.1065 29.0938 48.8933 28.8869 49.8299 28.8869C50.6956 28.8869 51.4498 29.072 52.0923 29.4423C52.7403 29.8126 53.2412 30.3489 53.5951 31.0513C53.9545 31.7537 54.1315 32.6059 54.126 33.6078V41.5957H51.1694V34.0652C51.1694 33.2266 50.9516 32.5705 50.516 32.0968C50.0858 31.623 49.4896 31.3862 48.7273 31.3862C48.21 31.3862 47.7499 31.5005 47.3469 31.7292C46.9494 31.9525 46.6363 32.2765 46.4076 32.7012C46.1844 33.1259 46.0728 33.6404 46.0728 34.2449ZM62.5877 46.5616C61.5259 46.5616 60.6139 46.4173 59.8515 46.1287C59.0892 45.8456 58.4767 45.4644 58.0138 44.9853C57.551 44.5061 57.2297 43.9752 57.05 43.3926L59.7127 42.7473C59.8325 42.9924 60.0067 43.2347 60.2354 43.4743C60.4641 43.7193 60.7718 43.9208 61.1584 44.0787C61.5504 44.242 62.0432 44.3237 62.6367 44.3237C63.4752 44.3237 64.1695 44.1195 64.7194 43.7111C65.2694 43.3082 65.5444 42.6439 65.5444 41.7182V39.3414H65.3974C65.2449 39.6464 65.0216 39.9595 64.7276 40.2807C64.439 40.602 64.0551 40.8715 63.576 41.0893C63.1023 41.3071 62.506 41.416 61.7873 41.416C60.8235 41.416 59.9496 41.19 59.1655 40.7381C58.3868 40.2807 57.7661 39.6001 57.3032 38.6962C56.8459 37.7869 56.6172 36.6489 56.6172 35.2821C56.6172 33.9045 56.8459 32.742 57.3032 31.7946C57.7661 30.8417 58.3895 30.1202 59.1736 29.6301C59.9577 29.1346 60.8317 28.8869 61.7954 28.8869C62.5305 28.8869 63.1349 29.0121 63.6086 29.2626C64.0878 29.5076 64.469 29.8044 64.7521 30.1529C65.0353 30.4959 65.2503 30.8199 65.3974 31.1248H65.5607V29.0502H68.4765V41.7999C68.4765 42.8726 68.2206 43.7601 67.7088 44.4625C67.1969 45.165 66.4973 45.6904 65.6097 46.0389C64.7222 46.3874 63.7148 46.5616 62.5877 46.5616ZM62.6122 39.0964C63.2384 39.0964 63.772 38.944 64.213 38.639C64.6541 38.3341 64.989 37.8958 65.2177 37.324C65.4464 36.7523 65.5607 36.0662 65.5607 35.2658C65.5607 34.4763 65.4464 33.7847 65.2177 33.1912C64.9944 32.5977 64.6623 32.1376 64.2212 31.8109C63.7856 31.4788 63.2493 31.3127 62.6122 31.3127C61.9533 31.3127 61.4034 31.4842 60.9623 31.8272C60.5213 32.1703 60.1891 32.6413 59.9659 33.2402C59.7426 33.8337 59.631 34.5089 59.631 35.2658C59.631 36.0336 59.7426 36.706 59.9659 37.2832C60.1946 37.8549 60.5295 38.3014 60.9705 38.6227C61.417 38.9385 61.9642 39.0964 62.6122 39.0964ZM74.4634 24.8684V41.5957H71.5067V24.8684H74.4634ZM77.5038 41.5957V29.0502H80.4605V41.5957H77.5038ZM78.9903 27.2697C78.522 27.2697 78.1191 27.1145 77.7815 26.8042C77.4439 26.4883 77.2751 26.1099 77.2751 25.6689C77.2751 25.2224 77.4439 24.8439 77.7815 24.5336C78.1191 24.2177 78.522 24.0598 78.9903 24.0598C79.464 24.0598 79.867 24.2177 80.1991 24.5336C80.5367 24.8439 80.7055 25.2224 80.7055 25.6689C80.7055 26.1099 80.5367 26.4883 80.1991 26.8042C79.867 27.1145 79.464 27.2697 78.9903 27.2697ZM93.4163 32.3663L90.721 32.6603C90.6448 32.3881 90.5114 32.1322 90.3208 31.8926C90.1357 31.653 89.8852 31.4597 89.5694 31.3127C89.2536 31.1657 88.867 31.0922 88.4096 31.0922C87.7943 31.0922 87.277 31.2256 86.8578 31.4924C86.4439 31.7592 86.2397 32.1049 86.2452 32.5297C86.2397 32.8945 86.3731 33.1912 86.6454 33.4199C86.9231 33.6486 87.3805 33.8365 88.0176 33.9835L90.1575 34.4409C91.3445 34.6968 92.2266 35.1024 92.8038 35.6578C93.3864 36.2132 93.6804 36.9402 93.6859 37.8386C93.6804 38.6281 93.449 39.3251 92.9916 39.9295C92.5397 40.5285 91.9108 40.9967 91.1049 41.3343C90.299 41.6719 89.3734 41.8407 88.3279 41.8407C86.7924 41.8407 85.5564 41.5195 84.6198 40.877C83.6833 40.229 83.1252 39.3278 82.9455 38.1735L85.8286 37.8958C85.9593 38.4621 86.237 38.8895 86.6617 39.1781C87.0864 39.4667 87.6391 39.611 88.3198 39.611C89.0222 39.611 89.5857 39.4667 90.0105 39.1781C90.4406 38.8895 90.6557 38.5328 90.6557 38.1081C90.6557 37.7488 90.5168 37.452 90.2391 37.2179C89.9669 36.9837 89.5422 36.804 88.965 36.6788L86.8251 36.2296C85.6217 35.9791 84.7315 35.5571 84.1543 34.9636C83.5771 34.3646 83.2912 33.6078 83.2967 32.693C83.2912 31.9198 83.5009 31.2501 83.9256 30.6838C84.3557 30.112 84.952 29.671 85.7143 29.3606C86.482 29.0448 87.3669 28.8869 88.3688 28.8869C89.8389 28.8869 90.996 29.2 91.84 29.8262C92.6894 30.4524 93.2149 31.2991 93.4163 32.3663ZM99.0806 34.2449V41.5957H96.1239V24.8684H99.0152V31.182H99.1623C99.4563 30.4741 99.911 29.916 100.526 29.5076C101.147 29.0938 101.937 28.8869 102.895 28.8869C103.766 28.8869 104.526 29.0693 105.174 29.4341C105.822 29.7989 106.323 30.3326 106.676 31.035C107.036 31.7374 107.216 32.595 107.216 33.6078V41.5957H104.259V34.0652C104.259 33.2212 104.041 32.565 103.605 32.0968C103.175 31.623 102.571 31.3862 101.792 31.3862C101.27 31.3862 100.801 31.5005 100.387 31.7292C99.979 31.9525 99.6578 32.2765 99.4236 32.7012C99.1949 33.1259 99.0806 33.6404 99.0806 34.2449Z" fill="white"/>
<path d="M29.2761 41.5957V24.8684H40.1553V27.4086H32.3063V31.9498H39.5918V34.4899H32.3063V39.0556H40.2207V41.5957H29.2761ZM46.0728 34.2449V41.5957H43.1161V29.0502H45.9421V31.182H46.0891C46.3777 30.4796 46.8378 29.9215 47.4694 29.5076C48.1065 29.0938 48.8933 28.8869 49.8299 28.8869C50.6956 28.8869 51.4498 29.072 52.0923 29.4423C52.7403 29.8126 53.2412 30.3489 53.5951 31.0513C53.9545 31.7537 54.1315 32.6059 54.126 33.6078V41.5957H51.1694V34.0652C51.1694 33.2266 50.9516 32.5705 50.516 32.0968C50.0858 31.623 49.4896 31.3862 48.7273 31.3862C48.21 31.3862 47.7499 31.5005 47.3469 31.7292C46.9494 31.9525 46.6363 32.2765 46.4076 32.7012C46.1844 33.1259 46.0728 33.6404 46.0728 34.2449ZM62.5877 46.5616C61.5259 46.5616 60.6139 46.4173 59.8515 46.1287C59.0892 45.8456 58.4767 45.4644 58.0138 44.9853C57.551 44.5061 57.2297 43.9752 57.05 43.3926L59.7127 42.7473C59.8325 42.9924 60.0067 43.2347 60.2354 43.4743C60.4641 43.7193 60.7718 43.9208 61.1584 44.0787C61.5504 44.242 62.0432 44.3237 62.6367 44.3237C63.4752 44.3237 64.1695 44.1195 64.7194 43.7111C65.2694 43.3082 65.5444 42.6439 65.5444 41.7182V39.3414H65.3974C65.2449 39.6464 65.0216 39.9595 64.7276 40.2807C64.439 40.602 64.0551 40.8715 63.576 41.0893C63.1023 41.3071 62.506 41.416 61.7873 41.416C60.8235 41.416 59.9496 41.19 59.1655 40.7381C58.3868 40.2807 57.7661 39.6001 57.3032 38.6962C56.8459 37.7869 56.6172 36.6489 56.6172 35.2821C56.6172 33.9045 56.8459 32.742 57.3032 31.7946C57.7661 30.8417 58.3895 30.1202 59.1736 29.6301C59.9577 29.1346 60.8317 28.8869 61.7954 28.8869C62.5305 28.8869 63.1349 29.0121 63.6086 29.2626C64.0878 29.5076 64.469 29.8044 64.7521 30.1529C65.0353 30.4959 65.2503 30.8199 65.3974 31.1248H65.5607V29.0502H68.4765V41.7999C68.4765 42.8726 68.2206 43.7601 67.7088 44.4625C67.1969 45.165 66.4973 45.6904 65.6097 46.0389C64.7222 46.3874 63.7148 46.5616 62.5877 46.5616ZM62.6122 39.0964C63.2384 39.0964 63.772 38.944 64.213 38.639C64.6541 38.3341 64.989 37.8958 65.2177 37.324C65.4464 36.7523 65.5607 36.0662 65.5607 35.2658C65.5607 34.4763 65.4464 33.7847 65.2177 33.1912C64.9944 32.5977 64.6623 32.1376 64.2212 31.8109C63.7856 31.4788 63.2493 31.3127 62.6122 31.3127C61.9533 31.3127 61.4034 31.4842 60.9623 31.8272C60.5213 32.1703 60.1891 32.6413 59.9659 33.2402C59.7426 33.8337 59.631 34.5089 59.631 35.2658C59.631 36.0336 59.7426 36.706 59.9659 37.2832C60.1946 37.8549 60.5295 38.3014 60.9705 38.6227C61.417 38.9385 61.9642 39.0964 62.6122 39.0964ZM74.4634 24.8684V41.5957H71.5067V24.8684H74.4634ZM77.5038 41.5957V29.0502H80.4605V41.5957H77.5038ZM78.9903 27.2697C78.522 27.2697 78.1191 27.1145 77.7815 26.8042C77.4439 26.4883 77.2751 26.1099 77.2751 25.6689C77.2751 25.2224 77.4439 24.8439 77.7815 24.5336C78.1191 24.2177 78.522 24.0598 78.9903 24.0598C79.464 24.0598 79.867 24.2177 80.1991 24.5336C80.5367 24.8439 80.7055 25.2224 80.7055 25.6689C80.7055 26.1099 80.5367 26.4883 80.1991 26.8042C79.867 27.1145 79.464 27.2697 78.9903 27.2697ZM93.4163 32.3663L90.721 32.6603C90.6448 32.3881 90.5114 32.1322 90.3208 31.8926C90.1357 31.653 89.8852 31.4597 89.5694 31.3127C89.2536 31.1657 88.867 31.0922 88.4096 31.0922C87.7943 31.0922 87.277 31.2256 86.8578 31.4924C86.4439 31.7592 86.2397 32.1049 86.2452 32.5297C86.2397 32.8945 86.3731 33.1912 86.6454 33.4199C86.9231 33.6486 87.3805 33.8365 88.0176 33.9835L90.1575 34.4409C91.3445 34.6968 92.2266 35.1024 92.8038 35.6578C93.3864 36.2132 93.6804 36.9402 93.6859 37.8386C93.6804 38.6281 93.449 39.3251 92.9916 39.9295C92.5397 40.5285 91.9108 40.9967 91.1049 41.3343C90.299 41.6719 89.3734 41.8407 88.3279 41.8407C86.7924 41.8407 85.5564 41.5195 84.6198 40.877C83.6833 40.229 83.1252 39.3278 82.9455 38.1735L85.8286 37.8958C85.9593 38.4621 86.237 38.8895 86.6617 39.1781C87.0864 39.4667 87.6391 39.611 88.3198 39.611C89.0222 39.611 89.5857 39.4667 90.0105 39.1781C90.4406 38.8895 90.6557 38.5328 90.6557 38.1081C90.6557 37.7488 90.5168 37.452 90.2391 37.2179C89.9669 36.9837 89.5422 36.804 88.965 36.6788L86.8251 36.2296C85.6217 35.9791 84.7315 35.5571 84.1543 34.9636C83.5771 34.3646 83.2912 33.6078 83.2967 32.693C83.2912 31.9198 83.5009 31.2501 83.9256 30.6838C84.3557 30.112 84.952 29.671 85.7143 29.3606C86.482 29.0448 87.3669 28.8869 88.3688 28.8869C89.8389 28.8869 90.996 29.2 91.84 29.8262C92.6894 30.4524 93.2149 31.2991 93.4163 32.3663ZM99.0806 34.2449V41.5957H96.1239V24.8684H99.0152V31.182H99.1623C99.4563 30.4741 99.911 29.916 100.526 29.5076C101.147 29.0938 101.937 28.8869 102.895 28.8869C103.766 28.8869 104.526 29.0693 105.174 29.4341C105.822 29.7989 106.323 30.3326 106.676 31.035C107.036 31.7374 107.216 32.595 107.216 33.6078V41.5957H104.259V34.0652C104.259 33.2212 104.041 32.565 103.605 32.0968C103.175 31.623 102.571 31.3862 101.792 31.3862C101.27 31.3862 100.801 31.5005 100.387 31.7292C99.979 31.9525 99.6578 32.2765 99.4236 32.7012C99.1949 33.1259 99.0806 33.6404 99.0806 34.2449Z" fill="url(#paint1_linear_2242_793)"/>
<defs>
<linearGradient id="paint0_linear_2242_793" x1="8.69219" y1="8.96727" x2="68.3871" y2="89.2828" gradientUnits="userSpaceOnUse">
<stop stop-color="#007BFF"/>
<stop offset="1" stop-color="#FFEB3B"/>
</linearGradient>
<linearGradient id="paint1_linear_2242_793" x1="32.5281" y1="23.1044" x2="54.4035" y2="64.7182" gradientUnits="userSpaceOnUse">
<stop stop-color="#007BFF"/>
<stop offset="1" stop-color="#FFEB3B"/>
</linearGradient>
</defs>
</svg>
