<svg width="205" height="62" viewBox="0 0 205 62" fill="none" xmlns="http://www.w3.org/2000/svg">
<path fill-rule="evenodd" clip-rule="evenodd" d="M188.387 2.12891H16.3281C8.59614 2.12891 2.32812 8.39692 2.32812 16.1289V45.1465C2.32812 52.8785 8.59615 59.1465 16.3281 59.1465H188.387C196.119 59.1465 202.387 52.8785 202.387 45.1465V16.1289C202.387 8.39692 196.119 2.12891 188.387 2.12891ZM16.3281 0.128906C7.49157 0.128906 0.328125 7.29235 0.328125 16.1289V45.1465C0.328125 53.983 7.49159 61.1465 16.3281 61.1465H188.387C197.224 61.1465 204.387 53.983 204.387 45.1465V16.1289C204.387 7.29235 197.223 0.128906 188.387 0.128906H16.3281Z" fill="url(#paint0_linear_153_1534)"/>
<path d="M156.635 44.0494V26.0494H158.578V28.1289H158.817C158.964 27.9016 159.169 27.6119 159.43 27.2596C159.697 26.9016 160.078 26.5835 160.572 26.305C161.072 26.021 161.748 25.8789 162.601 25.8789C163.703 25.8789 164.675 26.1545 165.515 26.7056C166.356 27.2567 167.013 28.038 167.484 29.0494C167.956 30.0607 168.192 31.2539 168.192 32.6289C168.192 34.0153 167.956 35.217 167.484 36.234C167.013 37.2454 166.359 38.0295 165.524 38.5863C164.689 39.1374 163.726 39.413 162.635 39.413C161.794 39.413 161.121 39.2738 160.615 38.9954C160.109 38.7113 159.72 38.3903 159.447 38.0323C159.175 37.6687 158.964 37.3675 158.817 37.1289H158.646V44.0494H156.635ZM158.612 32.5948C158.612 33.5835 158.757 34.4556 159.047 35.2113C159.336 35.9613 159.76 36.5494 160.317 36.9755C160.873 37.396 161.555 37.6062 162.362 37.6062C163.203 37.6062 163.905 37.3846 164.467 36.9414C165.035 36.4925 165.461 35.8903 165.746 35.1346C166.035 34.3732 166.18 33.5266 166.18 32.5948C166.18 31.6744 166.038 30.8448 165.754 30.1062C165.476 29.3619 165.052 28.7738 164.484 28.342C163.922 27.9045 163.214 27.6857 162.362 27.6857C161.544 27.6857 160.856 27.8931 160.3 28.3079C159.743 28.717 159.322 29.2908 159.038 30.0295C158.754 30.7624 158.612 31.6175 158.612 32.5948Z" fill="white"/>
<path d="M145.233 39.413C144.051 39.413 143.014 39.1317 142.122 38.5692C141.235 38.0067 140.542 37.2198 140.042 36.2085C139.548 35.1971 139.301 34.0153 139.301 32.663C139.301 31.2994 139.548 30.109 140.042 29.092C140.542 28.0749 141.235 27.2852 142.122 26.7227C143.014 26.1602 144.051 25.8789 145.233 25.8789C146.414 25.8789 147.449 26.1602 148.335 26.7227C149.227 27.2852 149.92 28.0749 150.414 29.092C150.914 30.109 151.164 31.2994 151.164 32.663C151.164 34.0153 150.914 35.1971 150.414 36.2085C149.92 37.2198 149.227 38.0067 148.335 38.5692C147.449 39.1317 146.414 39.413 145.233 39.413ZM145.233 37.6062C146.13 37.6062 146.869 37.3761 147.449 36.9158C148.028 36.4556 148.457 35.8505 148.735 35.1005C149.014 34.3505 149.153 33.538 149.153 32.663C149.153 31.788 149.014 30.9727 148.735 30.217C148.457 29.4613 148.028 28.8505 147.449 28.3846C146.869 27.9187 146.13 27.6857 145.233 27.6857C144.335 27.6857 143.596 27.9187 143.017 28.3846C142.437 28.8505 142.008 29.4613 141.73 30.217C141.451 30.9727 141.312 31.788 141.312 32.663C141.312 33.538 141.451 34.3505 141.73 35.1005C142.008 35.8505 142.437 36.4556 143.017 36.9158C143.596 37.3761 144.335 37.6062 145.233 37.6062Z" fill="white"/>
<path d="M123.332 23.561V21.686H136.423V23.561H130.934V39.1406H128.821V23.561H123.332Z" fill="white"/>
<path d="M103.462 39.413C102.28 39.413 101.243 39.1317 100.351 38.5692C99.4649 38.0067 98.7718 37.2198 98.2718 36.2085C97.7774 35.1971 97.5303 34.0153 97.5303 32.663C97.5303 31.2994 97.7774 30.109 98.2718 29.092C98.7718 28.0749 99.4649 27.2852 100.351 26.7227C101.243 26.1602 102.28 25.8789 103.462 25.8789C104.644 25.8789 105.678 26.1602 106.564 26.7227C107.456 27.2852 108.15 28.0749 108.644 29.092C109.144 30.109 109.394 31.2994 109.394 32.663C109.394 34.0153 109.144 35.1971 108.644 36.2085C108.15 37.2198 107.456 38.0067 106.564 38.5692C105.678 39.1317 104.644 39.413 103.462 39.413ZM103.462 37.6062C104.36 37.6062 105.098 37.3761 105.678 36.9158C106.258 36.4556 106.687 35.8505 106.965 35.1005C107.243 34.3505 107.383 33.538 107.383 32.663C107.383 31.788 107.243 30.9727 106.965 30.217C106.687 29.4613 106.258 28.8505 105.678 28.3846C105.098 27.9187 104.36 27.6857 103.462 27.6857C102.564 27.6857 101.826 27.9187 101.246 28.3846C100.667 28.8505 100.238 29.4613 99.9593 30.217C99.6808 30.9727 99.5416 31.788 99.5416 32.663C99.5416 33.538 99.6808 34.3505 99.9593 35.1005C100.238 35.8505 100.667 36.4556 101.246 36.9158C101.826 37.3761 102.564 37.6062 103.462 37.6062Z" fill="white"/>
<path d="M81.5625 23.561V21.686H94.6534V23.561H89.1648V39.1406H87.0511V23.561H81.5625Z" fill="white"/>
<path d="M61.6916 39.413C60.5098 39.413 59.4728 39.1317 58.5808 38.5692C57.6944 38.0067 57.0012 37.2198 56.5012 36.2085C56.0069 35.1971 55.7598 34.0153 55.7598 32.663C55.7598 31.2994 56.0069 30.109 56.5012 29.092C57.0012 28.0749 57.6944 27.2852 58.5808 26.7227C59.4728 26.1602 60.5098 25.8789 61.6916 25.8789C62.8734 25.8789 63.9075 26.1602 64.7939 26.7227C65.6859 27.2852 66.3791 28.0749 66.8734 29.092C67.3734 30.109 67.6234 31.2994 67.6234 32.663C67.6234 34.0153 67.3734 35.1971 66.8734 36.2085C66.3791 37.2198 65.6859 38.0067 64.7939 38.5692C63.9075 39.1317 62.8734 39.413 61.6916 39.413ZM61.6916 37.6062C62.5893 37.6062 63.3279 37.3761 63.9075 36.9158C64.487 36.4556 64.916 35.8505 65.1944 35.1005C65.4728 34.3505 65.612 33.538 65.612 32.663C65.612 31.788 65.4728 30.9727 65.1944 30.217C64.916 29.4613 64.487 28.8505 63.9075 28.3846C63.3279 27.9187 62.5893 27.6857 61.6916 27.6857C60.7939 27.6857 60.0552 27.9187 59.4757 28.3846C58.8961 28.8505 58.4672 29.4613 58.1887 30.217C57.9103 30.9727 57.7711 31.788 57.7711 32.663C57.7711 33.538 57.9103 34.3505 58.1887 35.1005C58.4672 35.8505 58.8961 36.4556 59.4757 36.9158C60.0552 37.3761 60.7939 37.6062 61.6916 37.6062Z" fill="white"/>
<path d="M48.3422 27.1404C48.1547 26.5666 47.9075 26.0524 47.6007 25.5978C47.2995 25.1376 46.9387 24.7456 46.5183 24.4217C46.1035 24.0978 45.6319 23.8507 45.1035 23.6802C44.5751 23.5098 43.9956 23.4245 43.3649 23.4245C42.3308 23.4245 41.3904 23.6916 40.5439 24.2257C39.6973 24.7598 39.024 25.5467 38.524 26.5865C38.024 27.6262 37.774 28.9018 37.774 30.4132C37.774 31.9245 38.0268 33.2001 38.5325 34.2399C39.0382 35.2797 39.7228 36.0666 40.5865 36.6007C41.4501 37.1348 42.4217 37.4018 43.5012 37.4018C44.5012 37.4018 45.3819 37.1887 46.1433 36.7626C46.9103 36.3308 47.5069 35.7228 47.9331 34.9387C48.3649 34.149 48.5808 33.22 48.5808 32.1518L49.2285 32.2882H43.9785V30.4132H50.6262V32.2882C50.6262 33.7257 50.3194 34.9757 49.7058 36.0382C49.0978 37.1007 48.2569 37.9245 47.1831 38.5098C46.1149 39.0893 44.8876 39.3791 43.5012 39.3791C41.9558 39.3791 40.5978 39.0154 39.4274 38.2882C38.2626 37.5609 37.3535 36.5268 36.7001 35.1859C36.0524 33.845 35.7285 32.2541 35.7285 30.4132C35.7285 29.0325 35.9132 27.791 36.2825 26.6887C36.6575 25.5808 37.1859 24.6376 37.8677 23.8592C38.5495 23.0808 39.3564 22.4842 40.2882 22.0694C41.22 21.6547 42.2456 21.4473 43.3649 21.4473C44.2853 21.4473 45.1433 21.5865 45.9387 21.8649C46.7399 22.1376 47.4529 22.5268 48.0779 23.0325C48.7086 23.5325 49.2342 24.1319 49.6547 24.8308C50.0751 25.524 50.3649 26.2939 50.524 27.1404H48.3422Z" fill="white"/>
<defs>
<linearGradient id="paint0_linear_153_1534" x1="12.5267" y1="7.77513" x2="56.4913" y2="103.281" gradientUnits="userSpaceOnUse">
<stop stop-color="#007BFF"/>
<stop offset="1" stop-color="#FFEB3B"/>
</linearGradient>
</defs>
</svg>
