<svg width="205" height="62" viewBox="0 0 205 62" fill="none" xmlns="http://www.w3.org/2000/svg">
<path opacity="0.2" fill-rule="evenodd" clip-rule="evenodd" d="M188.386 2.12891H16.3276C8.59565 2.12891 2.32764 8.39692 2.32764 16.1289V45.1465C2.32764 52.8785 8.59566 59.1465 16.3277 59.1465H188.386C196.118 59.1465 202.386 52.8785 202.386 45.1465V16.1289C202.386 8.39692 196.118 2.12891 188.386 2.12891ZM16.3276 0.128906C7.49108 0.128906 0.327637 7.29235 0.327637 16.1289V45.1465C0.327637 53.983 7.4911 61.1465 16.3277 61.1465H188.386C197.223 61.1465 204.386 53.983 204.386 45.1465V16.1289C204.386 7.29235 197.223 0.128906 188.386 0.128906H16.3276Z" fill="url(#paint0_linear_2106_2267)"/>
<path d="M156.634 44.0533V26.0533H158.577V28.1328H158.816C158.963 27.9055 159.168 27.6158 159.429 27.2635C159.696 26.9055 160.077 26.5874 160.571 26.3089C161.071 26.0249 161.747 25.8828 162.6 25.8828C163.702 25.8828 164.674 26.1584 165.514 26.7095C166.355 27.2607 167.012 28.0419 167.483 29.0533C167.955 30.0646 168.191 31.2578 168.191 32.6328C168.191 34.0192 167.955 35.2209 167.483 36.2379C167.012 37.2493 166.358 38.0334 165.523 38.5902C164.688 39.1413 163.725 39.4169 162.634 39.4169C161.793 39.4169 161.12 39.2777 160.614 38.9993C160.108 38.7152 159.719 38.3942 159.446 38.0362C159.174 37.6726 158.963 37.3714 158.816 37.1328H158.645V44.0533H156.634ZM158.611 32.5987C158.611 33.5874 158.756 34.4595 159.046 35.2152C159.335 35.9652 159.759 36.5533 160.316 36.9794C160.872 37.3999 161.554 37.6101 162.361 37.6101C163.202 37.6101 163.904 37.3885 164.466 36.9453C165.034 36.4964 165.46 35.8942 165.745 35.1385C166.034 34.3771 166.179 33.5305 166.179 32.5987C166.179 31.6783 166.037 30.8487 165.753 30.1101C165.475 29.3658 165.051 28.7777 164.483 28.3459C163.921 27.9084 163.213 27.6896 162.361 27.6896C161.543 27.6896 160.855 27.897 160.299 28.3118C159.742 28.7209 159.321 29.2947 159.037 30.0334C158.753 30.7663 158.611 31.6214 158.611 32.5987Z" fill="#73768D"/>
<path d="M145.232 39.4169C144.05 39.4169 143.013 39.1357 142.121 38.5732C141.234 38.0107 140.541 37.2237 140.041 36.2124C139.547 35.201 139.3 34.0192 139.3 32.6669C139.3 31.3033 139.547 30.1129 140.041 29.0959C140.541 28.0788 141.234 27.2891 142.121 26.7266C143.013 26.1641 144.05 25.8828 145.232 25.8828C146.413 25.8828 147.448 26.1641 148.334 26.7266C149.226 27.2891 149.919 28.0788 150.413 29.0959C150.913 30.1129 151.163 31.3033 151.163 32.6669C151.163 34.0192 150.913 35.201 150.413 36.2124C149.919 37.2237 149.226 38.0107 148.334 38.5732C147.448 39.1357 146.413 39.4169 145.232 39.4169ZM145.232 37.6101C146.129 37.6101 146.868 37.38 147.448 36.9197C148.027 36.4595 148.456 35.8544 148.734 35.1044C149.013 34.3544 149.152 33.5419 149.152 32.6669C149.152 31.7919 149.013 30.9766 148.734 30.2209C148.456 29.4652 148.027 28.8544 147.448 28.3885C146.868 27.9226 146.129 27.6896 145.232 27.6896C144.334 27.6896 143.595 27.9226 143.016 28.3885C142.436 28.8544 142.007 29.4652 141.729 30.2209C141.45 30.9766 141.311 31.7919 141.311 32.6669C141.311 33.5419 141.45 34.3544 141.729 35.1044C142.007 35.8544 142.436 36.4595 143.016 36.9197C143.595 37.38 144.334 37.6101 145.232 37.6101Z" fill="#73768D"/>
<path d="M123.332 23.5625V21.6875H136.423V23.5625H130.934V39.142H128.82V23.5625H123.332Z" fill="#73768D"/>
<path d="M103.461 39.4169C102.28 39.4169 101.243 39.1357 100.351 38.5732C99.4642 38.0107 98.771 37.2237 98.271 36.2124C97.7767 35.201 97.5295 34.0192 97.5295 32.6669C97.5295 31.3033 97.7767 30.1129 98.271 29.0959C98.771 28.0788 99.4642 27.2891 100.351 26.7266C101.243 26.1641 102.28 25.8828 103.461 25.8828C104.643 25.8828 105.677 26.1641 106.564 26.7266C107.456 27.2891 108.149 28.0788 108.643 29.0959C109.143 30.1129 109.393 31.3033 109.393 32.6669C109.393 34.0192 109.143 35.201 108.643 36.2124C108.149 37.2237 107.456 38.0107 106.564 38.5732C105.677 39.1357 104.643 39.4169 103.461 39.4169ZM103.461 37.6101C104.359 37.6101 105.098 37.38 105.677 36.9197C106.257 36.4595 106.686 35.8544 106.964 35.1044C107.243 34.3544 107.382 33.5419 107.382 32.6669C107.382 31.7919 107.243 30.9766 106.964 30.2209C106.686 29.4652 106.257 28.8544 105.677 28.3885C105.098 27.9226 104.359 27.6896 103.461 27.6896C102.564 27.6896 101.825 27.9226 101.245 28.3885C100.666 28.8544 100.237 29.4652 99.9585 30.2209C99.6801 30.9766 99.5409 31.7919 99.5409 32.6669C99.5409 33.5419 99.6801 34.3544 99.9585 35.1044C100.237 35.8544 100.666 36.4595 101.245 36.9197C101.825 37.38 102.564 37.6101 103.461 37.6101Z" fill="#73768D"/>
<path d="M81.5613 23.5625V21.6875H94.6522V23.5625H89.1636V39.142H87.0499V23.5625H81.5613Z" fill="#73768D"/>
<path d="M61.691 39.4169C60.5092 39.4169 59.4722 39.1357 58.5802 38.5732C57.6938 38.0107 57.0006 37.2237 56.5006 36.2124C56.0063 35.201 55.7592 34.0192 55.7592 32.6669C55.7592 31.3033 56.0063 30.1129 56.5006 29.0959C57.0006 28.0788 57.6938 27.2891 58.5802 26.7266C59.4722 26.1641 60.5092 25.8828 61.691 25.8828C62.8728 25.8828 63.9069 26.1641 64.7932 26.7266C65.6853 27.2891 66.3785 28.0788 66.8728 29.0959C67.3728 30.1129 67.6228 31.3033 67.6228 32.6669C67.6228 34.0192 67.3728 35.201 66.8728 36.2124C66.3785 37.2237 65.6853 38.0107 64.7932 38.5732C63.9069 39.1357 62.8728 39.4169 61.691 39.4169ZM61.691 37.6101C62.5887 37.6101 63.3273 37.38 63.9069 36.9197C64.4864 36.4595 64.9154 35.8544 65.1938 35.1044C65.4722 34.3544 65.6114 33.5419 65.6114 32.6669C65.6114 31.7919 65.4722 30.9766 65.1938 30.2209C64.9154 29.4652 64.4864 28.8544 63.9069 28.3885C63.3273 27.9226 62.5887 27.6896 61.691 27.6896C60.7932 27.6896 60.0546 27.9226 59.4751 28.3885C58.8955 28.8544 58.4665 29.4652 58.1881 30.2209C57.9097 30.9766 57.7705 31.7919 57.7705 32.6669C57.7705 33.5419 57.9097 34.3544 58.1881 35.1044C58.4665 35.8544 58.8955 36.4595 59.4751 36.9197C60.0546 37.38 60.7932 37.6101 61.691 37.6101Z" fill="#73768D"/>
<path d="M48.3414 27.1424C48.1539 26.5685 47.9068 26.0543 47.5999 25.5998C47.2988 25.1396 46.938 24.7475 46.5176 24.4237C46.1028 24.0998 45.6312 23.8526 45.1028 23.6822C44.5744 23.5117 43.9948 23.4265 43.3641 23.4265C42.3301 23.4265 41.3897 23.6935 40.5431 24.2276C39.6965 24.7617 39.0232 25.5487 38.5232 26.5884C38.0232 27.6282 37.7732 28.9038 37.7732 30.4151C37.7732 31.9265 38.0261 33.2021 38.5318 34.2418C39.0374 35.2816 39.7221 36.0685 40.5857 36.6026C41.4494 37.1367 42.421 37.4038 43.5005 37.4038C44.5005 37.4038 45.3812 37.1907 46.1426 36.7646C46.9096 36.3327 47.5062 35.7248 47.9323 34.9407C48.3641 34.1509 48.5801 33.2219 48.5801 32.1538L49.2278 32.2901H43.9778V30.4151H50.6255V32.2901C50.6255 33.7276 50.3187 34.9776 49.7051 36.0401C49.0971 37.1026 48.2562 37.9265 47.1823 38.5117C46.1141 39.0913 44.8869 39.381 43.5005 39.381C41.9551 39.381 40.5971 39.0174 39.4266 38.2901C38.2619 37.5629 37.3528 36.5288 36.6994 35.1879C36.0516 33.8469 35.7278 32.256 35.7278 30.4151C35.7278 29.0344 35.9124 27.793 36.2818 26.6907C36.6568 25.5827 37.1852 24.6396 37.867 23.8612C38.5488 23.0827 39.3556 22.4862 40.2874 22.0714C41.2193 21.6566 42.2448 21.4492 43.3641 21.4492C44.2846 21.4492 45.1426 21.5884 45.938 21.8668C46.7391 22.1396 47.4522 22.5288 48.0772 23.0344C48.7079 23.5344 49.2335 24.1339 49.6539 24.8327C50.0744 25.5259 50.3641 26.2958 50.5232 27.1424H48.3414Z" fill="#73768D"/>
<defs>
<linearGradient id="paint0_linear_2106_2267" x1="12.5262" y1="7.77513" x2="56.4908" y2="103.281" gradientUnits="userSpaceOnUse">
<stop stop-color="#007BFF"/>
<stop offset="1" stop-color="#FFEB3B"/>
</linearGradient>
</defs>
</svg>
