<svg width="592" height="369" viewBox="0 0 592 369" fill="none" xmlns="http://www.w3.org/2000/svg">
<path d="M566.332 48.3242H570.517C572.858 48.3242 574.458 48.4315 575.316 48.6461C576.175 48.8412 576.907 49.1729 577.511 49.6412C578.136 50.1094 578.623 50.7142 578.975 51.4556C579.326 52.197 579.501 53.0164 579.501 53.9139C579.501 55.7088 578.867 57.1233 577.599 58.1573C576.331 59.1719 574.536 59.6401 572.214 59.5621L579.794 69.3367H577.189L569.639 59.5621H568.439V69.3367H566.332V48.3242ZM568.439 50.3728V57.5135H572.068C573.863 57.533 575.18 57.2599 576.019 56.6941C576.877 56.1088 577.306 55.1918 577.306 53.9431C577.306 52.6945 576.887 51.7873 576.048 51.2215C575.209 50.6557 573.912 50.3728 572.156 50.3728H568.439Z" fill="white"/>
<path d="M548.799 48.3242H560.856V50.4021H550.906V56.9575H560.768V59.006H550.906V67.2588H560.768V69.3367H548.799V48.3242Z" fill="white"/>
<path d="M525.236 69.3367V48.3242H529.597C532.582 48.3242 534.767 48.5486 536.152 48.9973C537.557 49.4265 538.767 50.1192 539.781 51.0752C540.796 52.0116 541.576 53.1627 542.122 54.5284C542.669 55.8942 542.942 57.494 542.942 59.3279C542.942 61.1424 542.513 62.8593 541.654 64.4786C540.815 66.0785 539.664 67.2881 538.201 68.1075C536.757 68.9269 534.669 69.3367 531.938 69.3367H525.236ZM527.256 67.3466H529.685C532.221 67.3466 534.055 67.2198 535.187 66.9662C536.338 66.7125 537.342 66.215 538.201 65.4736C539.059 64.7128 539.713 63.7958 540.162 62.7227C540.61 61.6497 540.835 60.4205 540.835 59.0353C540.835 57.6501 540.571 56.3722 540.045 55.2016C539.537 54.0309 538.806 53.0652 537.85 52.3043C536.894 51.5434 535.762 51.0361 534.455 50.7825C533.167 50.5094 531.265 50.3728 528.748 50.3728H527.256V67.3466Z" fill="white"/>
<path d="M510.421 47.4766L520.225 69.3377H517.972L514.665 62.1677H505.593L502.315 69.3377H499.974L509.895 47.4766H510.421ZM510.158 52.1297L506.558 60.0313H513.728L510.158 52.1297Z" fill="white"/>
<path d="M484.399 48.3242H496.457V50.4021H486.507V56.9575H496.369V59.006H486.507V67.2588H496.369V69.3367H484.399V48.3242Z" fill="white"/>
<path d="M469.098 48.3242H471.234V67.3174H479.311V69.3367H469.098V48.3242Z" fill="white"/>
<path d="M436.636 69.3367V48.3242H437.104L451.064 64.4201V48.3242H453.141V69.3367H452.673L438.801 53.4456V69.3367H436.636Z" fill="white"/>
<path d="M429.639 51.8365L428.03 53.3875C426.859 52.2559 425.571 51.3877 424.167 50.7829C422.781 50.1781 421.347 49.8757 419.865 49.8757C418.382 49.8757 416.899 50.2756 415.416 51.0756C413.934 51.8755 412.773 52.9583 411.934 54.324C411.114 55.6702 410.705 57.1335 410.705 58.7138C410.705 61.1721 411.622 63.3182 413.456 65.1521C415.309 66.9666 417.621 67.8738 420.391 67.8738C422.499 67.8738 424.303 67.2885 425.805 66.1179C427.327 64.9278 428.235 63.3182 428.527 61.2891H421.825V59.2698H430.898C430.839 62.6061 429.844 65.2107 427.913 67.0836C425.981 68.9371 423.455 69.8638 420.333 69.8638C416.743 69.8638 413.865 68.7615 411.7 66.5569C409.554 64.3522 408.48 61.7671 408.48 58.8016C408.48 55.8165 409.554 53.2412 411.7 51.0756C413.846 48.8904 416.665 47.7979 420.157 47.7979C423.65 47.7979 426.81 49.1441 429.639 51.8365Z" fill="white"/>
<path d="M400.68 48.3242H402.787V69.3367H400.68V48.3242Z" fill="white"/>
<path d="M382.475 65.4155L384.26 64.362C385.508 66.6642 386.962 67.8153 388.62 67.8153C389.693 67.8153 390.61 67.4739 391.371 66.791C392.132 66.1081 392.513 65.2594 392.513 64.2449C392.513 63.445 392.191 62.6353 391.547 61.8159C390.903 60.9965 389.83 60.0307 388.328 58.9186C386.845 57.7871 385.84 56.9481 385.313 56.4018C384.806 55.836 384.426 55.241 384.172 54.6167C383.938 53.9728 383.821 53.329 383.821 52.6851C383.821 51.3194 384.299 50.1683 385.255 49.2318C386.23 48.2759 387.45 47.7979 388.913 47.7979C390.064 47.7979 391.069 48.0905 391.927 48.6758C392.786 49.2416 393.615 50.0903 394.415 51.2219L392.717 52.5388C392.171 51.7974 391.605 51.1829 391.02 50.6951C390.435 50.2074 389.713 49.9635 388.854 49.9635C388.015 49.9635 387.323 50.2171 386.777 50.7244C386.25 51.2316 385.986 51.8755 385.986 52.6559C385.986 53.4363 386.221 54.1191 386.689 54.7045C387.177 55.2702 388.259 56.1775 389.937 57.4261C391.635 58.6748 392.864 59.8259 393.625 60.8794C394.405 61.933 394.795 63.045 394.795 64.2157C394.795 65.7374 394.2 67.0641 393.01 68.1957C391.839 69.3078 390.474 69.8638 388.913 69.8638C386.162 69.8638 384.016 68.3811 382.475 65.4155Z" fill="white"/>
<path d="M367.224 48.3242H379.281V50.4021H369.331V56.9575H379.193V59.006H369.331V67.2588H379.193V69.3367H367.224V48.3242Z" fill="white"/>
<path d="M343.661 69.3367V48.3242H348.022C351.007 48.3242 353.192 48.5486 354.577 48.9973C355.982 49.4265 357.191 50.1192 358.206 51.0752C359.22 52.0116 360.001 53.1627 360.547 54.5284C361.093 55.8942 361.367 57.494 361.367 59.3279C361.367 61.1424 360.937 62.8593 360.079 64.4786C359.24 66.0785 358.089 67.2881 356.626 68.1075C355.182 68.9269 353.094 69.3367 350.363 69.3367H343.661ZM345.68 67.3466H348.109C350.646 67.3466 352.48 67.2198 353.611 66.9662C354.762 66.7125 355.767 66.215 356.626 65.4736C357.484 64.7128 358.138 63.7958 358.586 62.7227C359.035 61.6497 359.26 60.4205 359.26 59.0353C359.26 57.6501 358.996 56.3722 358.469 55.2016C357.962 54.0309 357.23 53.0652 356.274 52.3043C355.318 51.5434 354.187 51.0361 352.88 50.7825C351.592 50.5094 349.69 50.3728 347.173 50.3728H345.68V67.3466Z" fill="white"/>
<path d="M518.173 28.7157L519.87 29.5937C518.192 32.7153 515.714 34.2761 512.437 34.2761C510.095 34.2761 508.164 33.4762 506.642 31.8764C505.12 30.257 504.359 28.3158 504.359 26.0526C504.359 23.7894 505.12 21.8482 506.642 20.2288C508.183 18.6095 510.076 17.7998 512.32 17.7998C514.583 17.7998 516.475 18.5509 517.997 20.0532C519.538 21.5555 520.338 23.6041 520.397 26.1989H506.408C506.466 28.0719 507.052 29.5839 508.164 30.735C509.295 31.8666 510.661 32.4324 512.261 32.4324C514.895 32.4324 516.865 31.1935 518.173 28.7157ZM518.173 24.4723C517.899 22.9895 517.217 21.8287 516.124 20.9897C515.031 20.1508 513.773 19.7313 512.349 19.7313C509.422 19.7313 507.51 21.3116 506.613 24.4723H518.173Z" fill="#73768C"/>
<path d="M495.729 31.2929C495.729 31.8196 495.798 32.1318 495.934 32.2293C496.071 32.3269 496.422 32.3757 496.988 32.3757H498.188V34.0731C497.368 34.2096 496.724 34.2779 496.256 34.2779C495.378 34.2779 494.734 34.0633 494.324 33.6341C493.915 33.2048 493.71 32.5317 493.71 31.6148V19.9087H490.959V18.2113H493.71V12.2119H495.729V18.2113H498.89V19.9087H495.729V31.2929Z" fill="#73768C"/>
<path d="M484.24 18.2095V33.7494H482.28V31.0862C480.504 33.2128 478.475 34.2761 476.192 34.2761C473.91 34.2761 471.978 33.4665 470.398 31.8471C468.837 30.2083 468.057 28.267 468.057 26.0233C468.057 23.7602 468.847 21.8287 470.427 20.2288C472.007 18.6095 473.9 17.7998 476.105 17.7998C478.641 17.7998 480.699 18.8826 482.28 21.0482V18.2095H484.24ZM482.397 26.0526C482.397 24.2772 481.802 22.7847 480.611 21.575C479.421 20.3459 477.958 19.7313 476.222 19.7313C474.505 19.7313 473.051 20.3654 471.861 21.6336C470.671 22.8822 470.076 24.365 470.076 26.0819C470.076 27.7988 470.681 29.2913 471.89 30.5594C473.1 31.8081 474.544 32.4324 476.222 32.4324C477.919 32.4324 479.373 31.8276 480.582 30.618C481.792 29.4083 482.397 27.8866 482.397 26.0526Z" fill="#73768C"/>
<path d="M447.678 18.2095H449.697V20.9897C451.297 18.8631 453.238 17.7998 455.521 17.7998C456.691 17.7998 457.745 18.1217 458.681 18.7656C459.618 19.3899 460.281 20.2191 460.671 21.2531C461.062 22.2676 461.257 23.7699 461.257 25.7599V33.7494H459.267V26.3453C459.267 24.5308 459.179 23.3017 459.003 22.6578C458.847 22.014 458.594 21.4677 458.242 21.019C457.911 20.5702 457.482 20.2288 456.955 19.9947C456.428 19.7606 455.784 19.6435 455.023 19.6435C454.282 19.6435 453.55 19.8289 452.828 20.1996C452.107 20.5702 451.492 21.0873 450.985 21.7506C450.477 22.414 450.136 23.0968 449.96 23.7992C449.785 24.5015 449.697 25.916 449.697 28.0426V33.7494H447.678V18.2095Z" fill="#73768C"/>
<path d="M424.549 26.0819C424.549 23.7992 425.329 21.8482 426.89 20.2288C428.47 18.6095 430.382 17.7998 432.626 17.7998C434.889 17.7998 436.801 18.6095 438.362 20.2288C439.942 21.8482 440.733 23.7894 440.733 26.0526C440.733 28.3158 439.952 30.257 438.391 31.8764C436.85 33.4762 434.938 34.2761 432.655 34.2761C430.373 34.2761 428.451 33.4762 426.89 31.8764C425.329 30.257 424.549 28.3255 424.549 26.0819ZM438.713 26.1111C438.713 24.3942 438.108 22.9115 436.899 21.6628C435.709 20.3947 434.284 19.7606 432.626 19.7606C430.987 19.7606 429.573 20.3947 428.383 21.6628C427.192 22.9115 426.597 24.404 426.597 26.1404C426.597 27.8768 427.173 29.3498 428.324 30.5594C429.475 31.7691 430.899 32.3739 432.597 32.3739C434.314 32.3739 435.757 31.7691 436.928 30.5594C438.118 29.3303 438.713 27.8475 438.713 26.1111Z" fill="#73768C"/>
<path d="M415.268 13.88C415.268 13.4313 415.424 13.0411 415.736 12.7094C416.067 12.3778 416.458 12.2119 416.906 12.2119C417.375 12.2119 417.765 12.3778 418.077 12.7094C418.409 13.0216 418.575 13.4118 418.575 13.88C418.575 14.3288 418.409 14.719 418.077 15.0506C417.765 15.3628 417.375 15.5189 416.906 15.5189C416.458 15.5189 416.067 15.3531 415.736 15.0214C415.424 14.6897 415.268 14.3093 415.268 13.88ZM415.911 18.2113H417.931V33.7511H415.911V18.2113Z" fill="#73768C"/>
<path d="M409.452 19.9069L408.164 21.2238C407.091 20.1898 406.047 19.6728 405.033 19.6728C404.369 19.6728 403.813 19.8874 403.365 20.3166C402.916 20.7263 402.692 21.2433 402.692 21.8677C402.692 22.4725 402.926 22.9993 403.394 23.448C403.882 23.8772 404.711 24.404 405.882 25.0283C407.052 25.6331 407.94 26.2965 408.545 27.0184C409.169 27.7207 409.481 28.5889 409.481 29.623C409.481 30.9301 409.023 32.0325 408.106 32.9299C407.208 33.8274 406.096 34.2761 404.769 34.2761C403.891 34.2761 403.043 34.081 402.223 33.6908C401.423 33.3006 400.741 32.7543 400.175 32.052L401.433 30.6472C402.467 31.7983 403.55 32.3739 404.682 32.3739C405.482 32.3739 406.164 32.1105 406.73 31.5837C407.296 31.057 407.579 30.4424 407.579 29.74C407.579 29.0181 407.325 28.4328 406.818 27.9841C406.33 27.5159 405.501 26.9891 404.33 26.4038C403.179 25.8185 402.311 25.1844 401.726 24.5015C401.16 23.7992 400.877 22.9017 400.877 21.8091C400.877 20.6971 401.277 19.7508 402.077 18.9704C402.896 18.19 403.97 17.7998 405.296 17.7998C406.642 17.7998 408.028 18.5022 409.452 19.9069Z" fill="#73768C"/>
<path d="M394.886 19.9069L393.599 21.2238C392.526 20.1898 391.482 19.6728 390.467 19.6728C389.804 19.6728 389.248 19.8874 388.799 20.3166C388.351 20.7263 388.126 21.2433 388.126 21.8677C388.126 22.4725 388.36 22.9993 388.829 23.448C389.316 23.8772 390.145 24.404 391.316 25.0283C392.487 25.6331 393.374 26.2965 393.979 27.0184C394.604 27.7207 394.916 28.5889 394.916 29.623C394.916 30.9301 394.457 32.0325 393.54 32.9299C392.643 33.8274 391.531 34.2761 390.204 34.2761C389.326 34.2761 388.477 34.081 387.658 33.6908C386.858 33.3006 386.175 32.7543 385.609 32.052L386.868 30.6472C387.902 31.7983 388.985 32.3739 390.116 32.3739C390.916 32.3739 391.599 32.1105 392.165 31.5837C392.731 31.057 393.013 30.4424 393.013 29.74C393.013 29.0181 392.76 28.4328 392.253 27.9841C391.765 27.5159 390.936 26.9891 389.765 26.4038C388.614 25.8185 387.746 25.1844 387.16 24.5015C386.595 23.7992 386.312 22.9017 386.312 21.8091C386.312 20.6971 386.712 19.7508 387.512 18.9704C388.331 18.19 389.404 17.7998 390.731 17.7998C392.077 17.7998 393.462 18.5022 394.886 19.9069Z" fill="#73768C"/>
<path d="M379.358 18.2095V33.7494H377.398V31.0862C375.622 33.2128 373.593 34.2761 371.311 34.2761C369.028 34.2761 367.096 33.4665 365.516 31.8471C363.955 30.2083 363.175 28.267 363.175 26.0233C363.175 23.7602 363.965 21.8287 365.545 20.2288C367.126 18.6095 369.018 17.7998 371.223 17.7998C373.759 17.7998 375.817 18.8826 377.398 21.0482V18.2095H379.358ZM377.515 26.0526C377.515 24.2772 376.92 22.7847 375.73 21.575C374.539 20.3459 373.076 19.7313 371.34 19.7313C369.623 19.7313 368.169 20.3654 366.979 21.6336C365.789 22.8822 365.194 24.365 365.194 26.0819C365.194 27.7988 365.799 29.2913 367.009 30.5594C368.218 31.8081 369.662 32.4324 371.34 32.4324C373.037 32.4324 374.491 31.8276 375.7 30.618C376.91 29.4083 377.515 27.8866 377.515 26.0526Z" fill="#73768C"/>
<path d="M343.661 12.7383H347.846C350.324 12.7383 351.943 12.8358 352.704 13.0309C353.465 13.226 354.158 13.5675 354.782 14.0552C355.426 14.543 355.923 15.1575 356.274 15.8989C356.626 16.6208 356.801 17.4305 356.801 18.3279C356.801 19.7717 356.411 20.9521 355.631 21.869C354.85 22.786 353.865 23.3713 352.675 23.625C351.504 23.8591 349.7 23.9761 347.261 23.9761H345.768V33.7507H343.661V12.7383ZM345.768 14.7868V21.9568H349.309C351.436 21.9959 352.85 21.6544 353.553 20.9325C354.255 20.1912 354.606 19.323 354.606 18.3279C354.606 15.9672 352.899 14.7868 349.485 14.7868H345.768Z" fill="#73768C"/>
<path d="M160.336 172.669V170.62H171.866V172.669H167.184V191.633H165.048V172.669H160.336Z" fill="white"/>
<path d="M143.917 187.711L145.702 186.658C146.951 188.96 148.404 190.111 150.063 190.111C151.136 190.111 152.053 189.77 152.814 189.087C153.575 188.404 153.955 187.555 153.955 186.541C153.955 185.741 153.633 184.931 152.989 184.112C152.345 183.292 151.272 182.327 149.77 181.215C148.287 180.083 147.282 179.244 146.756 178.698C146.248 178.132 145.868 177.537 145.614 176.913C145.38 176.269 145.263 175.625 145.263 174.981C145.263 173.615 145.741 172.464 146.697 171.528C147.673 170.572 148.892 170.094 150.355 170.094C151.506 170.094 152.511 170.386 153.37 170.972C154.228 171.538 155.057 172.386 155.857 173.518L154.16 174.835C153.614 174.093 153.048 173.479 152.462 172.991C151.877 172.503 151.155 172.259 150.297 172.259C149.458 172.259 148.765 172.513 148.219 173.02C147.692 173.528 147.429 174.171 147.429 174.952C147.429 175.732 147.663 176.415 148.131 177C148.619 177.566 149.702 178.473 151.38 179.722C153.077 180.971 154.306 182.122 155.067 183.175C155.847 184.229 156.238 185.341 156.238 186.512C156.238 188.033 155.643 189.36 154.452 190.492C153.282 191.604 151.916 192.16 150.355 192.16C147.604 192.16 145.458 190.677 143.917 187.711Z" fill="white"/>
<path d="M131.268 169.772L141.072 191.634H138.818L135.511 184.464H126.439L123.162 191.634H120.82L130.741 169.772H131.268ZM131.005 174.426L127.405 182.327H134.575L131.005 174.426Z" fill="white"/>
<path d="M114.015 170.62H116.122V191.633H114.015V170.62Z" fill="white"/>
<path d="M95.8086 187.711L97.5938 186.658C98.8424 188.96 100.296 190.111 101.954 190.111C103.027 190.111 103.944 189.77 104.705 189.087C105.466 188.404 105.847 187.555 105.847 186.541C105.847 185.741 105.525 184.931 104.881 184.112C104.237 183.292 103.164 182.327 101.662 181.215C100.179 180.083 99.1741 179.244 98.6473 178.698C98.1401 178.132 97.7596 177.537 97.506 176.913C97.2719 176.269 97.1548 175.625 97.1548 174.981C97.1548 173.615 97.6328 172.464 98.5888 171.528C99.5643 170.572 100.784 170.094 102.247 170.094C103.398 170.094 104.403 170.386 105.261 170.972C106.12 171.538 106.949 172.386 107.749 173.518L106.051 174.835C105.505 174.093 104.939 173.479 104.354 172.991C103.769 172.503 103.047 172.259 102.188 172.259C101.349 172.259 100.657 172.513 100.111 173.02C99.5838 173.528 99.3204 174.171 99.3204 174.952C99.3204 175.732 99.5545 176.415 100.023 177C100.511 177.566 101.593 178.473 103.271 179.722C104.969 180.971 106.198 182.122 106.959 183.175C107.739 184.229 108.129 185.341 108.129 186.512C108.129 188.033 107.534 189.36 106.344 190.492C105.173 191.604 103.808 192.16 102.247 192.16C99.496 192.16 97.3499 190.677 95.8086 187.711Z" fill="white"/>
<path d="M77.1299 170.62H79.237V183.292C79.237 184.599 79.2662 185.584 79.3248 186.248C79.4028 186.911 79.6369 187.555 80.0271 188.179C80.4369 188.784 81.0026 189.272 81.7245 189.643C82.4464 189.994 83.2171 190.169 84.0365 190.169C84.8754 190.169 85.6071 190.023 86.2314 189.73C86.8557 189.418 87.3825 188.989 87.8117 188.443C88.2409 187.896 88.5336 187.301 88.6897 186.657C88.8652 185.994 88.953 184.872 88.953 183.292V170.62H91.0309V183.292C91.0309 185.419 90.8163 187.048 90.387 188.179C89.9578 189.311 89.1969 190.257 88.1043 191.018C87.0313 191.779 85.7631 192.159 84.2999 192.159C83.1293 192.159 82.0757 191.974 81.1392 191.603C80.2027 191.213 79.4223 190.677 78.798 189.994C78.1737 189.311 77.7347 188.55 77.4811 187.711C77.2469 186.872 77.1299 185.399 77.1299 183.292V170.62Z" fill="white"/>
<path d="M55.2793 170.62H57.4157V179.429H68.0975V170.62H70.2046V191.633H68.0975V181.478H57.4157V191.633H55.2793V170.62Z" fill="white"/>
<path d="M39.0146 172.669V170.62H50.5452V172.669H45.8627V191.633H43.7264V172.669H39.0146Z" fill="white"/>
<path d="M17.7031 191.633V170.62H18.1714L32.1309 186.716V170.62H34.2087V191.633H33.7405L19.8688 175.742V191.633H17.7031Z" fill="white"/>
<path d="M0.256836 170.62H12.3141V172.698H2.36393V179.253H12.2263V181.302H2.36393V189.555H12.2263V191.633H0.256836V170.62Z" fill="white"/>
<path d="M161.837 140.505H163.856V143.286C165.456 141.159 167.397 140.096 169.68 140.096C170.851 140.096 171.904 140.418 172.841 141.061C173.777 141.686 174.44 142.515 174.831 143.549C175.221 144.564 175.416 146.066 175.416 148.056V156.045H173.426V148.641C173.426 146.827 173.338 145.598 173.163 144.954C173.006 144.31 172.753 143.764 172.402 143.315C172.07 142.866 171.641 142.525 171.114 142.291C170.587 142.056 169.943 141.939 169.182 141.939C168.441 141.939 167.709 142.125 166.988 142.495C166.266 142.866 165.651 143.383 165.144 144.047C164.637 144.71 164.295 145.393 164.12 146.095C163.944 146.797 163.856 148.212 163.856 150.339V156.045H161.837V140.505Z" fill="#73768C"/>
<path d="M138.71 148.378C138.71 146.095 139.49 144.144 141.051 142.525C142.632 140.905 144.544 140.096 146.787 140.096C149.05 140.096 150.962 140.905 152.523 142.525C154.103 144.144 154.894 146.085 154.894 148.349C154.894 150.612 154.113 152.553 152.552 154.172C151.011 155.772 149.099 156.572 146.816 156.572C144.534 156.572 142.612 155.772 141.051 154.172C139.49 152.553 138.71 150.621 138.71 148.378ZM152.874 148.407C152.874 146.69 152.27 145.207 151.06 143.959C149.87 142.691 148.446 142.056 146.787 142.056C145.148 142.056 143.734 142.691 142.544 143.959C141.354 145.207 140.759 146.7 140.759 148.436C140.759 150.173 141.334 151.646 142.485 152.855C143.636 154.065 145.061 154.67 146.758 154.67C148.475 154.67 149.919 154.065 151.089 152.855C152.279 151.626 152.874 150.143 152.874 148.407Z" fill="#73768C"/>
<path d="M129.428 136.176C129.428 135.727 129.584 135.337 129.896 135.005C130.228 134.674 130.618 134.508 131.067 134.508C131.535 134.508 131.925 134.674 132.237 135.005C132.569 135.317 132.735 135.708 132.735 136.176C132.735 136.625 132.569 137.015 132.237 137.347C131.925 137.659 131.535 137.815 131.067 137.815C130.618 137.815 130.228 137.649 129.896 137.317C129.584 136.986 129.428 136.605 129.428 136.176ZM130.072 140.507H132.091V156.047H130.072V140.507Z" fill="#73768C"/>
<path d="M121.002 153.589C121.002 154.116 121.07 154.428 121.207 154.525C121.343 154.623 121.694 154.672 122.26 154.672H123.46V156.369C122.641 156.506 121.997 156.574 121.528 156.574C120.651 156.574 120.007 156.359 119.597 155.93C119.187 155.501 118.982 154.828 118.982 153.911V142.205H116.231V140.507H118.982V134.508H121.002V140.507H124.162V142.205H121.002V153.589Z" fill="#73768C"/>
<path d="M109.513 140.505V156.045H107.552V153.382C105.777 155.509 103.748 156.572 101.465 156.572C99.1821 156.572 97.2506 155.762 95.6703 154.143C94.1095 152.504 93.3291 150.563 93.3291 148.319C93.3291 146.056 94.1193 144.125 95.6996 142.525C97.2799 140.905 99.1724 140.096 101.377 140.096C103.913 140.096 105.972 141.179 107.552 143.344V140.505H109.513ZM107.669 148.349C107.669 146.573 107.074 145.081 105.884 143.871C104.694 142.642 103.231 142.027 101.494 142.027C99.7772 142.027 98.3237 142.661 97.1336 143.929C95.9435 145.178 95.3484 146.661 95.3484 148.378C95.3484 150.095 95.9532 151.587 97.1628 152.855C98.3725 154.104 99.8162 154.728 101.494 154.728C103.191 154.728 104.645 154.124 105.855 152.914C107.064 151.704 107.669 150.182 107.669 148.349Z" fill="#73768C"/>
<path d="M73.1445 140.505H75.2809L80.4608 152.328L85.6408 140.505H87.7772L80.6657 156.571H80.3145L73.1445 140.505Z" fill="#73768C"/>
<path d="M51.4785 148.378C51.4785 146.095 52.2589 144.144 53.8197 142.525C55.4001 140.905 57.3121 140.096 59.5557 140.096C61.8189 140.096 63.7309 140.905 65.2917 142.525C66.872 144.144 67.6622 146.085 67.6622 148.349C67.6622 150.612 66.8818 152.553 65.321 154.172C63.7797 155.772 61.8677 156.572 59.585 156.572C57.3023 156.572 55.3805 155.772 53.8197 154.172C52.2589 152.553 51.4785 150.621 51.4785 148.378ZM65.6429 148.407C65.6429 146.69 65.0381 145.207 63.8284 143.959C62.6383 142.691 61.2141 142.056 59.5557 142.056C57.9169 142.056 56.5024 142.691 55.3123 143.959C54.1221 145.207 53.5271 146.7 53.5271 148.436C53.5271 150.173 54.1026 151.646 55.2537 152.855C56.4048 154.065 57.8291 154.67 59.5265 154.67C61.2434 154.67 62.6871 154.065 63.8577 152.855C65.0478 151.626 65.6429 150.143 65.6429 148.407Z" fill="#73768C"/>
<path d="M31.1299 140.505H33.1492V143.286C34.749 141.159 36.6903 140.096 38.973 140.096C40.1436 140.096 41.1971 140.418 42.1336 141.061C43.0701 141.686 43.7334 142.515 44.1236 143.549C44.5139 144.564 44.709 146.066 44.709 148.056V156.045H42.7189V148.641C42.7189 146.827 42.6311 145.598 42.4555 144.954C42.2994 144.31 42.0458 143.764 41.6946 143.315C41.363 142.866 40.9337 142.525 40.407 142.291C39.8802 142.056 39.2364 141.939 38.4755 141.939C37.7341 141.939 37.0024 142.125 36.2806 142.495C35.5587 142.866 34.9441 143.383 34.4369 144.047C33.9296 144.71 33.5882 145.393 33.4126 146.095C33.237 146.797 33.1492 148.212 33.1492 150.339V156.045H31.1299V140.505Z" fill="#73768C"/>
<path d="M10.0488 140.505H12.0681V143.286C13.668 141.159 15.6092 140.096 17.8919 140.096C19.0625 140.096 20.1161 140.418 21.0526 141.061C21.989 141.686 22.6524 142.515 23.0426 143.549C23.4328 144.564 23.6279 146.066 23.6279 148.056V156.045H21.6379V148.641C21.6379 146.827 21.5501 145.598 21.3745 144.954C21.2184 144.31 20.9648 143.764 20.6136 143.315C20.2819 142.866 19.8527 142.525 19.3259 142.291C18.7991 142.056 18.1553 141.939 17.3944 141.939C16.653 141.939 15.9214 142.125 15.1995 142.495C14.4776 142.866 13.8631 143.383 13.3558 144.047C12.8485 144.71 12.5071 145.393 12.3315 146.095C12.1559 146.797 12.0681 148.212 12.0681 150.339V156.045H10.0488V140.505Z" fill="#73768C"/>
<path d="M0.256836 135.034H2.36393V156.047H0.256836V135.034Z" fill="#73768C"/>
<path d="M528.31 187.711L530.095 186.658C531.343 188.96 532.797 190.111 534.455 190.111C535.528 190.111 536.445 189.77 537.206 189.087C537.967 188.404 538.348 187.555 538.348 186.541C538.348 185.741 538.026 184.931 537.382 184.112C536.738 183.292 535.665 182.327 534.163 181.215C532.68 180.083 531.675 179.244 531.148 178.698C530.641 178.132 530.261 177.537 530.007 176.913C529.773 176.269 529.656 175.625 529.656 174.981C529.656 173.615 530.134 172.464 531.09 171.528C532.065 170.572 533.285 170.094 534.748 170.094C535.899 170.094 536.904 170.386 537.762 170.972C538.621 171.538 539.45 172.386 540.25 173.518L538.552 174.835C538.006 174.093 537.44 173.479 536.855 172.991C536.27 172.503 535.548 172.259 534.689 172.259C533.85 172.259 533.158 172.513 532.612 173.02C532.085 173.528 531.821 174.171 531.821 174.952C531.821 175.732 532.056 176.415 532.524 177C533.012 177.566 534.094 178.473 535.772 179.722C537.47 180.971 538.699 182.122 539.46 183.175C540.24 184.229 540.63 185.341 540.63 186.512C540.63 188.033 540.035 189.36 538.845 190.492C537.674 191.604 536.309 192.16 534.748 192.16C531.997 192.16 529.851 190.677 528.31 187.711Z" fill="white"/>
<path d="M513.06 170.62H525.117V172.698H515.167V179.253H525.029V181.302H515.167V189.555H525.029V191.633H513.06V170.62Z" fill="white"/>
<path d="M507.044 174.513L505.405 175.771C503.454 173.352 500.947 172.142 497.884 172.142C495.387 172.142 493.231 173.02 491.417 174.776C489.622 176.532 488.724 178.688 488.724 181.244C488.724 183.78 489.602 185.907 491.358 187.624C493.133 189.321 495.348 190.17 498.001 190.17C500.967 190.17 503.435 189.019 505.405 186.716L507.044 187.975C506.01 189.341 504.703 190.384 503.123 191.106C501.542 191.809 499.796 192.16 497.884 192.16C494.548 192.16 491.817 191.106 489.69 188.999C487.563 186.892 486.5 184.229 486.5 181.01C486.5 179.02 486.988 177.186 487.963 175.508C488.958 173.81 490.324 172.484 492.06 171.528C493.816 170.572 495.699 170.094 497.709 170.094C499.718 170.094 501.523 170.474 503.123 171.235C504.722 171.996 506.03 173.089 507.044 174.513Z" fill="white"/>
<path d="M464.076 191.633V170.62H464.544L478.504 186.716V170.62H480.582V191.633H480.114L466.242 175.742V191.633H464.076Z" fill="white"/>
<path d="M446.631 170.62H458.688V172.698H448.738V179.253H458.6V181.302H448.738V189.555H458.6V191.633H446.631V170.62Z" fill="white"/>
<path d="M437.951 170.62H440.058V191.633H437.951V170.62Z" fill="white"/>
<path d="M418.827 170.62H423.012C425.353 170.62 426.953 170.727 427.812 170.942C428.67 171.137 429.402 171.469 430.006 171.937C430.631 172.405 431.119 173.01 431.47 173.751C431.821 174.493 431.997 175.312 431.997 176.21C431.997 178.005 431.362 179.419 430.094 180.453C428.826 181.468 427.031 181.936 424.709 181.858L432.289 191.633H429.685L422.134 181.858H420.934V191.633H418.827V170.62ZM420.934 172.669V179.809H424.563C426.358 179.829 427.675 179.556 428.514 178.99C429.372 178.405 429.802 177.488 429.802 176.239C429.802 174.99 429.382 174.083 428.543 173.517C427.704 172.952 426.407 172.669 424.651 172.669H420.934Z" fill="white"/>
<path d="M401.294 170.62H413.351V172.698H403.401V179.253H413.263V181.302H403.401V189.555H413.263V191.633H401.294V170.62Z" fill="white"/>
<path d="M382.189 170.62H386.374C388.852 170.62 390.472 170.718 391.232 170.913C391.993 171.108 392.686 171.449 393.31 171.937C393.954 172.425 394.452 173.039 394.803 173.781C395.154 174.503 395.33 175.312 395.33 176.21C395.33 177.654 394.939 178.834 394.159 179.751C393.379 180.668 392.393 181.253 391.203 181.507C390.033 181.741 388.228 181.858 385.789 181.858H384.297V191.633H382.189V170.62ZM384.297 172.669V179.839H387.838C389.964 179.878 391.379 179.536 392.081 178.814C392.783 178.073 393.135 177.205 393.135 176.21C393.135 173.849 391.428 172.669 388.013 172.669H384.297Z" fill="white"/>
<path d="M361.489 170.62H363.947L368.981 178.814L374.073 170.62H376.502L370.239 180.804L376.912 191.633H374.453L368.981 182.824L363.508 191.633H361.05L367.752 180.804L361.489 170.62Z" fill="white"/>
<path d="M345.184 170.62H357.241V172.698H347.291V179.253H357.153V181.302H347.291V189.555H357.153V191.633H345.184V170.62Z" fill="white"/>
<path d="M588.922 151.012L590.619 151.89C588.941 155.011 586.463 156.572 583.186 156.572C580.844 156.572 578.913 155.772 577.391 154.172C575.869 152.553 575.108 150.612 575.108 148.349C575.108 146.085 575.869 144.144 577.391 142.525C578.932 140.905 580.825 140.096 583.069 140.096C585.332 140.096 587.224 140.847 588.746 142.349C590.287 143.851 591.087 145.9 591.146 148.495H577.157C577.215 150.368 577.801 151.88 578.913 153.031C580.044 154.163 581.41 154.728 583.01 154.728C585.644 154.728 587.614 153.489 588.922 151.012ZM588.922 146.768C588.648 145.285 587.966 144.125 586.873 143.286C585.78 142.447 584.522 142.027 583.098 142.027C580.171 142.027 578.259 143.608 577.362 146.768H588.922Z" fill="#73768C"/>
<path d="M554.954 140.505H557.09L562.27 152.328L567.45 140.505H569.587L562.475 156.571H562.124L554.954 140.505Z" fill="#73768C"/>
<path d="M546.402 136.176C546.402 135.727 546.558 135.337 546.871 135.005C547.202 134.674 547.592 134.508 548.041 134.508C548.509 134.508 548.9 134.674 549.212 135.005C549.543 135.317 549.709 135.708 549.709 136.176C549.709 136.625 549.543 137.015 549.212 137.347C548.9 137.659 548.509 137.815 548.041 137.815C547.592 137.815 547.202 137.649 546.871 137.317C546.558 136.986 546.402 136.605 546.402 136.176ZM547.046 140.507H549.065V156.047H547.046V140.507Z" fill="#73768C"/>
<path d="M537.978 153.589C537.978 154.116 538.047 154.428 538.183 154.525C538.32 154.623 538.671 154.672 539.237 154.672H540.437V156.369C539.617 156.506 538.973 156.574 538.505 156.574C537.627 156.574 536.983 156.359 536.574 155.93C536.164 155.501 535.959 154.828 535.959 153.911V142.205H533.208V140.507H535.959V134.508H537.978V140.507H541.139V142.205H537.978V153.589Z" fill="#73768C"/>
<path d="M526.487 140.505V156.045H524.527V153.382C522.751 155.509 520.722 156.572 518.439 156.572C516.157 156.572 514.225 155.762 512.645 154.143C511.084 152.504 510.304 150.563 510.304 148.319C510.304 146.056 511.094 144.125 512.674 142.525C514.255 140.905 516.147 140.096 518.352 140.096C520.888 140.096 522.946 141.179 524.527 143.344V140.505H526.487ZM524.644 148.349C524.644 146.573 524.049 145.081 522.858 143.871C521.668 142.642 520.205 142.027 518.469 142.027C516.752 142.027 515.298 142.661 514.108 143.929C512.918 145.178 512.323 146.661 512.323 148.378C512.323 150.095 512.928 151.587 514.137 152.855C515.347 154.104 516.791 154.728 518.469 154.728C520.166 154.728 521.62 154.124 522.829 152.914C524.039 151.704 524.644 150.182 524.644 148.349Z" fill="#73768C"/>
<path d="M480.322 140.505H482.312V143.198C483.698 141.13 485.473 140.096 487.639 140.096C488.79 140.096 489.814 140.427 490.711 141.091C491.628 141.735 492.243 142.652 492.555 143.842C493.199 142.632 494.018 141.705 495.013 141.061C496.008 140.418 497.15 140.096 498.437 140.096C499.745 140.096 500.925 140.603 501.979 141.617C503.032 142.613 503.559 144.593 503.559 147.558V156.045H501.51V147.558C501.51 146.134 501.422 145.09 501.247 144.427C501.071 143.744 500.691 143.178 500.106 142.73C499.52 142.261 498.74 142.027 497.764 142.027C496.808 142.027 495.911 142.349 495.072 142.993C494.233 143.637 493.657 144.456 493.345 145.451C493.033 146.446 492.877 147.949 492.877 149.958V156.045H490.916V148.085C490.916 146.427 490.828 145.246 490.653 144.544C490.477 143.822 490.087 143.227 489.482 142.759C488.877 142.271 488.136 142.027 487.258 142.027C486.38 142.027 485.551 142.291 484.771 142.817C484.01 143.325 483.405 144.027 482.956 144.924C482.527 145.822 482.312 147.334 482.312 149.461V156.045H480.322V140.505Z" fill="#73768C"/>
<path d="M467.54 140.505H469.589V142.759C470.135 141.842 470.662 141.169 471.169 140.74C471.696 140.31 472.271 140.096 472.896 140.096C473.539 140.096 474.183 140.271 474.827 140.622L473.774 142.32C473.481 142.144 473.178 142.056 472.866 142.056C472.261 142.056 471.686 142.369 471.14 142.993C470.613 143.617 470.223 144.427 469.969 145.422C469.715 146.397 469.589 148.183 469.589 150.778V156.045H467.54V140.505Z" fill="#73768C"/>
<path d="M445.174 148.378C445.174 146.095 445.954 144.144 447.515 142.525C449.095 140.905 451.007 140.096 453.251 140.096C455.514 140.096 457.426 140.905 458.987 142.525C460.567 144.144 461.358 146.085 461.358 148.349C461.358 150.612 460.577 152.553 459.016 154.172C457.475 155.772 455.563 156.572 453.28 156.572C450.998 156.572 449.076 155.772 447.515 154.172C445.954 152.553 445.174 150.621 445.174 148.378ZM459.338 148.407C459.338 146.69 458.733 145.207 457.524 143.959C456.334 142.691 454.909 142.056 453.251 142.056C451.612 142.056 450.198 142.691 449.008 143.959C447.817 145.207 447.222 146.7 447.222 148.436C447.222 150.173 447.798 151.646 448.949 152.855C450.1 154.065 451.524 154.67 453.222 154.67C454.939 154.67 456.382 154.065 457.553 152.855C458.743 151.626 459.338 150.143 459.338 148.407Z" fill="#73768C"/>
<path d="M439.892 134.918V136.878C439.131 136.547 438.449 136.381 437.844 136.381C437.258 136.381 436.878 136.576 436.702 136.966C436.527 137.337 436.439 137.951 436.439 138.81V140.507H439.687V142.205H436.439V156.047H434.42V142.205H432.4V140.507H434.42V138.488C434.42 137.122 434.673 136.117 435.181 135.474C435.688 134.83 436.478 134.508 437.551 134.508C438.175 134.508 438.956 134.644 439.892 134.918Z" fill="#73768C"/>
<path d="M426.734 142.203L425.446 143.52C424.373 142.486 423.33 141.969 422.315 141.969C421.652 141.969 421.096 142.183 420.647 142.613C420.198 143.022 419.974 143.539 419.974 144.164C419.974 144.768 420.208 145.295 420.676 145.744C421.164 146.173 421.993 146.7 423.164 147.324C424.334 147.929 425.222 148.592 425.827 149.314C426.451 150.017 426.763 150.885 426.763 151.919C426.763 153.226 426.305 154.328 425.388 155.226C424.49 156.123 423.378 156.572 422.052 156.572C421.174 156.572 420.325 156.377 419.506 155.987C418.706 155.597 418.023 155.05 417.457 154.348L418.715 152.943C419.749 154.094 420.832 154.67 421.964 154.67C422.764 154.67 423.447 154.406 424.012 153.88C424.578 153.353 424.861 152.738 424.861 152.036C424.861 151.314 424.608 150.729 424.1 150.28C423.612 149.812 422.783 149.285 421.613 148.7C420.462 148.114 419.593 147.48 419.008 146.797C418.442 146.095 418.159 145.198 418.159 144.105C418.159 142.993 418.559 142.047 419.359 141.266C420.179 140.486 421.252 140.096 422.578 140.096C423.925 140.096 425.31 140.798 426.734 142.203Z" fill="#73768C"/>
<path d="M397.837 140.505H399.856V143.286C401.456 141.159 403.397 140.096 405.68 140.096C406.851 140.096 407.904 140.418 408.841 141.061C409.777 141.686 410.44 142.515 410.831 143.549C411.221 144.564 411.416 146.066 411.416 148.056V156.045H409.426V148.641C409.426 146.827 409.338 145.598 409.163 144.954C409.006 144.31 408.753 143.764 408.402 143.315C408.07 142.866 407.641 142.525 407.114 142.291C406.587 142.056 405.943 141.939 405.182 141.939C404.441 141.939 403.709 142.125 402.988 142.495C402.266 142.866 401.651 143.383 401.144 144.047C400.637 144.71 400.295 145.393 400.12 146.095C399.944 146.797 399.856 148.212 399.856 150.339V156.045H397.837V140.505Z" fill="#73768C"/>
<path d="M390.122 140.505V156.045H388.161V153.382C386.386 155.509 384.357 156.572 382.074 156.572C379.792 156.572 377.86 155.762 376.28 154.143C374.719 152.504 373.938 150.563 373.938 148.319C373.938 146.056 374.729 144.125 376.309 142.525C377.889 140.905 379.782 140.096 381.986 140.096C384.523 140.096 386.581 141.179 388.161 143.344V140.505H390.122ZM388.278 148.349C388.278 146.573 387.683 145.081 386.493 143.871C385.303 142.642 383.84 142.027 382.103 142.027C380.387 142.027 378.933 142.661 377.743 143.929C376.553 145.178 375.958 146.661 375.958 148.378C375.958 150.095 376.563 151.587 377.772 152.855C378.982 154.104 380.426 154.728 382.103 154.728C383.801 154.728 385.254 154.124 386.464 152.914C387.674 151.704 388.278 150.182 388.278 148.349Z" fill="#73768C"/>
<path d="M361.859 140.505H363.908V142.759C364.454 141.842 364.981 141.169 365.488 140.74C366.015 140.31 366.591 140.096 367.215 140.096C367.859 140.096 368.503 140.271 369.146 140.622L368.093 142.32C367.8 142.144 367.498 142.056 367.186 142.056C366.581 142.056 366.005 142.369 365.459 142.993C364.932 143.617 364.542 144.427 364.288 145.422C364.035 146.397 363.908 148.183 363.908 150.778V156.045H361.859V140.505Z" fill="#73768C"/>
<path d="M345.184 137.083V135.034H356.714V137.083H352.032V156.047H349.895V137.083H345.184Z" fill="#73768C"/>
<path d="M373.302 336.956C370.609 336.956 368.014 336.644 365.517 336.02C363.059 335.356 361.108 334.537 359.664 333.561L362.708 327.006C364.151 327.903 365.849 328.645 367.8 329.23C369.79 329.776 371.741 330.05 373.653 330.05C375.76 330.05 377.243 329.796 378.101 329.289C378.999 328.781 379.447 328.079 379.447 327.182C379.447 326.44 379.096 325.894 378.394 325.543C377.73 325.153 376.833 324.86 375.701 324.665C374.57 324.47 373.321 324.275 371.955 324.079C370.629 323.884 369.283 323.631 367.917 323.319C366.551 322.967 365.302 322.46 364.171 321.797C363.039 321.133 362.122 320.236 361.42 319.104C360.757 317.973 360.425 316.51 360.425 314.715C360.425 312.725 360.991 310.969 362.122 309.447C363.293 307.925 364.971 306.735 367.156 305.876C369.341 304.979 371.955 304.53 374.999 304.53C377.145 304.53 379.33 304.764 381.554 305.233C383.779 305.701 385.632 306.384 387.115 307.281L384.071 313.778C382.549 312.881 381.008 312.276 379.447 311.964C377.926 311.612 376.443 311.437 374.999 311.437C372.97 311.437 371.487 311.71 370.551 312.256C369.614 312.803 369.146 313.505 369.146 314.363C369.146 315.144 369.478 315.729 370.141 316.119C370.843 316.51 371.76 316.822 372.892 317.056C374.024 317.29 375.253 317.505 376.579 317.7C377.945 317.856 379.311 318.109 380.676 318.461C382.042 318.812 383.271 319.319 384.364 319.982C385.496 320.607 386.412 321.485 387.115 322.616C387.817 323.709 388.168 325.153 388.168 326.947C388.168 328.898 387.583 330.635 386.412 332.157C385.242 333.639 383.544 334.81 381.32 335.668C379.135 336.527 376.462 336.956 373.302 336.956Z" fill="#73768D"/>
<path d="M350.149 336.954C346.442 336.954 343.555 336.018 341.487 334.145C339.418 332.233 338.384 329.404 338.384 325.658V298.031H347.515V325.541C347.515 326.867 347.866 327.901 348.569 328.643C349.271 329.345 350.227 329.696 351.437 329.696C352.88 329.696 354.11 329.306 355.124 328.526L357.582 334.964C356.646 335.627 355.514 336.135 354.188 336.486C352.9 336.798 351.554 336.954 350.149 336.954ZM333.526 312.722V305.699H355.358V312.722H333.526Z" fill="#73768D"/>
<path d="M315.975 336.956C312.385 336.956 309.224 336.254 306.493 334.849C303.8 333.444 301.713 331.532 300.23 329.113C298.747 326.655 298.006 323.865 298.006 320.743C298.006 317.583 298.728 314.793 300.171 312.373C301.654 309.915 303.664 308.003 306.2 306.637C308.736 305.233 311.604 304.53 314.804 304.53C317.887 304.53 320.657 305.194 323.115 306.52C325.613 307.808 327.583 309.681 329.027 312.139C330.471 314.558 331.193 317.466 331.193 320.86C331.193 321.211 331.173 321.621 331.134 322.089C331.095 322.519 331.056 322.928 331.017 323.319H305.439V317.992H326.218L322.706 319.573C322.706 317.934 322.374 316.51 321.711 315.3C321.047 314.09 320.13 313.154 318.96 312.49C317.789 311.788 316.423 311.437 314.863 311.437C313.302 311.437 311.917 311.788 310.707 312.49C309.536 313.154 308.619 314.11 307.956 315.358C307.293 316.568 306.961 318.012 306.961 319.69V321.094C306.961 322.811 307.332 324.333 308.073 325.66C308.854 326.947 309.927 327.942 311.292 328.645C312.697 329.308 314.336 329.64 316.209 329.64C317.887 329.64 319.35 329.386 320.599 328.879C321.886 328.372 323.057 327.611 324.11 326.596L328.968 331.864C327.525 333.503 325.71 334.771 323.525 335.668C321.34 336.527 318.823 336.956 315.975 336.956Z" fill="#73768D"/>
<path d="M279.05 336.956C275.46 336.956 272.299 336.254 269.568 334.849C266.876 333.444 264.788 331.532 263.305 329.113C261.822 326.655 261.081 323.865 261.081 320.743C261.081 317.583 261.803 314.793 263.247 312.373C264.729 309.915 266.739 308.003 269.275 306.637C271.812 305.233 274.68 304.53 277.879 304.53C280.962 304.53 283.732 305.194 286.191 306.52C288.688 307.808 290.658 309.681 292.102 312.139C293.546 314.558 294.268 317.466 294.268 320.86C294.268 321.211 294.248 321.621 294.209 322.089C294.17 322.519 294.131 322.928 294.092 323.319H268.514V317.992H289.293L285.781 319.573C285.781 317.934 285.449 316.51 284.786 315.3C284.123 314.09 283.206 313.154 282.035 312.49C280.864 311.788 279.499 311.437 277.938 311.437C276.377 311.437 274.992 311.788 273.782 312.49C272.612 313.154 271.695 314.11 271.031 315.358C270.368 316.568 270.036 318.012 270.036 319.69V321.094C270.036 322.811 270.407 324.333 271.148 325.66C271.929 326.947 273.002 327.942 274.367 328.645C275.772 329.308 277.411 329.64 279.284 329.64C280.962 329.64 282.425 329.386 283.674 328.879C284.961 328.372 286.132 327.611 287.186 326.596L292.044 331.864C290.6 333.503 288.785 334.771 286.6 335.668C284.415 336.527 281.898 336.956 279.05 336.956Z" fill="#73768D"/>
<path d="M242.133 304.53C244.63 304.53 246.835 305.038 248.747 306.052C250.698 307.028 252.22 308.549 253.312 310.617C254.444 312.646 255.01 315.261 255.01 318.461V336.488H245.879V319.865C245.879 317.329 245.352 315.456 244.299 314.246C243.245 313.037 241.762 312.432 239.85 312.432C238.524 312.432 237.334 312.744 236.28 313.368C235.227 313.954 234.407 314.851 233.822 316.061C233.237 317.27 232.944 318.812 232.944 320.685V336.488H223.813V319.865C223.813 317.329 223.286 315.456 222.233 314.246C221.218 313.037 219.755 312.432 217.843 312.432C216.516 312.432 215.326 312.744 214.273 313.368C213.219 313.954 212.4 314.851 211.814 316.061C211.229 317.27 210.936 318.812 210.936 320.685V336.488H201.806V304.999H210.527V313.602L208.888 311.086C209.98 308.94 211.522 307.32 213.512 306.228C215.541 305.096 217.843 304.53 220.418 304.53C223.306 304.53 225.823 305.272 227.969 306.754C230.154 308.198 231.598 310.422 232.3 313.427L229.081 312.549C230.134 310.091 231.812 308.14 234.114 306.696C236.456 305.252 239.129 304.53 242.133 304.53Z" fill="#73768D"/>
<path d="M364.564 351.646H366.454L370.619 358.383L374.739 351.646H376.628L371.439 360.181V367.989H369.845V360.181L364.564 351.646Z" fill="white"/>
<path d="M353.59 354.378L352.338 355.585C351.427 354.705 350.426 354.029 349.333 353.559C348.256 353.089 347.14 352.853 345.987 352.853C344.834 352.853 343.681 353.164 342.527 353.787C341.374 354.409 340.471 355.251 339.819 356.313C339.181 357.36 338.863 358.498 338.863 359.727C338.863 361.639 339.576 363.309 341.002 364.735C342.444 366.146 344.242 366.852 346.397 366.852C348.036 366.852 349.439 366.397 350.608 365.486C351.791 364.561 352.497 363.309 352.725 361.731H347.512V360.16H354.568C354.523 362.755 353.749 364.781 352.247 366.237C350.744 367.679 348.779 368.4 346.351 368.4C343.559 368.4 341.321 367.542 339.637 365.828C337.967 364.113 337.133 362.102 337.133 359.796C337.133 357.474 337.967 355.471 339.637 353.787C341.306 352.087 343.499 351.237 346.215 351.237C348.931 351.237 351.389 352.284 353.59 354.378Z" fill="white"/>
<path d="M317.418 351.646H326.796V353.262H319.057V358.36H326.728V359.954H319.057V366.372H326.728V367.989H317.418V351.646Z" fill="white"/>
<path d="M297.894 353.239V351.646H306.862V353.239H303.22V367.989H301.558V353.239H297.894Z" fill="white"/>
<path d="M281.158 350.985L288.783 367.988H287.031L284.459 362.412H277.403L274.853 367.988H273.032L280.748 350.985H281.158ZM280.953 354.604L278.154 360.75H283.73L280.953 354.604Z" fill="white"/>
<path d="M252.538 351.646H255.793C257.614 351.646 258.858 351.729 259.526 351.896C260.194 352.048 260.763 352.306 261.233 352.67C261.719 353.034 262.098 353.504 262.371 354.081C262.644 354.658 262.781 355.295 262.781 355.993C262.781 357.389 262.288 358.489 261.301 359.293C260.315 360.083 258.919 360.447 257.113 360.386L263.009 367.989H260.983L255.11 360.386H254.177V367.989H252.538V351.646ZM254.177 353.239V358.793H256.999C258.395 358.808 259.42 358.595 260.072 358.155C260.74 357.7 261.074 356.987 261.074 356.016C261.074 355.045 260.748 354.339 260.095 353.899C259.443 353.459 258.433 353.239 257.068 353.239H254.177Z" fill="white"/>
<path d="M232.945 353.239V351.646H241.913V353.239H238.272V367.989H236.61V353.239H232.945Z" fill="white"/>
<path d="M213.346 364.94L214.734 364.121C215.705 365.911 216.836 366.806 218.126 366.806C218.96 366.806 219.673 366.541 220.265 366.01C220.857 365.479 221.153 364.819 221.153 364.029C221.153 363.407 220.903 362.778 220.402 362.14C219.901 361.503 219.067 360.752 217.898 359.887C216.745 359.007 215.963 358.354 215.554 357.929C215.159 357.489 214.863 357.026 214.666 356.541C214.484 356.04 214.393 355.539 214.393 355.039C214.393 353.976 214.765 353.081 215.508 352.353C216.267 351.609 217.215 351.237 218.353 351.237C219.249 351.237 220.03 351.465 220.698 351.92C221.365 352.36 222.01 353.02 222.633 353.9L221.312 354.925C220.887 354.348 220.447 353.87 219.992 353.491C219.537 353.111 218.975 352.922 218.308 352.922C217.655 352.922 217.117 353.119 216.692 353.513C216.282 353.908 216.077 354.409 216.077 355.016C216.077 355.623 216.259 356.154 216.623 356.609C217.003 357.049 217.845 357.755 219.15 358.726C220.47 359.697 221.426 360.592 222.018 361.412C222.625 362.231 222.928 363.096 222.928 364.007C222.928 365.19 222.466 366.222 221.54 367.102C220.629 367.967 219.567 368.4 218.353 368.4C216.214 368.4 214.544 367.246 213.346 364.94Z" fill="white"/>
<path d="M354.675 270.784H356.782L362.137 282.754L367.317 270.784H369.454L360.177 292.001H358.07L361.055 285.153L354.675 270.784Z" fill="#73768C"/>
<path d="M348.444 283.866C348.444 284.393 348.512 284.705 348.649 284.803C348.785 284.9 349.137 284.949 349.702 284.949H350.902V286.646C350.083 286.783 349.439 286.851 348.971 286.851C348.093 286.851 347.449 286.637 347.039 286.207C346.63 285.778 346.425 285.105 346.425 284.188V272.482H343.674V270.785H346.425V264.785H348.444V270.785H351.605V272.482H348.444V283.866Z" fill="#73768C"/>
<path d="M336.119 266.453C336.119 266.005 336.275 265.614 336.587 265.283C336.919 264.951 337.309 264.785 337.758 264.785C338.226 264.785 338.616 264.951 338.929 265.283C339.26 265.595 339.426 265.985 339.426 266.453C339.426 266.902 339.26 267.292 338.929 267.624C338.616 267.936 338.226 268.092 337.758 268.092C337.309 268.092 336.919 267.926 336.587 267.595C336.275 267.263 336.119 266.882 336.119 266.453ZM336.763 270.785H338.782V286.324H336.763V270.785Z" fill="#73768C"/>
<path d="M317.631 270.784H319.767L324.947 282.607L330.127 270.784H332.263L325.152 286.851H324.801L317.631 270.784Z" fill="#73768C"/>
<path d="M310.544 266.453C310.544 266.005 310.7 265.614 311.012 265.283C311.344 264.951 311.734 264.785 312.183 264.785C312.651 264.785 313.041 264.951 313.353 265.283C313.685 265.595 313.851 265.985 313.851 266.453C313.851 266.902 313.685 267.292 313.353 267.624C313.041 267.936 312.651 268.092 312.183 268.092C311.734 268.092 311.344 267.926 311.012 267.595C310.7 267.263 310.544 266.882 310.544 266.453ZM311.188 270.785H313.207V286.324H311.188V270.785Z" fill="#73768C"/>
<path d="M303.583 283.866C303.583 284.393 303.651 284.705 303.788 284.803C303.924 284.9 304.275 284.949 304.841 284.949H306.041V286.646C305.222 286.783 304.578 286.851 304.11 286.851C303.232 286.851 302.588 286.637 302.178 286.207C301.768 285.778 301.563 285.105 301.563 284.188V272.482H298.812V270.785H301.563V264.785H303.583V270.785H306.743V272.482H303.583V283.866Z" fill="#73768C"/>
<path d="M293.557 270.782V286.322H291.596V283.658C289.821 285.785 287.791 286.848 285.509 286.848C283.226 286.848 281.295 286.039 279.714 284.419C278.153 282.781 277.373 280.839 277.373 278.596C277.373 276.332 278.163 274.401 279.744 272.801C281.324 271.182 283.216 270.372 285.421 270.372C287.957 270.372 290.016 271.455 291.596 273.621V270.782H293.557ZM291.713 278.625C291.713 276.849 291.118 275.357 289.928 274.147C288.738 272.918 287.274 272.304 285.538 272.304C283.821 272.304 282.368 272.938 281.178 274.206C279.987 275.454 279.392 276.937 279.392 278.654C279.392 280.371 279.997 281.864 281.207 283.132C282.416 284.38 283.86 285.005 285.538 285.005C287.235 285.005 288.689 284.4 289.899 283.19C291.108 281.981 291.713 280.459 291.713 278.625Z" fill="#73768C"/>
<path d="M270.366 281.288L272.063 282.166C270.385 285.288 267.908 286.848 264.63 286.848C262.289 286.848 260.357 286.048 258.835 284.449C257.314 282.829 256.553 280.888 256.553 278.625C256.553 276.362 257.314 274.42 258.835 272.801C260.377 271.182 262.269 270.372 264.513 270.372C266.776 270.372 268.669 271.123 270.19 272.625C271.732 274.128 272.532 276.176 272.59 278.771H258.601C258.66 280.644 259.245 282.156 260.357 283.307C261.489 284.439 262.855 285.005 264.454 285.005C267.088 285.005 269.059 283.766 270.366 281.288ZM270.366 277.045C270.093 275.562 269.41 274.401 268.317 273.562C267.225 272.723 265.966 272.304 264.542 272.304C261.616 272.304 259.704 273.884 258.806 277.045H270.366Z" fill="#73768C"/>
<path d="M245.965 270.782H248.013V273.035C248.56 272.118 249.086 271.445 249.594 271.016C250.121 270.587 250.696 270.372 251.32 270.372C251.964 270.372 252.608 270.548 253.252 270.899L252.198 272.596C251.906 272.421 251.603 272.333 251.291 272.333C250.686 272.333 250.111 272.645 249.564 273.269C249.038 273.894 248.647 274.703 248.394 275.698C248.14 276.674 248.013 278.459 248.013 281.054V286.322H245.965V270.782Z" fill="#73768C"/>
<path d="M241.065 269.204L239.426 270.463C237.475 268.043 234.968 266.834 231.905 266.834C229.407 266.834 227.252 267.712 225.437 269.468C223.642 271.224 222.745 273.379 222.745 275.935C222.745 278.472 223.623 280.598 225.379 282.315C227.154 284.012 229.368 284.861 232.022 284.861C234.987 284.861 237.455 283.71 239.426 281.408L241.065 282.666C240.031 284.032 238.723 285.076 237.143 285.798C235.563 286.5 233.817 286.851 231.905 286.851C228.568 286.851 225.837 285.798 223.71 283.691C221.584 281.583 220.521 278.92 220.521 275.701C220.521 273.711 221.008 271.877 221.984 270.199C222.979 268.502 224.344 267.175 226.081 266.219C227.837 265.263 229.72 264.785 231.729 264.785C233.739 264.785 235.543 265.166 237.143 265.927C238.743 266.687 240.05 267.78 241.065 269.204Z" fill="#73768C"/>
<path d="M61.7858 28.1952V6.41211H67.8681V28.1952H61.7858ZM53.6289 20.1798V14.4275H76.0721V20.1798H53.6289Z" fill="#73768C"/>
<path d="M34.5511 34.3726C31.8479 34.3726 29.4275 33.7125 27.2901 32.3923C25.1526 31.0407 23.471 29.0919 22.2451 26.5458C21.0192 23.9997 20.4062 20.9193 20.4062 17.3045C20.4062 13.6897 21.0192 10.6092 22.2451 8.06315C23.471 5.51708 25.1526 3.58395 27.2901 2.26376C29.4275 0.912138 31.8479 0.236328 34.5511 0.236328C37.2858 0.236328 39.7061 0.912138 41.8122 2.26376C43.9496 3.58395 45.6313 5.51708 46.8572 8.06315C48.083 10.6092 48.696 13.6897 48.696 17.3045C48.696 20.9193 48.083 23.9997 46.8572 26.5458C45.6313 29.0919 43.9496 31.0407 41.8122 32.3923C39.7061 33.7125 37.2858 34.3726 34.5511 34.3726ZM34.5511 27.9131C35.8399 27.9131 36.9557 27.5516 37.8987 26.8287C38.8732 26.1057 39.6276 24.9584 40.1619 23.3868C40.7277 21.8151 41.0106 19.7877 41.0106 17.3045C41.0106 14.8213 40.7277 12.7938 40.1619 11.2222C39.6276 9.65052 38.8732 8.50321 37.8987 7.78025C36.9557 7.05729 35.8399 6.69581 34.5511 6.69581C33.2938 6.69581 32.1779 7.05729 31.2035 7.78025C30.2605 8.50321 29.5061 9.65052 28.9403 11.2222C28.406 12.7938 28.1388 14.8213 28.1388 17.3045C28.1388 19.7877 28.406 21.8151 28.9403 23.3868C29.5061 24.9584 30.2605 26.1057 31.2035 26.8287C32.1779 27.5516 33.2938 27.9131 34.5511 27.9131Z" fill="#73768C"/>
<path d="M7.03356 33.8045V3.62878L10.334 6.92925H0.432617V0.799805H14.6718V33.8045H7.03356Z" fill="#73768C"/>
<path d="M195.001 22.6602L196.588 21.7237C197.698 23.7701 198.99 24.7933 200.464 24.7933C201.418 24.7933 202.233 24.4898 202.909 23.8828C203.585 23.2758 203.924 22.5214 203.924 21.6196C203.924 20.9086 203.637 20.1889 203.065 19.4605C202.493 18.7321 201.539 17.8737 200.204 16.8851C198.886 15.8793 197.993 15.1336 197.524 14.648C197.073 14.1451 196.735 13.6161 196.51 13.0612C196.302 12.4889 196.198 11.9166 196.198 11.3443C196.198 10.1303 196.622 9.1071 197.472 8.27466C198.339 7.42489 199.423 7 200.724 7C201.747 7 202.64 7.26014 203.403 7.78041C204.166 8.28334 204.903 9.03773 205.615 10.0436L204.106 11.2142C203.62 10.5552 203.117 10.0089 202.597 9.57534C202.077 9.14178 201.435 8.925 200.672 8.925C199.926 8.925 199.311 9.15045 198.825 9.60136C198.357 10.0523 198.123 10.6246 198.123 11.3182C198.123 12.0119 198.331 12.6189 198.747 13.1392C199.18 13.6421 200.143 14.4485 201.634 15.5585C203.143 16.6684 204.236 17.6916 204.912 18.6281C205.606 19.5645 205.953 20.5531 205.953 21.5936C205.953 22.9463 205.424 24.1256 204.366 25.1314C203.325 26.12 202.111 26.6142 200.724 26.6142C198.279 26.6142 196.371 25.2962 195.001 22.6602Z" fill="white"/>
<path d="M171.864 7.46777H175.584C177.665 7.46777 179.087 7.56316 179.85 7.75392C180.613 7.92735 181.264 8.22217 181.801 8.63838C182.356 9.0546 182.79 9.59221 183.102 10.2512C183.414 10.9102 183.57 11.6386 183.57 12.4364C183.57 14.0319 183.007 15.2892 181.879 16.2083C180.752 17.1101 179.157 17.5263 177.093 17.457L183.83 26.1455H181.515L174.804 17.457H173.737V26.1455H171.864V7.46777ZM173.737 9.28872V15.636H176.963C178.558 15.6534 179.729 15.4106 180.475 14.9076C181.238 14.3874 181.619 13.5723 181.619 12.4624C181.619 11.3525 181.246 10.546 180.501 10.0431C179.755 9.54019 178.602 9.28872 177.041 9.28872H173.737Z" fill="white"/>
<path d="M150.789 6.71387L159.503 26.146H157.5L154.561 19.7727H146.497L143.583 26.146H141.502L150.321 6.71387H150.789ZM150.555 10.85L147.355 17.8737H153.728L150.555 10.85Z" fill="white"/>
<path d="M119.854 7.46777H130.572V9.31474H121.727V15.1418H130.494V16.9627H121.727V24.2985H130.494V26.1455H119.854V7.46777Z" fill="white"/>
<path d="M93.6123 7.46777H95.7714L100.532 15.1678L105.24 7.46777H107.399L101.468 17.2229V26.1455H99.6474V17.2229L93.6123 7.46777Z" fill="white"/>
<path d="M267.515 59.746L269.118 60.5752C267.533 63.5234 265.193 64.9975 262.097 64.9975C259.886 64.9975 258.062 64.242 256.625 62.7311C255.187 61.2017 254.469 59.3683 254.469 57.2308C254.469 55.0934 255.187 53.26 256.625 51.7306C258.08 50.2012 259.868 49.4365 261.987 49.4365C264.124 49.4365 265.911 50.1459 267.349 51.5648C268.804 52.9836 269.56 54.9183 269.615 57.369H256.404C256.459 59.1379 257.012 60.566 258.062 61.6531C259.131 62.7219 260.42 63.2562 261.931 63.2562C264.419 63.2562 266.28 62.0862 267.515 59.746ZM267.515 55.7383C267.257 54.3379 266.612 53.2415 265.58 52.4492C264.548 51.6569 263.359 51.2607 262.014 51.2607C259.25 51.2607 257.445 52.7533 256.597 55.7383H267.515Z" fill="white"/>
<path d="M249.951 52.8638L248.458 53.8035C247.169 52.0899 245.4 51.2331 243.152 51.2331C241.383 51.2331 239.899 51.8043 238.702 52.9467C237.504 54.0707 236.905 55.4711 236.905 57.1479C236.905 58.8247 237.495 60.262 238.674 61.4597C239.853 62.6574 241.346 63.2562 243.152 63.2562C245.308 63.2562 247.076 62.3994 248.458 60.6858L249.951 61.6808C249.214 62.7495 248.219 63.5695 246.966 64.1407C245.731 64.7119 244.395 64.9975 242.958 64.9975C240.692 64.9975 238.794 64.2512 237.264 62.7587C235.754 61.2662 234.998 59.442 234.998 57.2861C234.998 55.1302 235.763 53.2876 237.292 51.7582C238.84 50.2104 240.821 49.4365 243.235 49.4365C244.653 49.4365 245.962 49.7406 247.159 50.3486C248.376 50.9567 249.306 51.7951 249.951 52.8638Z" fill="white"/>
<path d="M217.078 49.8235H218.985V52.4492C220.496 50.4408 222.33 49.4365 224.485 49.4365C225.591 49.4365 226.586 49.7406 227.471 50.3486C228.355 50.9383 228.981 51.7214 229.35 52.698C229.719 53.6561 229.903 55.075 229.903 56.9544V64.5H228.023V57.5072C228.023 55.7936 227.94 54.6327 227.775 54.0247C227.627 53.4166 227.388 52.9007 227.056 52.4769C226.743 52.0531 226.337 51.7306 225.84 51.5095C225.342 51.2884 224.734 51.1778 224.016 51.1778C223.315 51.1778 222.624 51.3529 221.943 51.703C221.261 52.0531 220.68 52.5413 220.201 53.1678C219.722 53.7943 219.4 54.4393 219.234 55.1026C219.068 55.7659 218.985 57.1018 218.985 59.1103V64.5H217.078V49.8235Z" fill="white"/>
<path d="M209.797 59.746L211.4 60.5752C209.815 63.5234 207.475 64.9975 204.379 64.9975C202.168 64.9975 200.344 64.242 198.907 62.7311C197.47 61.2017 196.751 59.3683 196.751 57.2308C196.751 55.0934 197.47 53.26 198.907 51.7306C200.363 50.2012 202.15 49.4365 204.269 49.4365C206.406 49.4365 208.194 50.1459 209.631 51.5648C211.087 52.9836 211.842 54.9183 211.897 57.369H198.686C198.741 59.1379 199.294 60.566 200.344 61.6531C201.413 62.7219 202.703 63.2562 204.214 63.2562C206.701 63.2562 208.562 62.0862 209.797 59.746ZM209.797 55.7383C209.539 54.3379 208.894 53.2415 207.862 52.4492C206.83 51.6569 205.642 51.2607 204.297 51.2607C201.533 51.2607 199.727 52.7533 198.879 55.7383H209.797Z" fill="white"/>
<path d="M189.367 45.7336C189.367 45.3098 189.515 44.9413 189.809 44.6281C190.123 44.3148 190.491 44.1582 190.915 44.1582C191.357 44.1582 191.726 44.3148 192.021 44.6281C192.334 44.9229 192.49 45.2914 192.49 45.7336C192.49 46.1575 192.334 46.526 192.021 46.8392C191.726 47.134 191.357 47.2815 190.915 47.2815C190.491 47.2815 190.123 47.1248 189.809 46.8116C189.515 46.4983 189.367 46.139 189.367 45.7336ZM189.975 49.8243H191.882V64.5008H189.975V49.8243Z" fill="white"/>
<path d="M179.562 49.8235H181.496V51.9517C182.012 51.0857 182.51 50.45 182.989 50.0446C183.486 49.6392 184.03 49.4365 184.62 49.4365C185.228 49.4365 185.836 49.6024 186.444 49.934L185.449 51.5371C185.172 51.3713 184.887 51.2884 184.592 51.2884C184.021 51.2884 183.477 51.5832 182.961 52.1728C182.464 52.7625 182.095 53.5272 181.856 54.4669C181.616 55.3882 181.496 57.0742 181.496 59.5249V64.5H179.562V49.8235Z" fill="white"/>
<path d="M172.999 59.746L174.602 60.5752C173.017 63.5234 170.677 64.9975 167.582 64.9975C165.37 64.9975 163.546 64.242 162.109 62.7311C160.672 61.2017 159.953 59.3683 159.953 57.2308C159.953 55.0934 160.672 53.26 162.109 51.7306C163.565 50.2012 165.352 49.4365 167.471 49.4365C169.608 49.4365 171.396 50.1459 172.833 51.5648C174.289 52.9836 175.044 54.9183 175.1 57.369H161.888C161.943 59.1379 162.496 60.566 163.546 61.6531C164.615 62.7219 165.905 63.2562 167.416 63.2562C169.903 63.2562 171.764 62.0862 172.999 59.746ZM172.999 55.7383C172.741 54.3379 172.096 53.2415 171.064 52.4492C170.032 51.6569 168.844 51.2607 167.499 51.2607C164.735 51.2607 162.929 52.7533 162.081 55.7383H172.999Z" fill="white"/>
<path d="M140.173 49.8235H142.052V52.5045C143.545 50.4592 145.489 49.4365 147.884 49.4365C149.948 49.4365 151.726 50.2012 153.219 51.7306C154.711 53.2415 155.457 55.0657 155.457 57.2032C155.457 59.3406 154.72 61.1741 153.246 62.7034C151.772 64.2328 150.003 64.9975 147.94 64.9975C145.692 64.9975 143.729 63.9933 142.052 61.9848V69.862H140.173V49.8235ZM153.578 57.2308C153.578 55.5909 153.007 54.1905 151.864 53.0296C150.74 51.8504 149.358 51.2607 147.718 51.2607C146.078 51.2607 144.697 51.8412 143.573 53.002C142.467 54.1444 141.914 55.5633 141.914 57.2585C141.914 58.9537 142.485 60.3817 143.628 61.5426C144.77 62.685 146.134 63.2562 147.718 63.2562C149.321 63.2562 150.694 62.6758 151.837 61.5149C152.998 60.3357 153.578 58.9076 153.578 57.2308Z" fill="white"/>
<path d="M129.713 58.3648L125.457 64.5007H123.218L128.58 56.7617L123.743 49.8242H126.009L129.713 55.131L133.389 49.8242H135.656L130.846 56.7341L136.291 64.5007H133.997L129.713 58.3648Z" fill="white"/>
<path d="M109.062 44.6592H120.449V46.6216H111.052V52.8128H120.366V54.7476H111.052V62.5419H120.366V64.5043H109.062V44.6592Z" fill="white"/>
<path d="M81.6348 49.8235H83.5419V52.4492C85.0528 50.4408 86.8862 49.4365 89.0421 49.4365C90.1477 49.4365 91.1427 49.7406 92.0272 50.3486C92.9116 50.9383 93.5381 51.7214 93.9067 52.698C94.2752 53.6561 94.4594 55.075 94.4594 56.9544V64.5H92.58V57.5072C92.58 55.7936 92.4971 54.6327 92.3312 54.0247C92.1838 53.4166 91.9443 52.9007 91.6126 52.4769C91.2993 52.0531 90.894 51.7306 90.3965 51.5095C89.8989 51.2884 89.2909 51.1778 88.5723 51.1778C87.8721 51.1778 87.1811 51.3529 86.4993 51.703C85.8175 52.0531 85.2371 52.5413 84.758 53.1678C84.2789 53.7943 83.9565 54.4393 83.7906 55.1026C83.6248 55.7659 83.5419 57.1018 83.5419 59.1103V64.5H81.6348V49.8235Z" fill="white"/>
<path d="M74.2313 49.8235H76.1384V61.1556C76.1384 63.1641 75.9633 64.6382 75.6132 65.5779C75.2631 66.5177 74.7564 67.3008 74.0931 67.9273C73.4297 68.5538 72.6282 69.0329 71.6885 69.3645C70.7487 69.6962 69.7168 69.862 68.5928 69.862C64.7602 69.862 62.2358 68.3327 61.0196 65.2739H63.065C64.1337 67.1902 65.9487 68.1484 68.5099 68.1484C69.7445 68.1484 70.8132 67.9088 71.7161 67.4298C72.6374 66.9507 73.2823 66.3426 73.6508 65.6056C74.0378 64.8501 74.2313 63.68 74.2313 62.0954V61.4597C73.4758 62.3994 72.5821 63.0996 71.5503 63.5603C70.5184 64.0209 69.4312 64.2512 68.2888 64.2512C66.1514 64.2512 64.3732 63.5234 62.9544 62.0677C61.5356 60.6121 60.8262 58.8984 60.8262 56.9268C60.8262 54.8815 61.5817 53.1218 63.0926 51.6477C64.6036 50.1736 66.4278 49.4365 68.5652 49.4365C70.7211 49.4365 72.6098 50.4131 74.2313 52.3663V49.8235ZM74.3142 56.9268C74.3142 55.3237 73.7706 53.9786 72.6835 52.8914C71.5963 51.8043 70.2512 51.2607 68.6481 51.2607C66.9529 51.2607 65.5433 51.8504 64.4193 53.0296C63.2953 54.1905 62.7333 55.5264 62.7333 57.0374C62.7333 58.5483 63.2769 59.8381 64.364 60.9069C65.4512 61.9572 66.8423 62.4823 68.5376 62.4823C70.2328 62.4823 71.6147 61.9664 72.6835 60.9345C73.7706 59.9026 74.3142 58.5667 74.3142 56.9268Z" fill="white"/>
<path d="M53.3037 45.7336C53.3037 45.3098 53.4511 44.9413 53.7459 44.6281C54.0592 44.3148 54.4277 44.1582 54.8515 44.1582C55.2937 44.1582 55.6623 44.3148 55.9571 44.6281C56.2703 44.9229 56.427 45.2914 56.427 45.7336C56.427 46.1575 56.2703 46.526 55.9571 46.8392C55.6623 47.134 55.2937 47.2815 54.8515 47.2815C54.4277 47.2815 54.0592 47.1248 53.7459 46.8116C53.4511 46.4983 53.3037 46.139 53.3037 45.7336ZM53.9118 49.8243H55.8189V64.5008H53.9118V49.8243Z" fill="white"/>
<path d="M49.1924 51.4266L47.9762 52.6703C46.9628 51.6937 45.977 51.2054 45.0188 51.2054C44.3923 51.2054 43.8672 51.4081 43.4434 51.8135C43.0196 52.2005 42.8077 52.6888 42.8077 53.2784C42.8077 53.8496 43.0288 54.3471 43.471 54.7709C43.9317 55.1763 44.7148 55.6738 45.8203 56.2635C46.9259 56.8347 47.7643 57.4612 48.3355 58.1429C48.9252 58.8063 49.22 59.6262 49.22 60.6028C49.22 61.8374 48.787 62.8785 47.9209 63.7261C47.0733 64.5737 46.023 64.9975 44.77 64.9975C43.9409 64.9975 43.1393 64.8132 42.3654 64.4447C41.6099 64.0762 40.965 63.5603 40.4307 62.8969L41.6192 61.5702C42.5958 62.6574 43.6184 63.2009 44.6871 63.2009C45.4426 63.2009 46.0875 62.9522 46.6219 62.4547C47.1562 61.9572 47.4234 61.3767 47.4234 60.7134C47.4234 60.0316 47.1839 59.4788 46.7048 59.055C46.2442 58.6128 45.461 58.1153 44.3555 57.5625C43.2683 57.0097 42.4483 56.4109 41.8956 55.7659C41.3612 55.1026 41.094 54.255 41.094 53.2231C41.094 52.1728 41.4717 51.2791 42.2272 50.5421C43.0011 49.805 44.0146 49.4365 45.2676 49.4365C46.539 49.4365 47.8472 50.0999 49.1924 51.4266Z" fill="white"/>
<path d="M34.5331 59.746L36.1362 60.5752C34.5515 63.5234 32.2114 64.9975 29.1158 64.9975C26.9046 64.9975 25.0804 64.242 23.6432 62.7311C22.2059 61.2017 21.4873 59.3683 21.4873 57.2308C21.4873 55.0934 22.2059 53.26 23.6432 51.7306C25.0989 50.2012 26.8862 49.4365 29.0052 49.4365C31.1427 49.4365 32.93 50.1459 34.3673 51.5648C35.8229 52.9836 36.5784 54.9183 36.6337 57.369H23.4221C23.4773 59.1379 24.0301 60.566 25.0804 61.6531C26.1491 62.7219 27.439 63.2562 28.9499 63.2562C31.4375 63.2562 33.2985 62.0862 34.5331 59.746ZM34.5331 55.7383C34.2751 54.3379 33.6302 53.2415 32.5983 52.4492C31.5665 51.6569 30.378 51.2607 29.0329 51.2607C26.2689 51.2607 24.4631 52.7533 23.6155 55.7383H34.5331Z" fill="white"/>
<path d="M0.256836 64.5043V44.6592H4.37511C7.19432 44.6592 9.25807 44.8711 10.5663 45.2949C11.893 45.7003 13.0354 46.3544 13.9936 47.2573C14.9518 48.1417 15.6888 49.2289 16.2048 50.5187C16.7207 51.8086 16.9787 53.3195 16.9787 55.0516C16.9787 56.7652 16.5733 58.3867 15.7625 59.9161C14.9702 61.4271 13.8831 62.5695 12.5011 63.3434C11.1375 64.1173 9.16593 64.5043 6.58626 64.5043H0.256836ZM2.16395 62.6248H4.45802C6.85344 62.6248 8.58551 62.505 9.65423 62.2655C10.7414 62.0259 11.6903 61.5561 12.5011 60.8559C13.3118 60.1372 13.9291 59.2712 14.3529 58.2578C14.7767 57.2443 14.9886 56.0835 14.9886 54.7752C14.9886 53.4669 14.7399 52.26 14.2424 51.1544C13.7633 50.0489 13.0723 49.1368 12.1694 48.4181C11.2665 47.6995 10.1978 47.2204 8.96324 46.9809C7.74711 46.7229 5.95055 46.5939 3.57356 46.5939H2.16395V62.6248Z" fill="white"/>
</svg>
