<svg width="1147" height="84" viewBox="0 0 1147 84" fill="none" xmlns="http://www.w3.org/2000/svg">
<path d="M49.5097 39.7759V22.248H54.4039V39.7759H49.5097ZM42.9463 33.3262V28.6977H61.0052V33.3262H42.9463Z" fill="#73768C"/>
<path d="M27.5946 44.7471C25.4194 44.7471 23.4719 44.216 21.752 43.1537C20.0321 42.0661 18.6789 40.498 17.6925 38.4492C16.7061 36.4005 16.2129 33.9219 16.2129 31.0132C16.2129 28.1046 16.7061 25.6259 17.6925 23.5772C18.6789 21.5285 20.0321 19.973 21.752 18.9107C23.4719 17.8231 25.4194 17.2793 27.5946 17.2793C29.795 17.2793 31.7426 17.8231 33.4372 18.9107C35.1571 19.973 36.5102 21.5285 37.4967 23.5772C38.4831 25.6259 38.9763 28.1046 38.9763 31.0132C38.9763 33.9219 38.4831 36.4005 37.4967 38.4492C36.5102 40.498 35.1571 42.0661 33.4372 43.1537C31.7426 44.216 29.795 44.7471 27.5946 44.7471ZM27.5946 39.5495C28.6316 39.5495 29.5295 39.2586 30.2883 38.6769C31.0723 38.0952 31.6794 37.172 32.1093 35.9073C32.5646 34.6427 32.7922 33.0113 32.7922 31.0132C32.7922 29.0151 32.5646 27.3837 32.1093 26.1191C31.6794 24.8544 31.0723 23.9313 30.2883 23.3495C29.5295 22.7678 28.6316 22.4769 27.5946 22.4769C26.5829 22.4769 25.685 22.7678 24.9009 23.3495C24.1421 23.9313 23.5351 24.8544 23.0798 26.1191C22.6499 27.3837 22.4349 29.0151 22.4349 31.0132C22.4349 33.0113 22.6499 34.6427 23.0798 35.9073C23.5351 37.172 24.1421 38.0952 24.9009 38.6769C25.685 39.2586 26.5829 39.5495 27.5946 39.5495Z" fill="#73768C"/>
<path d="M5.45306 44.2897V20.0088L8.10879 22.6645H0.141602V17.7324H11.5992V44.2897H5.45306Z" fill="#73768C"/>
<path d="M156.701 35.3236L157.978 34.5701C158.871 36.2167 159.911 37.04 161.097 37.04C161.864 37.04 162.52 36.7958 163.064 36.3074C163.609 35.819 163.881 35.212 163.881 34.4864C163.881 33.9142 163.651 33.3351 163.19 32.749C162.73 32.1629 161.962 31.4722 160.888 30.6768C159.827 29.8674 159.108 29.2673 158.732 28.8766C158.369 28.4719 158.097 28.0463 157.915 27.5998C157.748 27.1393 157.664 26.6788 157.664 26.2183C157.664 25.2415 158.006 24.4181 158.69 23.7483C159.387 23.0645 160.26 22.7227 161.306 22.7227C162.129 22.7227 162.848 22.932 163.462 23.3506C164.076 23.7553 164.669 24.3623 165.241 25.1717L164.027 26.1136C163.637 25.5833 163.232 25.1438 162.813 24.7949C162.395 24.446 161.878 24.2716 161.264 24.2716C160.664 24.2716 160.169 24.453 159.778 24.8158C159.401 25.1787 159.213 25.6392 159.213 26.1973C159.213 26.7555 159.38 27.2439 159.715 27.6626C160.064 28.0673 160.839 28.7161 162.039 29.6092C163.253 30.5023 164.132 31.3256 164.676 32.0792C165.234 32.8327 165.513 33.6282 165.513 34.4654C165.513 35.5539 165.088 36.5028 164.237 37.3122C163.399 38.1076 162.423 38.5053 161.306 38.5053C159.339 38.5053 157.804 37.4447 156.701 35.3236Z" fill="white"/>
<path d="M138.084 23.0996H141.077C142.752 23.0996 143.896 23.1764 144.51 23.3299C145.124 23.4694 145.647 23.7066 146.08 24.0415C146.526 24.3765 146.875 24.809 147.127 25.3393C147.378 25.8696 147.503 26.4557 147.503 27.0976C147.503 28.3814 147.05 29.3931 146.143 30.1327C145.236 30.8584 143.952 31.1933 142.291 31.1374L147.713 38.1287H145.85L140.449 31.1374H139.591V38.1287H138.084V23.0996ZM139.591 24.5648V29.6722H142.187C143.47 29.6862 144.412 29.4908 145.012 29.0861C145.626 28.6675 145.933 28.0116 145.933 27.1185C145.933 26.2254 145.633 25.5765 145.033 25.1719C144.433 24.7672 143.505 24.5648 142.249 24.5648H139.591Z" fill="white"/>
<path d="M121.125 22.4922L128.137 38.1283H126.525L124.16 33H117.671L115.327 38.1283H113.652L120.748 22.4922H121.125ZM120.937 25.8204L118.362 31.472H123.49L120.937 25.8204Z" fill="white"/>
<path d="M96.2344 23.0996H104.858V24.5858H97.7415V29.2745H104.796V30.7397H97.7415V36.6425H104.796V38.1287H96.2344V23.0996Z" fill="white"/>
<path d="M75.1182 23.0996H76.8555L80.686 29.2954L84.4747 23.0996H86.212L81.4396 30.9491V38.1287H79.9744V30.9491L75.1182 23.0996Z" fill="white"/>
<path d="M215.049 65.1647L216.339 65.8319C215.064 68.2042 213.181 69.3903 210.69 69.3903C208.911 69.3903 207.443 68.7824 206.286 67.5666C205.13 66.336 204.552 64.8607 204.552 63.1408C204.552 61.4209 205.13 59.9457 206.286 58.7151C207.458 57.4845 208.896 56.8691 210.601 56.8691C212.321 56.8691 213.759 57.44 214.916 58.5816C216.087 59.7233 216.695 61.2801 216.739 63.252H206.109C206.153 64.6754 206.598 65.8245 207.443 66.6993C208.303 67.5592 209.341 67.9892 210.557 67.9892C212.558 67.9892 214.056 67.0477 215.049 65.1647ZM215.049 61.9399C214.842 60.8131 214.323 59.9309 213.492 59.2933C212.662 58.6558 211.706 58.337 210.623 58.337C208.399 58.337 206.946 59.538 206.264 61.9399H215.049Z" fill="white"/>
<path d="M200.917 59.6269L199.716 60.3831C198.678 59.0042 197.254 58.3147 195.446 58.3147C194.022 58.3147 192.829 58.7744 191.865 59.6936C190.901 60.5981 190.419 61.7249 190.419 63.0741C190.419 64.4234 190.894 65.5798 191.843 66.5436C192.792 67.5073 193.993 67.9892 195.446 67.9892C197.18 67.9892 198.604 67.2997 199.716 65.9209L200.917 66.7215C200.324 67.5815 199.523 68.2412 198.515 68.7009C197.521 69.1605 196.446 69.3903 195.29 69.3903C193.466 69.3903 191.939 68.7898 190.708 67.5889C189.493 66.3879 188.885 64.9201 188.885 63.1853C188.885 61.4506 189.5 59.9679 190.731 58.7373C191.976 57.4919 193.57 56.8691 195.512 56.8691C196.654 56.8691 197.707 57.1138 198.67 57.6031C199.649 58.0923 200.398 58.767 200.917 59.6269Z" fill="white"/>
<path d="M174.465 57.1805H175.999V59.2933C177.215 57.6772 178.69 56.8691 180.425 56.8691C181.315 56.8691 182.115 57.1138 182.827 57.6031C183.539 58.0775 184.043 58.7077 184.339 59.4935C184.636 60.2645 184.784 61.4061 184.784 62.9184V68.99H183.272V63.3632C183.272 61.9844 183.205 61.0503 183.072 60.561C182.953 60.0717 182.76 59.6566 182.494 59.3156C182.241 58.9745 181.915 58.7151 181.515 58.5371C181.115 58.3592 180.625 58.2703 180.047 58.2703C179.484 58.2703 178.928 58.4111 178.379 58.6928C177.83 58.9745 177.363 59.3674 176.978 59.8716C176.592 60.3757 176.333 60.8946 176.2 61.4284C176.066 61.9621 175.999 63.0371 175.999 64.6532V68.99H174.465V57.1805Z" fill="white"/>
<path d="M168.607 65.1647L169.897 65.8319C168.622 68.2042 166.739 69.3903 164.248 69.3903C162.468 69.3903 161.001 68.7824 159.844 67.5666C158.688 66.336 158.109 64.8607 158.109 63.1408C158.109 61.4209 158.688 59.9457 159.844 58.7151C161.015 57.4845 162.454 56.8691 164.159 56.8691C165.879 56.8691 167.317 57.44 168.473 58.5816C169.645 59.7233 170.252 61.2801 170.297 63.252H159.666C159.711 64.6754 160.155 65.8245 161.001 66.6993C161.861 67.5592 162.898 67.9892 164.114 67.9892C166.116 67.9892 167.613 67.0477 168.607 65.1647ZM168.607 61.9399C168.399 60.8131 167.88 59.9309 167.05 59.2933C166.22 58.6558 165.263 58.337 164.181 58.337C161.957 58.337 160.504 59.538 159.822 61.9399H168.607Z" fill="white"/>
<path d="M152.168 53.8888C152.168 53.5478 152.287 53.2512 152.524 52.9992C152.776 52.7471 153.072 52.6211 153.413 52.6211C153.769 52.6211 154.066 52.7471 154.303 52.9992C154.555 53.2364 154.681 53.5329 154.681 53.8888C154.681 54.2298 154.555 54.5263 154.303 54.7784C154.066 55.0156 153.769 55.1342 153.413 55.1342C153.072 55.1342 152.776 55.0082 152.524 54.7561C152.287 54.5041 152.168 54.215 152.168 53.8888ZM152.657 57.1803H154.192V68.9898H152.657V57.1803Z" fill="white"/>
<path d="M144.277 57.1805H145.834V58.893C146.249 58.1961 146.65 57.6846 147.035 57.3584C147.435 57.0322 147.873 56.8691 148.347 56.8691C148.837 56.8691 149.326 57.0026 149.815 57.2695L149.014 58.5594C148.792 58.4259 148.562 58.3592 148.325 58.3592C147.865 58.3592 147.428 58.5965 147.013 59.0709C146.613 59.5454 146.316 60.1607 146.123 60.9168C145.931 61.6582 145.834 63.0148 145.834 64.9868V68.99H144.277V57.1805Z" fill="white"/>
<path d="M138.997 65.1647L140.287 65.8319C139.012 68.2042 137.129 69.3903 134.638 69.3903C132.859 69.3903 131.391 68.7824 130.235 67.5666C129.078 66.336 128.5 64.8607 128.5 63.1408C128.5 61.4209 129.078 59.9457 130.235 58.7151C131.406 57.4845 132.844 56.8691 134.549 56.8691C136.269 56.8691 137.707 57.44 138.864 58.5816C140.035 59.7233 140.643 61.2801 140.688 63.252H130.057C130.101 64.6754 130.546 65.8245 131.391 66.6993C132.251 67.5592 133.289 67.9892 134.505 67.9892C136.506 67.9892 138.004 67.0477 138.997 65.1647ZM138.997 61.9399C138.79 60.8131 138.271 59.9309 137.441 59.2933C136.61 58.6558 135.654 58.337 134.572 58.337C132.348 58.337 130.895 59.538 130.212 61.9399H138.997Z" fill="white"/>
<path d="M112.584 57.1805H114.096V59.3378C115.297 57.692 116.862 56.8691 118.789 56.8691C120.45 56.8691 121.88 57.4845 123.081 58.7151C124.282 59.9309 124.883 61.3987 124.883 63.1186C124.883 64.8385 124.29 66.3138 123.104 67.5444C121.917 68.775 120.494 69.3903 118.833 69.3903C117.025 69.3903 115.446 68.5823 114.096 66.9661V73.3046H112.584V57.1805ZM123.37 63.1408C123.37 61.8213 122.911 60.6944 121.992 59.7604C121.087 58.8114 119.975 58.337 118.656 58.337C117.336 58.337 116.224 58.804 115.32 59.7381C114.43 60.6574 113.985 61.799 113.985 63.1631C113.985 64.5271 114.445 65.6762 115.364 66.6103C116.283 67.5296 117.38 67.9892 118.656 67.9892C119.945 67.9892 121.05 67.5221 121.969 66.5881C122.903 65.6392 123.37 64.4901 123.37 63.1408Z" fill="white"/>
<path d="M104.168 64.0519L100.743 68.9892H98.9414L103.256 62.762L99.364 57.1797H101.188L104.168 61.4498L107.126 57.1797H108.949L105.08 62.7397L109.461 68.9892H107.615L104.168 64.0519Z" fill="white"/>
<path d="M87.5508 53.0234H96.7137V54.6025H89.1521V59.5843H96.647V61.1411H89.1521V67.4128H96.647V68.9918H87.5508V53.0234Z" fill="white"/>
<path d="M65.4805 57.1805H67.015V59.2933C68.2308 57.6772 69.7061 56.8691 71.4408 56.8691C72.3304 56.8691 73.1311 57.1138 73.8427 57.6031C74.5544 58.0775 75.0585 58.7077 75.3551 59.4935C75.6516 60.2645 75.7999 61.4061 75.7999 62.9184V68.99H74.2875V63.3632C74.2875 61.9844 74.2208 61.0503 74.0874 60.561C73.9688 60.0717 73.776 59.6566 73.5091 59.3156C73.2571 58.9745 72.9309 58.7151 72.5306 58.5371C72.1303 58.3592 71.641 58.2703 71.0627 58.2703C70.4993 58.2703 69.9433 58.4111 69.3947 58.6928C68.8461 58.9745 68.3791 59.3674 67.9936 59.8716C67.6081 60.3757 67.3486 60.8946 67.2152 61.4284C67.0818 61.9621 67.015 63.0371 67.015 64.6532V68.99H65.4805V57.1805Z" fill="white"/>
<path d="M59.5237 57.1805H61.0583V66.2989C61.0583 67.9151 60.9175 69.1012 60.6358 69.8574C60.354 70.6135 59.9463 71.2437 59.4125 71.7478C58.8788 72.2519 58.2338 72.6374 57.4777 72.9042C56.7215 73.1711 55.8912 73.3046 54.9868 73.3046C51.9028 73.3046 49.8715 72.074 48.893 69.6127H50.5388C51.3987 71.1547 52.8591 71.9257 54.9201 71.9257C55.9134 71.9257 56.7734 71.7329 57.4999 71.3474C58.2412 70.9619 58.7602 70.4727 59.0567 69.8796C59.3681 69.2717 59.5237 68.3302 59.5237 67.0551V66.5436C58.9159 67.2997 58.1968 67.8632 57.3665 68.2338C56.5362 68.6045 55.6614 68.7898 54.7421 68.7898C53.0222 68.7898 51.5915 68.2042 50.4498 67.0329C49.3081 65.8616 48.7373 64.4827 48.7373 62.8962C48.7373 61.2504 49.3452 59.8345 50.561 58.6483C51.7768 57.4622 53.2446 56.8691 54.9645 56.8691C56.6993 56.8691 58.219 57.655 59.5237 59.2266V57.1805ZM59.5905 62.8962C59.5905 61.6063 59.1531 60.5239 58.2783 59.6492C57.4035 58.7744 56.3212 58.337 55.0313 58.337C53.6672 58.337 52.5329 58.8114 51.6285 59.7604C50.7241 60.6944 50.2719 61.7694 50.2719 62.9852C50.2719 64.201 50.7093 65.2388 51.584 66.0988C52.4588 66.9439 53.5782 67.3665 54.9423 67.3665C56.3063 67.3665 57.4184 66.9513 58.2783 66.121C59.1531 65.2907 59.5905 64.2158 59.5905 62.8962Z" fill="white"/>
<path d="M42.6836 53.8888C42.6836 53.5478 42.8022 53.2512 43.0394 52.9992C43.2915 52.7471 43.588 52.6211 43.929 52.6211C44.2849 52.6211 44.5814 52.7471 44.8186 52.9992C45.0707 53.2364 45.1967 53.5329 45.1967 53.8888C45.1967 54.2298 45.0707 54.5263 44.8186 54.7784C44.5814 55.0156 44.2849 55.1342 43.929 55.1342C43.588 55.1342 43.2915 55.0082 43.0394 54.7561C42.8022 54.5041 42.6836 54.215 42.6836 53.8888ZM43.1729 57.1803H44.7074V68.9898H43.1729V57.1803Z" fill="white"/>
<path d="M39.3763 58.4704L38.3977 59.4712C37.5822 58.6854 36.789 58.2925 36.018 58.2925C35.5139 58.2925 35.0914 58.4556 34.7503 58.7818C34.4093 59.0931 34.2388 59.4861 34.2388 59.9605C34.2388 60.4201 34.4167 60.8205 34.7726 61.1615C35.1433 61.4877 35.7734 61.888 36.663 62.3624C37.5526 62.8221 38.2272 63.3262 38.6868 63.8748C39.1613 64.4085 39.3985 65.0683 39.3985 65.8541C39.3985 66.8475 39.0501 67.6852 38.3532 68.3673C37.6712 69.0493 36.8261 69.3903 35.8179 69.3903C35.1507 69.3903 34.5057 69.242 33.883 68.9455C33.2751 68.649 32.7561 68.2338 32.3262 67.7001L33.2825 66.6325C34.0683 67.5073 34.8912 67.9447 35.7511 67.9447C36.359 67.9447 36.878 67.7445 37.308 67.3442C37.7379 66.9439 37.9529 66.4769 37.9529 65.9431C37.9529 65.3945 37.7602 64.9497 37.3747 64.6087C37.004 64.2529 36.3739 63.8525 35.4843 63.4077C34.6095 62.9629 33.9497 62.4811 33.5049 61.9621C33.0749 61.4284 32.8599 60.7463 32.8599 59.916C32.8599 59.0709 33.1639 58.3518 33.7718 57.7587C34.3945 57.1657 35.21 56.8691 36.2182 56.8691C37.2412 56.8691 38.2939 57.4029 39.3763 58.4704Z" fill="white"/>
<path d="M27.5803 65.1647L28.8703 65.8319C27.5952 68.2042 25.7122 69.3903 23.2213 69.3903C21.4421 69.3903 19.9742 68.7824 18.8177 67.5666C17.6613 66.336 17.083 64.8607 17.083 63.1408C17.083 61.4209 17.6613 59.9457 18.8177 58.7151C19.989 57.4845 21.4272 56.8691 23.1323 56.8691C24.8522 56.8691 26.2904 57.44 27.4469 58.5816C28.6182 59.7233 29.2261 61.2801 29.2706 63.252H18.6398C18.6843 64.6754 19.1291 65.8245 19.9742 66.6993C20.8342 67.5592 21.872 67.9892 23.0878 67.9892C25.0894 67.9892 26.5869 67.0477 27.5803 65.1647ZM27.5803 61.9399C27.3728 60.8131 26.8538 59.9309 26.0235 59.2933C25.1932 58.6558 24.2369 58.337 23.1546 58.337C20.9305 58.337 19.4775 59.538 18.7955 61.9399H27.5803Z" fill="white"/>
<path d="M0 68.9918V53.0234H3.31377C5.58226 53.0234 7.24286 53.1939 8.29555 53.535C9.36308 53.8611 10.2823 54.3875 11.0533 55.114C11.8243 55.8257 12.4174 56.7005 12.8325 57.7383C13.2477 58.7762 13.4553 59.992 13.4553 61.3857C13.4553 62.7646 13.1291 64.0694 12.4767 65.3C11.8391 66.5158 10.9644 67.435 9.85236 68.0577C8.75518 68.6805 7.16872 68.9918 5.09298 68.9918H0ZM1.53457 67.4795H3.38049C5.30797 67.4795 6.70168 67.3831 7.56163 67.1904C8.43641 66.9976 9.19999 66.6195 9.85236 66.0561C10.5047 65.4779 11.0014 64.781 11.3424 63.9656C11.6835 63.1501 11.854 62.216 11.854 61.1633C11.854 60.1106 11.6538 59.1395 11.2535 58.2499C10.868 57.3603 10.312 56.6263 9.58548 56.0481C8.85897 55.4698 7.99902 55.0844 7.00563 54.8916C6.02707 54.684 4.58146 54.5802 2.66881 54.5802H1.53457V67.4795Z" fill="white"/>
<path d="M1134.8 58.072C1132.63 58.072 1130.55 57.8208 1128.54 57.3185C1126.56 56.7847 1124.99 56.1254 1123.83 55.3404L1126.28 50.0656C1127.44 50.7877 1128.8 51.3843 1130.37 51.8553C1131.97 52.2948 1133.54 52.5146 1135.08 52.5146C1136.78 52.5146 1137.97 52.3105 1138.66 51.9024C1139.38 51.4942 1139.74 50.929 1139.74 50.2069C1139.74 49.6103 1139.46 49.1708 1138.9 48.8882C1138.36 48.5742 1137.64 48.3387 1136.73 48.1817C1135.82 48.0247 1134.82 47.8677 1133.72 47.7108C1132.65 47.5538 1131.57 47.3497 1130.47 47.0985C1129.37 46.8159 1128.36 46.4077 1127.45 45.874C1126.54 45.3402 1125.8 44.6181 1125.24 43.7075C1124.71 42.797 1124.44 41.6196 1124.44 40.1753C1124.44 38.574 1124.89 37.1611 1125.8 35.9366C1126.75 34.7121 1128.1 33.7544 1129.85 33.0637C1131.61 32.3415 1133.72 31.9805 1136.17 31.9805C1137.89 31.9805 1139.65 32.1689 1141.44 32.5456C1143.23 32.9224 1144.72 33.4719 1145.91 34.194L1143.47 39.4217C1142.24 38.6996 1141 38.2129 1139.74 37.9617C1138.52 37.6792 1137.33 37.5379 1136.17 37.5379C1134.53 37.5379 1133.34 37.7577 1132.59 38.1972C1131.83 38.6368 1131.46 39.202 1131.46 39.8927C1131.46 40.5207 1131.72 40.9916 1132.26 41.3056C1132.82 41.6196 1133.56 41.8708 1134.47 42.0592C1135.38 42.2475 1136.37 42.4202 1137.44 42.5772C1138.54 42.7028 1139.63 42.9069 1140.73 43.1895C1141.83 43.4721 1142.82 43.8802 1143.7 44.414C1144.61 44.9164 1145.35 45.6228 1145.91 46.5333C1146.48 47.4125 1146.76 48.5742 1146.76 50.0185C1146.76 51.5884 1146.29 52.9856 1145.35 54.2101C1144.41 55.4032 1143.04 56.3451 1141.25 57.0359C1139.49 57.7266 1137.34 58.072 1134.8 58.072Z" fill="#73768D"/>
<path d="M1116.17 58.0712C1113.19 58.0712 1110.86 57.3177 1109.2 55.8106C1107.54 54.2721 1106.7 51.9958 1106.7 48.9816V26.752H1114.05V48.8874C1114.05 49.9549 1114.33 50.787 1114.9 51.3835C1115.46 51.9487 1116.23 52.2313 1117.21 52.2313C1118.37 52.2313 1119.36 51.9173 1120.17 51.2893L1122.15 56.4699C1121.4 57.0037 1120.49 57.4119 1119.42 57.6945C1118.38 57.9456 1117.3 58.0712 1116.17 58.0712ZM1102.79 38.5732V32.9216H1120.36V38.5732H1102.79Z" fill="#73768D"/>
<path d="M1088.67 58.072C1085.78 58.072 1083.24 57.5069 1081.04 56.3765C1078.88 55.2462 1077.2 53.7077 1076 51.7611C1074.81 49.783 1074.21 47.5381 1074.21 45.0262C1074.21 42.483 1074.79 40.2381 1075.96 38.2914C1077.15 36.3134 1078.77 34.7749 1080.81 33.6759C1082.85 32.5456 1085.16 31.9805 1087.73 31.9805C1090.21 31.9805 1092.44 32.5142 1094.42 33.5818C1096.43 34.6179 1098.01 36.125 1099.17 38.103C1100.34 40.0497 1100.92 42.3888 1100.92 45.1204C1100.92 45.403 1100.9 45.7327 1100.87 46.1095C1100.84 46.4548 1100.81 46.7845 1100.78 47.0985H1080.19V42.8127H1096.91L1094.09 44.0843C1094.09 42.7656 1093.82 41.6196 1093.29 40.6463C1092.75 39.6729 1092.02 38.9194 1091.07 38.3856C1090.13 37.8205 1089.03 37.5379 1087.78 37.5379C1086.52 37.5379 1085.41 37.8205 1084.43 38.3856C1083.49 38.9194 1082.75 39.6886 1082.22 40.6934C1081.69 41.6667 1081.42 42.8284 1081.42 44.1785V45.3088C1081.42 46.6903 1081.72 47.9148 1082.31 48.9824C1082.94 50.0185 1083.8 50.8191 1084.9 51.3843C1086.03 51.9181 1087.35 52.1849 1088.86 52.1849C1090.21 52.1849 1091.39 51.9809 1092.39 51.5727C1093.43 51.1645 1094.37 50.5523 1095.22 49.7359L1099.13 53.9746C1097.97 55.2933 1096.51 56.3137 1094.75 57.0359C1092.99 57.7266 1090.96 58.072 1088.67 58.072Z" fill="#73768D"/>
<path d="M1058.96 58.072C1056.07 58.072 1053.53 57.5069 1051.33 56.3765C1049.16 55.2462 1047.48 53.7077 1046.29 51.7611C1045.1 49.783 1044.5 47.5381 1044.5 45.0262C1044.5 42.483 1045.08 40.2381 1046.24 38.2914C1047.44 36.3134 1049.05 34.7749 1051.09 33.6759C1053.14 32.5456 1055.44 31.9805 1058.02 31.9805C1060.5 31.9805 1062.73 32.5142 1064.71 33.5818C1066.71 34.6179 1068.3 36.125 1069.46 38.103C1070.62 40.0497 1071.2 42.3888 1071.2 45.1204C1071.2 45.403 1071.19 45.7327 1071.16 46.1095C1071.13 46.4548 1071.09 46.7845 1071.06 47.0985H1050.48V42.8127H1067.2L1064.38 44.0843C1064.38 42.7656 1064.11 41.6196 1063.58 40.6463C1063.04 39.6729 1062.3 38.9194 1061.36 38.3856C1060.42 37.8205 1059.32 37.5379 1058.06 37.5379C1056.81 37.5379 1055.69 37.8205 1054.72 38.3856C1053.78 38.9194 1053.04 39.6886 1052.51 40.6934C1051.97 41.6667 1051.71 42.8284 1051.71 44.1785V45.3088C1051.71 46.6903 1052.01 47.9148 1052.6 48.9824C1053.23 50.0185 1054.09 50.8191 1055.19 51.3843C1056.32 51.9181 1057.64 52.1849 1059.15 52.1849C1060.5 52.1849 1061.68 51.9809 1062.68 51.5727C1063.72 51.1645 1064.66 50.5523 1065.51 49.7359L1069.42 53.9746C1068.25 55.2933 1066.79 56.3137 1065.04 57.0359C1063.28 57.7266 1061.25 58.072 1058.96 58.072Z" fill="#73768D"/>
<path d="M1029.25 31.9805C1031.26 31.9805 1033.04 32.3886 1034.58 33.205C1036.15 33.9899 1037.37 35.2144 1038.25 36.8785C1039.16 38.5112 1039.62 40.6149 1039.62 43.1895V57.6952H1032.27V44.3198C1032.27 42.2789 1031.84 40.7718 1031 39.7985C1030.15 38.8252 1028.96 38.3385 1027.42 38.3385C1026.35 38.3385 1025.39 38.5897 1024.54 39.0921C1023.7 39.563 1023.04 40.2852 1022.57 41.2585C1022.1 42.2318 1021.86 43.4721 1021.86 44.9791V57.6952H1014.51V44.3198C1014.51 42.2789 1014.09 40.7718 1013.24 39.7985C1012.43 38.8252 1011.25 38.3385 1009.71 38.3385C1008.64 38.3385 1007.68 38.5897 1006.84 39.0921C1005.99 39.563 1005.33 40.2852 1004.86 41.2585C1004.39 42.2318 1004.15 43.4721 1004.15 44.9791V57.6952H996.805V32.3572H1003.82V39.2805L1002.5 37.2553C1003.38 35.5284 1004.62 34.2254 1006.22 33.3463C1007.86 32.4357 1009.71 31.9805 1011.78 31.9805C1014.1 31.9805 1016.13 32.577 1017.86 33.7701C1019.62 34.9319 1020.78 36.7215 1021.34 39.1392L1018.75 38.4327C1019.6 36.4547 1020.95 34.8848 1022.8 33.723C1024.69 32.5613 1026.84 31.9805 1029.25 31.9805Z" fill="#73768D"/>
<path d="M1118.19 69.8926H1119.71L1123.07 75.3139L1126.38 69.8926H1127.9L1123.72 76.7608V83.043H1122.44V76.7608L1118.19 69.8926Z" fill="white"/>
<path d="M1109.36 72.09L1108.36 73.0607C1107.62 72.3525 1106.82 71.8092 1105.94 71.4307C1105.07 71.0522 1104.17 70.8629 1103.25 70.8629C1102.32 70.8629 1101.39 71.1132 1100.46 71.6138C1099.53 72.1144 1098.81 72.7921 1098.28 73.6468C1097.77 74.4893 1097.51 75.4051 1097.51 76.3941C1097.51 77.9326 1098.09 79.2758 1099.23 80.4235C1100.39 81.5591 1101.84 82.1268 1103.58 82.1268C1104.89 82.1268 1106.02 81.7605 1106.96 81.0279C1107.92 80.2831 1108.48 79.2758 1108.67 78.0059H1104.47V76.7421H1110.15C1110.11 78.8301 1109.49 80.4601 1108.28 81.6323C1107.07 82.7923 1105.49 83.3723 1103.54 83.3723C1101.29 83.3723 1099.49 82.6824 1098.14 81.3027C1096.79 79.9229 1096.12 78.305 1096.12 76.4491C1096.12 74.5809 1096.79 72.9692 1098.14 71.6138C1099.48 70.2463 1101.24 69.5625 1103.43 69.5625C1105.61 69.5625 1107.59 70.405 1109.36 72.09Z" fill="white"/>
<path d="M1080.26 69.8926H1087.8V71.193H1081.58V75.2956H1087.75V76.5777H1081.58V81.7426H1087.75V83.043H1080.26V69.8926Z" fill="white"/>
<path d="M1064.55 71.1747V69.8926H1071.76V71.1747H1068.83V83.043H1067.5V71.1747H1064.55Z" fill="white"/>
<path d="M1051.08 69.3613L1057.22 83.0429H1055.81L1053.74 78.5556H1048.06L1046.01 83.0429H1044.54L1050.75 69.3613H1051.08ZM1050.92 72.2735L1048.66 77.2186H1053.15L1050.92 72.2735Z" fill="white"/>
<path d="M1028.05 69.8926H1030.67C1032.14 69.8926 1033.14 69.9597 1033.67 70.094C1034.21 70.2161 1034.67 70.4237 1035.05 70.7168C1035.44 71.0098 1035.74 71.3883 1035.96 71.8523C1036.18 72.3163 1036.29 72.8291 1036.29 73.3908C1036.29 74.5142 1035.9 75.3994 1035.1 76.0465C1034.31 76.6815 1033.19 76.9745 1031.73 76.9257L1036.48 83.043H1034.85L1030.12 76.9257H1029.37V83.043H1028.05V69.8926ZM1029.37 71.1747V75.6436H1031.64C1032.76 75.6558 1033.59 75.4849 1034.11 75.1308C1034.65 74.7645 1034.92 74.1906 1034.92 73.4091C1034.92 72.6277 1034.66 72.0599 1034.13 71.7058C1033.61 71.3517 1032.8 71.1747 1031.7 71.1747H1029.37Z" fill="white"/>
<path d="M1012.29 71.1747V69.8926H1019.5V71.1747H1016.57V83.043H1015.23V71.1747H1012.29Z" fill="white"/>
<path d="M996.516 80.5884L997.633 79.929C998.414 81.3698 999.324 82.0902 1000.36 82.0902C1001.03 82.0902 1001.61 81.8765 1002.08 81.4492C1002.56 81.0218 1002.8 80.4907 1002.8 79.8557C1002.8 79.3551 1002.6 78.8484 1002.19 78.3356C1001.79 77.8227 1001.12 77.2183 1000.18 76.5223C999.251 75.8141 998.622 75.2891 998.292 74.9472C997.975 74.5931 997.737 74.2207 997.578 73.83C997.431 73.427 997.358 73.0241 997.358 72.6212C997.358 71.7664 997.657 71.046 998.256 70.46C998.866 69.8617 999.629 69.5625 1000.55 69.5625C1001.27 69.5625 1001.89 69.7457 1002.43 70.112C1002.97 70.4661 1003.49 70.9972 1003.99 71.7054L1002.93 72.5296C1002.58 72.0656 1002.23 71.681 1001.86 71.3757C1001.5 71.0705 1001.05 70.9178 1000.51 70.9178C999.983 70.9178 999.55 71.0766 999.208 71.394C998.878 71.7115 998.713 72.1144 998.713 72.6029C998.713 73.0913 998.86 73.5186 999.153 73.8849C999.458 74.239 1000.14 74.8068 1001.19 75.5883C1002.25 76.3697 1003.02 77.0901 1003.49 77.7495C1003.98 78.4088 1004.23 79.1048 1004.23 79.8374C1004.23 80.7898 1003.85 81.6201 1003.11 82.3283C1002.38 83.0243 1001.52 83.3723 1000.55 83.3723C998.823 83.3723 997.48 82.4443 996.516 80.5884Z" fill="white"/>
<path d="M1106.05 4.82617H1107.75L1112.06 14.4574L1116.23 4.82617H1117.95L1110.48 21.8987H1108.79L1111.19 16.3884L1106.05 4.82617Z" fill="#73768C"/>
<path d="M1101.04 15.3535C1101.04 15.7774 1101.1 16.0286 1101.21 16.1071C1101.32 16.1856 1101.6 16.2248 1102.05 16.2248H1103.02V17.5906C1102.36 17.7005 1101.84 17.7554 1101.47 17.7554C1100.76 17.7554 1100.24 17.5828 1099.91 17.2374C1099.58 16.892 1099.42 16.3504 1099.42 15.6125V6.19321H1097.2V4.82741H1099.42V0H1101.04V4.82741H1103.58V6.19321H1101.04V15.3535Z" fill="#73768C"/>
<path d="M1091.12 1.34226C1091.12 0.981182 1091.25 0.667204 1091.5 0.400322C1091.77 0.133441 1092.08 0 1092.44 0C1092.82 0 1093.13 0.133441 1093.38 0.400322C1093.65 0.651505 1093.78 0.965483 1093.78 1.34226C1093.78 1.70333 1093.65 2.01731 1093.38 2.28419C1093.13 2.53537 1092.82 2.66096 1092.44 2.66096C1092.08 2.66096 1091.77 2.52752 1091.5 2.26064C1091.25 1.99376 1091.12 1.68763 1091.12 1.34226ZM1091.64 4.82741H1093.27V17.3316H1091.64V4.82741Z" fill="#73768C"/>
<path d="M1076.25 4.82617H1077.97L1082.13 14.3397L1086.3 4.82617H1088.02L1082.3 17.7542H1082.02L1076.25 4.82617Z" fill="#73768C"/>
<path d="M1070.54 1.34226C1070.54 0.981182 1070.67 0.667204 1070.92 0.400322C1071.19 0.133441 1071.5 0 1071.86 0C1072.24 0 1072.55 0.133441 1072.81 0.400322C1073.07 0.651505 1073.21 0.965483 1073.21 1.34226C1073.21 1.70333 1073.07 2.01731 1072.81 2.28419C1072.55 2.53537 1072.24 2.66096 1071.86 2.66096C1071.5 2.66096 1071.19 2.52752 1070.92 2.26064C1070.67 1.99376 1070.54 1.68763 1070.54 1.34226ZM1071.06 4.82741H1072.69V17.3316H1071.06V4.82741Z" fill="#73768C"/>
<path d="M1064.94 15.3535C1064.94 15.7774 1065 16.0286 1065.11 16.1071C1065.22 16.1856 1065.5 16.2248 1065.96 16.2248H1066.92V17.5906C1066.26 17.7005 1065.74 17.7554 1065.37 17.7554C1064.66 17.7554 1064.14 17.5828 1063.81 17.2374C1063.48 16.892 1063.32 16.3504 1063.32 15.6125V6.19321H1061.1V4.82741H1063.32V0H1064.94V4.82741H1067.49V6.19321H1064.94V15.3535Z" fill="#73768C"/>
<path d="M1056.87 4.82577V17.3299H1055.3V15.187C1053.87 16.8982 1052.24 17.7538 1050.4 17.7538C1048.56 17.7538 1047.01 17.1023 1045.74 15.7993C1044.48 14.4806 1043.85 12.9185 1043.85 11.1132C1043.85 9.2921 1044.49 7.73791 1045.76 6.45061C1047.03 5.1476 1048.55 4.49609 1050.33 4.49609C1052.37 4.49609 1054.03 5.36738 1055.3 7.10996V4.82577H1056.87ZM1055.39 11.1367C1055.39 9.70812 1054.91 8.50716 1053.95 7.53383C1053 6.5448 1051.82 6.05028 1050.42 6.05028C1049.04 6.05028 1047.87 6.5605 1046.91 7.58093C1045.96 8.58565 1045.48 9.77877 1045.48 11.1603C1045.48 12.5418 1045.96 13.7427 1046.94 14.7632C1047.91 15.7679 1049.07 16.2703 1050.42 16.2703C1051.79 16.2703 1052.96 15.7836 1053.93 14.8103C1054.9 13.8369 1055.39 12.6124 1055.39 11.1367Z" fill="#73768C"/>
<path d="M1038.22 13.2796L1039.58 13.9861C1038.23 16.4979 1036.24 17.7538 1033.6 17.7538C1031.72 17.7538 1030.16 17.1102 1028.94 15.8228C1027.71 14.5198 1027.1 12.9578 1027.1 11.1367C1027.1 9.31565 1027.71 7.75361 1028.94 6.45061C1030.18 5.1476 1031.7 4.49609 1033.51 4.49609C1035.33 4.49609 1036.85 5.1005 1038.07 6.30932C1039.31 7.51813 1039.96 9.16651 1040.01 11.2545H1028.75C1028.8 12.7616 1029.27 13.9782 1030.16 14.9045C1031.07 15.815 1032.17 16.2703 1033.46 16.2703C1035.58 16.2703 1037.16 15.2734 1038.22 13.2796ZM1038.22 9.86511C1038 8.672 1037.45 7.73791 1036.57 7.06286C1035.69 6.38781 1034.68 6.05028 1033.53 6.05028C1031.17 6.05028 1029.64 7.32189 1028.91 9.86511H1038.22Z" fill="#73768C"/>
<path d="M1018.58 4.82577H1020.23V6.63899C1020.67 5.90114 1021.09 5.35953 1021.5 5.01416C1021.92 4.66878 1022.39 4.49609 1022.89 4.49609C1023.41 4.49609 1023.93 4.63738 1024.44 4.91996L1023.6 6.28577C1023.36 6.14448 1023.12 6.07383 1022.87 6.07383C1022.38 6.07383 1021.92 6.32501 1021.48 6.82738C1021.05 7.32974 1020.74 7.98125 1020.53 8.78189C1020.33 9.56683 1020.23 11.0033 1020.23 13.0912V17.3299H1018.58V4.82577Z" fill="#73768C"/>
<path d="M1014.64 3.5558L1013.32 4.56838C1011.75 2.62172 1009.73 1.64838 1007.27 1.64838C1005.26 1.64838 1003.52 2.35483 1002.06 3.76773C1000.62 5.18064 999.896 6.91536 999.896 8.97192C999.896 11.0128 1000.6 12.724 1002.02 14.1055C1003.44 15.4713 1005.23 16.1542 1007.36 16.1542C1009.75 16.1542 1011.73 15.2279 1013.32 13.3755L1014.64 14.388C1013.81 15.487 1012.75 16.3268 1011.48 16.9077C1010.21 17.4729 1008.81 17.7554 1007.27 17.7554C1004.58 17.7554 1002.38 16.9077 1000.67 15.2122C998.962 13.5167 998.106 11.3738 998.106 8.78353C998.106 7.18224 998.499 5.70655 999.284 4.35644C1000.08 2.99064 1001.18 1.92312 1002.58 1.15387C1003.99 0.384623 1005.51 0 1007.13 0C1008.74 0 1010.19 0.306129 1011.48 0.918386C1012.77 1.53064 1013.82 2.40978 1014.64 3.5558Z" fill="#73768C"/>
<path d="M459.195 53.0762H462.563C464.447 53.0762 465.734 53.1625 466.425 53.3352C467.115 53.4922 467.704 53.7591 468.191 54.1358C468.693 54.5126 469.086 54.9993 469.368 55.5958C469.651 56.1924 469.792 56.8518 469.792 57.5739C469.792 59.0182 469.282 60.1564 468.261 60.9884C467.241 61.8048 465.797 62.1815 463.929 62.1187L470.028 69.9839H467.932L461.856 62.1187H460.891V69.9839H459.195V53.0762ZM460.891 54.7246V60.4703H463.811C465.255 60.486 466.315 60.2663 466.99 59.811C467.681 59.34 468.026 58.6022 468.026 57.5975C468.026 56.5927 467.688 55.8627 467.013 55.4075C466.338 54.9522 465.294 54.7246 463.881 54.7246H460.891Z" fill="white"/>
<path d="M445.087 53.0762H454.789V54.7481H446.782V60.0229H454.718V61.6713H446.782V68.3119H454.718V69.9839H445.087V53.0762Z" fill="white"/>
<path d="M426.127 69.9839V53.0762H429.636C432.038 53.0762 433.796 53.2567 434.91 53.6178C436.041 53.9632 437.014 54.5205 437.83 55.2897C438.647 56.0433 439.275 56.9695 439.714 58.0684C440.154 59.1673 440.374 60.4547 440.374 61.9303C440.374 63.3903 440.028 64.7718 439.338 66.0749C438.663 67.3622 437.736 68.3355 436.559 68.9948C435.397 69.6542 433.717 69.9839 431.52 69.9839H426.127ZM427.752 68.3826H429.706C431.747 68.3826 433.223 68.2805 434.133 68.0765C435.06 67.8724 435.868 67.4721 436.559 66.8755C437.25 66.2632 437.776 65.5254 438.137 64.662C438.498 63.7985 438.678 62.8095 438.678 61.6949C438.678 60.5802 438.466 59.552 438.042 58.61C437.634 57.6681 437.046 56.891 436.276 56.2787C435.507 55.6665 434.597 55.2583 433.545 55.0542C432.509 54.8344 430.978 54.7246 428.953 54.7246H427.752V68.3826Z" fill="white"/>
<path d="M414.206 52.3945L422.094 69.9851H420.281L417.62 64.2158H410.32L407.683 69.9851H405.799L413.782 52.3945H414.206ZM413.994 56.1387L411.097 62.4968H416.867L413.994 56.1387Z" fill="white"/>
<path d="M393.268 53.0762H402.969V54.7481H394.963V60.0229H402.899V61.6713H394.963V68.3119H402.899V69.9839H393.268V53.0762Z" fill="white"/>
<path d="M380.955 53.0762H382.674V68.359H389.173V69.9839H380.955V53.0762Z" fill="white"/>
<path d="M354.834 69.9839V53.0762H355.211L366.443 66.0278V53.0762H368.115V69.9839H367.738L356.577 57.1971V69.9839H354.834Z" fill="white"/>
<path d="M349.204 55.902L347.909 57.1501C346.967 56.2395 345.931 55.5409 344.801 55.0543C343.686 54.5676 342.532 54.3243 341.339 54.3243C340.146 54.3243 338.953 54.6461 337.76 55.2898C336.567 55.9334 335.632 56.8047 334.957 57.9036C334.298 58.9868 333.968 60.1643 333.968 61.4359C333.968 63.4139 334.706 65.1408 336.182 66.6165C337.673 68.0765 339.534 68.8065 341.763 68.8065C343.458 68.8065 344.911 68.3355 346.119 67.3936C347.344 66.436 348.074 65.1408 348.309 63.5081H342.917V61.8833H350.217C350.17 64.5678 349.369 66.6636 347.815 68.1707C346.261 69.6621 344.228 70.4078 341.716 70.4078C338.827 70.4078 336.512 69.5208 334.769 67.7468C333.042 65.9729 332.179 63.8928 332.179 61.5065C332.179 59.1046 333.042 57.0323 334.769 55.2898C336.496 53.5315 338.764 52.6523 341.574 52.6523C344.385 52.6523 346.928 53.7356 349.204 55.902Z" fill="white"/>
<path d="M325.901 53.0762H327.597V69.9839H325.901V53.0762Z" fill="white"/>
<path d="M311.253 66.8284L312.689 65.9807C313.694 67.8332 314.864 68.7594 316.198 68.7594C317.062 68.7594 317.799 68.4847 318.412 67.9352C319.024 67.3858 319.33 66.7029 319.33 65.8865C319.33 65.2429 319.071 64.5914 318.553 63.932C318.035 63.2726 317.171 62.4955 315.963 61.6007C314.769 60.6902 313.961 60.0151 313.537 59.5756C313.129 59.1203 312.823 58.6415 312.619 58.1391C312.43 57.621 312.336 57.103 312.336 56.5849C312.336 55.486 312.721 54.5598 313.49 53.8062C314.275 53.037 315.256 52.6523 316.434 52.6523C317.36 52.6523 318.168 52.8878 318.859 53.3588C319.55 53.8141 320.217 54.497 320.861 55.4075L319.495 56.4672C319.055 55.8706 318.6 55.3761 318.129 54.9836C317.658 54.5912 317.077 54.3949 316.386 54.3949C315.711 54.3949 315.154 54.599 314.715 55.0072C314.291 55.4153 314.079 55.9334 314.079 56.5614C314.079 57.1893 314.267 57.7388 314.644 58.2098C315.036 58.665 315.908 59.395 317.258 60.3997C318.624 61.4045 319.613 62.3307 320.225 63.1785C320.853 64.0262 321.167 64.921 321.167 65.863C321.167 67.0875 320.688 68.155 319.73 69.0655C318.788 69.9604 317.689 70.4078 316.434 70.4078C314.22 70.4078 312.493 69.2147 311.253 66.8284Z" fill="white"/>
<path d="M298.981 53.0762H308.683V54.7481H300.677V60.0229H308.613V61.6713H300.677V68.3119H308.613V69.9839H298.981V53.0762Z" fill="white"/>
<path d="M280.021 69.9839V53.0762H283.53C285.932 53.0762 287.69 53.2567 288.805 53.6178C289.935 53.9632 290.909 54.5205 291.725 55.2897C292.541 56.0433 293.169 56.9695 293.609 58.0684C294.048 59.1673 294.268 60.4547 294.268 61.9303C294.268 63.3903 293.923 64.7718 293.232 66.0749C292.557 67.3622 291.631 68.3355 290.453 68.9948C289.292 69.6542 287.612 69.9839 285.414 69.9839H280.021ZM281.646 68.3826H283.601C285.642 68.3826 287.117 68.2805 288.028 68.0765C288.954 67.8724 289.763 67.4721 290.453 66.8755C291.144 66.2632 291.67 65.5254 292.031 64.662C292.392 63.7985 292.573 62.8095 292.573 61.6949C292.573 60.5802 292.361 59.552 291.937 58.61C291.529 57.6681 290.94 56.891 290.171 56.2787C289.402 55.6665 288.491 55.2583 287.439 55.0542C286.403 54.8344 284.872 54.7246 282.847 54.7246H281.646V68.3826Z" fill="white"/>
<path d="M420.443 37.2992L421.809 38.0056C420.459 40.5174 418.465 41.7733 415.827 41.7733C413.944 41.7733 412.389 41.1297 411.165 39.8424C409.94 38.5394 409.328 36.9773 409.328 35.1563C409.328 33.3352 409.94 31.7731 411.165 30.4701C412.405 29.1671 413.928 28.5156 415.733 28.5156C417.554 28.5156 419.077 29.12 420.302 30.3288C421.542 31.5377 422.186 33.186 422.233 35.274H410.977C411.024 36.7811 411.495 37.9978 412.389 38.924C413.3 39.8345 414.399 40.2898 415.686 40.2898C417.806 40.2898 419.391 39.2929 420.443 37.2992ZM420.443 33.8846C420.223 32.6915 419.674 31.7574 418.795 31.0824C417.915 30.4073 416.903 30.0698 415.757 30.0698C413.402 30.0698 411.863 31.3414 411.141 33.8846H420.443Z" fill="#73768C"/>
<path d="M402.384 39.373C402.384 39.7969 402.439 40.0481 402.549 40.1266C402.659 40.2051 402.942 40.2443 403.397 40.2443H404.362V41.6101C403.703 41.72 403.185 41.775 402.808 41.775C402.102 41.775 401.584 41.6023 401.254 41.2569C400.924 40.9115 400.759 40.3699 400.759 39.6321V30.2127H398.546V28.8469H400.759V24.0195H402.384V28.8469H404.928V30.2127H402.384V39.373Z" fill="#73768C"/>
<path d="M393.138 28.8453V41.3495H391.561V39.2066C390.132 40.9177 388.499 41.7733 386.663 41.7733C384.826 41.7733 383.272 41.1218 382 39.8188C380.744 38.5001 380.116 36.9381 380.116 35.1327C380.116 33.3116 380.752 31.7574 382.024 30.4701C383.295 29.1671 384.818 28.5156 386.592 28.5156C388.633 28.5156 390.289 29.3869 391.561 31.1295V28.8453H393.138ZM391.655 35.1563C391.655 33.7277 391.176 32.5267 390.218 31.5534C389.261 30.5643 388.083 30.0698 386.686 30.0698C385.305 30.0698 384.135 30.58 383.177 31.6005C382.22 32.6052 381.741 33.7983 381.741 35.1798C381.741 36.5613 382.228 37.7623 383.201 38.7827C384.174 39.7874 385.336 40.2898 386.686 40.2898C388.052 40.2898 389.222 39.8031 390.195 38.8298C391.168 37.8565 391.655 36.632 391.655 35.1563Z" fill="#73768C"/>
<path d="M363.719 28.8453H365.344V31.0824C366.631 29.3712 368.193 28.5156 370.03 28.5156C370.972 28.5156 371.819 28.7747 372.573 29.2927C373.326 29.7951 373.86 30.4623 374.174 31.2943C374.488 32.1107 374.645 33.3195 374.645 34.9208V41.3495H373.044V35.3917C373.044 33.9317 372.973 32.9427 372.832 32.4246C372.706 31.9066 372.502 31.467 372.22 31.1059C371.953 30.7449 371.607 30.4701 371.184 30.2817C370.76 30.0934 370.242 29.9992 369.629 29.9992C369.033 29.9992 368.444 30.1483 367.863 30.4466C367.282 30.7449 366.788 31.1609 366.38 31.6946C365.972 32.2284 365.697 32.7779 365.556 33.343C365.414 33.9082 365.344 35.0464 365.344 36.7575V41.3495H363.719V28.8453Z" fill="#73768C"/>
<path d="M345.109 35.1798C345.109 33.343 345.737 31.7731 346.993 30.4701C348.265 29.1671 349.803 28.5156 351.609 28.5156C353.43 28.5156 354.968 29.1671 356.224 30.4701C357.496 31.7731 358.132 33.3352 358.132 35.1563C358.132 36.9773 357.504 38.5394 356.248 39.8424C355.008 41.1297 353.469 41.7733 351.632 41.7733C349.795 41.7733 348.249 41.1297 346.993 39.8424C345.737 38.5394 345.109 36.9852 345.109 35.1798ZM356.507 35.2034C356.507 33.8219 356.02 32.6287 355.047 31.624C354.089 30.6036 352.943 30.0934 351.609 30.0934C350.29 30.0934 349.152 30.6036 348.194 31.624C347.237 32.6287 346.758 33.8297 346.758 35.2269C346.758 36.6241 347.221 37.8094 348.147 38.7827C349.073 39.756 350.219 40.2427 351.585 40.2427C352.967 40.2427 354.128 39.756 355.07 38.7827C356.028 37.7937 356.507 36.6006 356.507 35.2034Z" fill="#73768C"/>
<path d="M337.64 25.3618C337.64 25.0007 337.765 24.6867 338.016 24.4199C338.283 24.153 338.597 24.0195 338.958 24.0195C339.335 24.0195 339.649 24.153 339.9 24.4199C340.167 24.671 340.301 24.985 340.301 25.3618C340.301 25.7229 340.167 26.0368 339.9 26.3037C339.649 26.5549 339.335 26.6805 338.958 26.6805C338.597 26.6805 338.283 26.5471 338.016 26.2802C337.765 26.0133 337.64 25.7072 337.64 25.3618ZM338.158 28.8469H339.783V41.3511H338.158V28.8469Z" fill="#73768C"/>
<path d="M332.961 30.2111L331.925 31.2708C331.061 30.4387 330.221 30.0227 329.405 30.0227C328.871 30.0227 328.424 30.1954 328.063 30.5408C327.702 30.8705 327.521 31.2865 327.521 31.7888C327.521 32.2755 327.71 32.6994 328.086 33.0605C328.479 33.4058 329.146 33.8297 330.088 34.3321C331.03 34.8187 331.744 35.3525 332.231 35.9334C332.733 36.4985 332.984 37.1971 332.984 38.0292C332.984 39.081 332.616 39.968 331.878 40.6901C331.156 41.4123 330.261 41.7733 329.193 41.7733C328.487 41.7733 327.804 41.6163 327.144 41.3024C326.501 40.9884 325.951 40.5488 325.496 39.9837L326.509 38.8533C327.341 39.7796 328.212 40.2427 329.123 40.2427C329.766 40.2427 330.316 40.0308 330.771 39.6069C331.226 39.183 331.454 38.6885 331.454 38.1233C331.454 37.5425 331.25 37.0715 330.842 36.7104C330.449 36.3337 329.782 35.9098 328.84 35.4388C327.914 34.9679 327.215 34.4577 326.744 33.9082C326.289 33.343 326.061 32.6209 326.061 31.7417C326.061 30.8469 326.383 30.0855 327.027 29.4576C327.686 28.8296 328.55 28.5156 329.617 28.5156C330.7 28.5156 331.815 29.0808 332.961 30.2111Z" fill="#73768C"/>
<path d="M321.241 30.2111L320.205 31.2708C319.342 30.4387 318.502 30.0227 317.685 30.0227C317.152 30.0227 316.704 30.1954 316.343 30.5408C315.982 30.8705 315.802 31.2865 315.802 31.7888C315.802 32.2755 315.99 32.6994 316.367 33.0605C316.759 33.4058 317.426 33.8297 318.368 34.3321C319.31 34.8187 320.025 35.3525 320.511 35.9334C321.014 36.4985 321.265 37.1971 321.265 38.0292C321.265 39.081 320.896 39.968 320.158 40.6901C319.436 41.4123 318.541 41.7733 317.473 41.7733C316.767 41.7733 316.084 41.6163 315.425 41.3024C314.781 40.9884 314.232 40.5488 313.776 39.9837L314.789 38.8533C315.621 39.7796 316.492 40.2427 317.403 40.2427C318.046 40.2427 318.596 40.0308 319.051 39.6069C319.506 39.183 319.734 38.6885 319.734 38.1233C319.734 37.5425 319.53 37.0715 319.122 36.7104C318.729 36.3337 318.062 35.9098 317.12 35.4388C316.194 34.9679 315.495 34.4577 315.024 33.9082C314.569 33.343 314.342 32.6209 314.342 31.7417C314.342 30.8469 314.663 30.0855 315.307 29.4576C315.966 28.8296 316.83 28.5156 317.897 28.5156C318.981 28.5156 320.095 29.0808 321.241 30.2111Z" fill="#73768C"/>
<path d="M308.746 28.8453V41.3495H307.168V39.2066C305.74 40.9177 304.107 41.7733 302.27 41.7733C300.433 41.7733 298.879 41.1218 297.608 39.8188C296.352 38.5001 295.724 36.9381 295.724 35.1327C295.724 33.3116 296.359 31.7574 297.631 30.4701C298.903 29.1671 300.425 28.5156 302.199 28.5156C304.24 28.5156 305.897 29.3869 307.168 31.1295V28.8453H308.746ZM307.262 35.1563C307.262 33.7277 306.784 32.5267 305.826 31.5534C304.868 30.5643 303.691 30.0698 302.294 30.0698C300.912 30.0698 299.743 30.58 298.785 31.6005C297.827 32.6052 297.348 33.7983 297.348 35.1798C297.348 36.5613 297.835 37.7623 298.808 38.7827C299.782 39.7874 300.944 40.2898 302.294 40.2898C303.659 40.2898 304.829 39.8031 305.802 38.8298C306.776 37.8565 307.262 36.632 307.262 35.1563Z" fill="#73768C"/>
<path d="M280.021 24.4434H283.389C285.383 24.4434 286.686 24.5219 287.298 24.6788C287.91 24.8358 288.467 25.1106 288.97 25.503C289.488 25.8955 289.888 26.39 290.171 26.9866C290.453 27.5674 290.595 28.2189 290.595 28.9411C290.595 30.1028 290.281 31.0526 289.653 31.7904C289.025 32.5283 288.232 32.9993 287.274 33.2033C286.332 33.3917 284.88 33.4859 282.918 33.4859H281.717V41.3511H280.021V24.4434ZM281.717 26.0917V31.8611H284.566C286.277 31.8925 287.416 31.6178 287.981 31.0369C288.546 30.4403 288.829 29.7417 288.829 28.9411C288.829 27.0415 287.455 26.0917 284.708 26.0917H281.717Z" fill="#73768C"/>
<path d="M661.287 54.7246V53.0762H670.565V54.7246H666.797V69.9839H665.078V54.7246H661.287Z" fill="white"/>
<path d="M648.075 66.8284L649.512 65.9807C650.516 67.8332 651.686 68.7594 653.02 68.7594C653.884 68.7594 654.622 68.4847 655.234 67.9352C655.846 67.3858 656.152 66.7029 656.152 65.8865C656.152 65.2429 655.893 64.5914 655.375 63.932C654.857 63.2726 653.994 62.4955 652.785 61.6007C651.592 60.6902 650.783 60.0151 650.359 59.5756C649.951 59.1203 649.645 58.6415 649.441 58.1391C649.253 57.621 649.158 57.103 649.158 56.5849C649.158 55.486 649.543 54.5598 650.312 53.8062C651.097 53.037 652.078 52.6523 653.256 52.6523C654.182 52.6523 654.991 52.8878 655.681 53.3588C656.372 53.8141 657.039 54.497 657.683 55.4075L656.317 56.4672C655.878 55.8706 655.422 55.3761 654.951 54.9836C654.48 54.5912 653.899 54.3949 653.209 54.3949C652.534 54.3949 651.976 54.599 651.537 55.0072C651.113 55.4153 650.901 55.9334 650.901 56.5614C650.901 57.1893 651.089 57.7388 651.466 58.2098C651.859 58.665 652.73 59.395 654.08 60.3997C655.446 61.4045 656.435 62.3307 657.047 63.1785C657.675 64.0262 657.989 64.921 657.989 65.863C657.989 67.0875 657.51 68.155 656.553 69.0655C655.611 69.9604 654.512 70.4078 653.256 70.4078C651.042 70.4078 649.315 69.2147 648.075 66.8284Z" fill="white"/>
<path d="M637.897 52.3945L645.786 69.9851H643.972L641.312 64.2158H634.012L631.374 69.9851H629.49L637.473 52.3945H637.897ZM637.685 56.1387L634.789 62.4968H640.558L637.685 56.1387Z" fill="white"/>
<path d="M624.014 53.0762H625.709V69.9839H624.014V53.0762Z" fill="white"/>
<path d="M609.365 66.8284L610.802 65.9807C611.806 67.8332 612.976 68.7594 614.31 68.7594C615.174 68.7594 615.912 68.4847 616.524 67.9352C617.136 67.3858 617.442 66.7029 617.442 65.8865C617.442 65.2429 617.183 64.5914 616.665 63.932C616.147 63.2726 615.284 62.4955 614.075 61.6007C612.882 60.6902 612.073 60.0151 611.649 59.5756C611.241 59.1203 610.935 58.6415 610.731 58.1391C610.543 57.621 610.448 57.103 610.448 56.5849C610.448 55.486 610.833 54.5598 611.602 53.8062C612.387 53.037 613.368 52.6523 614.546 52.6523C615.472 52.6523 616.281 52.8878 616.971 53.3588C617.662 53.8141 618.329 54.497 618.973 55.4075L617.607 56.4672C617.168 55.8706 616.712 55.3761 616.241 54.9836C615.77 54.5912 615.19 54.3949 614.499 54.3949C613.824 54.3949 613.266 54.599 612.827 55.0072C612.403 55.4153 612.191 55.9334 612.191 56.5614C612.191 57.1893 612.379 57.7388 612.756 58.2098C613.149 58.665 614.02 59.395 615.37 60.3997C616.736 61.4045 617.725 62.3307 618.337 63.1785C618.965 64.0262 619.279 64.921 619.279 65.863C619.279 67.0875 618.8 68.155 617.843 69.0655C616.901 69.9604 615.802 70.4078 614.546 70.4078C612.332 70.4078 610.605 69.2147 609.365 66.8284Z" fill="white"/>
<path d="M594.334 53.0762H596.029V63.2726C596.029 64.3244 596.053 65.1172 596.1 65.651C596.163 66.1847 596.351 66.7028 596.665 67.2052C596.995 67.6918 597.45 68.0843 598.031 68.3826C598.612 68.6652 599.232 68.8065 599.891 68.8065C600.566 68.8065 601.155 68.6887 601.658 68.4532C602.16 68.2021 602.584 67.8567 602.929 67.4171C603.275 66.9775 603.51 66.4987 603.636 65.9807C603.777 65.4469 603.848 64.5442 603.848 63.2726V53.0762H605.519V63.2726C605.519 64.9838 605.347 66.2946 605.001 67.2052C604.656 68.1157 604.044 68.8771 603.165 69.4894C602.301 70.1016 601.281 70.4077 600.103 70.4077C599.161 70.4077 598.314 70.2586 597.56 69.9603C596.807 69.6463 596.179 69.2146 595.676 68.6652C595.174 68.1157 594.821 67.5035 594.617 66.8284C594.428 66.1533 594.334 64.9681 594.334 63.2726V53.0762Z" fill="white"/>
<path d="M576.753 53.0762H578.472V60.1642H587.067V53.0762H588.763V69.9839H587.067V61.8126H578.472V69.9839H576.753V53.0762Z" fill="white"/>
<path d="M563.665 54.7246V53.0762H572.943V54.7246H569.175V69.9839H567.456V54.7246H563.665Z" fill="white"/>
<path d="M546.517 69.9839V53.0762H546.893L558.126 66.0278V53.0762H559.798V69.9839H559.421L548.259 57.1971V69.9839H546.517Z" fill="white"/>
<path d="M532.479 53.0762H542.18V54.7481H534.174V60.0229H542.11V61.6713H534.174V68.3119H542.11V69.9839H532.479V53.0762Z" fill="white"/>
<path d="M662.235 28.8453H663.86V31.0824C665.147 29.3712 666.71 28.5156 668.546 28.5156C669.488 28.5156 670.336 28.7747 671.09 29.2927C671.843 29.7951 672.377 30.4623 672.691 31.2943C673.005 32.1107 673.162 33.3195 673.162 34.9208V41.3495H671.56V35.3917C671.56 33.9317 671.49 32.9427 671.349 32.4246C671.223 31.9066 671.019 31.467 670.736 31.1059C670.469 30.7449 670.124 30.4701 669.7 30.2817C669.276 30.0934 668.758 29.9992 668.146 29.9992C667.549 29.9992 666.961 30.1483 666.38 30.4466C665.799 30.7449 665.304 31.1609 664.896 31.6946C664.488 32.2284 664.213 32.7779 664.072 33.343C663.931 33.9082 663.86 35.0464 663.86 36.7575V41.3495H662.235V28.8453Z" fill="#73768C"/>
<path d="M643.626 35.1798C643.626 33.343 644.254 31.7731 645.51 30.4701C646.781 29.1671 648.32 28.5156 650.125 28.5156C651.946 28.5156 653.485 29.1671 654.741 30.4701C656.012 31.7731 656.648 33.3352 656.648 35.1563C656.648 36.9773 656.02 38.5394 654.764 39.8424C653.524 41.1297 651.986 41.7733 650.149 41.7733C648.312 41.7733 646.766 41.1297 645.51 39.8424C644.254 38.5394 643.626 36.9852 643.626 35.1798ZM655.023 35.2034C655.023 33.8219 654.537 32.6287 653.563 31.624C652.606 30.6036 651.46 30.0934 650.125 30.0934C648.807 30.0934 647.668 30.6036 646.711 31.624C645.753 32.6287 645.274 33.8297 645.274 35.2269C645.274 36.6241 645.737 37.8094 646.664 38.7827C647.59 39.756 648.736 40.2427 650.102 40.2427C651.483 40.2427 652.645 39.756 653.587 38.7827C654.545 37.7937 655.023 36.6006 655.023 35.2034Z" fill="#73768C"/>
<path d="M636.156 25.3618C636.156 25.0007 636.282 24.6867 636.533 24.4199C636.8 24.153 637.114 24.0195 637.475 24.0195C637.852 24.0195 638.166 24.153 638.417 24.4199C638.684 24.671 638.817 24.985 638.817 25.3618C638.817 25.7229 638.684 26.0368 638.417 26.3037C638.166 26.5549 637.852 26.6805 637.475 26.6805C637.114 26.6805 636.8 26.5471 636.533 26.2802C636.282 26.0133 636.156 25.7072 636.156 25.3618ZM636.674 28.8469H638.299V41.3511H636.674V28.8469Z" fill="#73768C"/>
<path d="M629.377 39.373C629.377 39.7969 629.432 40.0481 629.542 40.1266C629.652 40.2051 629.935 40.2443 630.39 40.2443H631.356V41.6101C630.696 41.72 630.178 41.775 629.801 41.775C629.095 41.775 628.577 41.6023 628.247 41.2569C627.917 40.9115 627.753 40.3699 627.753 39.6321V30.2127H625.539V28.8469H627.753V24.0195H629.377V28.8469H631.921V30.2127H629.377V39.373Z" fill="#73768C"/>
<path d="M620.132 28.8453V41.3495H618.554V39.2066C617.125 40.9177 615.493 41.7733 613.656 41.7733C611.819 41.7733 610.265 41.1218 608.993 39.8188C607.737 38.5001 607.109 36.9381 607.109 35.1327C607.109 33.3116 607.745 31.7574 609.017 30.4701C610.288 29.1671 611.811 28.5156 613.585 28.5156C615.626 28.5156 617.282 29.3869 618.554 31.1295V28.8453H620.132ZM618.648 35.1563C618.648 33.7277 618.169 32.5267 617.212 31.5534C616.254 30.5643 615.077 30.0698 613.679 30.0698C612.298 30.0698 611.128 30.58 610.171 31.6005C609.213 32.6052 608.734 33.7983 608.734 35.1798C608.734 36.5613 609.221 37.7623 610.194 38.7827C611.168 39.7874 612.329 40.2898 613.679 40.2898C615.045 40.2898 616.215 39.8031 617.188 38.8298C618.161 37.8565 618.648 36.632 618.648 35.1563Z" fill="#73768C"/>
<path d="M590.868 28.8457H592.587L596.755 38.3592L600.923 28.8457H602.642L596.92 41.7737H596.638L590.868 28.8457Z" fill="#73768C"/>
<path d="M573.436 35.1798C573.436 33.343 574.064 31.7731 575.319 30.4701C576.591 29.1671 578.13 28.5156 579.935 28.5156C581.756 28.5156 583.294 29.1671 584.55 30.4701C585.822 31.7731 586.458 33.3352 586.458 35.1563C586.458 36.9773 585.83 38.5394 584.574 39.8424C583.334 41.1297 581.795 41.7733 579.958 41.7733C578.122 41.7733 576.575 41.1297 575.319 39.8424C574.064 38.5394 573.436 36.9852 573.436 35.1798ZM584.833 35.2034C584.833 33.8219 584.346 32.6287 583.373 31.624C582.415 30.6036 581.269 30.0934 579.935 30.0934C578.616 30.0934 577.478 30.6036 576.52 31.624C575.563 32.6287 575.084 33.8297 575.084 35.2269C575.084 36.6241 575.547 37.8094 576.473 38.7827C577.4 39.756 578.546 40.2427 579.911 40.2427C581.293 40.2427 582.455 39.756 583.396 38.7827C584.354 37.7937 584.833 36.6006 584.833 35.2034Z" fill="#73768C"/>
<path d="M557.062 28.8453H558.686V31.0824C559.974 29.3712 561.536 28.5156 563.372 28.5156C564.314 28.5156 565.162 28.7747 565.916 29.2927C566.669 29.7951 567.203 30.4623 567.517 31.2943C567.831 32.1107 567.988 33.3195 567.988 34.9208V41.3495H566.387V35.3917C566.387 33.9317 566.316 32.9427 566.175 32.4246C566.049 31.9066 565.845 31.467 565.562 31.1059C565.296 30.7449 564.95 30.4701 564.526 30.2817C564.102 30.0934 563.584 29.9992 562.972 29.9992C562.376 29.9992 561.787 30.1483 561.206 30.4466C560.625 30.7449 560.131 31.1609 559.722 31.6946C559.314 32.2284 559.04 32.7779 558.898 33.343C558.757 33.9082 558.686 35.0464 558.686 36.7575V41.3495H557.062V28.8453Z" fill="#73768C"/>
<path d="M540.099 28.8453H541.723V31.0824C543.011 29.3712 544.573 28.5156 546.41 28.5156C547.352 28.5156 548.199 28.7747 548.953 29.2927C549.706 29.7951 550.24 30.4623 550.554 31.2943C550.868 32.1107 551.025 33.3195 551.025 34.9208V41.3495H549.424V35.3917C549.424 33.9317 549.353 32.9427 549.212 32.4246C549.086 31.9066 548.882 31.467 548.6 31.1059C548.333 30.7449 547.987 30.4701 547.563 30.2817C547.14 30.0934 546.622 29.9992 546.009 29.9992C545.413 29.9992 544.824 30.1483 544.243 30.4466C543.662 30.7449 543.168 31.1609 542.76 31.6946C542.351 32.2284 542.077 32.7779 541.935 33.343C541.794 33.9082 541.723 35.0464 541.723 36.7575V41.3495H540.099V28.8453Z" fill="#73768C"/>
<path d="M532.22 24.4434H533.915V41.3511H532.22V24.4434Z" fill="#73768C"/>
<path d="M883.859 66.8323L885.296 65.9846C886.301 67.8371 887.47 68.7633 888.805 68.7633C889.668 68.7633 890.406 68.4886 891.018 67.9391C891.63 67.3897 891.936 66.7068 891.936 65.8904C891.936 65.2468 891.677 64.5953 891.159 63.9359C890.641 63.2766 889.778 62.4995 888.569 61.6046C887.376 60.6941 886.567 60.019 886.144 59.5795C885.735 59.1242 885.429 58.6454 885.225 58.143C885.037 57.6249 884.943 57.1069 884.943 56.5888C884.943 55.4899 885.327 54.5637 886.096 53.8101C886.881 53.0409 887.863 52.6562 889.04 52.6562C889.966 52.6562 890.775 52.8917 891.465 53.3627C892.156 53.818 892.823 54.5009 893.467 55.4114L892.101 56.4711C891.662 55.8745 891.206 55.38 890.735 54.9875C890.265 54.5951 889.684 54.3988 888.993 54.3988C888.318 54.3988 887.761 54.6029 887.321 55.0111C886.897 55.4193 886.685 55.9373 886.685 56.5653C886.685 57.1932 886.874 57.7427 887.25 58.2137C887.643 58.6689 888.514 59.3989 889.864 60.4037C891.23 61.4084 892.219 62.3346 892.831 63.1824C893.459 64.0301 893.773 64.9249 893.773 65.8669C893.773 67.0914 893.294 68.1589 892.337 69.0694C891.395 69.9643 890.296 70.4117 889.04 70.4117C886.826 70.4117 885.1 69.2186 883.859 66.8323Z" fill="white"/>
<path d="M871.587 53.0801H881.289V54.752H873.282V60.0268H881.218V61.6752H873.282V68.3159H881.218V69.9878H871.587V53.0801Z" fill="white"/>
<path d="M866.748 56.212L865.429 57.2246C863.859 55.278 861.842 54.3046 859.377 54.3046C857.368 54.3046 855.633 55.0111 854.173 56.424C852.729 57.8369 852.006 59.5716 852.006 61.6282C852.006 63.669 852.713 65.3802 854.126 66.7617C855.554 68.1275 857.336 68.8104 859.471 68.8104C861.858 68.8104 863.843 67.8842 865.429 66.0317L866.748 67.0443C865.916 68.1432 864.864 68.9831 863.592 69.564C862.321 70.1291 860.916 70.4117 859.377 70.4117C856.693 70.4117 854.495 69.564 852.784 67.8685C851.072 66.173 850.217 64.0301 850.217 61.4398C850.217 59.8385 850.609 58.3628 851.394 57.0127C852.195 55.6469 853.294 54.5794 854.691 53.8101C856.104 53.0409 857.619 52.6562 859.236 52.6562C860.853 52.6562 862.305 52.9624 863.592 53.5746C864.88 54.1869 865.931 55.066 866.748 56.212Z" fill="white"/>
<path d="M832.174 69.9878V53.0801H832.551L843.783 66.0317V53.0801H845.455V69.9878H845.078L833.916 57.201V69.9878H832.174Z" fill="white"/>
<path d="M818.136 53.0801H827.838V54.752H819.831V60.0268H827.767V61.6752H819.831V68.3159H827.767V69.9878H818.136V53.0801Z" fill="white"/>
<path d="M811.151 53.0801H812.847V69.9878H811.151V53.0801Z" fill="white"/>
<path d="M795.765 53.0801H799.132C801.016 53.0801 802.303 53.1664 802.994 53.3391C803.685 53.4961 804.273 53.763 804.76 54.1398C805.262 54.5165 805.655 55.0032 805.938 55.5998C806.22 56.1963 806.361 56.8557 806.361 57.5778C806.361 59.0221 805.851 60.1603 804.831 60.9923C803.81 61.8087 802.366 62.1854 800.498 62.1226L806.597 69.9878H804.501L798.426 62.1226H797.46V69.9878H795.765V53.0801ZM797.46 54.7285V60.4743H800.38C801.824 60.49 802.884 60.2702 803.559 59.8149C804.25 59.3439 804.595 58.6061 804.595 57.6014C804.595 56.5966 804.258 55.8666 803.583 55.4114C802.908 54.9561 801.864 54.7285 800.451 54.7285H797.46Z" fill="white"/>
<path d="M781.656 53.0801H791.358V54.752H783.352V60.0268H791.288V61.6752H783.352V68.3159H791.288V69.9878H781.656V53.0801Z" fill="white"/>
<path d="M766.284 53.0801H769.652C771.645 53.0801 772.948 53.1586 773.561 53.3156C774.173 53.4726 774.73 53.7473 775.233 54.1398C775.751 54.5322 776.151 55.0267 776.434 55.6233C776.716 56.2042 776.857 56.8557 776.857 57.5778C776.857 58.7395 776.543 59.6893 775.915 60.4272C775.287 61.165 774.495 61.636 773.537 61.8401C772.595 62.0284 771.143 62.1226 769.181 62.1226H767.98V69.9878H766.284V53.0801ZM767.98 54.7285V60.4978H770.829C772.54 60.5292 773.678 60.2545 774.244 59.6736C774.809 59.0771 775.091 58.3785 775.091 57.5778C775.091 55.6782 773.718 54.7285 770.97 54.7285H767.98Z" fill="white"/>
<path d="M749.626 53.0801H751.604L755.654 59.6736L759.751 53.0801H761.706L756.667 61.2749L762.036 69.9878H760.058L755.654 62.8997L751.251 69.9878H749.272L754.665 61.2749L749.626 53.0801Z" fill="white"/>
<path d="M736.507 53.0801H746.209V54.752H738.202V60.0268H746.138V61.6752H738.202V68.3159H746.138V69.9878H736.507V53.0801Z" fill="white"/>
<path d="M930.936 37.2992L932.302 38.0056C930.952 40.5174 928.958 41.7733 926.321 41.7733C924.437 41.7733 922.883 41.1297 921.658 39.8424C920.434 38.5394 919.821 36.9773 919.821 35.1563C919.821 33.3352 920.434 31.7731 921.658 30.4701C922.898 29.1671 924.421 28.5156 926.226 28.5156C928.048 28.5156 929.57 29.12 930.795 30.3288C932.035 31.5377 932.679 33.186 932.726 35.274H921.47C921.517 36.7811 921.988 37.9978 922.883 38.924C923.793 39.8345 924.892 40.2898 926.179 40.2898C928.299 40.2898 929.884 39.2929 930.936 37.2992ZM930.936 33.8846C930.716 32.6915 930.167 31.7574 929.288 31.0824C928.409 30.4073 927.396 30.0698 926.25 30.0698C923.895 30.0698 922.357 31.3414 921.635 33.8846H930.936Z" fill="#73768C"/>
<path d="M903.604 28.8457H905.323L909.491 38.3592L913.659 28.8457H915.378L909.655 41.7737H909.373L903.604 28.8457Z" fill="#73768C"/>
<path d="M896.723 25.3618C896.723 25.0007 896.848 24.6867 897.099 24.4199C897.366 24.153 897.68 24.0195 898.041 24.0195C898.418 24.0195 898.732 24.153 898.983 24.4199C899.25 24.671 899.384 24.985 899.384 25.3618C899.384 25.7229 899.25 26.0368 898.983 26.3037C898.732 26.5549 898.418 26.6805 898.041 26.6805C897.68 26.6805 897.366 26.5471 897.099 26.2802C896.848 26.0133 896.723 25.7072 896.723 25.3618ZM897.241 28.8469H898.866V41.3511H897.241V28.8469Z" fill="#73768C"/>
<path d="M889.944 39.373C889.944 39.7969 889.999 40.0481 890.109 40.1266C890.219 40.2051 890.501 40.2443 890.956 40.2443H891.922V41.6101C891.263 41.72 890.744 41.775 890.368 41.775C889.661 41.775 889.143 41.6023 888.814 41.2569C888.484 40.9115 888.319 40.3699 888.319 39.6321V30.2127H886.105V28.8469H888.319V24.0195H889.944V28.8469H892.487V30.2127H889.944V39.373Z" fill="#73768C"/>
<path d="M880.698 28.8453V41.3495H879.12V39.2066C877.692 40.9177 876.059 41.7733 874.222 41.7733C872.385 41.7733 870.831 41.1218 869.56 39.8188C868.304 38.5001 867.676 36.9381 867.676 35.1327C867.676 33.3116 868.312 31.7574 869.583 30.4701C870.855 29.1671 872.378 28.5156 874.152 28.5156C876.192 28.5156 877.849 29.3869 879.12 31.1295V28.8453H880.698ZM879.214 35.1563C879.214 33.7277 878.736 32.5267 877.778 31.5534C876.82 30.5643 875.643 30.0698 874.246 30.0698C872.864 30.0698 871.695 30.58 870.737 31.6005C869.779 32.6052 869.301 33.7983 869.301 35.1798C869.301 36.5613 869.787 37.7623 870.761 38.7827C871.734 39.7874 872.896 40.2898 874.246 40.2898C875.612 40.2898 876.781 39.8031 877.754 38.8298C878.728 37.8565 879.214 36.632 879.214 35.1563Z" fill="#73768C"/>
<path d="M843.552 28.8453H845.153V31.0117C846.268 29.3477 847.696 28.5156 849.439 28.5156C850.365 28.5156 851.189 28.7825 851.911 29.3163C852.649 29.8343 853.144 30.5722 853.395 31.5298C853.913 30.5565 854.572 29.8108 855.373 29.2927C856.174 28.7747 857.092 28.5156 858.128 28.5156C859.18 28.5156 860.13 28.9238 860.978 29.7401C861.825 30.5408 862.249 32.1342 862.249 34.5204V41.3495H860.601V34.5204C860.601 33.3744 860.53 32.5345 860.389 32.0008C860.248 31.4513 859.941 30.996 859.47 30.635C858.999 30.2582 858.372 30.0698 857.587 30.0698C856.817 30.0698 856.095 30.3288 855.42 30.8469C854.745 31.365 854.282 32.0243 854.031 32.825C853.78 33.6256 853.654 34.8344 853.654 36.4514V41.3495H852.076V34.9443C852.076 33.6099 852.006 32.6601 851.864 32.095C851.723 31.5141 851.409 31.0353 850.922 30.6585C850.436 30.2661 849.839 30.0698 849.133 30.0698C848.426 30.0698 847.759 30.2817 847.131 30.7056C846.519 31.1138 846.032 31.679 845.671 32.4011C845.326 33.1232 845.153 34.3399 845.153 36.0511V41.3495H843.552V28.8453Z" fill="#73768C"/>
<path d="M833.267 28.8453H834.915V30.6585C835.355 29.9207 835.778 29.3791 836.187 29.0337C836.61 28.6883 837.074 28.5156 837.576 28.5156C838.094 28.5156 838.612 28.6569 839.13 28.9395L838.282 30.3053C838.047 30.164 837.804 30.0934 837.552 30.0934C837.066 30.0934 836.603 30.3445 836.163 30.8469C835.739 31.3493 835.425 32.0008 835.221 32.8014C835.017 33.5864 834.915 35.0228 834.915 37.1108V41.3495H833.267V28.8453Z" fill="#73768C"/>
<path d="M815.268 35.1798C815.268 33.343 815.896 31.7731 817.151 30.4701C818.423 29.1671 819.962 28.5156 821.767 28.5156C823.588 28.5156 825.126 29.1671 826.382 30.4701C827.654 31.7731 828.29 33.3352 828.29 35.1563C828.29 36.9773 827.662 38.5394 826.406 39.8424C825.166 41.1297 823.627 41.7733 821.79 41.7733C819.954 41.7733 818.407 41.1297 817.151 39.8424C815.896 38.5394 815.268 36.9852 815.268 35.1798ZM826.665 35.2034C826.665 33.8219 826.178 32.6287 825.205 31.624C824.247 30.6036 823.101 30.0934 821.767 30.0934C820.448 30.0934 819.31 30.6036 818.352 31.624C817.395 32.6287 816.916 33.8297 816.916 35.2269C816.916 36.6241 817.379 37.8094 818.305 38.7827C819.232 39.756 820.378 40.2427 821.743 40.2427C823.125 40.2427 824.287 39.756 825.229 38.7827C826.186 37.7937 826.665 36.6006 826.665 35.2034Z" fill="#73768C"/>
<path d="M811.02 24.3492V25.9269C810.407 25.6601 809.858 25.5266 809.371 25.5266C808.9 25.5266 808.594 25.6836 808.453 25.9976C808.312 26.2959 808.241 26.7904 808.241 27.4811V28.8469H810.855V30.2127H808.241V41.3511H806.616V30.2127H804.991V28.8469H806.616V27.2221C806.616 26.1232 806.82 25.3147 807.228 24.7966C807.636 24.2786 808.272 24.0195 809.136 24.0195C809.638 24.0195 810.266 24.1294 811.02 24.3492Z" fill="#73768C"/>
<path d="M800.43 30.2111L799.394 31.2708C798.53 30.4387 797.69 30.0227 796.874 30.0227C796.34 30.0227 795.893 30.1954 795.532 30.5408C795.171 30.8705 794.99 31.2865 794.99 31.7888C794.99 32.2755 795.178 32.6994 795.555 33.0605C795.948 33.4058 796.615 33.8297 797.557 34.3321C798.499 34.8187 799.213 35.3525 799.7 35.9334C800.202 36.4985 800.453 37.1971 800.453 38.0292C800.453 39.081 800.084 39.968 799.346 40.6901C798.624 41.4123 797.729 41.7733 796.662 41.7733C795.955 41.7733 795.273 41.6163 794.613 41.3024C793.97 40.9884 793.42 40.5488 792.965 39.9837L793.977 38.8533C794.809 39.7796 795.681 40.2427 796.591 40.2427C797.235 40.2427 797.784 40.0308 798.24 39.6069C798.695 39.183 798.923 38.6885 798.923 38.1233C798.923 37.5425 798.718 37.0715 798.31 36.7104C797.918 36.3337 797.251 35.9098 796.309 35.4388C795.382 34.9679 794.684 34.4577 794.213 33.9082C793.758 33.343 793.53 32.6209 793.53 31.7417C793.53 30.8469 793.852 30.0855 794.495 29.4576C795.155 28.8296 796.018 28.5156 797.086 28.5156C798.169 28.5156 799.284 29.0808 800.43 30.2111Z" fill="#73768C"/>
<path d="M777.18 28.8453H778.805V31.0824C780.092 29.3712 781.654 28.5156 783.491 28.5156C784.433 28.5156 785.28 28.7747 786.034 29.2927C786.787 29.7951 787.321 30.4623 787.635 31.2943C787.949 32.1107 788.106 33.3195 788.106 34.9208V41.3495H786.505V35.3917C786.505 33.9317 786.434 32.9427 786.293 32.4246C786.167 31.9066 785.963 31.467 785.681 31.1059C785.414 30.7449 785.068 30.4701 784.645 30.2817C784.221 30.0934 783.703 29.9992 783.09 29.9992C782.494 29.9992 781.905 30.1483 781.324 30.4466C780.743 30.7449 780.249 31.1609 779.841 31.6946C779.432 32.2284 779.158 32.7779 779.016 33.343C778.875 33.9082 778.805 35.0464 778.805 36.7575V41.3495H777.18V28.8453Z" fill="#73768C"/>
<path d="M770.971 28.8453V41.3495H769.394V39.2066C767.965 40.9177 766.332 41.7733 764.496 41.7733C762.659 41.7733 761.105 41.1218 759.833 39.8188C758.577 38.5001 757.949 36.9381 757.949 35.1327C757.949 33.3116 758.585 31.7574 759.857 30.4701C761.128 29.1671 762.651 28.5156 764.425 28.5156C766.466 28.5156 768.122 29.3869 769.394 31.1295V28.8453H770.971ZM769.488 35.1563C769.488 33.7277 769.009 32.5267 768.051 31.5534C767.094 30.5643 765.916 30.0698 764.519 30.0698C763.138 30.0698 761.968 30.58 761.011 31.6005C760.053 32.6052 759.574 33.7983 759.574 35.1798C759.574 36.5613 760.061 37.7623 761.034 38.7827C762.007 39.7874 763.169 40.2898 764.519 40.2898C765.885 40.2898 767.055 39.8031 768.028 38.8298C769.001 37.8565 769.488 36.632 769.488 35.1563Z" fill="#73768C"/>
<path d="M748.229 28.8453H749.877V30.6585C750.316 29.9207 750.74 29.3791 751.149 29.0337C751.572 28.6883 752.035 28.5156 752.538 28.5156C753.056 28.5156 753.574 28.6569 754.092 28.9395L753.244 30.3053C753.009 30.164 752.765 30.0934 752.514 30.0934C752.028 30.0934 751.565 30.3445 751.125 30.8469C750.701 31.3493 750.387 32.0008 750.183 32.8014C749.979 33.5864 749.877 35.0228 749.877 37.1108V41.3495H748.229V28.8453Z" fill="#73768C"/>
<path d="M734.812 26.0917V24.4434H744.09V26.0917H740.322V41.3511H738.603V26.0917H734.812Z" fill="#73768C"/>
</svg>
