<svg width="723" height="1135" viewBox="0 0 723 1135" fill="none" xmlns="http://www.w3.org/2000/svg">
<path opacity="0.2" d="M398.984 762.386V800.558C398.984 837.316 372.122 855.695 336.778 855.695C300.019 855.695 271.744 837.316 271.744 800.558V760.972C271.744 671.903 285.881 625.248 324.054 577.18C352.329 540.421 367.881 526.283 451.294 469.732C555.914 396.215 587.018 359.457 587.018 287.354C587.018 182.734 506.432 116.286 372.122 116.286C242.054 116.286 169.951 182.734 137.434 278.871C126.124 312.802 103.503 325.526 78.055 325.526C69.5723 325.526 61.0896 324.112 52.6069 322.698C25.745 315.629 0.296875 298.664 0.296875 267.561C0.296875 260.492 1.71066 252.009 4.53823 243.526C24.3312 181.32 59.6758 124.769 110.572 82.355C171.365 31.4588 256.192 0.355469 379.191 0.355469C588.431 0.355469 722.741 109.217 722.741 281.699C722.741 399.043 664.776 464.077 555.914 540.421C438.57 622.421 398.984 653.524 398.984 762.386ZM333.95 939.109C387.674 939.109 431.501 977.281 431.501 1036.66C431.501 1096.04 387.674 1134.21 333.95 1134.21C278.812 1134.21 236.399 1096.04 236.399 1036.66C236.399 977.281 278.812 939.109 333.95 939.109Z" fill="#73768D"/>
</svg>
