<svg width="462" height="1135" viewBox="0 0 462 1135" fill="none" xmlns="http://www.w3.org/2000/svg">
<path opacity="0.2" fill-rule="evenodd" clip-rule="evenodd" d="M462 6.55322C435.953 2.46198 408.297 0.355469 379.19 0.355469C256.191 0.355469 171.364 31.4588 110.571 82.355C59.6749 124.769 24.3302 181.32 4.53725 243.526C1.70968 252.009 0.295898 260.492 0.295898 267.561C0.295898 298.664 25.744 315.629 52.6059 322.698C61.0886 324.112 69.5714 325.526 78.0541 325.526C103.502 325.526 126.123 312.802 137.433 278.871C169.95 182.734 242.053 116.286 372.121 116.286C405.546 116.286 435.644 120.401 462 128.196V6.55322ZM462 462.152C458.52 464.636 454.951 467.161 451.293 469.732C367.88 526.283 352.328 540.421 324.053 577.18C285.88 625.248 271.743 671.903 271.743 760.972V800.558C271.743 837.316 300.018 855.695 336.777 855.695C372.121 855.695 398.983 837.316 398.983 800.558V762.385C398.983 690.373 416.306 652.387 462 611.185V462.152ZM431.5 1036.66C431.5 977.281 387.673 939.109 333.949 939.109C278.812 939.109 236.398 977.281 236.398 1036.66C236.398 1096.04 278.812 1134.21 333.949 1134.21C387.673 1134.21 431.5 1096.04 431.5 1036.66Z" fill="#73768D"/>
</svg>
