<svg width="137" height="66" viewBox="0 0 137 66" fill="none" xmlns="http://www.w3.org/2000/svg">
<path fill-rule="evenodd" clip-rule="evenodd" d="M120.146 2H16C8.26801 2 2 8.26801 2 16V49.7305C2 57.4625 8.26802 63.7305 16 63.7305H120.146C127.877 63.7305 134.146 57.4625 134.146 49.7305V16C134.146 8.26801 127.877 2 120.146 2ZM16 0C7.16344 0 0 7.16345 0 16V49.7305C0 58.567 7.16345 65.7305 16 65.7305H120.146C128.982 65.7305 136.146 58.567 136.146 49.7305V16C136.146 7.16344 128.982 0 120.146 0H16Z" fill="url(#paint0_linear_2108_32)"/>
<path d="M106.387 39.8663V26.7754H111.296C112.302 26.7754 113.146 26.9501 113.828 27.2995C114.514 27.649 115.031 28.139 115.381 28.7697C115.735 29.3961 115.911 30.127 115.911 30.9622C115.911 31.8017 115.732 32.5304 115.374 33.1483C115.021 33.7619 114.499 34.237 113.808 34.5737C113.118 34.9061 112.27 35.0723 111.264 35.0723H107.768V33.1035H110.945C111.533 33.1035 112.014 33.0225 112.389 32.8606C112.764 32.6944 113.041 32.4537 113.22 32.1383C113.404 31.8187 113.495 31.4267 113.495 30.9622C113.495 30.4977 113.404 30.1014 113.22 29.7733C113.037 29.4409 112.758 29.1895 112.383 29.019C112.008 28.8443 111.524 28.7569 110.932 28.7569H108.759V39.8663H106.387ZM113.15 33.9345L116.391 39.8663H113.744L110.561 33.9345H113.15Z" fill="white"/>
<path d="M106.387 39.8663V26.7754H111.296C112.302 26.7754 113.146 26.9501 113.828 27.2995C114.514 27.649 115.031 28.139 115.381 28.7697C115.735 29.3961 115.911 30.127 115.911 30.9622C115.911 31.8017 115.732 32.5304 115.374 33.1483C115.021 33.7619 114.499 34.237 113.808 34.5737C113.118 34.9061 112.27 35.0723 111.264 35.0723H107.768V33.1035H110.945C111.533 33.1035 112.014 33.0225 112.389 32.8606C112.764 32.6944 113.041 32.4537 113.22 32.1383C113.404 31.8187 113.495 31.4267 113.495 30.9622C113.495 30.4977 113.404 30.1014 113.22 29.7733C113.037 29.4409 112.758 29.1895 112.383 29.019C112.008 28.8443 111.524 28.7569 110.932 28.7569H108.759V39.8663H106.387ZM113.15 33.9345L116.391 39.8663H113.744L110.561 33.9345H113.15Z" fill="url(#paint1_linear_2108_32)"/>
<path d="M94.0137 39.8663V26.7754H102.528V28.7633H96.3851V32.3173H102.087V34.3052H96.3851V37.8784H102.579V39.8663H94.0137Z" fill="white"/>
<path d="M94.0137 39.8663V26.7754H102.528V28.7633H96.3851V32.3173H102.087V34.3052H96.3851V37.8784H102.579V39.8663H94.0137Z" fill="url(#paint2_linear_2108_32)"/>
<path d="M80.1152 28.7633V26.7754H90.5598V28.7633H86.5137V39.8663H84.1614V28.7633H80.1152Z" fill="white"/>
<path d="M80.1152 28.7633V26.7754H90.5598V28.7633H86.5137V39.8663H84.1614V28.7633H80.1152Z" fill="url(#paint3_linear_2108_32)"/>
<path d="M74.6757 30.3734C74.6161 29.8152 74.3647 29.3805 73.9215 29.0694C73.4826 28.7583 72.9115 28.6028 72.2084 28.6028C71.7141 28.6028 71.2901 28.6774 70.9364 28.8265C70.5827 28.9757 70.3121 29.1781 70.1246 29.4338C69.9371 29.6895 69.8412 29.9814 69.837 30.3095C69.837 30.5822 69.8988 30.8187 70.0223 31.019C70.1502 31.2193 70.3228 31.3897 70.5401 31.5304C70.7574 31.6667 70.9982 31.7818 71.2624 31.8755C71.5266 31.9693 71.7929 32.0481 72.0614 32.112L73.2887 32.4189C73.783 32.5339 74.2581 32.6895 74.7141 32.8855C75.1743 33.0815 75.5855 33.3287 75.9478 33.627C76.3142 33.9252 76.604 34.2853 76.8171 34.7072C77.0301 35.1291 77.1367 35.6234 77.1367 36.1902C77.1367 36.9572 76.9407 37.6326 76.5486 38.2164C76.1566 38.796 75.5898 39.2498 74.8483 39.5779C74.1111 39.9018 73.2184 40.0637 72.1701 40.0637C71.1516 40.0637 70.2674 39.9061 69.5174 39.5907C68.7716 39.2754 68.1878 38.8152 67.7659 38.2101C67.3483 37.6049 67.1225 36.8677 67.0884 35.9984H69.4215C69.4556 36.4544 69.5962 36.8336 69.8434 37.1362C70.0905 37.4387 70.4122 37.6646 70.8086 37.8137C71.2091 37.9629 71.6566 38.0375 72.1509 38.0375C72.6665 38.0375 73.1182 37.9608 73.506 37.8074C73.898 37.6497 74.2049 37.4324 74.4264 37.1554C74.648 36.8741 74.761 36.546 74.7652 36.171C74.761 35.8301 74.6608 35.5488 74.4648 35.3272C74.2688 35.1014 73.9939 34.9139 73.6402 34.7647C73.2908 34.6113 72.8817 34.475 72.413 34.3556L70.9236 33.9721C69.8455 33.6951 68.9932 33.2754 68.3668 32.7129C67.7446 32.1461 67.4336 31.394 67.4336 30.4565C67.4336 29.6852 67.6424 29.0098 68.06 28.4302C68.4818 27.8507 69.055 27.4011 69.7794 27.0815C70.5039 26.7576 71.3242 26.5957 72.2404 26.5957C73.1693 26.5957 73.9833 26.7576 74.6821 27.0815C75.3853 27.4011 75.9371 27.8464 76.3377 28.4174C76.7382 28.9842 76.9449 29.6362 76.9577 30.3734H74.6757Z" fill="white"/>
<path d="M74.6757 30.3734C74.6161 29.8152 74.3647 29.3805 73.9215 29.0694C73.4826 28.7583 72.9115 28.6028 72.2084 28.6028C71.7141 28.6028 71.2901 28.6774 70.9364 28.8265C70.5827 28.9757 70.3121 29.1781 70.1246 29.4338C69.9371 29.6895 69.8412 29.9814 69.837 30.3095C69.837 30.5822 69.8988 30.8187 70.0223 31.019C70.1502 31.2193 70.3228 31.3897 70.5401 31.5304C70.7574 31.6667 70.9982 31.7818 71.2624 31.8755C71.5266 31.9693 71.7929 32.0481 72.0614 32.112L73.2887 32.4189C73.783 32.5339 74.2581 32.6895 74.7141 32.8855C75.1743 33.0815 75.5855 33.3287 75.9478 33.627C76.3142 33.9252 76.604 34.2853 76.8171 34.7072C77.0301 35.1291 77.1367 35.6234 77.1367 36.1902C77.1367 36.9572 76.9407 37.6326 76.5486 38.2164C76.1566 38.796 75.5898 39.2498 74.8483 39.5779C74.1111 39.9018 73.2184 40.0637 72.1701 40.0637C71.1516 40.0637 70.2674 39.9061 69.5174 39.5907C68.7716 39.2754 68.1878 38.8152 67.7659 38.2101C67.3483 37.6049 67.1225 36.8677 67.0884 35.9984H69.4215C69.4556 36.4544 69.5962 36.8336 69.8434 37.1362C70.0905 37.4387 70.4122 37.6646 70.8086 37.8137C71.2091 37.9629 71.6566 38.0375 72.1509 38.0375C72.6665 38.0375 73.1182 37.9608 73.506 37.8074C73.898 37.6497 74.2049 37.4324 74.4264 37.1554C74.648 36.8741 74.761 36.546 74.7652 36.171C74.761 35.8301 74.6608 35.5488 74.4648 35.3272C74.2688 35.1014 73.9939 34.9139 73.6402 34.7647C73.2908 34.6113 72.8817 34.475 72.413 34.3556L70.9236 33.9721C69.8455 33.6951 68.9932 33.2754 68.3668 32.7129C67.7446 32.1461 67.4336 31.394 67.4336 30.4565C67.4336 29.6852 67.6424 29.0098 68.06 28.4302C68.4818 27.8507 69.055 27.4011 69.7794 27.0815C70.5039 26.7576 71.3242 26.5957 72.2404 26.5957C73.1693 26.5957 73.9833 26.7576 74.6821 27.0815C75.3853 27.4011 75.9371 27.8464 76.3377 28.4174C76.7382 28.9842 76.9449 29.6362 76.9577 30.3734H74.6757Z" fill="url(#paint4_linear_2108_32)"/>
<path d="M63.5531 26.7754V39.8663H61.1816V26.7754H63.5531Z" fill="white"/>
<path d="M63.5531 26.7754V39.8663H61.1816V26.7754H63.5531Z" fill="url(#paint5_linear_2108_32)"/>
<path d="M54.9238 30.9551C54.8173 30.6099 54.6703 30.301 54.4828 30.0282C54.2995 29.7512 54.0779 29.5147 53.818 29.3187C53.5623 29.1227 53.2683 28.9757 52.9359 28.8777C52.6035 28.7754 52.2413 28.7243 51.8492 28.7243C51.1461 28.7243 50.5197 28.9011 49.97 29.2548C49.4203 29.6085 48.9877 30.1284 48.6724 30.8145C48.3613 31.4963 48.2058 32.3272 48.2058 33.3074C48.2058 34.296 48.3613 35.1333 48.6724 35.8194C48.9835 36.5055 49.416 37.0275 49.97 37.3855C50.5239 37.7392 51.1674 37.916 51.9004 37.916C52.5651 37.916 53.1404 37.7882 53.6262 37.5325C54.1163 37.2768 54.4934 36.9146 54.7576 36.4458C55.0218 35.9728 55.1539 35.4189 55.1539 34.7839L55.6909 34.867H52.1369V33.0133H57.4487V34.5858C57.4487 35.7065 57.21 36.676 56.7328 37.4941C56.2555 38.3123 55.5992 38.943 54.764 39.3862C53.9288 39.8251 52.97 40.0446 51.8876 40.0446C50.6816 40.0446 49.6227 39.774 48.7107 39.2328C47.8031 38.6873 47.0935 37.9139 46.5822 36.9125C46.0751 35.9068 45.8215 34.7136 45.8215 33.3329C45.8215 32.2761 45.9707 31.3322 46.269 30.5012C46.5715 29.6703 46.9934 28.965 47.5346 28.3855C48.0758 27.8017 48.7107 27.3585 49.4394 27.0559C50.1681 26.7491 50.9607 26.5957 51.8173 26.5957C52.5417 26.5957 53.2171 26.7022 53.8435 26.9153C54.47 27.1241 55.0261 27.4224 55.5119 27.8102C56.0019 28.198 56.4046 28.6582 56.72 29.1909C57.0353 29.7235 57.242 30.3116 57.34 30.9551H54.9238Z" fill="white"/>
<path d="M54.9238 30.9551C54.8173 30.6099 54.6703 30.301 54.4828 30.0282C54.2995 29.7512 54.0779 29.5147 53.818 29.3187C53.5623 29.1227 53.2683 28.9757 52.9359 28.8777C52.6035 28.7754 52.2413 28.7243 51.8492 28.7243C51.1461 28.7243 50.5197 28.9011 49.97 29.2548C49.4203 29.6085 48.9877 30.1284 48.6724 30.8145C48.3613 31.4963 48.2058 32.3272 48.2058 33.3074C48.2058 34.296 48.3613 35.1333 48.6724 35.8194C48.9835 36.5055 49.416 37.0275 49.97 37.3855C50.5239 37.7392 51.1674 37.916 51.9004 37.916C52.5651 37.916 53.1404 37.7882 53.6262 37.5325C54.1163 37.2768 54.4934 36.9146 54.7576 36.4458C55.0218 35.9728 55.1539 35.4189 55.1539 34.7839L55.6909 34.867H52.1369V33.0133H57.4487V34.5858C57.4487 35.7065 57.21 36.676 56.7328 37.4941C56.2555 38.3123 55.5992 38.943 54.764 39.3862C53.9288 39.8251 52.97 40.0446 51.8876 40.0446C50.6816 40.0446 49.6227 39.774 48.7107 39.2328C47.8031 38.6873 47.0935 37.9139 46.5822 36.9125C46.0751 35.9068 45.8215 34.7136 45.8215 33.3329C45.8215 32.2761 45.9707 31.3322 46.269 30.5012C46.5715 29.6703 46.9934 28.965 47.5346 28.3855C48.0758 27.8017 48.7107 27.3585 49.4394 27.0559C50.1681 26.7491 50.9607 26.5957 51.8173 26.5957C52.5417 26.5957 53.2171 26.7022 53.8435 26.9153C54.47 27.1241 55.0261 27.4224 55.5119 27.8102C56.0019 28.198 56.4046 28.6582 56.72 29.1909C57.0353 29.7235 57.242 30.3116 57.34 30.9551H54.9238Z" fill="url(#paint6_linear_2108_32)"/>
<path d="M33.7803 39.8663V26.7754H42.2945V28.7633H36.1517V32.3173H41.8534V34.3052H36.1517V37.8784H42.3456V39.8663H33.7803Z" fill="white"/>
<path d="M33.7803 39.8663V26.7754H42.2945V28.7633H36.1517V32.3173H41.8534V34.3052H36.1517V37.8784H42.3456V39.8663H33.7803Z" fill="url(#paint7_linear_2108_32)"/>
<path d="M20.6333 39.8663V26.7754H25.5424C26.5481 26.7754 27.3918 26.9501 28.0736 27.2995C28.7597 27.649 29.2775 28.139 29.6269 28.7697C29.9806 29.3961 30.1574 30.127 30.1574 30.9622C30.1574 31.8017 29.9785 32.5304 29.6205 33.1483C29.2668 33.7619 28.7448 34.237 28.0545 34.5737C27.3641 34.9061 26.5161 35.0723 25.5104 35.0723H22.014V33.1035H25.1908C25.7789 33.1035 26.2604 33.0225 26.6354 32.8606C27.0104 32.6944 27.2874 32.4537 27.4664 32.1383C27.6496 31.8187 27.7413 31.4267 27.7413 30.9622C27.7413 30.4977 27.6496 30.1014 27.4664 29.7733C27.2832 29.4409 27.004 29.1895 26.629 29.019C26.254 28.8443 25.7704 28.7569 25.178 28.7569H23.0047V39.8663H20.6333ZM27.3961 33.9345L30.6369 39.8663H27.9905L24.8073 33.9345H27.3961Z" fill="white"/>
<path d="M20.6333 39.8663V26.7754H25.5424C26.5481 26.7754 27.3918 26.9501 28.0736 27.2995C28.7597 27.649 29.2775 28.139 29.6269 28.7697C29.9806 29.3961 30.1574 30.127 30.1574 30.9622C30.1574 31.8017 29.9785 32.5304 29.6205 33.1483C29.2668 33.7619 28.7448 34.237 28.0545 34.5737C27.3641 34.9061 26.5161 35.0723 25.5104 35.0723H22.014V33.1035H25.1908C25.7789 33.1035 26.2604 33.0225 26.6354 32.8606C27.0104 32.6944 27.2874 32.4537 27.4664 32.1383C27.6496 31.8187 27.7413 31.4267 27.7413 30.9622C27.7413 30.4977 27.6496 30.1014 27.4664 29.7733C27.2832 29.4409 27.004 29.1895 26.629 29.019C26.254 28.8443 25.7704 28.7569 25.178 28.7569H23.0047V39.8663H20.6333ZM27.3961 33.9345L30.6369 39.8663H27.9905L24.8073 33.9345H27.3961Z" fill="url(#paint8_linear_2108_32)"/>
<defs>
<linearGradient id="paint0_linear_2108_32" x1="8.13872" y1="8.2368" x2="67.8336" y2="88.5523" gradientUnits="userSpaceOnUse">
<stop stop-color="#007BFF"/>
<stop offset="1" stop-color="#FFEB3B"/>
</linearGradient>
<linearGradient id="paint1_linear_2108_32" x1="24.931" y1="26.1219" x2="33.8709" y2="57.7382" gradientUnits="userSpaceOnUse">
<stop stop-color="#007BFF"/>
<stop offset="1" stop-color="#FFEB3B"/>
</linearGradient>
<linearGradient id="paint2_linear_2108_32" x1="24.9311" y1="26.1219" x2="33.871" y2="57.7382" gradientUnits="userSpaceOnUse">
<stop stop-color="#007BFF"/>
<stop offset="1" stop-color="#FFEB3B"/>
</linearGradient>
<linearGradient id="paint3_linear_2108_32" x1="24.9307" y1="26.1219" x2="33.8706" y2="57.7382" gradientUnits="userSpaceOnUse">
<stop stop-color="#007BFF"/>
<stop offset="1" stop-color="#FFEB3B"/>
</linearGradient>
<linearGradient id="paint4_linear_2108_32" x1="24.9311" y1="26.1212" x2="33.8709" y2="57.7375" gradientUnits="userSpaceOnUse">
<stop stop-color="#007BFF"/>
<stop offset="1" stop-color="#FFEB3B"/>
</linearGradient>
<linearGradient id="paint5_linear_2108_32" x1="24.9308" y1="26.1219" x2="33.8706" y2="57.7382" gradientUnits="userSpaceOnUse">
<stop stop-color="#007BFF"/>
<stop offset="1" stop-color="#FFEB3B"/>
</linearGradient>
<linearGradient id="paint6_linear_2108_32" x1="24.9309" y1="26.1212" x2="33.8708" y2="57.7375" gradientUnits="userSpaceOnUse">
<stop stop-color="#007BFF"/>
<stop offset="1" stop-color="#FFEB3B"/>
</linearGradient>
<linearGradient id="paint7_linear_2108_32" x1="24.9309" y1="26.1219" x2="33.8708" y2="57.7382" gradientUnits="userSpaceOnUse">
<stop stop-color="#007BFF"/>
<stop offset="1" stop-color="#FFEB3B"/>
</linearGradient>
<linearGradient id="paint8_linear_2108_32" x1="24.9309" y1="26.1219" x2="33.8708" y2="57.7382" gradientUnits="userSpaceOnUse">
<stop stop-color="#007BFF"/>
<stop offset="1" stop-color="#FFEB3B"/>
</linearGradient>
</defs>
</svg>
