<svg width="138" height="66" viewBox="0 0 138 66" fill="none" xmlns="http://www.w3.org/2000/svg">
<rect x="2.06714" y="1.00391" width="134.13" height="63.7715" rx="16" fill="url(#paint0_linear_2106_1085)"/>
<path fill-rule="evenodd" clip-rule="evenodd" d="M121.134 2.08594H16.9888C9.25678 2.08594 2.98877 8.35395 2.98877 16.0859V49.8164C2.98877 57.5484 9.25679 63.8164 16.9888 63.8164H121.134C128.866 63.8164 135.134 57.5484 135.134 49.8164V16.0859C135.134 8.35395 128.866 2.08594 121.134 2.08594ZM16.9888 0.0859375C8.15221 0.0859375 0.98877 7.24938 0.98877 16.0859V49.8164C0.98877 58.653 8.15222 65.8164 16.9888 65.8164H121.134C129.971 65.8164 137.134 58.653 137.134 49.8164V16.0859C137.134 7.24938 129.971 0.0859375 121.134 0.0859375H16.9888Z" fill="url(#paint1_linear_2106_1085)"/>
<path d="M107.376 39.9522V26.8613H112.285C113.291 26.8613 114.135 27.036 114.816 27.3855C115.502 27.7349 116.02 28.225 116.37 28.8556C116.723 29.4821 116.9 30.2129 116.9 31.0481C116.9 31.8876 116.721 32.6163 116.363 33.2342C116.01 33.8478 115.487 34.323 114.797 34.6596C114.107 34.992 113.259 35.1582 112.253 35.1582H108.757V33.1895H111.934C112.522 33.1895 113.003 33.1085 113.378 32.9466C113.753 32.7804 114.03 32.5396 114.209 32.2243C114.392 31.9047 114.484 31.5126 114.484 31.0481C114.484 30.5836 114.392 30.1873 114.209 29.8592C114.026 29.5268 113.747 29.2754 113.372 29.1049C112.997 28.9302 112.513 28.8429 111.921 28.8429H109.747V39.9522H107.376ZM114.139 34.0204L117.38 39.9522H114.733L111.55 34.0204H114.139Z" fill="white"/>
<path d="M95.0024 39.9522V26.8613H103.517V28.8493H97.3739V32.4032H103.076V34.3912H97.3739V37.9643H103.568V39.9522H95.0024Z" fill="white"/>
<path d="M81.104 28.8493V26.8613H91.5486V28.8493H87.5024V39.9522H85.1502V28.8493H81.104Z" fill="white"/>
<path d="M75.6645 30.4593C75.6048 29.9011 75.3534 29.4664 74.9102 29.1554C74.4713 28.8443 73.9003 28.6887 73.1972 28.6887C72.7029 28.6887 72.2789 28.7633 71.9252 28.9125C71.5715 29.0616 71.3009 29.264 71.1134 29.5197C70.9259 29.7754 70.83 30.0673 70.8257 30.3954C70.8257 30.6681 70.8875 30.9047 71.0111 31.1049C71.1389 31.3052 71.3115 31.4757 71.5289 31.6163C71.7462 31.7527 71.987 31.8677 72.2512 31.9615C72.5154 32.0552 72.7817 32.1341 73.0502 32.198L74.2774 32.5048C74.7718 32.6199 75.2469 32.7754 75.7029 32.9714C76.1631 33.1674 76.5743 33.4146 76.9365 33.7129C77.303 34.0112 77.5928 34.3713 77.8058 34.7931C78.0189 35.215 78.1254 35.7093 78.1254 36.2761C78.1254 37.0431 77.9294 37.7186 77.5374 38.3024C77.1453 38.8819 76.5786 39.3358 75.8371 39.6639C75.0999 39.9877 74.2071 40.1497 73.1588 40.1497C72.1404 40.1497 71.2561 39.992 70.5061 39.6767C69.7604 39.3613 69.1766 38.9011 68.7547 38.296C68.3371 37.6909 68.1112 36.9537 68.0771 36.0843H70.4102C70.4443 36.5403 70.585 36.9196 70.8321 37.2221C71.0793 37.5247 71.401 37.7505 71.7973 37.8997C72.1979 38.0488 72.6453 38.1234 73.1397 38.1234C73.6553 38.1234 74.107 38.0467 74.4948 37.8933C74.8868 37.7356 75.1936 37.5183 75.4152 37.2413C75.6368 36.9601 75.7497 36.6319 75.754 36.2569C75.7497 35.916 75.6496 35.6348 75.4536 35.4132C75.2575 35.1873 74.9827 34.9998 74.629 34.8507C74.2796 34.6973 73.8705 34.5609 73.4017 34.4416L71.9124 34.0581C70.8343 33.7811 69.982 33.3613 69.3556 32.7988C68.7334 32.2321 68.4223 31.4799 68.4223 30.5424C68.4223 29.7711 68.6311 29.0957 69.0487 28.5162C69.4706 27.9366 70.0438 27.487 70.7682 27.1674C71.4926 26.8436 72.3129 26.6816 73.2291 26.6816C74.1581 26.6816 74.972 26.8436 75.6709 27.1674C76.374 27.487 76.9259 27.9324 77.3264 28.5034C77.727 29.0701 77.9337 29.7221 77.9465 30.4593H75.6645Z" fill="white"/>
<path d="M64.5419 26.8613V39.9522H62.1704V26.8613H64.5419Z" fill="white"/>
<path d="M55.9126 31.041C55.806 30.6958 55.659 30.3869 55.4715 30.1142C55.2883 29.8372 55.0667 29.6007 54.8068 29.4047C54.5511 29.2086 54.257 29.0616 53.9247 28.9636C53.5923 28.8613 53.23 28.8102 52.838 28.8102C52.1349 28.8102 51.5085 28.987 50.9587 29.3407C50.409 29.6944 49.9765 30.2143 49.6612 30.9004C49.3501 31.5822 49.1945 32.4132 49.1945 33.3933C49.1945 34.3819 49.3501 35.2193 49.6612 35.9054C49.9722 36.5914 50.4048 37.1135 50.9587 37.4714C51.5127 37.8251 52.1562 38.002 52.8891 38.002C53.5539 38.002 54.1292 37.8741 54.615 37.6184C55.105 37.3627 55.4822 37.0005 55.7464 36.5318C56.0106 36.0588 56.1427 35.5048 56.1427 34.8699L56.6796 34.9529H53.1256V33.0993H58.4374V34.6717C58.4374 35.7924 58.1988 36.7619 57.7215 37.5801C57.2443 38.3983 56.588 39.0289 55.7528 39.4721C54.9175 39.911 53.9587 40.1305 52.8764 40.1305C51.6704 40.1305 50.6114 39.8599 49.6995 39.3187C48.7918 38.7733 48.0823 37.9998 47.571 36.9984C47.0639 35.9927 46.8103 34.7995 46.8103 33.4189C46.8103 32.362 46.9595 31.4181 47.2577 30.5872C47.5603 29.7562 47.9822 29.051 48.5234 28.4714C49.0646 27.8876 49.6995 27.4444 50.4282 27.1419C51.1569 26.835 51.9495 26.6816 52.806 26.6816C53.5305 26.6816 54.2059 26.7882 54.8323 27.0012C55.4587 27.21 56.0148 27.5083 56.5006 27.8961C56.9907 28.2839 57.3934 28.7441 57.7087 29.2768C58.0241 29.8095 58.2308 30.3976 58.3288 31.041H55.9126Z" fill="white"/>
<path d="M34.769 39.9522V26.8613H43.2832V28.8493H37.1405V32.4032H42.8422V34.3912H37.1405V37.9643H43.3344V39.9522H34.769Z" fill="white"/>
<path d="M21.6221 39.9522V26.8613H26.5312C27.5368 26.8613 28.3806 27.036 29.0624 27.3855C29.7485 27.7349 30.2662 28.225 30.6157 28.8556C30.9694 29.4821 31.1462 30.2129 31.1462 31.0481C31.1462 31.8876 30.9672 32.6163 30.6093 33.2342C30.2556 33.8478 29.7336 34.323 29.0432 34.6596C28.3529 34.992 27.5049 35.1582 26.4992 35.1582H23.0028V33.1895H26.1796C26.7677 33.1895 27.2492 33.1085 27.6242 32.9466C27.9992 32.7804 28.2762 32.5396 28.4552 32.2243C28.6384 31.9047 28.73 31.5126 28.73 31.0481C28.73 30.5836 28.6384 30.1873 28.4552 29.8592C28.2719 29.5268 27.9928 29.2754 27.6178 29.1049C27.2428 28.9302 26.7591 28.8429 26.1668 28.8429H23.9935V39.9522H21.6221ZM28.3849 34.0204L31.6256 39.9522H28.9793L25.7961 34.0204H28.3849Z" fill="white"/>
<defs>
<linearGradient id="paint0_linear_2106_1085" x1="10.0854" y1="8.99522" x2="67.7393" y2="87.764" gradientUnits="userSpaceOnUse">
<stop stop-color="#007BFF"/>
<stop offset="1" stop-color="#FFEB3B"/>
</linearGradient>
<linearGradient id="paint1_linear_2106_1085" x1="9.12749" y1="8.32274" x2="68.8224" y2="88.6382" gradientUnits="userSpaceOnUse">
<stop stop-color="#007BFF"/>
<stop offset="1" stop-color="#FFEB3B"/>
</linearGradient>
</defs>
</svg>
