<svg width="205" height="62" viewBox="0 0 205 62" fill="none" xmlns="http://www.w3.org/2000/svg">
<path d="M0 16.9629C0 8.12634 7.16344 0.962891 16 0.962891H188.059C196.895 0.962891 204.059 8.12634 204.059 16.9629V45.9805C204.059 54.817 196.895 61.9805 188.059 61.9805H16C7.16346 61.9805 0 54.817 0 45.9805V16.9629Z" fill="url(#paint0_linear_2127_47)"/>
<path d="M170.782 29.8132L168.975 30.3246C168.862 30.0234 168.694 29.7308 168.472 29.4467C168.256 29.157 167.961 28.9183 167.586 28.7308C167.211 28.5433 166.731 28.4496 166.146 28.4496C165.344 28.4496 164.677 28.6342 164.143 29.0036C163.614 29.3672 163.35 29.8303 163.35 30.3928C163.35 30.8928 163.532 31.2876 163.896 31.5774C164.259 31.8672 164.827 32.1087 165.6 32.3018L167.543 32.7791C168.714 33.0632 169.586 33.4979 170.16 34.0831C170.734 34.6626 171.021 35.4098 171.021 36.3246C171.021 37.0746 170.805 37.745 170.373 38.3359C169.947 38.9268 169.35 39.3928 168.583 39.7337C167.816 40.0746 166.924 40.245 165.907 40.245C164.572 40.245 163.467 39.9553 162.592 39.3757C161.717 38.7962 161.163 37.9496 160.93 36.8359L162.839 36.3587C163.021 37.0632 163.364 37.5916 163.87 37.9439C164.381 38.2962 165.049 38.4723 165.873 38.4723C166.81 38.4723 167.555 38.2734 168.106 37.8757C168.663 37.4723 168.941 36.9893 168.941 36.4268C168.941 35.9723 168.782 35.5916 168.464 35.2848C168.146 34.9723 167.657 34.7393 166.998 34.5859L164.816 34.0746C163.617 33.7905 162.736 33.3501 162.174 32.7536C161.617 32.1513 161.339 31.3984 161.339 30.495C161.339 29.7564 161.546 29.103 161.961 28.5348C162.381 27.9666 162.952 27.5206 163.674 27.1967C164.401 26.8729 165.225 26.7109 166.146 26.7109C167.441 26.7109 168.458 26.995 169.197 27.5632C169.941 28.1314 170.469 28.8814 170.782 29.8132Z" fill="white"/>
<path d="M155.843 29.8132L154.036 30.3246C153.923 30.0234 153.755 29.7308 153.533 29.4467C153.317 29.157 153.022 28.9183 152.647 28.7308C152.272 28.5433 151.792 28.4496 151.207 28.4496C150.405 28.4496 149.738 28.6342 149.204 29.0036C148.675 29.3672 148.411 29.8303 148.411 30.3928C148.411 30.8928 148.593 31.2876 148.957 31.5774C149.32 31.8672 149.888 32.1087 150.661 32.3018L152.604 32.7791C153.775 33.0632 154.647 33.4979 155.221 34.0831C155.795 34.6626 156.082 35.4098 156.082 36.3246C156.082 37.0746 155.866 37.745 155.434 38.3359C155.008 38.9268 154.411 39.3928 153.644 39.7337C152.877 40.0746 151.985 40.245 150.968 40.245C149.633 40.245 148.528 39.9553 147.653 39.3757C146.778 38.7962 146.224 37.9496 145.991 36.8359L147.9 36.3587C148.082 37.0632 148.425 37.5916 148.931 37.9439C149.442 38.2962 150.11 38.4723 150.934 38.4723C151.871 38.4723 152.616 38.2734 153.167 37.8757C153.724 37.4723 154.002 36.9893 154.002 36.4268C154.002 35.9723 153.843 35.5916 153.525 35.2848C153.207 34.9723 152.718 34.7393 152.059 34.5859L149.877 34.0746C148.678 33.7905 147.798 33.3501 147.235 32.7536C146.678 32.1513 146.4 31.3984 146.4 30.495C146.4 29.7564 146.607 29.103 147.022 28.5348C147.442 27.9666 148.013 27.5206 148.735 27.1967C149.462 26.8729 150.286 26.7109 151.207 26.7109C152.502 26.7109 153.519 26.995 154.258 27.5632C155.002 28.1314 155.531 28.8814 155.843 29.8132Z" fill="white"/>
<path d="M135.69 40.245C134.429 40.245 133.341 39.9666 132.426 39.4098C131.517 38.8473 130.815 38.0632 130.321 37.0575C129.832 36.0462 129.588 34.87 129.588 33.5291C129.588 32.1882 129.832 31.0064 130.321 29.9837C130.815 28.9553 131.503 28.1541 132.383 27.5803C133.27 27.0007 134.304 26.7109 135.486 26.7109C136.167 26.7109 136.841 26.8246 137.506 27.0518C138.17 27.2791 138.775 27.6484 139.321 28.1598C139.866 28.6655 140.301 29.3359 140.625 30.1712C140.949 31.0064 141.111 32.0348 141.111 33.2564V34.1087H131.02V32.37H139.065C139.065 31.6314 138.917 30.9723 138.622 30.3928C138.332 29.8132 137.917 29.3558 137.378 29.0206C136.844 28.6854 136.213 28.5178 135.486 28.5178C134.684 28.5178 133.991 28.7166 133.406 29.1143C132.827 29.5064 132.381 30.0178 132.068 30.6484C131.756 31.2791 131.599 31.9553 131.599 32.6768V33.8359C131.599 34.8246 131.77 35.6626 132.111 36.3501C132.457 37.032 132.937 37.5518 133.551 37.9098C134.165 38.2621 134.878 38.4382 135.69 38.4382C136.219 38.4382 136.696 38.3643 137.122 38.2166C137.554 38.0632 137.926 37.8359 138.238 37.5348C138.551 37.228 138.792 36.8473 138.963 36.3928L140.906 36.9382C140.702 37.5973 140.358 38.1768 139.875 38.6768C139.392 39.1712 138.795 39.5575 138.085 39.8359C137.375 40.1087 136.577 40.245 135.69 40.245Z" fill="white"/>
<path d="M114.574 39.9721V22.5176H116.688V38.0971H124.801V39.9721H114.574Z" fill="white"/>
<path d="M86.2176 39.9718L82.229 26.8809H84.3426L87.1722 36.9036H87.3086L90.104 26.8809H92.2517L95.0131 36.8695H95.1495L97.979 26.8809H100.093L96.104 39.9718H94.1267L91.2631 29.915H91.0586L88.1949 39.9718H86.2176Z" fill="white"/>
<path d="M72.2946 40.245C71.1128 40.245 70.0759 39.9638 69.1838 39.4013C68.2975 38.8388 67.6043 38.0518 67.1043 37.0405C66.61 36.0291 66.3628 34.8473 66.3628 33.495C66.3628 32.1314 66.61 30.9411 67.1043 29.924C67.6043 28.907 68.2975 28.1172 69.1838 27.5547C70.0759 26.9922 71.1128 26.7109 72.2946 26.7109C73.4764 26.7109 74.5105 26.9922 75.3969 27.5547C76.2889 28.1172 76.9821 28.907 77.4764 29.924C77.9764 30.9411 78.2264 32.1314 78.2264 33.495C78.2264 34.8473 77.9764 36.0291 77.4764 37.0405C76.9821 38.0518 76.2889 38.8388 75.3969 39.4013C74.5105 39.9638 73.4764 40.245 72.2946 40.245ZM72.2946 38.4382C73.1923 38.4382 73.931 38.2081 74.5105 37.7479C75.0901 37.2876 75.519 36.6825 75.7975 35.9325C76.0759 35.1825 76.2151 34.37 76.2151 33.495C76.2151 32.62 76.0759 31.8047 75.7975 31.049C75.519 30.2933 75.0901 29.6825 74.5105 29.2166C73.931 28.7507 73.1923 28.5178 72.2946 28.5178C71.3969 28.5178 70.6583 28.7507 70.0787 29.2166C69.4992 29.6825 69.0702 30.2933 68.7918 31.049C68.5134 31.8047 68.3742 32.62 68.3742 33.495C68.3742 34.37 68.5134 35.1825 68.7918 35.9325C69.0702 36.6825 69.4992 37.2876 70.0787 37.7479C70.6583 38.2081 71.3969 38.4382 72.2946 38.4382Z" fill="white"/>
<path d="M52.4083 32.0971V39.9721H50.397V22.5176H52.4083V28.9267H52.5788C52.8856 28.2505 53.3458 27.7136 53.9595 27.3159C54.5788 26.9125 55.4027 26.7108 56.4311 26.7108C57.3231 26.7108 58.1044 26.8897 58.7748 27.2477C59.4453 27.6 59.9652 28.1426 60.3345 28.8755C60.7095 29.6028 60.897 30.5289 60.897 31.6539V39.9721H58.8856V31.7903C58.8856 30.7505 58.6157 29.9466 58.0759 29.3784C57.5419 28.8045 56.8004 28.5176 55.8515 28.5176C55.1924 28.5176 54.6015 28.6568 54.0788 28.9352C53.5617 29.2136 53.1527 29.6199 52.8515 30.1539C52.5561 30.688 52.4083 31.3358 52.4083 32.0971Z" fill="white"/>
<path d="M42.5103 26.8816C42.408 26.0179 41.9933 25.3475 41.266 24.8702C40.5387 24.3929 39.6467 24.1543 38.5898 24.1543C37.8171 24.1543 37.141 24.2793 36.5614 24.5293C35.9876 24.7793 35.5387 25.123 35.2148 25.5605C34.8967 25.998 34.7376 26.4952 34.7376 27.052C34.7376 27.5179 34.8484 27.9185 35.07 28.2537C35.2972 28.5833 35.587 28.8588 35.9393 29.0804C36.2915 29.2963 36.6609 29.4753 37.0472 29.6174C37.4336 29.7537 37.7887 29.8645 38.1126 29.9498L39.8853 30.427C40.3398 30.5463 40.8455 30.7111 41.4023 30.9213C41.9648 31.1316 42.5018 31.4185 43.0131 31.7821C43.5302 32.1401 43.9563 32.6003 44.2915 33.1628C44.6268 33.7253 44.7944 34.4157 44.7944 35.2338C44.7944 36.177 44.5472 37.0293 44.0529 37.7907C43.5643 38.552 42.8484 39.1571 41.9052 39.606C40.9677 40.0549 39.8285 40.2793 38.4876 40.2793C37.2376 40.2793 36.1552 40.0776 35.2404 39.6742C34.3313 39.2708 33.6154 38.7083 33.0927 37.9867C32.5756 37.2651 32.283 36.427 32.2148 35.4725H34.3967C34.4535 36.1316 34.6751 36.677 35.0614 37.1088C35.4535 37.535 35.9478 37.8532 36.5444 38.0634C37.1467 38.2679 37.7944 38.3702 38.4876 38.3702C39.2944 38.3702 40.0188 38.2395 40.6609 37.9782C41.3029 37.7111 41.8114 37.3418 42.1864 36.8702C42.5614 36.3929 42.7489 35.8361 42.7489 35.1998C42.7489 34.6202 42.587 34.1486 42.2631 33.785C41.9393 33.4213 41.5131 33.1259 40.9847 32.8986C40.4563 32.6713 39.8853 32.4725 39.2717 32.302L37.1239 31.6884C35.7603 31.2963 34.6808 30.7367 33.8853 30.0094C33.0898 29.2821 32.6921 28.3304 32.6921 27.1543C32.6921 26.177 32.9563 25.3248 33.4847 24.5975C34.0188 23.8645 34.7347 23.2963 35.6325 22.8929C36.5359 22.4838 37.5444 22.2793 38.658 22.2793C39.783 22.2793 40.783 22.481 41.658 22.8844C42.533 23.2821 43.2262 23.8276 43.7376 24.5208C44.2546 25.214 44.5273 26.0009 44.5558 26.8816H42.5103Z" fill="white"/>
<defs>
<linearGradient id="paint0_linear_2127_47" x1="0" y1="31.4717" x2="204.059" y2="31.4717" gradientUnits="userSpaceOnUse">
<stop stop-color="#007BFF"/>
<stop offset="1" stop-color="#FFEB3B"/>
</linearGradient>
</defs>
</svg>
