<svg width="205" height="62" viewBox="0 0 205 62" fill="none" xmlns="http://www.w3.org/2000/svg">
<path fill-rule="evenodd" clip-rule="evenodd" d="M188.687 2.27734H16.6279C8.89594 2.27734 2.62793 8.54536 2.62793 16.2773V45.2949C2.62793 53.0269 8.89596 59.2949 16.6279 59.2949H188.687C196.419 59.2949 202.687 53.0269 202.687 45.2949V16.2773C202.687 8.54536 196.419 2.27734 188.687 2.27734ZM16.6279 0.277344C7.79137 0.277344 0.62793 7.44079 0.62793 16.2773V45.2949C0.62793 54.1315 7.79139 61.2949 16.6279 61.2949H188.687C197.523 61.2949 204.687 54.1315 204.687 45.2949V16.2773C204.687 7.44079 197.523 0.277344 188.687 0.277344H16.6279Z" fill="url(#paint0_linear_2106_1100)"/>
<path d="M169.509 39.5595C168.247 39.5595 167.159 39.2811 166.245 38.7243C165.335 38.1618 164.634 37.3777 164.139 36.372C163.651 35.3606 163.406 34.1845 163.406 32.8436C163.406 31.5027 163.651 30.3208 164.139 29.2981C164.634 28.2697 165.321 27.4686 166.202 26.8947C167.088 26.3152 168.122 26.0254 169.304 26.0254C169.986 26.0254 170.659 26.139 171.324 26.3663C171.989 26.5936 172.594 26.9629 173.139 27.4743C173.685 27.9799 174.12 28.6504 174.443 29.4856C174.767 30.3208 174.929 31.3493 174.929 32.5708V33.4231H164.838V31.6845H172.884C172.884 30.9458 172.736 30.2868 172.441 29.7072C172.151 29.1277 171.736 28.6703 171.196 28.335C170.662 27.9998 170.031 27.8322 169.304 27.8322C168.503 27.8322 167.81 28.0311 167.225 28.4288C166.645 28.8208 166.199 29.3322 165.887 29.9629C165.574 30.5936 165.418 31.2697 165.418 31.9913V33.1504C165.418 34.139 165.588 34.9771 165.929 35.6646C166.276 36.3464 166.756 36.8663 167.37 37.2243C167.983 37.5765 168.696 37.7527 169.509 37.7527C170.037 37.7527 170.514 37.6788 170.941 37.5311C171.372 37.3777 171.745 37.1504 172.057 36.8493C172.37 36.5424 172.611 36.1618 172.781 35.7072L174.725 36.2527C174.52 36.9118 174.176 37.4913 173.693 37.9913C173.21 38.4856 172.614 38.872 171.904 39.1504C171.193 39.4231 170.395 39.5595 169.509 39.5595Z" fill="#73768D"/>
<path d="M153.089 39.2876V26.1967H155.032V28.174H155.168C155.407 27.5263 155.839 27.0007 156.464 26.5973C157.089 26.1939 157.793 25.9922 158.578 25.9922C158.725 25.9922 158.91 25.995 159.131 26.0007C159.353 26.0064 159.521 26.0149 159.634 26.0263V28.0717C159.566 28.0547 159.41 28.0291 159.166 27.995C158.927 27.9553 158.674 27.9354 158.407 27.9354C157.771 27.9354 157.202 28.0689 156.702 28.3359C156.208 28.5973 155.816 28.9609 155.526 29.4268C155.242 29.8871 155.1 30.4126 155.1 31.0036V39.2876H153.089Z" fill="#73768D"/>
<path d="M141.687 39.5595C140.505 39.5595 139.468 39.2782 138.576 38.7157C137.69 38.1532 136.996 37.3663 136.496 36.3549C136.002 35.3436 135.755 34.1618 135.755 32.8095C135.755 31.4458 136.002 30.2555 136.496 29.2385C136.996 28.2214 137.69 27.4316 138.576 26.8691C139.468 26.3066 140.505 26.0254 141.687 26.0254C142.869 26.0254 143.903 26.3066 144.789 26.8691C145.681 27.4316 146.374 28.2214 146.869 29.2385C147.369 30.2555 147.619 31.4458 147.619 32.8095C147.619 34.1618 147.369 35.3436 146.869 36.3549C146.374 37.3663 145.681 38.1532 144.789 38.7157C143.903 39.2782 142.869 39.5595 141.687 39.5595ZM141.687 37.7527C142.584 37.7527 143.323 37.5225 143.903 37.0623C144.482 36.6021 144.911 35.997 145.19 35.247C145.468 34.497 145.607 33.6845 145.607 32.8095C145.607 31.9345 145.468 31.1191 145.19 30.3635C144.911 29.6078 144.482 28.997 143.903 28.5311C143.323 28.0652 142.584 27.8322 141.687 27.8322C140.789 27.8322 140.05 28.0652 139.471 28.5311C138.891 28.997 138.462 29.6078 138.184 30.3635C137.905 31.1191 137.766 31.9345 137.766 32.8095C137.766 33.6845 137.905 34.497 138.184 35.247C138.462 35.997 138.891 36.6021 139.471 37.0623C140.05 37.5225 140.789 37.7527 141.687 37.7527Z" fill="#73768D"/>
<path d="M112.89 21.832H115.412L121.344 36.3207H121.549L127.481 21.832H130.003V39.2866H128.026V26.0252H127.856L122.401 39.2866H120.492L115.037 26.0252H114.867V39.2866H112.89V21.832Z" fill="#73768D"/>
<path d="M84.5328 39.2862L80.5442 26.1953H82.6578L85.4874 36.218H85.6237L88.4192 26.1953H90.5669L93.3283 36.184H93.4646L96.2942 26.1953H98.4078L94.4192 39.2862H92.4419L89.5783 29.2294H89.3737L86.5101 39.2862H84.5328Z" fill="#73768D"/>
<path d="M70.61 39.5595C69.4282 39.5595 68.3913 39.2782 67.4992 38.7157C66.6129 38.1532 65.9197 37.3663 65.4197 36.3549C64.9254 35.3436 64.6782 34.1618 64.6782 32.8095C64.6782 31.4458 64.9254 30.2555 65.4197 29.2385C65.9197 28.2214 66.6129 27.4316 67.4992 26.8691C68.3913 26.3066 69.4282 26.0254 70.61 26.0254C71.7919 26.0254 72.826 26.3066 73.7123 26.8691C74.6044 27.4316 75.2975 28.2214 75.7919 29.2385C76.2919 30.2555 76.5419 31.4458 76.5419 32.8095C76.5419 34.1618 76.2919 35.3436 75.7919 36.3549C75.2975 37.3663 74.6044 38.1532 73.7123 38.7157C72.826 39.2782 71.7919 39.5595 70.61 39.5595ZM70.61 37.7527C71.5078 37.7527 72.2464 37.5225 72.826 37.0623C73.4055 36.6021 73.8345 35.997 74.1129 35.247C74.3913 34.497 74.5305 33.6845 74.5305 32.8095C74.5305 31.9345 74.3913 31.1191 74.1129 30.3635C73.8345 29.6078 73.4055 28.997 72.826 28.5311C72.2464 28.0652 71.5078 27.8322 70.61 27.8322C69.7123 27.8322 68.9737 28.0652 68.3941 28.5311C67.8146 28.997 67.3856 29.6078 67.1072 30.3635C66.8288 31.1191 66.6896 31.9345 66.6896 32.8095C66.6896 33.6845 66.8288 34.497 67.1072 35.247C67.3856 35.997 67.8146 36.6021 68.3941 37.0623C68.9737 37.5225 69.7123 37.7527 70.61 37.7527Z" fill="#73768D"/>
<path d="M50.7235 31.4116V39.2866H48.7122V21.832H50.7235V28.2411H50.894C51.2008 27.565 51.661 27.0281 52.2747 26.6303C52.894 26.2269 53.7178 26.0252 54.7462 26.0252C55.6383 26.0252 56.4195 26.2042 57.09 26.5621C57.7605 26.9144 58.2803 27.457 58.6497 28.19C59.0247 28.9173 59.2122 29.8434 59.2122 30.9684V39.2866H57.2008V31.1048C57.2008 30.065 56.9309 29.261 56.3911 28.6928C55.857 28.119 55.1156 27.832 54.1667 27.832C53.5076 27.832 52.9167 27.9712 52.394 28.2496C51.8769 28.5281 51.4678 28.9343 51.1667 29.4684C50.8712 30.0025 50.7235 30.6502 50.7235 31.4116Z" fill="#73768D"/>
<path d="M40.8257 26.196C40.7235 25.3324 40.3087 24.6619 39.5814 24.1847C38.8541 23.7074 37.9621 23.4688 36.9053 23.4688C36.1325 23.4688 35.4564 23.5938 34.8769 23.8438C34.303 24.0938 33.8541 24.4375 33.5303 24.875C33.2121 25.3125 33.053 25.8097 33.053 26.3665C33.053 26.8324 33.1638 27.233 33.3854 27.5682C33.6127 27.8977 33.9024 28.1733 34.2547 28.3949C34.607 28.6108 34.9763 28.7898 35.3627 28.9318C35.749 29.0682 36.1041 29.179 36.428 29.2642L38.2007 29.7415C38.6553 29.8608 39.161 30.0256 39.7178 30.2358C40.2803 30.446 40.8172 30.733 41.3286 31.0966C41.8456 31.4545 42.2718 31.9148 42.607 32.4773C42.9422 33.0398 43.1098 33.7301 43.1098 34.5483C43.1098 35.4915 42.8627 36.3438 42.3683 37.1051C41.8797 37.8665 41.1638 38.4716 40.2206 38.9205C39.2831 39.3693 38.1439 39.5938 36.803 39.5938C35.553 39.5938 34.4706 39.392 33.5558 38.9886C32.6468 38.5852 31.9308 38.0227 31.4081 37.3011C30.8911 36.5795 30.5985 35.7415 30.5303 34.7869H32.7121C32.7689 35.446 32.9905 35.9915 33.3769 36.4233C33.7689 36.8494 34.2632 37.1676 34.8598 37.3778C35.4621 37.5824 36.1098 37.6847 36.803 37.6847C37.6098 37.6847 38.3343 37.554 38.9763 37.2926C39.6183 37.0256 40.1269 36.6563 40.5019 36.1847C40.8769 35.7074 41.0644 35.1506 41.0644 34.5142C41.0644 33.9347 40.9024 33.4631 40.5786 33.0994C40.2547 32.7358 39.8286 32.4403 39.3002 32.2131C38.7718 31.9858 38.2007 31.7869 37.5871 31.6165L35.4394 31.0028C34.0757 30.6108 32.9962 30.0511 32.2007 29.3239C31.4053 28.5966 31.0075 27.6449 31.0075 26.4688C31.0075 25.4915 31.2718 24.6392 31.8002 23.9119C32.3343 23.179 33.0502 22.6108 33.9479 22.2074C34.8513 21.7983 35.8598 21.5938 36.9735 21.5938C38.0985 21.5938 39.0985 21.7955 39.9735 22.1989C40.8485 22.5966 41.5416 23.142 42.053 23.8352C42.57 24.5284 42.8428 25.3153 42.8712 26.196H40.8257Z" fill="#73768D"/>
<defs>
<linearGradient id="paint0_linear_2106_1100" x1="12.8265" y1="7.92356" x2="56.7911" y2="103.429" gradientUnits="userSpaceOnUse">
<stop stop-color="#007BFF"/>
<stop offset="1" stop-color="#FFEB3B"/>
</linearGradient>
</defs>
</svg>
