<svg width="205" height="62" viewBox="0 0 205 62" fill="none" xmlns="http://www.w3.org/2000/svg">
<path d="M0 16.2773C0 7.44079 7.16344 0.277344 16 0.277344H188.059C196.895 0.277344 204.059 7.44079 204.059 16.2773V45.2949C204.059 54.1315 196.895 61.2949 188.059 61.2949H16C7.16346 61.2949 0 54.1315 0 45.2949V16.2773Z" fill="url(#paint0_linear_2127_83)"/>
<path d="M168.881 39.5595C167.619 39.5595 166.531 39.2811 165.617 38.7243C164.708 38.1618 164.006 37.3777 163.512 36.372C163.023 35.3606 162.779 34.1845 162.779 32.8436C162.779 31.5027 163.023 30.3208 163.512 29.2981C164.006 28.2697 164.693 27.4686 165.574 26.8947C166.46 26.3152 167.494 26.0254 168.676 26.0254C169.358 26.0254 170.031 26.139 170.696 26.3663C171.361 26.5936 171.966 26.9629 172.512 27.4743C173.057 27.9799 173.492 28.6504 173.815 29.4856C174.139 30.3208 174.301 31.3493 174.301 32.5708V33.4231H164.21V31.6845H172.256C172.256 30.9458 172.108 30.2868 171.813 29.7072C171.523 29.1277 171.108 28.6703 170.568 28.335C170.034 27.9998 169.404 27.8322 168.676 27.8322C167.875 27.8322 167.182 28.0311 166.597 28.4288C166.017 28.8208 165.571 29.3322 165.259 29.9629C164.946 30.5936 164.79 31.2697 164.79 31.9913V33.1504C164.79 34.139 164.96 34.9771 165.301 35.6646C165.648 36.3464 166.128 36.8663 166.742 37.2243C167.355 37.5765 168.068 37.7527 168.881 37.7527C169.409 37.7527 169.887 37.6788 170.313 37.5311C170.744 37.3777 171.117 37.1504 171.429 36.8493C171.742 36.5424 171.983 36.1618 172.154 35.7072L174.097 36.2527C173.892 36.9118 173.548 37.4913 173.065 37.9913C172.583 38.4856 171.986 38.872 171.276 39.1504C170.565 39.4231 169.767 39.5595 168.881 39.5595Z" fill="white"/>
<path d="M152.461 39.2876V26.1967H154.404V28.174H154.54C154.779 27.5263 155.211 27.0007 155.836 26.5973C156.461 26.1939 157.165 25.9922 157.95 25.9922C158.097 25.9922 158.282 25.995 158.504 26.0007C158.725 26.0064 158.893 26.0149 159.006 26.0263V28.0717C158.938 28.0547 158.782 28.0291 158.538 27.995C158.299 27.9553 158.046 27.9354 157.779 27.9354C157.143 27.9354 156.575 28.0689 156.075 28.3359C155.58 28.5973 155.188 28.9609 154.898 29.4268C154.614 29.8871 154.472 30.4126 154.472 31.0036V39.2876H152.461Z" fill="white"/>
<path d="M141.059 39.5595C139.877 39.5595 138.84 39.2782 137.948 38.7157C137.062 38.1532 136.368 37.3663 135.868 36.3549C135.374 35.3436 135.127 34.1618 135.127 32.8095C135.127 31.4458 135.374 30.2555 135.868 29.2385C136.368 28.2214 137.062 27.4316 137.948 26.8691C138.84 26.3066 139.877 26.0254 141.059 26.0254C142.241 26.0254 143.275 26.3066 144.161 26.8691C145.053 27.4316 145.746 28.2214 146.241 29.2385C146.741 30.2555 146.991 31.4458 146.991 32.8095C146.991 34.1618 146.741 35.3436 146.241 36.3549C145.746 37.3663 145.053 38.1532 144.161 38.7157C143.275 39.2782 142.241 39.5595 141.059 39.5595ZM141.059 37.7527C141.956 37.7527 142.695 37.5225 143.275 37.0623C143.854 36.6021 144.283 35.997 144.562 35.247C144.84 34.497 144.979 33.6845 144.979 32.8095C144.979 31.9345 144.84 31.1191 144.562 30.3635C144.283 29.6078 143.854 28.997 143.275 28.5311C142.695 28.0652 141.956 27.8322 141.059 27.8322C140.161 27.8322 139.422 28.0652 138.843 28.5311C138.263 28.997 137.834 29.6078 137.556 30.3635C137.278 31.1191 137.138 31.9345 137.138 32.8095C137.138 33.6845 137.278 34.497 137.556 35.247C137.834 35.997 138.263 36.6021 138.843 37.0623C139.422 37.5225 140.161 37.7527 141.059 37.7527Z" fill="white"/>
<path d="M112.262 21.832H114.784L120.716 36.3207H120.921L126.853 21.832H129.375V39.2866H127.398V26.0252H127.228L121.773 39.2866H119.864L114.409 26.0252H114.239V39.2866H112.262V21.832Z" fill="white"/>
<path d="M83.9049 39.2862L79.9163 26.1953H82.0299L84.8594 36.218H84.9958L87.7913 26.1953H89.939L92.7004 36.184H92.8367L95.6663 26.1953H97.7799L93.7913 39.2862H91.814L88.9504 29.2294H88.7458L85.8822 39.2862H83.9049Z" fill="white"/>
<path d="M69.9821 39.5595C68.8003 39.5595 67.7634 39.2782 66.8713 38.7157C65.985 38.1532 65.2918 37.3663 64.7918 36.3549C64.2975 35.3436 64.0503 34.1618 64.0503 32.8095C64.0503 31.4458 64.2975 30.2555 64.7918 29.2385C65.2918 28.2214 65.985 27.4316 66.8713 26.8691C67.7634 26.3066 68.8003 26.0254 69.9821 26.0254C71.1639 26.0254 72.198 26.3066 73.0844 26.8691C73.9764 27.4316 74.6696 28.2214 75.1639 29.2385C75.6639 30.2555 75.9139 31.4458 75.9139 32.8095C75.9139 34.1618 75.6639 35.3436 75.1639 36.3549C74.6696 37.3663 73.9764 38.1532 73.0844 38.7157C72.198 39.2782 71.1639 39.5595 69.9821 39.5595ZM69.9821 37.7527C70.8798 37.7527 71.6185 37.5225 72.198 37.0623C72.7776 36.6021 73.2065 35.997 73.485 35.247C73.7634 34.497 73.9026 33.6845 73.9026 32.8095C73.9026 31.9345 73.7634 31.1191 73.485 30.3635C73.2065 29.6078 72.7776 28.997 72.198 28.5311C71.6185 28.0652 70.8798 27.8322 69.9821 27.8322C69.0844 27.8322 68.3458 28.0652 67.7662 28.5311C67.1867 28.997 66.7577 29.6078 66.4793 30.3635C66.2009 31.1191 66.0617 31.9345 66.0617 32.8095C66.0617 33.6845 66.2009 34.497 66.4793 35.247C66.7577 35.997 67.1867 36.6021 67.7662 37.0623C68.3458 37.5225 69.0844 37.7527 69.9821 37.7527Z" fill="white"/>
<path d="M50.0956 31.4116V39.2866H48.0842V21.832H50.0956V28.2411H50.266C50.5729 27.565 51.0331 27.0281 51.6467 26.6303C52.266 26.2269 53.0899 26.0252 54.1183 26.0252C55.0104 26.0252 55.7916 26.2042 56.4621 26.5621C57.1325 26.9144 57.6524 27.457 58.0217 28.19C58.3967 28.9173 58.5842 29.8434 58.5842 30.9684V39.2866H56.5729V31.1048C56.5729 30.065 56.303 29.261 55.7632 28.6928C55.2291 28.119 54.4876 27.832 53.5388 27.832C52.8797 27.832 52.2888 27.9712 51.766 28.2496C51.249 28.5281 50.8399 28.9343 50.5388 29.4684C50.2433 30.0025 50.0956 30.6502 50.0956 31.4116Z" fill="white"/>
<path d="M40.1978 26.196C40.0955 25.3324 39.6808 24.6619 38.9535 24.1847C38.2262 23.7074 37.3342 23.4688 36.2773 23.4688C35.5046 23.4688 34.8285 23.5938 34.2489 23.8438C33.6751 24.0938 33.2262 24.4375 32.9023 24.875C32.5842 25.3125 32.4251 25.8097 32.4251 26.3665C32.4251 26.8324 32.5359 27.233 32.7575 27.5682C32.9847 27.8977 33.2745 28.1733 33.6268 28.3949C33.979 28.6108 34.3484 28.7898 34.7347 28.9318C35.1211 29.0682 35.4762 29.179 35.8001 29.2642L37.5728 29.7415C38.0273 29.8608 38.533 30.0256 39.0898 30.2358C39.6523 30.446 40.1893 30.733 40.7006 31.0966C41.2177 31.4545 41.6438 31.9148 41.979 32.4773C42.3143 33.0398 42.4819 33.7301 42.4819 34.5483C42.4819 35.4915 42.2347 36.3438 41.7404 37.1051C41.2518 37.8665 40.5359 38.4716 39.5927 38.9205C38.6552 39.3693 37.516 39.5938 36.1751 39.5938C34.9251 39.5938 33.8427 39.392 32.9279 38.9886C32.0188 38.5852 31.3029 38.0227 30.7802 37.3011C30.2631 36.5795 29.9705 35.7415 29.9023 34.7869H32.0842C32.141 35.446 32.3626 35.9915 32.7489 36.4233C33.141 36.8494 33.6353 37.1676 34.2319 37.3778C34.8342 37.5824 35.4819 37.6847 36.1751 37.6847C36.9819 37.6847 37.7063 37.554 38.3484 37.2926C38.9904 37.0256 39.4989 36.6563 39.8739 36.1847C40.2489 35.7074 40.4364 35.1506 40.4364 34.5142C40.4364 33.9347 40.2745 33.4631 39.9506 33.0994C39.6268 32.7358 39.2006 32.4403 38.6722 32.2131C38.1438 31.9858 37.5728 31.7869 36.9592 31.6165L34.8114 31.0028C33.4478 30.6108 32.3683 30.0511 31.5728 29.3239C30.7773 28.5966 30.3796 27.6449 30.3796 26.4688C30.3796 25.4915 30.6438 24.6392 31.1722 23.9119C31.7063 23.179 32.4222 22.6108 33.32 22.2074C34.2234 21.7983 35.2319 21.5938 36.3455 21.5938C37.4705 21.5938 38.4705 21.7955 39.3455 22.1989C40.2205 22.5966 40.9137 23.142 41.4251 23.8352C41.9421 24.5284 42.2148 25.3153 42.2433 26.196H40.1978Z" fill="white"/>
<defs>
<linearGradient id="paint0_linear_2127_83" x1="12.1986" y1="7.92356" x2="56.1631" y2="103.429" gradientUnits="userSpaceOnUse">
<stop stop-color="#007BFF"/>
<stop offset="1" stop-color="#FFEB3B"/>
</linearGradient>
</defs>
</svg>
