<svg width="206" height="62" viewBox="0 0 206 62" fill="none" xmlns="http://www.w3.org/2000/svg">
<path fill-rule="evenodd" clip-rule="evenodd" d="M189.03 2.96289H16.9707C9.23872 2.96289 2.9707 9.23091 2.9707 16.9629V45.9805C2.9707 53.7125 9.23873 59.9805 16.9707 59.9805H189.03C196.762 59.9805 203.03 53.7125 203.03 45.9805V16.9629C203.03 9.23091 196.762 2.96289 189.03 2.96289ZM16.9707 0.962891C8.13415 0.962891 0.970703 8.12634 0.970703 16.9629V45.9805C0.970703 54.817 8.13416 61.9805 16.9707 61.9805H189.03C197.866 61.9805 205.03 54.817 205.03 45.9805V16.9629C205.03 8.12634 197.866 0.962891 189.03 0.962891H16.9707Z" fill="url(#paint0_linear_2106_1101)"/>
<path d="M171.753 29.8132L169.946 30.3246C169.832 30.0234 169.665 29.7308 169.443 29.4467C169.227 29.157 168.932 28.9183 168.557 28.7308C168.182 28.5433 167.702 28.4496 167.116 28.4496C166.315 28.4496 165.648 28.6342 165.113 29.0036C164.585 29.3672 164.321 29.8303 164.321 30.3928C164.321 30.8928 164.503 31.2876 164.866 31.5774C165.23 31.8672 165.798 32.1087 166.571 32.3018L168.514 32.7791C169.684 33.0632 170.557 33.4979 171.13 34.0831C171.704 34.6626 171.991 35.4098 171.991 36.3246C171.991 37.0746 171.775 37.745 171.344 38.3359C170.917 38.9268 170.321 39.3928 169.554 39.7337C168.787 40.0746 167.895 40.245 166.878 40.245C165.542 40.245 164.437 39.9553 163.562 39.3757C162.687 38.7962 162.133 37.9496 161.9 36.8359L163.809 36.3587C163.991 37.0632 164.335 37.5916 164.841 37.9439C165.352 38.2962 166.02 38.4723 166.844 38.4723C167.781 38.4723 168.525 38.2734 169.077 37.8757C169.633 37.4723 169.912 36.9893 169.912 36.4268C169.912 35.9723 169.753 35.5916 169.434 35.2848C169.116 34.9723 168.628 34.7393 167.969 34.5859L165.787 34.0746C164.588 33.7905 163.707 33.3501 163.145 32.7536C162.588 32.1513 162.309 31.3984 162.309 30.495C162.309 29.7564 162.517 29.103 162.932 28.5348C163.352 27.9666 163.923 27.5206 164.645 27.1967C165.372 26.8729 166.196 26.7109 167.116 26.7109C168.412 26.7109 169.429 26.995 170.167 27.5632C170.912 28.1314 171.44 28.8814 171.753 29.8132Z" fill="#73768D"/>
<path d="M156.814 29.8132L155.007 30.3246C154.893 30.0234 154.726 29.7308 154.504 29.4467C154.288 29.157 153.993 28.9183 153.618 28.7308C153.243 28.5433 152.763 28.4496 152.177 28.4496C151.376 28.4496 150.709 28.6342 150.174 29.0036C149.646 29.3672 149.382 29.8303 149.382 30.3928C149.382 30.8928 149.564 31.2876 149.927 31.5774C150.291 31.8672 150.859 32.1087 151.632 32.3018L153.575 32.7791C154.746 33.0632 155.618 33.4979 156.192 34.0831C156.765 34.6626 157.052 35.4098 157.052 36.3246C157.052 37.0746 156.836 37.745 156.405 38.3359C155.978 38.9268 155.382 39.3928 154.615 39.7337C153.848 40.0746 152.956 40.245 151.939 40.245C150.603 40.245 149.498 39.9553 148.623 39.3757C147.748 38.7962 147.194 37.9496 146.961 36.8359L148.871 36.3587C149.052 37.0632 149.396 37.5916 149.902 37.9439C150.413 38.2962 151.081 38.4723 151.905 38.4723C152.842 38.4723 153.586 38.2734 154.138 37.8757C154.694 37.4723 154.973 36.9893 154.973 36.4268C154.973 35.9723 154.814 35.5916 154.496 35.2848C154.177 34.9723 153.689 34.7393 153.03 34.5859L150.848 34.0746C149.649 33.7905 148.768 33.3501 148.206 32.7536C147.649 32.1513 147.371 31.3984 147.371 30.495C147.371 29.7564 147.578 29.103 147.993 28.5348C148.413 27.9666 148.984 27.5206 149.706 27.1967C150.433 26.8729 151.257 26.7109 152.177 26.7109C153.473 26.7109 154.49 26.995 155.228 27.5632C155.973 28.1314 156.501 28.8814 156.814 29.8132Z" fill="#73768D"/>
<path d="M136.661 40.245C135.4 40.245 134.311 39.9666 133.397 39.4098C132.488 38.8473 131.786 38.0632 131.292 37.0575C130.803 36.0462 130.559 34.87 130.559 33.5291C130.559 32.1882 130.803 31.0064 131.292 29.9837C131.786 28.9553 132.473 28.1541 133.354 27.5803C134.24 27.0007 135.275 26.7109 136.456 26.7109C137.138 26.7109 137.811 26.8246 138.476 27.0518C139.141 27.2791 139.746 27.6484 140.292 28.1598C140.837 28.6655 141.272 29.3359 141.596 30.1712C141.919 31.0064 142.081 32.0348 142.081 33.2564V34.1087H131.99V32.37H140.036C140.036 31.6314 139.888 30.9723 139.593 30.3928C139.303 29.8132 138.888 29.3558 138.348 29.0206C137.814 28.6854 137.184 28.5178 136.456 28.5178C135.655 28.5178 134.962 28.7166 134.377 29.1143C133.797 29.5064 133.351 30.0178 133.039 30.6484C132.726 31.2791 132.57 31.9553 132.57 32.6768V33.8359C132.57 34.8246 132.74 35.6626 133.081 36.3501C133.428 37.032 133.908 37.5518 134.522 37.9098C135.135 38.2621 135.848 38.4382 136.661 38.4382C137.189 38.4382 137.667 38.3643 138.093 38.2166C138.525 38.0632 138.897 37.8359 139.209 37.5348C139.522 37.228 139.763 36.8473 139.934 36.3928L141.877 36.9382C141.672 37.5973 141.328 38.1768 140.846 38.6768C140.363 39.1712 139.766 39.5575 139.056 39.8359C138.346 40.1087 137.547 40.245 136.661 40.245Z" fill="#73768D"/>
<path d="M115.545 39.9721V22.5176H117.659V38.0971H125.772V39.9721H115.545Z" fill="#73768D"/>
<path d="M87.1881 39.9718L83.1995 26.8809H85.3131L88.1426 36.9036H88.279L91.0745 26.8809H93.2222L95.9836 36.8695H96.1199L98.9495 26.8809H101.063L97.0745 39.9718H95.0972L92.2336 29.915H92.029L89.1654 39.9718H87.1881Z" fill="#73768D"/>
<path d="M73.2653 40.245C72.0835 40.245 71.0466 39.9638 70.1545 39.4013C69.2682 38.8388 68.575 38.0518 68.075 37.0405C67.5807 36.0291 67.3335 34.8473 67.3335 33.495C67.3335 32.1314 67.5807 30.9411 68.075 29.924C68.575 28.907 69.2682 28.1172 70.1545 27.5547C71.0466 26.9922 72.0835 26.7109 73.2653 26.7109C74.4471 26.7109 75.4812 26.9922 76.3676 27.5547C77.2596 28.1172 77.9528 28.907 78.4471 29.924C78.9471 30.9411 79.1971 32.1314 79.1971 33.495C79.1971 34.8473 78.9471 36.0291 78.4471 37.0405C77.9528 38.0518 77.2596 38.8388 76.3676 39.4013C75.4812 39.9638 74.4471 40.245 73.2653 40.245ZM73.2653 38.4382C74.163 38.4382 74.9017 38.2081 75.4812 37.7479C76.0608 37.2876 76.4897 36.6825 76.7682 35.9325C77.0466 35.1825 77.1858 34.37 77.1858 33.495C77.1858 32.62 77.0466 31.8047 76.7682 31.049C76.4897 30.2933 76.0608 29.6825 75.4812 29.2166C74.9017 28.7507 74.163 28.5178 73.2653 28.5178C72.3676 28.5178 71.629 28.7507 71.0494 29.2166C70.4699 29.6825 70.0409 30.2933 69.7625 31.049C69.4841 31.8047 69.3449 32.62 69.3449 33.495C69.3449 34.37 69.4841 35.1825 69.7625 35.9325C70.0409 36.6825 70.4699 37.2876 71.0494 37.7479C71.629 38.2081 72.3676 38.4382 73.2653 38.4382Z" fill="#73768D"/>
<path d="M53.3788 32.0971V39.9721H51.3674V22.5176H53.3788V28.9267H53.5492C53.8561 28.2505 54.3163 27.7136 54.9299 27.3159C55.5492 26.9125 56.3731 26.7108 57.4015 26.7108C58.2936 26.7108 59.0748 26.8897 59.7453 27.2477C60.4157 27.6 60.9356 28.1426 61.3049 28.8755C61.6799 29.6028 61.8674 30.5289 61.8674 31.6539V39.9721H59.8561V31.7903C59.8561 30.7505 59.5862 29.9466 59.0464 29.3784C58.5123 28.8045 57.7708 28.5176 56.822 28.5176C56.1629 28.5176 55.572 28.6568 55.0492 28.9352C54.5322 29.2136 54.1231 29.6199 53.822 30.1539C53.5265 30.688 53.3788 31.3358 53.3788 32.0971Z" fill="#73768D"/>
<path d="M43.481 26.8816C43.3787 26.0179 42.964 25.3475 42.2367 24.8702C41.5094 24.3929 40.6174 24.1543 39.5605 24.1543C38.7878 24.1543 38.1117 24.2793 37.5321 24.5293C36.9583 24.7793 36.5094 25.123 36.1855 25.5605C35.8674 25.998 35.7083 26.4952 35.7083 27.052C35.7083 27.5179 35.8191 27.9185 36.0407 28.2537C36.2679 28.5833 36.5577 28.8588 36.91 29.0804C37.2623 29.2963 37.6316 29.4753 38.0179 29.6174C38.4043 29.7537 38.7594 29.8645 39.0833 29.9498L40.856 30.427C41.3105 30.5463 41.8162 30.7111 42.373 30.9213C42.9355 31.1316 43.4725 31.4185 43.9838 31.7821C44.5009 32.1401 44.927 32.6003 45.2623 33.1628C45.5975 33.7253 45.7651 34.4157 45.7651 35.2338C45.7651 36.177 45.5179 37.0293 45.0236 37.7907C44.535 38.552 43.8191 39.1571 42.8759 39.606C41.9384 40.0549 40.7992 40.2793 39.4583 40.2793C38.2083 40.2793 37.1259 40.0776 36.2111 39.6742C35.302 39.2708 34.5861 38.7083 34.0634 37.9867C33.5463 37.2651 33.2537 36.427 33.1855 35.4725H35.3674C35.4242 36.1316 35.6458 36.677 36.0321 37.1088C36.4242 37.535 36.9185 37.8532 37.5151 38.0634C38.1174 38.2679 38.7651 38.3702 39.4583 38.3702C40.2651 38.3702 40.9895 38.2395 41.6316 37.9782C42.2736 37.7111 42.7821 37.3418 43.1571 36.8702C43.5321 36.3929 43.7196 35.8361 43.7196 35.1998C43.7196 34.6202 43.5577 34.1486 43.2338 33.785C42.91 33.4213 42.4838 33.1259 41.9554 32.8986C41.427 32.6713 40.856 32.4725 40.2424 32.302L38.0946 31.6884C36.731 31.2963 35.6515 30.7367 34.856 30.0094C34.0605 29.2821 33.6628 28.3304 33.6628 27.1543C33.6628 26.177 33.927 25.3248 34.4554 24.5975C34.9895 23.8645 35.7054 23.2963 36.6032 22.8929C37.5066 22.4838 38.5151 22.2793 39.6287 22.2793C40.7537 22.2793 41.7537 22.481 42.6287 22.8844C43.5037 23.2821 44.1969 23.8276 44.7083 24.5208C45.2253 25.214 45.498 26.0009 45.5265 26.8816H43.481Z" fill="#73768D"/>
<defs>
<linearGradient id="paint0_linear_2106_1101" x1="13.1693" y1="8.60911" x2="57.1338" y2="104.115" gradientUnits="userSpaceOnUse">
<stop stop-color="#007BFF"/>
<stop offset="1" stop-color="#FFEB3B"/>
</linearGradient>
</defs>
</svg>
