<svg width="137" height="66" viewBox="0 0 137 66" fill="none" xmlns="http://www.w3.org/2000/svg">
<path fill-rule="evenodd" clip-rule="evenodd" d="M120.699 2H16.5535C8.82148 2 2.55347 8.26801 2.55347 16V49.7305C2.55347 57.4625 8.82148 63.7305 16.5535 63.7305H120.699C128.431 63.7305 134.699 57.4625 134.699 49.7305V16C134.699 8.26801 128.431 2 120.699 2ZM16.5535 0C7.71691 0 0.553467 7.16345 0.553467 16V49.7305C0.553467 58.567 7.71691 65.7305 16.5535 65.7305H120.699C129.536 65.7305 136.699 58.567 136.699 49.7305V16C136.699 7.16344 129.536 0 120.699 0H16.5535Z" fill="url(#paint0_linear_2242_783)"/>
<path d="M97.0688 25.7561C98.4948 25.7561 99.6525 26.0627 100.542 26.6761C101.431 27.2741 102.083 28.1021 102.497 29.1601C102.926 30.2181 103.141 31.4141 103.141 32.7481C103.141 33.9134 103.003 34.8871 102.727 35.6691C102.466 36.4511 102.044 37.0874 101.462 37.5781C101.048 37.9307 100.58 38.2067 100.059 38.4061C99.5375 38.6054 98.9088 38.7511 98.1728 38.8431C97.4521 38.9197 96.5551 38.9581 95.4818 38.9581H84.5568V26.0321H87.9838V36.4971H92.2158V30.7931C92.2158 29.8424 92.3155 29.0681 92.5148 28.4701C92.7295 27.8721 93.0361 27.3737 93.4348 26.9751C93.8488 26.5764 94.3548 26.2774 94.9528 26.0781C95.5661 25.8634 96.2715 25.7561 97.0688 25.7561ZM97.2988 28.2171C97.0995 28.2171 96.9001 28.2477 96.7008 28.3091C96.5168 28.3704 96.3481 28.4777 96.1948 28.6311C95.9955 28.8304 95.8498 29.1064 95.7578 29.4591C95.6811 29.7964 95.6428 30.3561 95.6428 31.1381V36.4971H96.5168C97.3295 36.4971 97.9658 36.3821 98.4258 36.1521C98.9011 35.9067 99.2308 35.5081 99.4148 34.9561C99.6141 34.4041 99.7138 33.6681 99.7138 32.7481C99.7138 31.9047 99.6371 31.1457 99.4838 30.4711C99.3305 29.7811 99.0775 29.2367 98.7248 28.8381C98.3721 28.4241 97.8968 28.2171 97.2988 28.2171ZM87.9838 39.9471C88.2905 39.9471 88.6048 39.9547 88.9268 39.9701C89.2641 40.0007 89.5708 40.0467 89.8468 40.1081L89.6858 42.3851C89.5325 42.3544 89.3485 42.3314 89.1338 42.3161C88.9191 42.3161 88.6891 42.3161 88.4438 42.3161C88.0605 42.3161 87.7308 42.3697 87.4548 42.4771C87.1941 42.5997 87.0638 42.7991 87.0638 43.0751C87.0638 43.3204 87.1558 43.5044 87.3398 43.6271C87.5391 43.7497 87.7845 43.8341 88.0758 43.8801C88.3825 43.9261 88.6968 43.9491 89.0188 43.9491H89.6398C90.3145 43.9491 90.8971 43.8724 91.3878 43.7191C91.8938 43.5657 92.3231 43.3281 92.6758 43.0061C93.0438 42.6994 93.3505 42.3084 93.5958 41.8331C93.6878 41.6644 93.8488 41.5034 94.0788 41.3501C94.3088 41.2121 94.6308 41.0971 95.0448 41.0051C95.4588 40.9284 95.9725 40.8901 96.5858 40.8901L98.6788 41.5571C98.0195 41.6951 97.5365 41.8561 97.2298 42.0401C96.9385 42.2394 96.7238 42.4924 96.5858 42.7991C96.2331 43.6117 95.7501 44.2787 95.1368 44.8001C94.5388 45.3367 93.8105 45.7277 92.9518 45.9731C92.0931 46.2184 91.0811 46.3411 89.9158 46.3411H89.0648C88.2368 46.3411 87.4625 46.2491 86.7418 46.0651C86.0365 45.8811 85.4768 45.6434 85.0628 45.3521C84.7408 45.1374 84.4495 44.8384 84.1888 44.4551C83.9435 44.0717 83.8208 43.5964 83.8208 43.0291C83.8208 42.0784 84.1811 41.3271 84.9018 40.7751C85.6225 40.2231 86.6498 39.9471 87.9838 39.9471ZM95.7118 43.1901L95.5048 42.9141C94.8915 42.7761 94.3395 42.5537 93.8488 42.2471C93.3735 41.9557 92.9901 41.5341 92.6988 40.9821C92.4228 40.4454 92.2695 39.7631 92.2388 38.9351L95.5508 38.9121C95.5508 39.2801 95.6121 39.5944 95.7348 39.8551C95.8728 40.1311 96.0875 40.3381 96.3788 40.4761C96.5935 40.5834 96.8388 40.6524 97.1148 40.6831C97.3908 40.7291 97.7665 40.7521 98.2418 40.7521H100.68V43.1901H95.7118ZM93.5038 23.7321C92.9518 23.7321 92.4995 23.5557 92.1468 23.2031C91.7941 22.8351 91.6178 22.3751 91.6178 21.8231C91.6178 21.2711 91.7941 20.8187 92.1468 20.4661C92.4995 20.0981 92.9518 19.9141 93.5038 19.9141C94.0405 19.9141 94.4851 20.0981 94.8378 20.4661C95.1905 20.8187 95.3668 21.2711 95.3668 21.8231C95.3668 22.3751 95.1905 22.8351 94.8378 23.2031C94.4851 23.5557 94.0405 23.7321 93.5038 23.7321Z" fill="white"/>
<path d="M97.0688 25.7561C98.4948 25.7561 99.6525 26.0627 100.542 26.6761C101.431 27.2741 102.083 28.1021 102.497 29.1601C102.926 30.2181 103.141 31.4141 103.141 32.7481C103.141 33.9134 103.003 34.8871 102.727 35.6691C102.466 36.4511 102.044 37.0874 101.462 37.5781C101.048 37.9307 100.58 38.2067 100.059 38.4061C99.5375 38.6054 98.9088 38.7511 98.1728 38.8431C97.4521 38.9197 96.5551 38.9581 95.4818 38.9581H84.5568V26.0321H87.9838V36.4971H92.2158V30.7931C92.2158 29.8424 92.3155 29.0681 92.5148 28.4701C92.7295 27.8721 93.0361 27.3737 93.4348 26.9751C93.8488 26.5764 94.3548 26.2774 94.9528 26.0781C95.5661 25.8634 96.2715 25.7561 97.0688 25.7561ZM97.2988 28.2171C97.0995 28.2171 96.9001 28.2477 96.7008 28.3091C96.5168 28.3704 96.3481 28.4777 96.1948 28.6311C95.9955 28.8304 95.8498 29.1064 95.7578 29.4591C95.6811 29.7964 95.6428 30.3561 95.6428 31.1381V36.4971H96.5168C97.3295 36.4971 97.9658 36.3821 98.4258 36.1521C98.9011 35.9067 99.2308 35.5081 99.4148 34.9561C99.6141 34.4041 99.7138 33.6681 99.7138 32.7481C99.7138 31.9047 99.6371 31.1457 99.4838 30.4711C99.3305 29.7811 99.0775 29.2367 98.7248 28.8381C98.3721 28.4241 97.8968 28.2171 97.2988 28.2171ZM87.9838 39.9471C88.2905 39.9471 88.6048 39.9547 88.9268 39.9701C89.2641 40.0007 89.5708 40.0467 89.8468 40.1081L89.6858 42.3851C89.5325 42.3544 89.3485 42.3314 89.1338 42.3161C88.9191 42.3161 88.6891 42.3161 88.4438 42.3161C88.0605 42.3161 87.7308 42.3697 87.4548 42.4771C87.1941 42.5997 87.0638 42.7991 87.0638 43.0751C87.0638 43.3204 87.1558 43.5044 87.3398 43.6271C87.5391 43.7497 87.7845 43.8341 88.0758 43.8801C88.3825 43.9261 88.6968 43.9491 89.0188 43.9491H89.6398C90.3145 43.9491 90.8971 43.8724 91.3878 43.7191C91.8938 43.5657 92.3231 43.3281 92.6758 43.0061C93.0438 42.6994 93.3505 42.3084 93.5958 41.8331C93.6878 41.6644 93.8488 41.5034 94.0788 41.3501C94.3088 41.2121 94.6308 41.0971 95.0448 41.0051C95.4588 40.9284 95.9725 40.8901 96.5858 40.8901L98.6788 41.5571C98.0195 41.6951 97.5365 41.8561 97.2298 42.0401C96.9385 42.2394 96.7238 42.4924 96.5858 42.7991C96.2331 43.6117 95.7501 44.2787 95.1368 44.8001C94.5388 45.3367 93.8105 45.7277 92.9518 45.9731C92.0931 46.2184 91.0811 46.3411 89.9158 46.3411H89.0648C88.2368 46.3411 87.4625 46.2491 86.7418 46.0651C86.0365 45.8811 85.4768 45.6434 85.0628 45.3521C84.7408 45.1374 84.4495 44.8384 84.1888 44.4551C83.9435 44.0717 83.8208 43.5964 83.8208 43.0291C83.8208 42.0784 84.1811 41.3271 84.9018 40.7751C85.6225 40.2231 86.6498 39.9471 87.9838 39.9471ZM95.7118 43.1901L95.5048 42.9141C94.8915 42.7761 94.3395 42.5537 93.8488 42.2471C93.3735 41.9557 92.9901 41.5341 92.6988 40.9821C92.4228 40.4454 92.2695 39.7631 92.2388 38.9351L95.5508 38.9121C95.5508 39.2801 95.6121 39.5944 95.7348 39.8551C95.8728 40.1311 96.0875 40.3381 96.3788 40.4761C96.5935 40.5834 96.8388 40.6524 97.1148 40.6831C97.3908 40.7291 97.7665 40.7521 98.2418 40.7521H100.68V43.1901H95.7118ZM93.5038 23.7321C92.9518 23.7321 92.4995 23.5557 92.1468 23.2031C91.7941 22.8351 91.6178 22.3751 91.6178 21.8231C91.6178 21.2711 91.7941 20.8187 92.1468 20.4661C92.4995 20.0981 92.9518 19.9141 93.5038 19.9141C94.0405 19.9141 94.4851 20.0981 94.8378 20.4661C95.1905 20.8187 95.3668 21.2711 95.3668 21.8231C95.3668 22.3751 95.1905 22.8351 94.8378 23.2031C94.4851 23.5557 94.0405 23.7321 93.5038 23.7321Z" fill="url(#paint1_linear_2242_783)"/>
<path d="M73.7786 19.3867C74.9899 19.3867 76.0249 19.5631 76.8836 19.9157C77.7576 20.2531 78.4552 20.6901 78.9766 21.2267C79.3292 21.5947 79.6512 22.0547 79.9426 22.6067C80.2339 23.1434 80.4639 23.8564 80.6326 24.7457C80.8166 25.6197 80.9086 26.7621 80.9086 28.1727V38.9597H77.4816V29.0697C77.4816 27.8891 77.4432 26.9001 77.3666 26.1027C77.2899 25.2901 77.1519 24.6154 76.9526 24.0787C76.7532 23.5267 76.4696 23.0667 76.1016 22.6987C75.8102 22.4074 75.4806 22.1851 75.1126 22.0317C74.7446 21.8784 74.3229 21.8017 73.8476 21.8017C73.1882 21.8017 72.6669 21.9244 72.2836 22.1697C71.8849 22.4151 71.6012 22.7294 71.4326 23.1127C71.2639 23.4807 71.1796 23.8717 71.1796 24.2857C71.1796 24.7151 71.2486 25.1751 71.3866 25.6657C71.5092 26.1411 71.7009 26.6241 71.9616 27.1147H68.5576C68.3582 26.7467 68.2049 26.3097 68.0976 25.8037C67.9749 25.2977 67.9136 24.8071 67.9136 24.3317C67.9136 23.4577 68.0822 22.7141 68.4196 22.1007C68.7569 21.4721 69.2092 20.9584 69.7766 20.5597C70.3439 20.1611 70.9802 19.8697 71.6856 19.6857C72.3756 19.4864 73.0732 19.3867 73.7786 19.3867Z" fill="white"/>
<path d="M73.7786 19.3867C74.9899 19.3867 76.0249 19.5631 76.8836 19.9157C77.7576 20.2531 78.4552 20.6901 78.9766 21.2267C79.3292 21.5947 79.6512 22.0547 79.9426 22.6067C80.2339 23.1434 80.4639 23.8564 80.6326 24.7457C80.8166 25.6197 80.9086 26.7621 80.9086 28.1727V38.9597H77.4816V29.0697C77.4816 27.8891 77.4432 26.9001 77.3666 26.1027C77.2899 25.2901 77.1519 24.6154 76.9526 24.0787C76.7532 23.5267 76.4696 23.0667 76.1016 22.6987C75.8102 22.4074 75.4806 22.1851 75.1126 22.0317C74.7446 21.8784 74.3229 21.8017 73.8476 21.8017C73.1882 21.8017 72.6669 21.9244 72.2836 22.1697C71.8849 22.4151 71.6012 22.7294 71.4326 23.1127C71.2639 23.4807 71.1796 23.8717 71.1796 24.2857C71.1796 24.7151 71.2486 25.1751 71.3866 25.6657C71.5092 26.1411 71.7009 26.6241 71.9616 27.1147H68.5576C68.3582 26.7467 68.2049 26.3097 68.0976 25.8037C67.9749 25.2977 67.9136 24.8071 67.9136 24.3317C67.9136 23.4577 68.0822 22.7141 68.4196 22.1007C68.7569 21.4721 69.2092 20.9584 69.7766 20.5597C70.3439 20.1611 70.9802 19.8697 71.6856 19.6857C72.3756 19.4864 73.0732 19.3867 73.7786 19.3867Z" fill="url(#paint2_linear_2242_783)"/>
<path d="M68.4761 25.7578C69.9021 25.7578 71.0598 26.0645 71.9491 26.6778C72.8384 27.2758 73.4901 28.1038 73.9041 29.1618C74.3334 30.2198 74.5481 31.4158 74.5481 32.7498C74.5481 33.9151 74.4101 34.8888 74.1341 35.6708C73.8734 36.4528 73.4518 37.0891 72.8691 37.5798C72.4551 37.9325 71.9874 38.2085 71.4661 38.4078C70.9448 38.6071 70.3161 38.7528 69.5801 38.8448C68.8594 38.9215 67.9624 38.9598 66.8891 38.9598H55.9641V26.0338H59.3911V36.4988H63.6231V30.7948C63.6231 29.8441 63.7228 29.0698 63.9221 28.4718C64.1368 27.8738 64.4434 27.3755 64.8421 26.9768C65.2561 26.5781 65.7621 26.2791 66.3601 26.0798C66.9734 25.8651 67.6788 25.7578 68.4761 25.7578ZM68.7061 28.2188C68.5068 28.2188 68.3074 28.2495 68.1081 28.3108C67.9241 28.3721 67.7554 28.4795 67.6021 28.6328C67.4028 28.8321 67.2571 29.1081 67.1651 29.4608C67.0884 29.7981 67.0501 30.3578 67.0501 31.1398V36.4988H67.9241C68.7368 36.4988 69.3731 36.3838 69.8331 36.1538C70.3084 35.9085 70.6381 35.5098 70.8221 34.9578C71.0214 34.4058 71.1211 33.6698 71.1211 32.7498C71.1211 31.9065 71.0444 31.1475 70.8911 30.4728C70.7378 29.7828 70.4848 29.2385 70.1321 28.8398C69.7794 28.4258 69.3041 28.2188 68.7061 28.2188Z" fill="white"/>
<path d="M68.4761 25.7578C69.9021 25.7578 71.0598 26.0645 71.9491 26.6778C72.8384 27.2758 73.4901 28.1038 73.9041 29.1618C74.3334 30.2198 74.5481 31.4158 74.5481 32.7498C74.5481 33.9151 74.4101 34.8888 74.1341 35.6708C73.8734 36.4528 73.4518 37.0891 72.8691 37.5798C72.4551 37.9325 71.9874 38.2085 71.4661 38.4078C70.9448 38.6071 70.3161 38.7528 69.5801 38.8448C68.8594 38.9215 67.9624 38.9598 66.8891 38.9598H55.9641V26.0338H59.3911V36.4988H63.6231V30.7948C63.6231 29.8441 63.7228 29.0698 63.9221 28.4718C64.1368 27.8738 64.4434 27.3755 64.8421 26.9768C65.2561 26.5781 65.7621 26.2791 66.3601 26.0798C66.9734 25.8651 67.6788 25.7578 68.4761 25.7578ZM68.7061 28.2188C68.5068 28.2188 68.3074 28.2495 68.1081 28.3108C67.9241 28.3721 67.7554 28.4795 67.6021 28.6328C67.4028 28.8321 67.2571 29.1081 67.1651 29.4608C67.0884 29.7981 67.0501 30.3578 67.0501 31.1398V36.4988H67.9241C68.7368 36.4988 69.3731 36.3838 69.8331 36.1538C70.3084 35.9085 70.6381 35.5098 70.8221 34.9578C71.0214 34.4058 71.1211 33.6698 71.1211 32.7498C71.1211 31.9065 71.0444 31.1475 70.8911 30.4728C70.7378 29.7828 70.4848 29.2385 70.1321 28.8398C69.7794 28.4258 69.3041 28.2188 68.7061 28.2188Z" fill="url(#paint3_linear_2242_783)"/>
<path d="M39.9306 39.2352C38.7806 39.2352 37.7686 39.0819 36.8946 38.7752C36.0206 38.4532 35.3382 37.9932 34.8476 37.3952C34.3569 36.7819 34.1116 36.0382 34.1116 35.1642C34.1116 34.3209 34.3569 33.5925 34.8476 32.9792C35.3536 32.3505 36.1509 31.8599 37.2396 31.5072C38.3436 31.1545 39.7772 30.9782 41.5406 30.9782H45.3816C46.9149 30.9782 48.2719 31.1622 49.4526 31.5302C50.6332 31.8982 51.5609 32.5039 52.2356 33.3472C52.9256 34.1752 53.2706 35.3022 53.2706 36.7282C53.2706 37.7709 53.0482 38.6525 52.6036 39.3732C52.1742 40.1092 51.5532 40.7455 50.7406 41.2822C50.2346 41.6195 49.6212 41.9032 48.9006 42.1332C48.1952 42.3785 47.3596 42.5549 46.3936 42.6622C45.4429 42.7849 44.3389 42.8462 43.0816 42.8462H41.2876C40.3522 42.8462 39.6852 42.8845 39.2866 42.9612C38.9032 43.0532 38.5889 43.1835 38.3436 43.3522C38.0982 43.5362 37.9066 43.7662 37.7686 44.0422C37.6306 44.3335 37.5616 44.7245 37.5616 45.2152C37.5616 45.3839 37.5692 45.5449 37.5846 45.6982C37.5999 45.8515 37.6152 46.0125 37.6306 46.1812L34.2726 46.3422C34.2266 46.0202 34.1882 45.6982 34.1576 45.3762C34.1422 45.0695 34.1346 44.7322 34.1346 44.3642C34.1346 43.6742 34.2726 43.0685 34.5486 42.5472C34.8246 42.0412 35.1926 41.6272 35.6526 41.3052C35.9592 41.0905 36.3042 40.9142 36.6876 40.7762C37.0709 40.6382 37.5462 40.5385 38.1136 40.4772C38.6809 40.4159 39.3862 40.3852 40.2296 40.3852H42.2996C43.6336 40.3852 44.7299 40.3315 45.5886 40.2242C46.4472 40.1322 47.1372 39.9789 47.6586 39.7642C48.1952 39.5495 48.6322 39.2659 48.9696 38.9132C49.2762 38.6065 49.5062 38.2539 49.6596 37.8552C49.8129 37.4412 49.8896 36.9735 49.8896 36.4522C49.8896 35.7775 49.7439 35.2332 49.4526 34.8192C49.1766 34.4052 48.8009 34.0909 48.3256 33.8762C47.8656 33.6462 47.3519 33.4929 46.7846 33.4162C46.2326 33.3395 45.6806 33.3012 45.1286 33.3012H41.1036C40.5669 33.3012 40.0532 33.3319 39.5626 33.3932C39.0872 33.4392 38.6809 33.5465 38.3436 33.7152C38.0522 33.8685 37.8376 34.0602 37.6996 34.2902C37.5616 34.5202 37.4926 34.7885 37.4926 35.0952C37.4926 35.6625 37.7302 36.0842 38.2056 36.3602C38.6962 36.6362 39.3479 36.7742 40.1606 36.7742C40.7586 36.7742 41.2646 36.6822 41.6786 36.4982C42.1079 36.3142 42.4376 35.9845 42.6676 35.5092C42.8976 35.0185 43.0126 34.3439 43.0126 33.4852V28.4942H39.5396V32.0132L36.4576 32.3812V26.0332H50.6946V28.4942H46.3476V33.4392C46.3476 34.5125 46.2402 35.3635 46.0256 35.9922C45.8262 36.6055 45.5349 37.1269 45.1516 37.5562C44.5996 38.1695 43.8789 38.6065 42.9896 38.8672C42.1002 39.1125 41.0806 39.2352 39.9306 39.2352Z" fill="white"/>
<path d="M39.9306 39.2352C38.7806 39.2352 37.7686 39.0819 36.8946 38.7752C36.0206 38.4532 35.3382 37.9932 34.8476 37.3952C34.3569 36.7819 34.1116 36.0382 34.1116 35.1642C34.1116 34.3209 34.3569 33.5925 34.8476 32.9792C35.3536 32.3505 36.1509 31.8599 37.2396 31.5072C38.3436 31.1545 39.7772 30.9782 41.5406 30.9782H45.3816C46.9149 30.9782 48.2719 31.1622 49.4526 31.5302C50.6332 31.8982 51.5609 32.5039 52.2356 33.3472C52.9256 34.1752 53.2706 35.3022 53.2706 36.7282C53.2706 37.7709 53.0482 38.6525 52.6036 39.3732C52.1742 40.1092 51.5532 40.7455 50.7406 41.2822C50.2346 41.6195 49.6212 41.9032 48.9006 42.1332C48.1952 42.3785 47.3596 42.5549 46.3936 42.6622C45.4429 42.7849 44.3389 42.8462 43.0816 42.8462H41.2876C40.3522 42.8462 39.6852 42.8845 39.2866 42.9612C38.9032 43.0532 38.5889 43.1835 38.3436 43.3522C38.0982 43.5362 37.9066 43.7662 37.7686 44.0422C37.6306 44.3335 37.5616 44.7245 37.5616 45.2152C37.5616 45.3839 37.5692 45.5449 37.5846 45.6982C37.5999 45.8515 37.6152 46.0125 37.6306 46.1812L34.2726 46.3422C34.2266 46.0202 34.1882 45.6982 34.1576 45.3762C34.1422 45.0695 34.1346 44.7322 34.1346 44.3642C34.1346 43.6742 34.2726 43.0685 34.5486 42.5472C34.8246 42.0412 35.1926 41.6272 35.6526 41.3052C35.9592 41.0905 36.3042 40.9142 36.6876 40.7762C37.0709 40.6382 37.5462 40.5385 38.1136 40.4772C38.6809 40.4159 39.3862 40.3852 40.2296 40.3852H42.2996C43.6336 40.3852 44.7299 40.3315 45.5886 40.2242C46.4472 40.1322 47.1372 39.9789 47.6586 39.7642C48.1952 39.5495 48.6322 39.2659 48.9696 38.9132C49.2762 38.6065 49.5062 38.2539 49.6596 37.8552C49.8129 37.4412 49.8896 36.9735 49.8896 36.4522C49.8896 35.7775 49.7439 35.2332 49.4526 34.8192C49.1766 34.4052 48.8009 34.0909 48.3256 33.8762C47.8656 33.6462 47.3519 33.4929 46.7846 33.4162C46.2326 33.3395 45.6806 33.3012 45.1286 33.3012H41.1036C40.5669 33.3012 40.0532 33.3319 39.5626 33.3932C39.0872 33.4392 38.6809 33.5465 38.3436 33.7152C38.0522 33.8685 37.8376 34.0602 37.6996 34.2902C37.5616 34.5202 37.4926 34.7885 37.4926 35.0952C37.4926 35.6625 37.7302 36.0842 38.2056 36.3602C38.6962 36.6362 39.3479 36.7742 40.1606 36.7742C40.7586 36.7742 41.2646 36.6822 41.6786 36.4982C42.1079 36.3142 42.4376 35.9845 42.6676 35.5092C42.8976 35.0185 43.0126 34.3439 43.0126 33.4852V28.4942H39.5396V32.0132L36.4576 32.3812V26.0332H50.6946V28.4942H46.3476V33.4392C46.3476 34.5125 46.2402 35.3635 46.0256 35.9922C45.8262 36.6055 45.5349 37.1269 45.1516 37.5562C44.5996 38.1695 43.8789 38.6065 42.9896 38.8672C42.1002 39.1125 41.0806 39.2352 39.9306 39.2352Z" fill="url(#paint4_linear_2242_783)"/>
<defs>
<linearGradient id="paint0_linear_2242_783" x1="8.69219" y1="8.2368" x2="68.3871" y2="88.5523" gradientUnits="userSpaceOnUse">
<stop stop-color="#007BFF"/>
<stop offset="1" stop-color="#FFEB3B"/>
</linearGradient>
<linearGradient id="paint1_linear_2242_783" x1="39.199" y1="19.3149" x2="48.6529" y2="52.2656" gradientUnits="userSpaceOnUse">
<stop stop-color="#007BFF"/>
<stop offset="1" stop-color="#FFEB3B"/>
</linearGradient>
<linearGradient id="paint2_linear_2242_783" x1="39.199" y1="19.3149" x2="48.6529" y2="52.2657" gradientUnits="userSpaceOnUse">
<stop stop-color="#007BFF"/>
<stop offset="1" stop-color="#FFEB3B"/>
</linearGradient>
<linearGradient id="paint3_linear_2242_783" x1="39.1991" y1="19.3149" x2="48.653" y2="52.2657" gradientUnits="userSpaceOnUse">
<stop stop-color="#007BFF"/>
<stop offset="1" stop-color="#FFEB3B"/>
</linearGradient>
<linearGradient id="paint4_linear_2242_783" x1="39.1991" y1="19.3149" x2="48.653" y2="52.2656" gradientUnits="userSpaceOnUse">
<stop stop-color="#007BFF"/>
<stop offset="1" stop-color="#FFEB3B"/>
</linearGradient>
</defs>
</svg>
