<svg width="136" height="66" viewBox="0 0 136 66" fill="none" xmlns="http://www.w3.org/2000/svg">
<rect width="136" height="66" rx="16" fill="url(#paint0_linear_2291_60)"/>
<path d="M96.5156 25.7561C97.9416 25.7561 99.0992 26.0627 99.9886 26.6761C100.878 27.2741 101.53 28.1021 101.944 29.1601C102.373 30.2181 102.588 31.4141 102.588 32.7481C102.588 33.9134 102.45 34.8871 102.174 35.6691C101.913 36.4511 101.491 37.0874 100.909 37.5781C100.495 37.9307 100.027 38.2067 99.5056 38.4061C98.9842 38.6054 98.3556 38.7511 97.6196 38.8431C96.8989 38.9197 96.0019 38.9581 94.9286 38.9581H84.0036V26.0321H87.4306V36.4971H91.6626V30.7931C91.6626 29.8424 91.7622 29.0681 91.9616 28.4701C92.1762 27.8721 92.4829 27.3737 92.8816 26.9751C93.2956 26.5764 93.8016 26.2774 94.3996 26.0781C95.0129 25.8634 95.7182 25.7561 96.5156 25.7561ZM96.7456 28.2171C96.5462 28.2171 96.3469 28.2477 96.1476 28.3091C95.9636 28.3704 95.7949 28.4777 95.6416 28.6311C95.4422 28.8304 95.2966 29.1064 95.2046 29.4591C95.1279 29.7964 95.0896 30.3561 95.0896 31.1381V36.4971H95.9636C96.7762 36.4971 97.4126 36.3821 97.8726 36.1521C98.3479 35.9067 98.6776 35.5081 98.8616 34.9561C99.0609 34.4041 99.1606 33.6681 99.1606 32.7481C99.1606 31.9047 99.0839 31.1457 98.9306 30.4711C98.7772 29.7811 98.5242 29.2367 98.1716 28.8381C97.8189 28.4241 97.3436 28.2171 96.7456 28.2171ZM87.4306 39.9471C87.7372 39.9471 88.0516 39.9547 88.3736 39.9701C88.7109 40.0007 89.0176 40.0467 89.2936 40.1081L89.1326 42.3851C88.9792 42.3544 88.7952 42.3314 88.5806 42.3161C88.3659 42.3161 88.1359 42.3161 87.8906 42.3161C87.5072 42.3161 87.1776 42.3697 86.9016 42.4771C86.6409 42.5997 86.5106 42.7991 86.5106 43.0751C86.5106 43.3204 86.6026 43.5044 86.7866 43.6271C86.9859 43.7497 87.2312 43.8341 87.5226 43.8801C87.8292 43.9261 88.1436 43.9491 88.4656 43.9491H89.0866C89.7612 43.9491 90.3439 43.8724 90.8346 43.7191C91.3406 43.5657 91.7699 43.3281 92.1226 43.0061C92.4906 42.6994 92.7972 42.3084 93.0426 41.8331C93.1346 41.6644 93.2956 41.5034 93.5256 41.3501C93.7556 41.2121 94.0776 41.0971 94.4916 41.0051C94.9056 40.9284 95.4192 40.8901 96.0326 40.8901L98.1256 41.5571C97.4662 41.6951 96.9832 41.8561 96.6766 42.0401C96.3852 42.2394 96.1706 42.4924 96.0326 42.7991C95.6799 43.6117 95.1969 44.2787 94.5836 44.8001C93.9856 45.3367 93.2572 45.7277 92.3986 45.9731C91.5399 46.2184 90.5279 46.3411 89.3626 46.3411H88.5116C87.6836 46.3411 86.9092 46.2491 86.1886 46.0651C85.4832 45.8811 84.9236 45.6434 84.5096 45.3521C84.1876 45.1374 83.8962 44.8384 83.6356 44.4551C83.3902 44.0717 83.2676 43.5964 83.2676 43.0291C83.2676 42.0784 83.6279 41.3271 84.3486 40.7751C85.0692 40.2231 86.0966 39.9471 87.4306 39.9471ZM95.1586 43.1901L94.9516 42.9141C94.3382 42.7761 93.7862 42.5537 93.2956 42.2471C92.8202 41.9557 92.4369 41.5341 92.1456 40.9821C91.8696 40.4454 91.7162 39.7631 91.6856 38.9351L94.9976 38.9121C94.9976 39.2801 95.0589 39.5944 95.1816 39.8551C95.3196 40.1311 95.5342 40.3381 95.8256 40.4761C96.0402 40.5834 96.2856 40.6524 96.5616 40.6831C96.8376 40.7291 97.2132 40.7521 97.6886 40.7521H100.127V43.1901H95.1586ZM92.9506 23.7321C92.3986 23.7321 91.9462 23.5557 91.5936 23.2031C91.2409 22.8351 91.0646 22.3751 91.0646 21.8231C91.0646 21.2711 91.2409 20.8187 91.5936 20.4661C91.9462 20.0981 92.3986 19.9141 92.9506 19.9141C93.4872 19.9141 93.9319 20.0981 94.2846 20.4661C94.6372 20.8187 94.8136 21.2711 94.8136 21.8231C94.8136 22.3751 94.6372 22.8351 94.2846 23.2031C93.9319 23.5557 93.4872 23.7321 92.9506 23.7321Z" fill="white"/>
<path d="M73.2253 19.3867C74.4367 19.3867 75.4717 19.5631 76.3304 19.9157C77.2044 20.2531 77.902 20.6901 78.4234 21.2267C78.776 21.5947 79.098 22.0547 79.3894 22.6067C79.6807 23.1434 79.9107 23.8564 80.0793 24.7457C80.2633 25.6197 80.3554 26.7621 80.3554 28.1727V38.9597H76.9284V29.0697C76.9284 27.8891 76.89 26.9001 76.8134 26.1027C76.7367 25.2901 76.5987 24.6154 76.3993 24.0787C76.2 23.5267 75.9164 23.0667 75.5484 22.6987C75.257 22.4074 74.9274 22.1851 74.5594 22.0317C74.1914 21.8784 73.7697 21.8017 73.2943 21.8017C72.635 21.8017 72.1137 21.9244 71.7304 22.1697C71.3317 22.4151 71.048 22.7294 70.8793 23.1127C70.7107 23.4807 70.6264 23.8717 70.6264 24.2857C70.6264 24.7151 70.6954 25.1751 70.8334 25.6657C70.956 26.1411 71.1477 26.6241 71.4084 27.1147H68.0043C67.805 26.7467 67.6517 26.3097 67.5443 25.8037C67.4217 25.2977 67.3604 24.8071 67.3604 24.3317C67.3604 23.4577 67.529 22.7141 67.8664 22.1007C68.2037 21.4721 68.656 20.9584 69.2234 20.5597C69.7907 20.1611 70.427 19.8697 71.1324 19.6857C71.8224 19.4864 72.52 19.3867 73.2253 19.3867Z" fill="white"/>
<path d="M67.9226 25.7578C69.3486 25.7578 70.5063 26.0645 71.3956 26.6778C72.285 27.2758 72.9366 28.1038 73.3506 29.1618C73.78 30.2198 73.9946 31.4158 73.9946 32.7498C73.9946 33.9151 73.8566 34.8888 73.5806 35.6708C73.32 36.4528 72.8983 37.0891 72.3156 37.5798C71.9016 37.9325 71.434 38.2085 70.9126 38.4078C70.3913 38.6071 69.7626 38.7528 69.0266 38.8448C68.306 38.9215 67.409 38.9598 66.3356 38.9598H55.4106V26.0338H58.8376V36.4988H63.0696V30.7948C63.0696 29.8441 63.1693 29.0698 63.3686 28.4718C63.5833 27.8738 63.89 27.3755 64.2886 26.9768C64.7026 26.5781 65.2086 26.2791 65.8066 26.0798C66.42 25.8651 67.1253 25.7578 67.9226 25.7578ZM68.1526 28.2188C67.9533 28.2188 67.754 28.2495 67.5546 28.3108C67.3706 28.3721 67.202 28.4795 67.0486 28.6328C66.8493 28.8321 66.7036 29.1081 66.6116 29.4608C66.535 29.7981 66.4966 30.3578 66.4966 31.1398V36.4988H67.3706C68.1833 36.4988 68.8196 36.3838 69.2796 36.1538C69.755 35.9085 70.0846 35.5098 70.2686 34.9578C70.468 34.4058 70.5676 33.6698 70.5676 32.7498C70.5676 31.9065 70.491 31.1475 70.3376 30.4728C70.1843 29.7828 69.9313 29.2385 69.5786 28.8398C69.226 28.4258 68.7506 28.2188 68.1526 28.2188Z" fill="white"/>
<path d="M39.3771 39.2352C38.2271 39.2352 37.2151 39.0819 36.3411 38.7752C35.4671 38.4532 34.7848 37.9932 34.2941 37.3952C33.8034 36.7819 33.5581 36.0382 33.5581 35.1642C33.5581 34.3209 33.8034 33.5925 34.2941 32.9792C34.8001 32.3505 35.5974 31.8599 36.6861 31.5072C37.7901 31.1545 39.2238 30.9782 40.9871 30.9782H44.8281C46.3614 30.9782 47.7184 31.1622 48.8991 31.5302C50.0798 31.8982 51.0074 32.5039 51.6821 33.3472C52.3721 34.1752 52.7171 35.3022 52.7171 36.7282C52.7171 37.7709 52.4948 38.6525 52.0501 39.3732C51.6208 40.1092 50.9998 40.7455 50.1871 41.2822C49.6811 41.6195 49.0678 41.9032 48.3471 42.1332C47.6418 42.3785 46.8061 42.5549 45.8401 42.6622C44.8894 42.7849 43.7854 42.8462 42.5281 42.8462H40.7341C39.7988 42.8462 39.1318 42.8845 38.7331 42.9612C38.3498 43.0532 38.0354 43.1835 37.7901 43.3522C37.5448 43.5362 37.3531 43.7662 37.2151 44.0422C37.0771 44.3335 37.0081 44.7245 37.0081 45.2152C37.0081 45.3839 37.0158 45.5449 37.0311 45.6982C37.0464 45.8515 37.0618 46.0125 37.0771 46.1812L33.7191 46.3422C33.6731 46.0202 33.6348 45.6982 33.6041 45.3762C33.5888 45.0695 33.5811 44.7322 33.5811 44.3642C33.5811 43.6742 33.7191 43.0685 33.9951 42.5472C34.2711 42.0412 34.6391 41.6272 35.0991 41.3052C35.4058 41.0905 35.7508 40.9142 36.1341 40.7762C36.5174 40.6382 36.9928 40.5385 37.5601 40.4772C38.1274 40.4159 38.8328 40.3852 39.6761 40.3852H41.7461C43.0801 40.3852 44.1764 40.3315 45.0351 40.2242C45.8938 40.1322 46.5838 39.9789 47.1051 39.7642C47.6418 39.5495 48.0788 39.2659 48.4161 38.9132C48.7228 38.6065 48.9528 38.2539 49.1061 37.8552C49.2594 37.4412 49.3361 36.9735 49.3361 36.4522C49.3361 35.7775 49.1904 35.2332 48.8991 34.8192C48.6231 34.4052 48.2474 34.0909 47.7721 33.8762C47.3121 33.6462 46.7984 33.4929 46.2311 33.4162C45.6791 33.3395 45.1271 33.3012 44.5751 33.3012H40.5501C40.0134 33.3012 39.4998 33.3319 39.0091 33.3932C38.5338 33.4392 38.1274 33.5465 37.7901 33.7152C37.4988 33.8685 37.2841 34.0602 37.1461 34.2902C37.0081 34.5202 36.9391 34.7885 36.9391 35.0952C36.9391 35.6625 37.1768 36.0842 37.6521 36.3602C38.1428 36.6362 38.7944 36.7742 39.6071 36.7742C40.2051 36.7742 40.7111 36.6822 41.1251 36.4982C41.5544 36.3142 41.8841 35.9845 42.1141 35.5092C42.3441 35.0185 42.4591 34.3439 42.4591 33.4852V28.4942H38.9861V32.0132L35.9041 32.3812V26.0332H50.1411V28.4942H45.7941V33.4392C45.7941 34.5125 45.6868 35.3635 45.4721 35.9922C45.2728 36.6055 44.9814 37.1269 44.5981 37.5562C44.0461 38.1695 43.3254 38.6065 42.4361 38.8672C41.5468 39.1125 40.5271 39.2352 39.3771 39.2352Z" fill="white"/>
<defs>
<linearGradient id="paint0_linear_2291_60" x1="0" y1="0" x2="136" y2="66" gradientUnits="userSpaceOnUse">
<stop stop-color="#007BFF"/>
<stop offset="1" stop-color="#FFEB3B"/>
</linearGradient>
</defs>
</svg>
