<svg width="480" height="187" viewBox="0 0 480 187" fill="none" xmlns="http://www.w3.org/2000/svg">
<path fill-rule="evenodd" clip-rule="evenodd" d="M479.757 2.66406H452.613L447.867 40.0428L444.999 19.6724C444.109 13.1459 443.269 7.4765 442.478 2.66406H415.531V82.712H433.726V29.9071L441.39 82.712H454.294L461.563 28.671V82.712H479.757V2.66406ZM478.106 81.061V4.31502H454.068L449.505 40.2508L446.232 40.273L443.364 19.9025L443.363 19.8955C442.559 13.9955 441.795 8.80249 441.073 4.31502H417.182V81.061H432.075V29.9071L435.36 29.6699L442.818 81.061H452.851L459.926 28.4509L463.213 28.671V81.061H478.106Z" fill="white"/>
<path fill-rule="evenodd" clip-rule="evenodd" d="M375.68 2.66406H360.946V82.712H381.762V46.6187C382.36 46.6187 382.91 46.641 383.413 46.6855C385.317 46.8542 386.53 47.3428 387.052 48.1514C387.744 49.1733 388.09 51.8267 388.09 56.1117V82.712H407.423V61.5999C407.423 55.1394 407.241 51.2004 406.879 49.7831C406.549 48.3327 405.676 46.7506 404.258 45.0365C403.302 43.8797 401.729 42.8805 399.541 42.039C398.488 41.6337 397.291 41.2649 395.952 40.9328C397.318 40.8041 398.548 40.5982 399.643 40.315C402.196 39.6551 404.015 38.5755 405.099 37.0763C406.648 34.9337 407.423 30.7476 407.423 24.5178C407.423 17.6947 406.318 12.7339 404.11 9.6355C401.934 6.50412 399.1 4.55937 395.606 3.80125C392.145 3.04312 385.503 2.66406 375.68 2.66406ZM405.772 81.061V61.5999C405.772 58.3812 405.726 55.8096 405.637 53.8762C405.546 51.8915 405.413 50.7141 405.279 50.1922L405.274 50.1707L405.269 50.1489C405.018 49.0445 404.313 47.694 402.986 46.0886C401.921 44.8014 399.598 43.538 395.554 42.5352L395.797 39.2891C400.2 38.8744 402.638 37.6623 403.761 36.1089C404.331 35.3209 404.851 34.012 405.218 32.0294C405.581 30.0693 405.772 27.5736 405.772 24.5178C405.772 17.7995 404.67 13.2663 402.765 10.5937L402.76 10.5856L402.754 10.5775C400.799 7.76407 398.313 6.07798 395.256 5.41466L395.252 5.41397C391.992 4.69968 385.523 4.31502 375.68 4.31502H362.597V81.061H380.111V44.9678H381.762C383.274 44.9678 384.604 45.1003 385.694 45.4162C386.764 45.7261 387.796 46.2704 388.429 47.2403C389.003 48.0971 389.293 49.3514 389.468 50.6944C389.654 52.1209 389.741 53.9348 389.741 56.1117V81.061H405.772ZM381.762 16.3597C382.359 16.3597 382.909 16.3841 383.413 16.4328C384.939 16.5803 386.037 16.9515 386.706 17.5463C387.629 18.3374 388.09 20.002 388.09 22.5401V26.9405C388.09 30.4674 387.612 32.5605 386.657 33.2197C385.969 33.6864 384.887 33.9792 383.413 34.0981C382.908 34.1388 382.358 34.1591 381.762 34.1591V16.3597ZM387.792 16.3025C386.412 15.0848 384.215 14.7088 381.762 14.7088H380.111V35.8101H381.762C384.139 35.8101 386.217 35.513 387.584 34.5859L387.594 34.5788C388.603 33.8829 389.08 32.6678 389.341 31.523C389.62 30.3039 389.741 28.7595 389.741 26.9405V22.5401C389.741 21.1849 389.62 19.973 389.335 18.947C389.054 17.931 388.58 16.9833 387.792 16.3025Z" fill="white"/>
<path fill-rule="evenodd" clip-rule="evenodd" d="M350.9 66.4637L350.901 66.4496C351.285 63.1931 351.483 57.5769 351.483 49.5353V35.8396C351.483 27.5968 351.284 21.9184 350.902 18.7313C350.542 15.7346 349.421 12.9541 347.506 10.3708C345.622 7.82822 343.121 5.91696 339.958 4.6393L339.949 4.6357L339.94 4.63199C336.777 3.31143 333.158 2.63338 329.056 2.63338C324.719 2.63338 320.997 3.34565 317.85 4.72022C314.705 6.09457 312.245 8.04025 310.422 10.5482C308.608 13.0887 307.525 15.887 307.162 18.9667C306.81 22.1985 306.628 27.8022 306.628 35.8396V49.5353C306.628 57.778 306.827 63.4565 307.21 66.6435C307.569 69.6403 308.69 72.4207 310.605 75.0041C312.493 77.551 314.981 79.4793 318.113 80.7885C321.314 82.0797 324.953 82.7415 329.056 82.7415C333.393 82.7415 337.115 82.0292 340.261 80.6546C343.408 79.2798 345.849 77.3346 347.638 74.8298L347.645 74.8193C349.491 72.2779 350.569 69.5005 350.9 66.4637ZM317.486 82.3158C314.091 80.8985 311.355 78.7889 309.279 75.9872C307.202 73.1854 305.966 70.1364 305.57 66.8402C305.175 63.5441 304.977 57.7757 304.977 49.5353V35.8396C304.977 27.7969 305.158 22.111 305.521 18.7818C305.916 15.4197 307.103 12.3543 309.081 9.58547C311.091 6.81667 313.794 4.69063 317.189 3.20735C320.584 1.72406 324.54 0.982422 329.056 0.982422C333.341 0.982422 337.181 1.6911 340.576 3.10846C344.004 4.49286 346.756 6.58594 348.833 9.3877C350.909 12.1895 352.145 15.2384 352.541 18.5346C352.937 21.8308 353.134 27.5991 353.134 35.8396V49.5353C353.134 57.578 352.937 63.2804 352.541 66.6425C352.178 69.9716 350.992 73.0206 348.981 75.7894C347.003 78.5582 344.317 80.6842 340.922 82.1675C337.527 83.6508 333.571 84.3924 329.056 84.3924C324.771 84.3924 320.914 83.7002 317.486 82.3158ZM326.336 69.2135C325.974 68.1258 325.792 65.2581 325.792 60.6105V23.2317C325.792 19.1115 326.073 16.6393 326.633 15.8153C327.226 14.9583 328.067 14.5298 329.155 14.5298C330.44 14.5298 331.281 15.0571 331.676 16.1119C332.105 17.1337 332.319 19.507 332.319 23.2317V60.0171C332.319 64.7307 332.121 67.7137 331.726 68.9663C331.33 70.2188 330.424 70.8451 329.006 70.8451C327.622 70.8451 326.732 70.3012 326.336 69.2135ZM333.211 15.5024C332.902 14.6969 332.385 14.0026 331.627 13.5268C330.876 13.056 330.018 12.8788 329.155 12.8788C327.553 12.8788 326.193 13.5505 325.276 14.8755L325.268 14.8869C324.97 15.325 324.789 15.8487 324.666 16.3344C324.535 16.8443 324.437 17.4395 324.362 18.1015C324.212 19.4261 324.142 21.144 324.142 23.2317V60.6105C324.142 62.9507 324.187 64.8681 324.281 66.3511C324.371 67.7771 324.513 68.9643 324.77 69.7356L324.777 69.7567L324.785 69.7777C325.096 70.6323 325.64 71.3573 326.44 71.8459C327.216 72.3201 328.107 72.4961 329.006 72.4961C329.955 72.4961 330.889 72.2854 331.688 71.7337C332.497 71.1741 333.014 70.3699 333.3 69.4634C333.563 68.6315 333.719 67.3983 333.818 65.8988C333.92 64.3565 333.97 62.3922 333.97 60.0171V23.2317C333.97 21.344 333.916 19.7651 333.803 18.5098C333.695 17.3177 333.523 16.2621 333.211 15.5024Z" fill="white"/>
<path fill-rule="evenodd" clip-rule="evenodd" d="M265.225 2.66406V82.712H286.041V49.0909H298.896V33.8625H286.041V18.6835H300.478V2.66406H265.225ZM298.827 4.31502H266.876V81.061H284.39V47.4399H297.245V35.5134H284.39V17.0326H298.827V4.31502Z" fill="white"/>
<path fill-rule="evenodd" clip-rule="evenodd" d="M231.505 16.0625C232.164 15.0407 233.12 14.5298 234.373 14.5298C235.526 14.5298 236.35 14.9088 236.845 15.6669C237.339 16.4251 237.587 18.1885 237.587 20.9573V26.8905H256.919V23.7261C256.919 17.3645 256.292 12.8652 255.04 10.2282C253.82 7.55832 251.299 5.34987 247.475 3.60289C243.684 1.85591 239.086 0.982422 233.681 0.982422C228.736 0.982422 224.517 1.78999 221.023 3.40512C217.529 4.98729 214.991 7.19574 213.409 10.0305C211.86 12.8652 211.085 17.348 211.085 23.4789C211.085 27.731 211.629 31.2249 212.717 33.9608C213.838 36.6966 215.238 38.8391 216.919 40.3883C218.601 41.9375 222.029 44.4262 227.204 47.8542C232.379 51.2493 235.625 53.672 236.944 55.1223C238.229 56.5726 238.872 59.6546 238.872 64.3681C238.872 66.5106 238.526 68.1258 237.834 69.2135C237.175 70.3012 236.153 70.8451 234.768 70.8451C233.384 70.8451 232.412 70.4166 231.851 69.5596C231.324 68.7026 231.06 66.7743 231.06 63.7748V54.0346H211.728V59.2755C211.728 65.2746 212.338 69.9057 213.557 73.1689C214.777 76.4322 217.348 79.1185 221.27 81.2281C225.226 83.3377 229.989 84.3924 235.559 84.3924C240.636 84.3924 245.085 83.486 248.909 81.6731C252.733 79.8272 255.304 77.5528 256.622 74.85C257.973 72.1471 258.649 67.9445 258.649 62.2421C258.649 54.3971 257.446 48.7112 255.04 45.1843C252.634 41.6574 246.799 37.1416 237.537 31.637C234.307 29.7252 232.346 28.0936 231.653 26.7421C230.928 25.3907 230.566 23.38 230.566 20.7101C230.566 18.6335 230.879 17.0843 231.505 16.0625ZM230.192 27.5094C229.28 25.8019 228.915 23.4706 228.915 20.7101C228.915 18.5246 229.234 16.6086 230.097 15.1997L230.107 15.1835L230.118 15.1674C231.092 13.6575 232.58 12.8788 234.373 12.8788C235.911 12.8788 237.345 13.411 238.228 14.7651C238.682 15.4618 238.905 16.3954 239.036 17.3289C239.174 18.3161 239.238 19.5333 239.238 20.9573V25.2395H255.268V23.7261C255.268 17.3867 254.63 13.2138 253.549 10.9366L253.543 10.9254L253.538 10.9142C252.542 8.73411 250.405 6.75679 246.789 5.10454L246.784 5.10228C243.264 3.48005 238.915 2.63338 233.681 2.63338C228.91 2.63338 224.94 3.41324 221.716 4.90371L221.704 4.90911C218.474 6.37161 216.235 8.35878 214.854 10.8291C213.512 13.2889 212.736 17.4234 212.736 23.4789C212.736 27.6033 213.266 30.8689 214.248 33.344C215.302 35.9147 216.581 37.8311 218.038 39.1743C219.608 40.6212 222.929 43.042 228.112 46.4758C233.248 49.8455 236.681 52.3789 238.165 54.0117L238.172 54.0194L238.179 54.0272C239.097 55.0624 239.659 56.5194 240.006 58.1844C240.359 59.8763 240.523 61.9481 240.523 64.3681C240.523 66.6308 240.168 68.6114 239.236 70.0848C238.247 71.7061 236.662 72.4961 234.768 72.4961C233.044 72.4961 231.437 71.9429 230.469 70.4631L230.457 70.4441L230.445 70.4249C229.995 69.6928 229.761 68.7129 229.622 67.6943C229.476 66.6278 229.409 65.314 229.409 63.7748V55.6855H213.379V59.2755C213.379 65.1985 213.986 69.5996 215.104 72.5909C216.147 75.3832 218.38 77.7984 222.049 79.7722C225.714 81.7264 230.196 82.7415 235.559 82.7415C240.437 82.7415 244.635 81.8714 248.196 80.1839C251.818 78.4347 254.038 76.3818 255.138 74.1262L255.142 74.1189L255.145 74.1116C256.32 71.7619 256.998 67.8769 256.998 62.2421C256.998 54.4894 255.795 49.2202 253.676 46.1147C252.616 44.5612 250.714 42.6751 247.849 40.4578C245.003 38.2553 241.291 35.7882 236.694 33.0562C235.036 32.0749 233.659 31.1396 232.588 30.2486C231.542 29.3786 230.687 28.4686 230.192 27.5094Z" fill="white"/>
<path fill-rule="evenodd" clip-rule="evenodd" d="M204.41 2.66406H187.006V38.7079L175.338 2.66406H157.934V82.712H175.338V46.3221L186.166 82.712H204.41V2.66406ZM202.759 81.061V4.31502H188.657V38.7079L185.436 39.2164L174.137 4.31502H159.585V81.061H173.687V46.3221L176.92 45.8512L187.397 81.061H202.759Z" fill="white"/>
<path fill-rule="evenodd" clip-rule="evenodd" d="M142.459 2.66406H112.348L101.767 82.712H123.324L124.56 68.3241H132.026L133.064 82.712H154.374L142.459 2.66406ZM152.459 81.061L141.035 4.31502H113.795L103.651 81.061H121.809L123.045 66.6732H133.562L134.6 81.061H152.459ZM131.243 52.4831C131.306 53.041 131.37 53.5913 131.433 54.134H124.313C124.352 53.6065 124.396 53.0561 124.444 52.4831C124.928 46.7021 125.859 38.6067 127.236 28.1969C127.556 25.7771 127.9 23.2323 128.268 20.5624C128.478 23.2039 128.687 25.7619 128.896 28.2361C129.679 37.4882 130.461 45.5705 131.243 52.4831ZM133.287 55.785H122.535L122.667 54.0115C123.198 46.8695 124.523 35.6353 126.633 20.3368L129.914 20.432C130.968 33.7367 132.021 44.9057 133.073 53.9432L133.287 55.785Z" fill="white"/>
<path fill-rule="evenodd" clip-rule="evenodd" d="M66.6627 2.66406H51.9287V82.712H72.7441V46.6187C73.3425 46.6187 73.8929 46.641 74.3951 46.6855C76.2997 46.8542 77.5128 47.3428 78.0345 48.1514C78.7267 49.1733 79.0728 51.8267 79.0728 56.1117V82.712H98.405V61.5999C98.405 55.1394 98.2237 51.2004 97.8611 49.7831C97.5315 48.3327 96.658 46.7506 95.2406 45.0365C94.284 43.8797 92.7117 42.8805 90.5238 42.039C89.4701 41.6337 88.2735 41.2649 86.9342 40.9328C88.3 40.8041 89.5305 40.5982 90.6259 40.315C93.1787 39.6551 94.9971 38.5755 96.0811 37.0763C97.6304 34.9337 98.405 30.7476 98.405 24.5178C98.405 17.6947 97.3007 12.7339 95.0923 9.6355C92.9168 6.50412 90.0821 4.55937 86.5881 3.80125C83.1271 3.04312 76.4853 2.66406 66.6627 2.66406ZM96.754 81.061V61.5999C96.754 58.3812 96.7088 55.8096 96.6198 53.8762C96.5284 51.8915 96.3951 50.7141 96.2616 50.1922L96.2561 50.1707L96.2512 50.1489C96.0002 49.0445 95.2958 47.694 93.9683 46.0886C92.9039 44.8014 90.5803 43.538 86.5368 42.5352L86.7794 39.2891C91.182 38.8744 93.62 37.6623 94.7433 36.1089C95.313 35.3209 95.8337 34.012 96.2006 32.0294C96.5633 30.0693 96.754 27.5736 96.754 24.5178C96.754 17.7995 95.6528 13.2663 93.7479 10.5937L93.7421 10.5856L93.7364 10.5775C91.7818 7.76407 89.2951 6.07798 86.238 5.41466L86.2349 5.41397C82.974 4.69968 76.5054 4.31502 66.6627 4.31502H53.5797V81.061H71.0932V44.9678H72.7441C74.2566 44.9678 75.5867 45.1003 76.6769 45.4162C77.7472 45.7262 78.7789 46.2708 79.412 47.2412C79.9856 48.0981 80.2752 49.352 80.4503 50.6944C80.6364 52.1209 80.7238 53.9348 80.7238 56.1117V81.061H96.754ZM72.7441 16.3597C73.3411 16.3597 73.8914 16.3841 74.3951 16.4328C75.9215 16.5803 77.0192 16.9515 77.6884 17.5463C78.6113 18.3374 79.0728 20.002 79.0728 22.5401V26.9405C79.0728 30.4674 78.5949 32.5605 77.639 33.2197C76.9512 33.6864 75.8699 33.9792 74.3951 34.0981C73.8908 34.1388 73.3405 34.1591 72.7441 34.1591V16.3597ZM78.7741 16.3025C77.3947 15.0848 75.1975 14.7088 72.7441 14.7088H71.0932V35.8101H72.7441C75.1216 35.8101 77.1997 35.513 78.566 34.5859L78.5763 34.5788C79.5854 33.8829 80.0625 32.6678 80.3239 31.523C80.6023 30.3039 80.7238 28.7595 80.7238 26.9405V22.5401C80.7238 21.1849 80.6021 19.973 80.3177 18.947C80.036 17.931 79.5623 16.9833 78.7741 16.3025Z" fill="white"/>
<path fill-rule="evenodd" clip-rule="evenodd" d="M47.1822 2.66406H1.69482V18.6835H14.0061V82.712H34.8215V18.6835H47.1822V2.66406ZM45.5312 17.0326V4.31502H3.34578V17.0326H15.657V81.061H33.1705V17.0326H45.5312Z" fill="white"/>
<path d="M163.966 105.023H178.7C188.523 105.023 195.165 105.402 198.626 106.161C202.12 106.919 204.954 108.863 207.13 111.995C209.338 115.093 210.443 120.054 210.443 126.877C210.443 133.107 209.668 137.293 208.119 139.436C206.57 141.578 203.521 142.864 198.972 143.292C203.092 144.314 205.861 145.682 207.278 147.396C208.696 149.11 209.569 150.692 209.899 152.142C210.261 153.56 210.443 157.499 210.443 163.959V185.071H191.11V158.471C191.11 154.186 190.764 151.533 190.072 150.511C189.413 149.489 187.649 148.978 184.782 148.978V185.071H163.966V105.023ZM184.782 118.719V136.519C187.122 136.519 188.754 136.205 189.677 135.579C190.632 134.92 191.11 132.827 191.11 129.3V124.899C191.11 122.361 190.649 120.697 189.726 119.906C188.836 119.115 187.188 118.719 184.782 118.719Z" fill="#73768D" fill-opacity="0.5"/>
<path d="M155.907 105.023V158.521C155.907 164.586 155.709 168.854 155.314 171.326C154.918 173.765 153.748 176.287 151.803 178.891C149.858 181.462 147.287 183.423 144.09 184.775C140.926 186.093 137.185 186.752 132.867 186.752C128.087 186.752 123.868 185.961 120.209 184.379C116.55 182.797 113.815 180.737 112.002 178.199C110.189 175.661 109.118 172.991 108.788 170.189C108.458 167.354 108.293 161.421 108.293 152.39V105.023H129.109V165.047C129.109 168.541 129.29 170.782 129.653 171.771C130.048 172.727 130.823 173.205 131.977 173.205C133.295 173.205 134.136 172.678 134.498 171.623C134.894 170.535 135.091 167.997 135.091 164.009V105.023H155.907Z" fill="#73768D" fill-opacity="0.5"/>
<path d="M100.778 151.895C100.778 159.937 100.581 165.64 100.185 169.002C99.8225 172.331 98.6359 175.38 96.6252 178.149C94.6475 180.918 91.9611 183.044 88.566 184.527C85.1709 186.01 81.2155 186.752 76.6997 186.752C72.4147 186.752 68.5582 186.06 65.1301 184.675C61.7351 183.258 58.9992 181.148 56.9226 178.347C54.846 175.545 53.6099 172.496 53.2144 169.2C52.8189 165.903 52.6211 160.135 52.6211 151.895V138.199C52.6211 130.156 52.8024 124.47 53.165 121.141C53.5605 117.779 54.7471 114.714 56.7248 111.945C58.7355 109.176 61.4384 107.05 64.8335 105.567C68.2285 104.083 72.184 103.342 76.6997 103.342C80.9848 103.342 84.8248 104.05 88.2199 105.468C91.648 106.852 94.4003 108.945 96.4769 111.747C98.5535 114.549 99.7895 117.598 100.185 120.894C100.581 124.19 100.778 129.959 100.778 138.199V151.895ZM79.963 125.591C79.963 121.866 79.7487 119.493 79.3202 118.471C78.9247 117.417 78.0841 116.889 76.7986 116.889C75.7109 116.889 74.8704 117.318 74.277 118.175C73.7167 118.999 73.4365 121.471 73.4365 125.591V162.97C73.4365 167.617 73.6178 170.485 73.9804 171.573C74.3759 172.661 75.2659 173.204 76.6503 173.204C78.0677 173.204 78.9741 172.578 79.3697 171.326C79.7652 170.073 79.963 167.09 79.963 162.377V125.591Z" fill="#73768D" fill-opacity="0.5"/>
<path d="M49.605 105.023L34.4261 156.098V185.071H15.1434V156.098L0.508301 105.023H19.6427C22.6422 120.614 24.3233 131.113 24.6858 136.519C25.8395 127.981 27.7678 117.483 30.4706 105.023H49.605Z" fill="#73768D" fill-opacity="0.5"/>
<path d="M470.636 115.73C470.517 114.532 470.008 113.601 469.106 112.938C468.205 112.275 466.983 111.943 465.438 111.943C464.388 111.943 463.502 112.091 462.779 112.389C462.057 112.676 461.502 113.077 461.116 113.592C460.74 114.106 460.552 114.691 460.552 115.344C460.532 115.889 460.646 116.364 460.893 116.77C461.151 117.176 461.502 117.527 461.948 117.825C462.393 118.112 462.908 118.364 463.492 118.582C464.076 118.79 464.7 118.968 465.364 119.117L468.097 119.77C469.423 120.067 470.641 120.463 471.75 120.958C472.859 121.453 473.82 122.062 474.632 122.785C475.444 123.508 476.072 124.36 476.518 125.34C476.973 126.32 477.206 127.444 477.216 128.711C477.206 130.573 476.731 132.187 475.79 133.553C474.859 134.91 473.513 135.964 471.75 136.717C469.998 137.459 467.884 137.831 465.408 137.831C462.953 137.831 460.814 137.454 458.992 136.702C457.18 135.949 455.764 134.835 454.744 133.36C453.734 131.875 453.205 130.038 453.155 127.85H459.378C459.447 128.87 459.74 129.721 460.254 130.404C460.779 131.078 461.477 131.588 462.349 131.934C463.23 132.271 464.225 132.439 465.334 132.439C466.423 132.439 467.369 132.281 468.171 131.964C468.983 131.647 469.611 131.207 470.057 130.642C470.503 130.078 470.725 129.429 470.725 128.696C470.725 128.013 470.522 127.439 470.116 126.974C469.72 126.508 469.136 126.112 468.364 125.785C467.601 125.459 466.666 125.162 465.557 124.894L462.245 124.063C459.68 123.439 457.655 122.463 456.17 121.137C454.685 119.81 453.947 118.023 453.957 115.775C453.947 113.933 454.437 112.324 455.427 110.948C456.427 109.572 457.799 108.497 459.542 107.725C461.284 106.953 463.265 106.566 465.483 106.566C467.74 106.566 469.71 106.953 471.394 107.725C473.087 108.497 474.404 109.572 475.344 110.948C476.285 112.324 476.77 113.918 476.8 115.73H470.636Z" fill="white"/>
<path d="M410.329 137.398V106.98H416.76V132.096H429.801V137.398H410.329Z" fill="white"/>
<path d="M366.523 137.398V106.98H372.955V132.096H385.995V137.398H366.523Z" fill="white"/>
<path d="M341.156 106.98V137.398H334.725V106.98H341.156Z" fill="white"/>
<path d="M285.813 137.398V106.98H292.244V120.392H292.645L303.591 106.98H311.3L300.012 120.6L311.433 137.398H303.74L295.408 124.892L292.244 128.754V137.398H285.813Z" fill="white"/>
<path d="M254.832 115.73C254.714 114.532 254.204 113.601 253.303 112.938C252.401 112.275 251.179 111.943 249.634 111.943C248.584 111.943 247.698 112.091 246.975 112.389C246.253 112.676 245.698 113.077 245.312 113.592C244.936 114.106 244.748 114.691 244.748 115.344C244.728 115.889 244.842 116.364 245.089 116.77C245.347 117.176 245.698 117.527 246.144 117.825C246.589 118.112 247.104 118.364 247.688 118.582C248.273 118.79 248.896 118.968 249.56 119.117L252.293 119.77C253.619 120.067 254.837 120.463 255.946 120.958C257.055 121.453 258.016 122.062 258.828 122.785C259.64 123.508 260.268 124.36 260.714 125.34C261.169 126.32 261.402 127.444 261.412 128.711C261.402 130.573 260.927 132.187 259.986 133.553C259.055 134.91 257.709 135.964 255.946 136.717C254.194 137.459 252.08 137.831 249.604 137.831C247.149 137.831 245.01 137.454 243.188 136.702C241.376 135.949 239.96 134.835 238.94 133.36C237.93 131.875 237.401 130.038 237.351 127.85H243.574C243.644 128.87 243.936 129.721 244.451 130.404C244.975 131.078 245.673 131.588 246.545 131.934C247.426 132.271 248.421 132.439 249.53 132.439C250.619 132.439 251.565 132.281 252.367 131.964C253.179 131.647 253.808 131.207 254.253 130.642C254.699 130.078 254.921 129.429 254.921 128.696C254.921 128.013 254.718 127.439 254.312 126.974C253.916 126.508 253.332 126.112 252.56 125.785C251.797 125.459 250.862 125.162 249.753 124.894L246.441 124.063C243.876 123.439 241.851 122.463 240.366 121.137C238.881 119.81 238.143 118.023 238.153 115.775C238.143 113.933 238.633 112.324 239.623 110.948C240.624 109.572 241.995 108.497 243.738 107.725C245.48 106.953 247.461 106.566 249.679 106.566C251.936 106.566 253.907 106.953 255.59 107.725C257.283 108.497 258.6 109.572 259.541 110.948C260.481 112.324 260.966 113.918 260.996 115.73H254.832Z" fill="white"/>
<path d="M473.299 160.441C473.18 159.243 472.67 158.312 471.769 157.649C470.868 156.986 469.645 156.654 468.101 156.654C467.051 156.654 466.165 156.802 465.442 157.099C464.719 157.387 464.165 157.788 463.779 158.303C463.402 158.817 463.214 159.402 463.214 160.055C463.194 160.6 463.308 161.075 463.556 161.481C463.813 161.887 464.165 162.238 464.61 162.535C465.056 162.823 465.571 163.075 466.155 163.293C466.739 163.501 467.363 163.679 468.026 163.828L470.759 164.481C472.086 164.778 473.304 165.174 474.413 165.669C475.522 166.164 476.482 166.773 477.294 167.496C478.106 168.219 478.735 169.071 479.18 170.051C479.636 171.031 479.869 172.155 479.878 173.422C479.869 175.284 479.393 176.898 478.453 178.264C477.522 179.621 476.175 180.675 474.413 181.428C472.66 182.17 470.546 182.542 468.071 182.542C465.615 182.542 463.477 182.165 461.655 181.413C459.843 180.66 458.427 179.546 457.407 178.071C456.397 176.586 455.867 174.749 455.818 172.561H462.041C462.11 173.581 462.402 174.432 462.917 175.115C463.442 175.789 464.14 176.299 465.011 176.645C465.892 176.982 466.888 177.15 467.997 177.15C469.086 177.15 470.031 176.992 470.833 176.675C471.645 176.358 472.274 175.917 472.72 175.353C473.165 174.789 473.388 174.14 473.388 173.407C473.388 172.724 473.185 172.15 472.779 171.685C472.383 171.219 471.799 170.823 471.026 170.496C470.264 170.17 469.328 169.873 468.219 169.605L464.907 168.773C462.343 168.15 460.318 167.174 458.833 165.848C457.347 164.521 456.61 162.733 456.62 160.486C456.61 158.644 457.1 157.035 458.09 155.659C459.09 154.282 460.461 153.208 462.204 152.436C463.947 151.664 465.927 151.277 468.145 151.277C470.403 151.277 472.373 151.664 474.056 152.436C475.75 153.208 477.066 154.282 478.007 155.659C478.948 157.035 479.433 158.629 479.463 160.441H473.299Z" fill="white"/>
<path d="M420.986 182.109V151.691H432.987C435.284 151.691 437.244 152.102 438.868 152.924C440.502 153.736 441.745 154.89 442.596 156.385C443.457 157.87 443.888 159.618 443.888 161.628C443.888 163.648 443.453 165.385 442.581 166.841C441.71 168.286 440.447 169.395 438.794 170.168C437.15 170.94 435.16 171.326 432.823 171.326H424.788V166.158H431.784C433.011 166.158 434.031 165.989 434.843 165.653C435.655 165.316 436.259 164.811 436.655 164.138C437.061 163.464 437.264 162.628 437.264 161.628C437.264 160.618 437.061 159.766 436.655 159.073C436.259 158.38 435.65 157.855 434.828 157.499C434.016 157.132 432.992 156.949 431.754 156.949H427.417V182.109H420.986ZM437.413 168.267L444.972 182.109H437.873L430.477 168.267H437.413Z" fill="white"/>
<path d="M387.012 182.109V151.691H407.508V156.994H393.443V164.242H406.453V169.544H393.443V176.807H407.567V182.109H387.012Z" fill="white"/>
<path d="M353.038 182.109V151.691H373.534V156.994H359.469V164.242H372.479V169.544H359.469V176.807H373.593V182.109H353.038Z" fill="white"/>
<path d="M317.225 182.109V151.691H329.226C331.523 151.691 333.484 152.102 335.107 152.924C336.741 153.736 337.984 154.89 338.835 156.385C339.697 157.87 340.127 159.618 340.127 161.628C340.127 163.648 339.692 165.385 338.82 166.841C337.949 168.286 336.687 169.395 335.033 170.168C333.389 170.94 331.399 171.326 329.062 171.326H321.027V166.158H328.023C329.251 166.158 330.27 165.989 331.082 165.653C331.894 165.316 332.498 164.811 332.894 164.138C333.3 163.464 333.503 162.628 333.503 161.628C333.503 160.618 333.3 159.766 332.894 159.073C332.498 158.38 331.889 157.855 331.068 157.499C330.256 157.132 329.231 156.949 327.993 156.949H323.656V182.109H317.225ZM333.652 168.267L341.212 182.109H334.112L326.716 168.267H333.652Z" fill="white"/>
<path d="M282.817 182.109H275.925L286.426 151.691H294.714L305.199 182.109H298.308L290.689 158.642H290.451L282.817 182.109ZM282.386 170.153H298.664V175.173H282.386V170.153Z" fill="white"/>
<path d="M265.169 162.342H258.664C258.545 161.501 258.303 160.753 257.936 160.1C257.57 159.436 257.1 158.872 256.525 158.406C255.951 157.941 255.288 157.585 254.535 157.337C253.792 157.09 252.985 156.966 252.114 156.966C250.54 156.966 249.168 157.357 248 158.139C246.832 158.911 245.926 160.04 245.282 161.525C244.638 163.001 244.317 164.793 244.317 166.902C244.317 169.071 244.638 170.892 245.282 172.368C245.935 173.843 246.846 174.957 248.015 175.71C249.183 176.462 250.535 176.838 252.07 176.838C252.931 176.838 253.728 176.724 254.461 176.497C255.203 176.269 255.862 175.937 256.436 175.502C257.01 175.056 257.486 174.516 257.862 173.883C258.248 173.249 258.515 172.526 258.664 171.714L265.169 171.744C265.001 173.14 264.58 174.487 263.907 175.784C263.243 177.071 262.347 178.225 261.219 179.244C260.1 180.254 258.763 181.056 257.208 181.65C255.664 182.235 253.916 182.527 251.966 182.527C249.253 182.527 246.827 181.913 244.688 180.685C242.559 179.457 240.876 177.68 239.638 175.353C238.41 173.026 237.796 170.209 237.796 166.902C237.796 163.585 238.42 160.763 239.668 158.436C240.915 156.109 242.609 154.337 244.747 153.119C246.886 151.891 249.292 151.277 251.966 151.277C253.728 151.277 255.362 151.525 256.867 152.02C258.382 152.515 259.723 153.238 260.892 154.188C262.06 155.129 263.011 156.283 263.744 157.649C264.486 159.015 264.961 160.58 265.169 162.342Z" fill="white"/>
</svg>
