<svg width="356" height="105" viewBox="0 0 356 105" fill="none" xmlns="http://www.w3.org/2000/svg">
<path opacity="0.6" d="M146.754 3.68359V32.0472H144.233L127.476 8.29546H127.254V32.0472H124.664V3.68359H127.171L143.984 27.4631H144.206V3.68359H146.754Z" fill="#ABACBA"/>
<path opacity="0.6" d="M103.863 3.68359V32.0472H101.273V3.68359H103.863Z" fill="#ABACBA"/>
<path opacity="0.6" d="M81.75 17.8645C81.75 20.8191 81.2237 23.3904 80.1712 25.5787C79.1186 27.7576 77.669 29.4473 75.8224 30.6476C73.9851 31.8386 71.8707 32.4341 69.4794 32.4341C67.0881 32.4341 64.9691 31.8386 63.1225 30.6476C61.2852 29.4473 59.8402 27.7576 58.7876 25.5787C57.7443 23.3904 57.2227 20.8191 57.2227 17.8645C57.2227 14.91 57.7443 12.3432 58.7876 10.1642C59.8402 7.97603 61.2898 6.2864 63.1364 5.09535C64.983 3.89506 67.0973 3.29492 69.4794 3.29492C71.8707 3.29492 73.9851 3.89506 75.8224 5.09535C77.669 6.2864 79.1186 7.97603 80.1712 10.1642C81.2237 12.3432 81.75 14.91 81.75 17.8645ZM79.2294 17.8645C79.2294 15.3255 78.8047 13.1511 77.9553 11.3414C77.1058 9.52255 75.9471 8.13299 74.479 7.17276C73.011 6.21254 71.3445 5.73242 69.4794 5.73242C67.6236 5.73242 65.9617 6.21254 64.4936 7.17276C63.0256 8.13299 61.8622 9.51793 61.0036 11.3276C60.1541 13.1373 59.7294 15.3162 59.7294 17.8645C59.7294 20.4036 60.1541 22.5779 61.0036 24.3876C61.853 26.1973 63.0117 27.5868 64.4798 28.5563C65.9478 29.5165 67.6143 29.9966 69.4794 29.9966C71.3445 29.9966 73.011 29.5165 74.479 28.5563C75.9563 27.5961 77.1197 26.2111 77.9691 24.4015C78.8185 22.5826 79.2386 20.4036 79.2294 17.8645Z" fill="#ABACBA"/>
<path opacity="0.6" d="M35.1126 3.68359H37.7024V24.1392C37.6932 25.9858 37.3608 27.5277 36.7053 28.7649C36.0497 29.9929 35.1449 30.9116 33.9908 31.521C32.8366 32.1303 31.5117 32.435 30.016 32.435C28.5479 32.435 27.2369 32.1626 26.0827 31.6179C24.9286 31.0732 24.0192 30.3068 23.3544 29.3189C22.6989 28.331 22.3711 27.1722 22.3711 25.8427H24.9194C24.9194 26.6829 25.141 27.4261 25.5842 28.0724C26.0273 28.7095 26.6321 29.2081 27.3984 29.5682C28.174 29.9283 29.0465 30.1083 30.016 30.1083C31.0224 30.1083 31.9041 29.896 32.6612 29.4712C33.4276 29.0465 34.0277 28.3956 34.4616 27.5185C34.8956 26.6321 35.1126 25.5057 35.1126 24.1392V3.68359Z" fill="#ABACBA"/>
<path d="M308.829 3.98828L329.183 34.4556H329.436L349.789 3.98828H352.318L330.574 36.3519L352.318 68.7156H349.789L329.436 38.2482H329.183L308.829 68.7156H306.301L328.045 36.3519L306.301 3.98828H308.829Z" fill="white"/>
<path d="M298.25 3.98828H300.273V46.8448C300.273 51.2274 299.251 55.1464 297.207 58.6019C295.185 62.0363 292.424 64.7544 288.927 66.756C285.429 68.7366 281.457 69.7269 277.012 69.7269C272.608 69.7269 268.647 68.7261 265.128 66.7244C261.609 64.7228 258.828 62.0047 256.784 58.5703C254.741 55.1148 253.729 51.2063 253.75 46.8448V3.98828H255.773V46.8448C255.773 50.8481 256.69 54.4195 258.523 57.5589C260.377 60.6984 262.905 63.1741 266.108 64.9862C269.311 66.7982 272.945 67.7042 277.012 67.7042C281.078 67.7042 284.713 66.7982 287.915 64.9862C291.118 63.1741 293.636 60.6984 295.469 57.5589C297.323 54.4195 298.25 50.8481 298.25 46.8448V3.98828Z" fill="white"/>
<path d="M247.903 0.955078L227.044 78.4508H224.895L245.754 0.955078H247.903Z" fill="white"/>
<path d="M218.991 3.98828V68.7156H216.969V3.98828H218.991Z" fill="white"/>
<path d="M201.84 3.98828H203.863V46.8448C203.863 51.2274 202.841 55.1464 200.797 58.6019C198.774 62.0363 196.014 64.7544 192.517 66.756C189.019 68.7366 185.047 69.7269 180.602 69.7269C176.198 69.7269 172.237 68.7261 168.718 66.7244C165.199 64.7228 162.418 62.0047 160.374 58.5703C158.33 55.1148 157.319 51.2063 157.34 46.8448V3.98828H159.363V46.8448C159.363 50.8481 160.279 54.4195 162.113 57.5589C163.967 60.6984 166.495 63.1741 169.698 64.9862C172.9 66.7982 176.535 67.7042 180.602 67.7042C184.668 67.7042 188.303 66.7982 191.505 64.9862C194.708 63.1741 197.226 60.6984 199.059 57.5589C200.913 54.4195 201.84 50.8481 201.84 46.8448V3.98828Z" fill="white"/>
<path opacity="0.6" d="M147.827 42.497L146.901 42.7583C146.81 42.497 146.681 42.2602 146.515 42.0481C146.348 41.836 146.13 41.6674 145.861 41.5424C145.596 41.4174 145.266 41.3549 144.873 41.3549C144.282 41.3549 143.797 41.4951 143.418 41.7754C143.039 42.0557 142.85 42.4174 142.85 42.8606C142.85 43.2356 142.979 43.5405 143.236 43.7754C143.498 44.0065 143.899 44.1902 144.441 44.3265L145.759 44.6504C146.49 44.8284 147.037 45.1106 147.401 45.497C147.768 45.8833 147.952 46.3682 147.952 46.9515C147.952 47.444 147.816 47.8815 147.543 48.264C147.27 48.6466 146.89 48.9477 146.401 49.1674C145.916 49.3833 145.354 49.4913 144.713 49.4913C143.861 49.4913 143.158 49.3 142.605 48.9174C142.052 48.5311 141.698 47.9743 141.543 47.247L142.515 47.0083C142.64 47.5273 142.884 47.9193 143.248 48.1845C143.615 48.4496 144.098 48.5822 144.696 48.5822C145.367 48.5822 145.903 48.4326 146.304 48.1333C146.706 47.8303 146.907 47.4515 146.907 46.997C146.907 46.6447 146.789 46.3493 146.554 46.1106C146.319 45.8682 145.963 45.6902 145.486 45.5765L144.06 45.2356C143.302 45.0538 142.742 44.7659 142.378 44.372C142.015 43.978 141.833 43.4894 141.833 42.9061C141.833 42.425 141.963 42.0027 142.225 41.639C142.486 41.2716 142.846 40.9837 143.304 40.7754C143.763 40.5671 144.285 40.4629 144.873 40.4629C145.672 40.4629 146.31 40.6447 146.787 41.0083C147.268 41.3682 147.615 41.8644 147.827 42.497Z" fill="#ABACBA"/>
<path opacity="0.6" d="M138.343 42.497L137.417 42.7583C137.326 42.497 137.197 42.2602 137.03 42.0481C136.864 41.836 136.646 41.6674 136.377 41.5424C136.112 41.4174 135.782 41.3549 135.388 41.3549C134.797 41.3549 134.312 41.4951 133.934 41.7754C133.555 42.0557 133.365 42.4174 133.365 42.8606C133.365 43.2356 133.494 43.5405 133.752 43.7754C134.013 44.0065 134.415 44.1902 134.956 44.3265L136.275 44.6504C137.006 44.8284 137.553 45.1106 137.917 45.497C138.284 45.8833 138.468 46.3682 138.468 46.9515C138.468 47.444 138.331 47.8815 138.059 48.264C137.786 48.6466 137.405 48.9477 136.917 49.1674C136.432 49.3833 135.869 49.4913 135.229 49.4913C134.377 49.4913 133.674 49.3 133.121 48.9174C132.568 48.5311 132.214 47.9743 132.059 47.247L133.03 47.0083C133.155 47.5273 133.4 47.9193 133.763 48.1845C134.131 48.4496 134.614 48.5822 135.212 48.5822C135.882 48.5822 136.418 48.4326 136.82 48.1333C137.221 47.8303 137.422 47.4515 137.422 46.997C137.422 46.6447 137.305 46.3493 137.07 46.1106C136.835 45.8682 136.479 45.6902 136.002 45.5765L134.576 45.2356C133.818 45.0538 133.257 44.7659 132.894 44.372C132.53 43.978 132.348 43.4894 132.348 42.9061C132.348 42.425 132.479 42.0027 132.74 41.639C133.002 41.2716 133.362 40.9837 133.82 40.7754C134.278 40.5671 134.801 40.4629 135.388 40.4629C136.187 40.4629 136.826 40.6447 137.303 41.0083C137.784 41.3682 138.131 41.8644 138.343 42.497Z" fill="#ABACBA"/>
<path opacity="0.6" d="M124.733 49.5083C124.206 49.5083 123.725 49.4061 123.289 49.2015C122.854 48.9932 122.507 48.694 122.25 48.3038C121.992 47.9099 121.863 47.4326 121.863 46.872C121.863 46.4402 121.945 46.0765 122.108 45.7811C122.27 45.4856 122.502 45.2432 122.801 45.0538C123.1 44.8644 123.454 44.7148 123.863 44.6049C124.272 44.4951 124.723 44.4099 125.216 44.3493C125.704 44.2886 126.117 44.2356 126.454 44.1902C126.795 44.1447 127.055 44.0727 127.233 43.9743C127.411 43.8758 127.5 43.7167 127.5 43.497V43.2924C127.5 42.6977 127.322 42.2299 126.966 41.889C126.613 41.5443 126.106 41.372 125.443 41.372C124.814 41.372 124.301 41.5102 123.903 41.7868C123.509 42.0633 123.233 42.389 123.074 42.764L122.113 42.4174C122.31 41.9402 122.583 41.5595 122.931 41.2754C123.28 40.9875 123.67 40.7811 124.102 40.6561C124.534 40.5273 124.971 40.4629 125.414 40.4629C125.748 40.4629 126.094 40.5065 126.454 40.5936C126.818 40.6807 127.155 40.8322 127.466 41.0481C127.776 41.2602 128.028 41.5576 128.221 41.9402C128.414 42.319 128.511 42.8 128.511 43.3833V49.3095H127.5V47.9288H127.437C127.316 48.1864 127.136 48.4364 126.897 48.6788C126.659 48.9212 126.359 49.1201 126 49.2754C125.64 49.4307 125.217 49.5083 124.733 49.5083ZM124.869 48.5822C125.407 48.5822 125.873 48.4629 126.267 48.2243C126.661 47.9856 126.964 47.6693 127.176 47.2754C127.392 46.8777 127.5 46.4402 127.5 45.9629V44.7015C127.424 44.7735 127.297 44.8379 127.119 44.8947C126.945 44.9515 126.742 45.0027 126.511 45.0481C126.284 45.0898 126.056 45.1258 125.829 45.1561C125.602 45.1864 125.397 45.2129 125.216 45.2356C124.723 45.2962 124.303 45.3909 123.954 45.5197C123.606 45.6485 123.339 45.8265 123.153 46.0538C122.967 46.2773 122.875 46.5652 122.875 46.9174C122.875 47.4477 123.064 47.8587 123.443 48.1504C123.822 48.4383 124.297 48.5822 124.869 48.5822Z" fill="#ABACBA"/>
<path opacity="0.6" d="M118.336 37.6719V49.3082H117.324V37.6719H118.336Z" fill="#ABACBA"/>
<path opacity="0.6" d="M110.549 49.4913C109.769 49.4913 109.089 49.2962 108.51 48.9061C107.934 48.5159 107.487 47.9818 107.169 47.3038C106.851 46.6258 106.691 45.853 106.691 44.9856C106.691 44.1106 106.852 43.3322 107.174 42.6504C107.5 41.9686 107.951 41.4345 108.527 41.0481C109.102 40.658 109.771 40.4629 110.532 40.4629C111.116 40.4629 111.644 40.5765 112.118 40.8038C112.591 41.0273 112.981 41.3436 113.288 41.7527C113.599 42.158 113.794 42.6315 113.873 43.1731H112.851C112.744 42.6807 112.489 42.2602 112.083 41.9118C111.682 41.5595 111.171 41.3833 110.549 41.3833C109.993 41.3833 109.5 41.5349 109.072 41.8379C108.644 42.1371 108.309 42.5557 108.066 43.0936C107.828 43.6277 107.708 44.247 107.708 44.9515C107.708 45.6599 107.826 46.2868 108.061 46.8322C108.296 47.3739 108.625 47.7981 109.049 48.1049C109.477 48.4118 109.977 48.5652 110.549 48.5652C110.936 48.5652 111.288 48.4932 111.606 48.3493C111.928 48.2015 112.197 47.9932 112.413 47.7243C112.633 47.4553 112.78 47.1352 112.856 46.764H113.879C113.803 47.2905 113.616 47.7602 113.316 48.1731C113.021 48.5822 112.636 48.9042 112.163 49.139C111.693 49.3739 111.155 49.4913 110.549 49.4913Z" fill="#ABACBA"/>
<path opacity="0.6" d="M100.422 49.3091V40.5819H101.405V41.9228H101.479C101.653 41.4834 101.956 41.1292 102.388 40.8603C102.823 40.5875 103.316 40.4512 103.865 40.4512C103.948 40.4512 104.041 40.4531 104.143 40.4569C104.246 40.4606 104.331 40.4644 104.399 40.4682V41.4966C104.354 41.4891 104.274 41.4777 104.161 41.4625C104.047 41.4474 103.924 41.4398 103.791 41.4398C103.337 41.4398 102.931 41.5364 102.575 41.7296C102.223 41.919 101.945 42.1822 101.74 42.5194C101.536 42.8565 101.433 43.2409 101.433 43.6728V49.3091H100.422Z" fill="#ABACBA"/>
<path opacity="0.6" d="M93.3757 49.4913C92.5613 49.4913 91.8568 49.3019 91.2621 48.9231C90.6674 48.5405 90.2072 48.0121 89.8814 47.3379C89.5594 46.6599 89.3984 45.8796 89.3984 44.997C89.3984 44.1182 89.5594 43.3379 89.8814 42.6561C90.2072 41.9705 90.656 41.4345 91.228 41.0481C91.8037 40.658 92.4685 40.4629 93.2223 40.4629C93.6958 40.4629 94.1522 40.55 94.5916 40.7243C95.031 40.8947 95.425 41.158 95.7734 41.514C96.1257 41.8663 96.4041 42.3114 96.6087 42.8493C96.8132 43.3833 96.9155 44.0159 96.9155 44.747V45.247H90.0973V44.3549H95.8814C95.8814 43.7943 95.7678 43.2905 95.5405 42.8436C95.317 42.3928 95.0045 42.0368 94.603 41.7754C94.2053 41.514 93.745 41.3833 93.2223 41.3833C92.6693 41.3833 92.1825 41.5311 91.7621 41.8265C91.3416 42.122 91.0121 42.5121 90.7734 42.997C90.5386 43.4818 90.4193 44.0121 90.4155 44.5879V45.122C90.4155 45.8152 90.5348 46.4212 90.7734 46.9402C91.0159 47.4553 91.3587 47.8549 91.8018 48.139C92.245 48.4231 92.7697 48.5652 93.3757 48.5652C93.7886 48.5652 94.1503 48.5008 94.4609 48.372C94.7753 48.2432 95.0386 48.0708 95.2507 47.8549C95.4666 47.6352 95.6295 47.3947 95.7393 47.1333L96.6996 47.4458C96.567 47.8133 96.3492 48.1523 96.0462 48.4629C95.7469 48.7735 95.3719 49.0235 94.9212 49.2129C94.4742 49.3985 93.9591 49.4913 93.3757 49.4913Z" fill="#ABACBA"/>
<path opacity="0.6" d="M86.364 40.5811V41.4618H82.1992V40.5811H86.364ZM83.5004 38.4902H84.5174V47.03C84.5174 47.3936 84.5799 47.6796 84.7049 47.888C84.8299 48.0925 84.9928 48.2383 85.1935 48.3255C85.3943 48.4088 85.6083 48.4505 85.8356 48.4505C85.9682 48.4505 86.0818 48.4429 86.1765 48.4277C86.2712 48.4088 86.3545 48.3899 86.4265 48.3709L86.6424 49.2857C86.5439 49.3236 86.4227 49.3577 86.2788 49.388C86.1348 49.4221 85.9568 49.4391 85.7447 49.4391C85.3735 49.4391 85.0155 49.3577 84.6708 49.1948C84.3299 49.0319 84.0496 48.7895 83.8299 48.4675C83.6102 48.1455 83.5004 47.7459 83.5004 47.2686V38.4902Z" fill="#ABACBA"/>
<path opacity="0.6" d="M79.3036 42.497L78.3775 42.7583C78.2866 42.497 78.1578 42.2602 77.9911 42.0481C77.8245 41.836 77.6067 41.6674 77.3377 41.5424C77.0726 41.4174 76.743 41.3549 76.3491 41.3549C75.7582 41.3549 75.2733 41.4951 74.8945 41.7754C74.5157 42.0557 74.3263 42.4174 74.3263 42.8606C74.3263 43.2356 74.4551 43.5405 74.7127 43.7754C74.9741 44.0065 75.3756 44.1902 75.9173 44.3265L77.2354 44.6504C77.9665 44.8284 78.5139 45.1106 78.8775 45.497C79.2449 45.8833 79.4286 46.3682 79.4286 46.9515C79.4286 47.444 79.2923 47.8815 79.0195 48.264C78.7468 48.6466 78.3661 48.9477 77.8775 49.1674C77.3926 49.3833 76.8301 49.4913 76.19 49.4913C75.3377 49.4913 74.6351 49.3 74.082 48.9174C73.529 48.5311 73.1748 47.9743 73.0195 47.247L73.9911 47.0083C74.1161 47.5273 74.3604 47.9193 74.7241 48.1845C75.0915 48.4496 75.5745 48.5822 76.1729 48.5822C76.8434 48.5822 77.3794 48.4326 77.7809 48.1333C78.1824 47.8303 78.3832 47.4515 78.3832 46.997C78.3832 46.6447 78.2657 46.3493 78.0309 46.1106C77.7961 45.8682 77.44 45.6902 76.9627 45.5765L75.5366 45.2356C74.779 45.0538 74.2184 44.7659 73.8548 44.372C73.4911 43.978 73.3093 43.4894 73.3093 42.9061C73.3093 42.425 73.44 42.0027 73.7014 41.639C73.9627 41.2716 74.3226 40.9837 74.7809 40.7754C75.2392 40.5671 75.762 40.4629 76.3491 40.4629C77.1483 40.4629 77.7866 40.6447 78.2638 41.0083C78.7449 41.3682 79.0915 41.8644 79.3036 42.497Z" fill="#ABACBA"/>
<path opacity="0.6" d="M65.6935 49.5083C65.167 49.5083 64.686 49.4061 64.2504 49.2015C63.8147 48.9932 63.4682 48.694 63.2106 48.3038C62.953 47.9099 62.8242 47.4326 62.8242 46.872C62.8242 46.4402 62.9057 46.0765 63.0685 45.7811C63.2314 45.4856 63.4625 45.2432 63.7617 45.0538C64.061 44.8644 64.4151 44.7148 64.8242 44.6049C65.2333 44.4951 65.6841 44.4099 66.1765 44.3493C66.6651 44.2886 67.078 44.2356 67.4151 44.1902C67.756 44.1447 68.0155 44.0727 68.1935 43.9743C68.3716 43.8758 68.4606 43.7167 68.4606 43.497V43.2924C68.4606 42.6977 68.2826 42.2299 67.9265 41.889C67.5742 41.5443 67.0666 41.372 66.4038 41.372C65.775 41.372 65.2617 41.5102 64.864 41.7868C64.4701 42.0633 64.1935 42.389 64.0344 42.764L63.0742 42.4174C63.2712 41.9402 63.5439 41.5595 63.8924 41.2754C64.2409 40.9875 64.631 40.7811 65.0629 40.6561C65.4947 40.5273 65.9322 40.4629 66.3754 40.4629C66.7087 40.4629 67.0553 40.5065 67.4151 40.5936C67.7788 40.6807 68.1159 40.8322 68.4265 41.0481C68.7371 41.2602 68.989 41.5576 69.1822 41.9402C69.3754 42.319 69.4719 42.8 69.4719 43.3833V49.3095H68.4606V47.9288H68.3981C68.2769 48.1864 68.0969 48.4364 67.8583 48.6788C67.6197 48.9212 67.3204 49.1201 66.9606 49.2754C66.6007 49.4307 66.1784 49.5083 65.6935 49.5083ZM65.8299 48.5822C66.3678 48.5822 66.8337 48.4629 67.2276 48.2243C67.6216 47.9856 67.9246 47.6693 68.1367 47.2754C68.3526 46.8777 68.4606 46.4402 68.4606 45.9629V44.7015C68.3848 44.7735 68.2579 44.8379 68.0799 44.8947C67.9057 44.9515 67.703 45.0027 67.4719 45.0481C67.2447 45.0898 67.0174 45.1258 66.7901 45.1561C66.5629 45.1864 66.3583 45.2129 66.1765 45.2356C65.6841 45.2962 65.2636 45.3909 64.9151 45.5197C64.5666 45.6485 64.2996 45.8265 64.114 46.0538C63.9284 46.2773 63.8356 46.5652 63.8356 46.9174C63.8356 47.4477 64.025 47.8587 64.4038 48.1504C64.7826 48.4383 65.2579 48.5822 65.8299 48.5822Z" fill="#ABACBA"/>
<path opacity="0.6" d="M48.0938 37.6719H49.321L53.5426 47.8082H53.6449L57.8665 37.6719H59.0938V49.3082H58.0938V39.9162H58.0028L54.0767 49.3082H53.1108L49.1847 39.9162H49.0938V49.3082H48.0938V37.6719Z" fill="#ABACBA"/>
<path opacity="0.6" d="M35.1172 49.3091V40.5819H36.1001V41.9228H36.174C36.3482 41.4834 36.6513 41.1292 37.0831 40.8603C37.5187 40.5875 38.0111 40.4512 38.5604 40.4512C38.6437 40.4512 38.7365 40.4531 38.8388 40.4569C38.9411 40.4606 39.0263 40.4644 39.0945 40.4682V41.4966C39.049 41.4891 38.9695 41.4777 38.8558 41.4625C38.7422 41.4474 38.6191 41.4398 38.4865 41.4398C38.032 41.4398 37.6267 41.5364 37.2706 41.7296C36.9183 41.919 36.6399 42.1822 36.4354 42.5194C36.2308 42.8565 36.1285 43.2409 36.1285 43.6728V49.3091H35.1172Z" fill="#ABACBA"/>
<path opacity="0.6" d="M30.1509 45.9738V40.5818H31.1623V49.3091H30.1509V47.8602H30.0714C29.8668 48.3072 29.543 48.6803 29.0998 48.9795C28.6566 49.275 28.1149 49.4227 27.4748 49.4227C26.918 49.4227 26.4237 49.3015 25.9918 49.0591C25.56 48.8128 25.221 48.453 24.9748 47.9795C24.7286 47.506 24.6055 46.9246 24.6055 46.2352V40.5818H25.6168V46.1727C25.6168 46.8545 25.8176 47.4038 26.2191 47.8204C26.6206 48.2333 27.1358 48.4397 27.7646 48.4397C28.1585 48.4397 28.5373 48.345 28.9009 48.1557C29.2646 47.9663 29.5638 47.6897 29.7987 47.3261C30.0335 46.9587 30.1509 46.5079 30.1509 45.9738Z" fill="#ABACBA"/>
<path opacity="0.6" d="M20.9648 43.4909C20.9648 44.7031 20.7489 45.758 20.3171 46.6557C19.8853 47.5497 19.2906 48.2428 18.533 48.7353C17.7792 49.2239 16.9118 49.4682 15.9308 49.4682C14.9497 49.4682 14.0804 49.2239 13.3228 48.7353C12.569 48.2428 11.9762 47.5497 11.5444 46.6557C11.1164 45.758 10.9023 44.7031 10.9023 43.4909C10.9023 42.2788 11.1164 41.2258 11.5444 40.3319C11.9762 39.4341 12.5709 38.7409 13.3285 38.2523C14.0861 37.7599 14.9535 37.5137 15.9308 37.5137C16.9118 37.5137 17.7792 37.7599 18.533 38.2523C19.2906 38.7409 19.8853 39.4341 20.3171 40.3319C20.7489 41.2258 20.9648 42.2788 20.9648 43.4909ZM19.9308 43.4909C19.9308 42.4493 19.7565 41.5572 19.408 40.8148C19.0595 40.0686 18.5842 39.4985 17.9819 39.1046C17.3796 38.7106 16.6959 38.5137 15.9308 38.5137C15.1694 38.5137 14.4876 38.7106 13.8853 39.1046C13.283 39.4985 12.8058 40.0667 12.4535 40.8091C12.105 41.5516 11.9308 42.4455 11.9308 43.4909C11.9308 44.5326 12.105 45.4247 12.4535 46.1671C12.802 46.9095 13.2773 47.4796 13.8796 47.8773C14.4819 48.2712 15.1656 48.4682 15.9308 48.4682C16.6959 48.4682 17.3796 48.2712 17.9819 47.8773C18.588 47.4834 19.0652 46.9152 19.4137 46.1728C19.7622 45.4266 19.9345 44.5326 19.9308 43.4909Z" fill="#ABACBA"/>
<path opacity="0.6" d="M142.351 59.9821V65.4366H141.34V56.7093H142.323V58.0787H142.414C142.618 57.6317 142.936 57.2737 143.368 57.0048C143.804 56.7321 144.342 56.5957 144.982 56.5957C145.569 56.5957 146.084 56.7188 146.527 56.965C146.974 57.2074 147.321 57.5654 147.567 58.0389C147.817 58.5124 147.942 59.0938 147.942 59.7832V65.4366H146.931V59.8457C146.931 59.1298 146.73 58.5635 146.328 58.1468C145.931 57.7302 145.397 57.5218 144.726 57.5218C144.268 57.5218 143.861 57.6203 143.505 57.8173C143.149 58.0143 142.866 58.2984 142.658 58.6696C142.453 59.037 142.351 59.4745 142.351 59.9821Z" fill="#ABACBA"/>
<path opacity="0.6" d="M137.809 65.4357V56.7085H138.826V65.4357H137.809ZM138.326 55.2085C138.118 55.2085 137.94 55.1384 137.792 54.9982C137.644 54.8543 137.57 54.6819 137.57 54.4812C137.57 54.2804 137.644 54.11 137.792 53.9698C137.94 53.8259 138.118 53.7539 138.326 53.7539C138.534 53.7539 138.712 53.8259 138.86 53.9698C139.008 54.11 139.082 54.2804 139.082 54.4812C139.082 54.6819 139.008 54.8543 138.86 54.9982C138.712 55.1384 138.534 55.2085 138.326 55.2085Z" fill="#ABACBA"/>
<path opacity="0.6" d="M127.556 65.6183C126.802 65.6183 126.135 65.427 125.556 65.0444C124.98 64.6618 124.529 64.1334 124.203 63.4592C123.878 62.7811 123.715 61.9989 123.715 61.1126C123.715 60.2186 123.878 59.4326 124.203 58.7546C124.529 58.0728 124.98 57.5425 125.556 57.1637C126.135 56.7811 126.802 56.5898 127.556 56.5898C128.31 56.5898 128.974 56.7811 129.55 57.1637C130.126 57.5463 130.577 58.0766 130.902 58.7546C131.232 59.4326 131.397 60.2186 131.397 61.1126C131.397 61.9989 131.234 62.7811 130.908 63.4592C130.582 64.1334 130.13 64.6618 129.55 65.0444C128.974 65.427 128.31 65.6183 127.556 65.6183ZM127.556 64.6921C128.162 64.6921 128.675 64.5292 129.096 64.2035C129.516 63.8777 129.834 63.444 130.05 62.9023C130.27 62.3607 130.38 61.7641 130.38 61.1126C130.38 60.4611 130.27 59.8626 130.05 59.3171C129.834 58.7717 129.516 58.3342 129.096 58.0046C128.675 57.6751 128.162 57.5103 127.556 57.5103C126.953 57.5103 126.44 57.6751 126.016 58.0046C125.596 58.3342 125.275 58.7717 125.056 59.3171C124.84 59.8626 124.732 60.4611 124.732 61.1126C124.732 61.7641 124.84 62.3607 125.056 62.9023C125.275 63.444 125.596 63.8777 126.016 64.2035C126.436 64.5292 126.95 64.6921 127.556 64.6921Z" fill="#ABACBA"/>
<path opacity="0.6" d="M118.887 65.4361V56.7088H119.87V58.0497H119.944C120.118 57.6103 120.421 57.2562 120.853 56.9872C121.288 56.7145 121.781 56.5781 122.33 56.5781C122.413 56.5781 122.506 56.58 122.608 56.5838C122.711 56.5876 122.796 56.5914 122.864 56.5952V57.6236C122.819 57.616 122.739 57.6046 122.625 57.5895C122.512 57.5743 122.389 57.5668 122.256 57.5668C121.801 57.5668 121.396 57.6634 121.04 57.8565C120.688 58.0459 120.409 58.3092 120.205 58.6463C120 58.9834 119.898 59.3679 119.898 59.7997V65.4361H118.887Z" fill="#ABACBA"/>
<path opacity="0.6" d="M109.453 68.7092V56.7092H110.436V58.3739H110.555C110.677 58.1126 110.843 57.8455 111.055 57.5728C111.268 57.2963 111.548 57.0633 111.896 56.8739C112.249 56.6845 112.692 56.5898 113.226 56.5898C113.946 56.5898 114.574 56.7792 115.112 57.158C115.654 57.533 116.074 58.0595 116.374 58.7376C116.677 59.4118 116.828 60.1978 116.828 61.0955C116.828 61.997 116.677 62.7868 116.374 63.4648C116.074 64.1429 115.654 64.6713 115.112 65.0501C114.574 65.4289 113.949 65.6183 113.237 65.6183C112.711 65.6183 112.269 65.5236 111.913 65.3342C111.561 65.1448 111.275 64.9118 111.055 64.6353C110.839 64.355 110.673 64.0823 110.555 63.8171H110.464V68.7092H109.453ZM110.453 61.0785C110.453 61.783 110.557 62.408 110.766 62.9535C110.978 63.4951 111.281 63.9213 111.675 64.2319C112.072 64.5387 112.554 64.6921 113.118 64.6921C113.697 64.6921 114.186 64.533 114.584 64.2148C114.985 63.8929 115.29 63.4592 115.499 62.9137C115.711 62.3683 115.817 61.7565 115.817 61.0785C115.817 60.408 115.713 59.8039 115.504 59.266C115.3 58.7281 114.997 58.302 114.595 57.9876C114.194 57.6694 113.701 57.5103 113.118 57.5103C112.55 57.5103 112.067 57.6637 111.669 57.9705C111.271 58.2736 110.968 58.694 110.76 59.2319C110.555 59.766 110.453 60.3815 110.453 61.0785Z" fill="#ABACBA"/>
<path opacity="0.6" d="M98.8029 65.6353C98.2764 65.6353 97.7953 65.533 97.3597 65.3285C96.9241 65.1201 96.5775 64.8209 96.32 64.4308C96.0624 64.0368 95.9336 63.5595 95.9336 62.9989C95.9336 62.5671 96.015 62.2035 96.1779 61.908C96.3408 61.6126 96.5719 61.3701 96.8711 61.1808C97.1703 60.9914 97.5245 60.8417 97.9336 60.7319C98.3427 60.622 98.7934 60.5368 99.2859 60.4762C99.7745 60.4156 100.187 60.3626 100.524 60.3171C100.865 60.2717 101.125 60.1997 101.303 60.1012C101.481 60.0027 101.57 59.8436 101.57 59.6239V59.4194C101.57 58.8247 101.392 58.3569 101.036 58.016C100.684 57.6713 100.176 57.4989 99.5131 57.4989C98.8844 57.4989 98.3711 57.6372 97.9734 57.9137C97.5794 58.1902 97.3029 58.516 97.1438 58.891L96.1836 58.5444C96.3806 58.0671 96.6533 57.6864 97.0018 57.4023C97.3503 57.1145 97.7404 56.908 98.1722 56.783C98.604 56.6542 99.0415 56.5898 99.4847 56.5898C99.8181 56.5898 100.165 56.6334 100.524 56.7205C100.888 56.8076 101.225 56.9592 101.536 57.1751C101.846 57.3872 102.098 57.6845 102.292 58.0671C102.485 58.4459 102.581 58.927 102.581 59.5103V65.4364H101.57V64.0558H101.507C101.386 64.3133 101.206 64.5633 100.968 64.8058C100.729 65.0482 100.43 65.247 100.07 65.4023C99.7101 65.5576 99.2878 65.6353 98.8029 65.6353ZM98.9393 64.7092C99.4771 64.7092 99.9431 64.5898 100.337 64.3512C100.731 64.1126 101.034 63.7963 101.246 63.4023C101.462 63.0046 101.57 62.5671 101.57 62.0898V60.8285C101.494 60.9005 101.367 60.9648 101.189 61.0217C101.015 61.0785 100.812 61.1296 100.581 61.1751C100.354 61.2167 100.127 61.2527 99.8995 61.283C99.6722 61.3133 99.4677 61.3398 99.2859 61.3626C98.7934 61.4232 98.373 61.5179 98.0245 61.6467C97.676 61.7754 97.409 61.9535 97.2234 62.1808C97.0378 62.4042 96.945 62.6921 96.945 63.0444C96.945 63.5747 97.1343 63.9857 97.5131 64.2773C97.8919 64.5652 98.3673 64.7092 98.9393 64.7092Z" fill="#ABACBA"/>
<path opacity="0.6" d="M86.4187 65.6183C85.6043 65.6183 84.8997 65.4289 84.305 65.0501C83.7103 64.6675 83.2501 64.1391 82.9244 63.4648C82.6024 62.7868 82.4414 62.0065 82.4414 61.1239C82.4414 60.2451 82.6024 59.4648 82.9244 58.783C83.2501 58.0974 83.699 57.5614 84.271 57.1751C84.8467 56.7849 85.5115 56.5898 86.2653 56.5898C86.7388 56.5898 87.1952 56.677 87.6346 56.8512C88.074 57.0217 88.4679 57.2849 88.8164 57.641C89.1687 57.9933 89.4471 58.4383 89.6516 58.9762C89.8562 59.5103 89.9585 60.1429 89.9585 60.8739V61.3739H83.1403V60.4819H88.9244C88.9244 59.9213 88.8107 59.4175 88.5835 58.9705C88.36 58.5198 88.0475 58.1637 87.646 57.9023C87.2482 57.641 86.788 57.5103 86.2653 57.5103C85.7122 57.5103 85.2255 57.658 84.805 57.9535C84.3846 58.2489 84.055 58.6391 83.8164 59.1239C83.5816 59.6088 83.4622 60.1391 83.4585 60.7148V61.2489C83.4585 61.9421 83.5778 62.5482 83.8164 63.0671C84.0588 63.5823 84.4016 63.9819 84.8448 64.266C85.288 64.5501 85.8126 64.6921 86.4187 64.6921C86.8316 64.6921 87.1933 64.6277 87.5039 64.4989C87.8183 64.3701 88.0816 64.1978 88.2937 63.9819C88.5096 63.7622 88.6725 63.5217 88.7823 63.2603L89.7425 63.5728C89.61 63.9402 89.3922 64.2792 89.0891 64.5898C88.7899 64.9004 88.4149 65.1504 87.9641 65.3398C87.5172 65.5254 87.002 65.6183 86.4187 65.6183Z" fill="#ABACBA"/>
<path opacity="0.6" d="M69.3164 65.4366V56.7093H70.2994V58.0502H70.3903C70.5645 57.5995 70.8543 57.2453 71.2596 56.9877C71.6687 56.7264 72.1592 56.5957 72.7312 56.5957C73.3335 56.5957 73.8278 56.7377 74.2141 57.0218C74.6043 57.3021 74.896 57.6885 75.0891 58.1809H75.163C75.36 57.6961 75.68 57.3116 76.1232 57.0275C76.5702 56.7396 77.1119 56.5957 77.7482 56.5957C78.5588 56.5957 79.199 56.8514 79.6687 57.3627C80.1384 57.8703 80.3732 58.6127 80.3732 59.59V65.4366H79.3619V59.59C79.3619 58.9006 79.1857 58.3836 78.8335 58.0389C78.4812 57.6942 78.0172 57.5218 77.4414 57.5218C76.7747 57.5218 76.2615 57.7264 75.9016 58.1355C75.5418 58.5446 75.3619 59.0635 75.3619 59.6923V65.4366H74.3278V59.4991C74.3278 58.9082 74.163 58.4309 73.8335 58.0673C73.5039 57.7037 73.0399 57.5218 72.4414 57.5218C72.0399 57.5218 71.6781 57.6203 71.3562 57.8173C71.038 58.0143 70.7861 58.2889 70.6005 58.6412C70.4187 58.9896 70.3278 59.3912 70.3278 59.8457V65.4366H69.3164Z" fill="#ABACBA"/>
<path opacity="0.6" d="M63.4151 65.6183C62.6613 65.6183 61.9947 65.427 61.4151 65.0444C60.8394 64.6618 60.3886 64.1334 60.0629 63.4592C59.7371 62.7811 59.5742 61.9989 59.5742 61.1126C59.5742 60.2186 59.7371 59.4326 60.0629 58.7546C60.3886 58.0728 60.8394 57.5425 61.4151 57.1637C61.9947 56.7811 62.6613 56.5898 63.4151 56.5898C64.1689 56.5898 64.8337 56.7811 65.4094 57.1637C65.9852 57.5463 66.436 58.0766 66.7617 58.7546C67.0913 59.4326 67.256 60.2186 67.256 61.1126C67.256 61.9989 67.0932 62.7811 66.7674 63.4592C66.4416 64.1334 65.989 64.6618 65.4094 65.0444C64.8337 65.427 64.1689 65.6183 63.4151 65.6183ZM63.4151 64.6921C64.0212 64.6921 64.5344 64.5292 64.9549 64.2035C65.3754 63.8777 65.6935 63.444 65.9094 62.9023C66.1291 62.3607 66.239 61.7641 66.239 61.1126C66.239 60.4611 66.1291 59.8626 65.9094 59.3171C65.6935 58.7717 65.3754 58.3342 64.9549 58.0046C64.5344 57.6751 64.0212 57.5103 63.4151 57.5103C62.8129 57.5103 62.2996 57.6751 61.8754 58.0046C61.4549 58.3342 61.1348 58.7717 60.9151 59.3171C60.6992 59.8626 60.5913 60.4611 60.5913 61.1126C60.5913 61.7641 60.6992 62.3607 60.9151 62.9023C61.1348 63.444 61.4549 63.8777 61.8754 64.2035C62.2958 64.5292 62.8091 64.6921 63.4151 64.6921Z" fill="#ABACBA"/>
<path opacity="0.6" d="M54.6861 65.6183C53.9058 65.6183 53.2259 65.4232 52.6463 65.033C52.0705 64.6429 51.6236 64.1088 51.3054 63.4308C50.9872 62.7527 50.8281 61.98 50.8281 61.1126C50.8281 60.2376 50.9891 59.4592 51.3111 58.7773C51.6368 58.0955 52.0876 57.5614 52.6634 57.1751C53.2391 56.7849 53.9077 56.5898 54.669 56.5898C55.2524 56.5898 55.7808 56.7035 56.2543 56.9308C56.7277 57.1542 57.1179 57.4705 57.4247 57.8796C57.7353 58.2849 57.9304 58.7584 58.0099 59.3001H56.9872C56.8812 58.8076 56.6255 58.3872 56.2202 58.0387C55.8187 57.6864 55.3073 57.5103 54.6861 57.5103C54.1293 57.5103 53.6368 57.6618 53.2088 57.9648C52.7808 58.2641 52.4455 58.6826 52.2031 59.2205C51.9645 59.7546 51.8452 60.3739 51.8452 61.0785C51.8452 61.7868 51.9626 62.4137 52.1974 62.9592C52.4323 63.5008 52.7618 63.9251 53.1861 64.2319C53.6141 64.5387 54.1141 64.6921 54.6861 64.6921C55.0724 64.6921 55.4247 64.6201 55.7429 64.4762C56.0649 64.3285 56.3338 64.1201 56.5497 63.8512C56.7694 63.5823 56.9171 63.2622 56.9929 62.891H58.0156C57.9399 63.4175 57.7524 63.8872 57.4531 64.3001C57.1577 64.7092 56.7732 65.0311 56.2997 65.266C55.83 65.5008 55.2921 65.6183 54.6861 65.6183Z" fill="#ABACBA"/>
<path opacity="0.6" d="M45.6687 65.6183C44.8543 65.6183 44.1497 65.4289 43.555 65.0501C42.9603 64.6675 42.5001 64.1391 42.1744 63.4648C41.8524 62.7868 41.6914 62.0065 41.6914 61.1239C41.6914 60.2451 41.8524 59.4648 42.1744 58.783C42.5001 58.0974 42.949 57.5614 43.521 57.1751C44.0967 56.7849 44.7615 56.5898 45.5153 56.5898C45.9888 56.5898 46.4452 56.677 46.8846 56.8512C47.324 57.0217 47.7179 57.2849 48.0664 57.641C48.4187 57.9933 48.6971 58.4383 48.9016 58.9762C49.1062 59.5103 49.2085 60.1429 49.2085 60.8739V61.3739H42.3903V60.4819H48.1744C48.1744 59.9213 48.0607 59.4175 47.8335 58.9705C47.61 58.5198 47.2975 58.1637 46.896 57.9023C46.4982 57.641 46.038 57.5103 45.5153 57.5103C44.9622 57.5103 44.4755 57.658 44.055 57.9535C43.6346 58.2489 43.305 58.6391 43.0664 59.1239C42.8316 59.6088 42.7122 60.1391 42.7085 60.7148V61.2489C42.7085 61.9421 42.8278 62.5482 43.0664 63.0671C43.3088 63.5823 43.6516 63.9819 44.0948 64.266C44.538 64.5501 45.0626 64.6921 45.6687 64.6921C46.0816 64.6921 46.4433 64.6277 46.7539 64.4989C47.0683 64.3701 47.3316 64.1978 47.5437 63.9819C47.7596 63.7622 47.9225 63.5217 48.0323 63.2603L48.9925 63.5728C48.86 63.9402 48.6422 64.2792 48.3391 64.5898C48.0399 64.9004 47.6649 65.1504 47.2141 65.3398C46.7672 65.5254 46.252 65.6183 45.6687 65.6183Z" fill="#ABACBA"/>
<path opacity="0.6" d="M32.6992 65.4352V53.7988H33.7163V58.3727H33.8072C33.9208 58.1113 34.0837 57.8424 34.2958 57.5659C34.5117 57.2894 34.7939 57.0583 35.1424 56.8727C35.4947 56.6833 35.9379 56.5886 36.4719 56.5886C37.1879 56.5886 37.8166 56.778 38.3583 57.1568C38.9 57.5318 39.3223 58.0583 39.6254 58.7363C39.9284 59.4106 40.0799 60.1966 40.0799 61.0943C40.0799 61.9958 39.9284 62.7856 39.6254 63.4636C39.3261 64.1416 38.9057 64.67 38.364 65.0488C37.8261 65.4276 37.2011 65.617 36.489 65.617C35.9587 65.617 35.5155 65.5223 35.1594 65.3329C34.8072 65.1435 34.5231 64.9106 34.3072 64.6341C34.0913 64.3538 33.9246 64.081 33.8072 63.8159H33.6822V65.4352H32.6992ZM33.6992 61.0772C33.6992 61.7818 33.8034 62.4068 34.0117 62.9522C34.2238 63.4939 34.5269 63.92 34.9208 64.2306C35.3185 64.5375 35.7996 64.6909 36.364 64.6909C36.9435 64.6909 37.4341 64.5318 37.8356 64.2136C38.2371 63.8916 38.542 63.4579 38.7504 62.9125C38.9587 62.367 39.0629 61.7553 39.0629 61.0772C39.0629 60.4068 38.9587 59.8026 38.7504 59.2647C38.5458 58.7269 38.2428 58.3007 37.8413 57.9863C37.4397 57.6681 36.9473 57.5091 36.364 57.5091C35.7958 57.5091 35.3129 57.6625 34.9151 57.9693C34.5212 58.2723 34.2201 58.6928 34.0117 59.2306C33.8034 59.7647 33.6992 60.3803 33.6992 61.0772Z" fill="#ABACBA"/>
<path opacity="0.6" d="M21.6378 65.617C20.9219 65.617 20.295 65.4276 19.7571 65.0488C19.2192 64.67 18.7988 64.1416 18.4957 63.4636C18.1965 62.7856 18.0469 61.9958 18.0469 61.0943C18.0469 60.1966 18.1965 59.4106 18.4957 58.7363C18.7988 58.0583 19.2211 57.5318 19.7628 57.1568C20.3044 56.778 20.9351 56.5886 21.6548 56.5886C22.1851 56.5886 22.6264 56.6833 22.9787 56.8727C23.331 57.0583 23.6132 57.2894 23.8253 57.5659C24.0374 57.8424 24.2022 58.1113 24.3196 58.3727H24.4105V53.7988H25.4276V65.4352H24.4389V63.8159H24.3196C24.2022 64.081 24.0355 64.3538 23.8196 64.6341C23.6037 64.9106 23.3177 65.1435 22.9616 65.3329C22.6094 65.5223 22.1681 65.617 21.6378 65.617ZM21.7571 64.6909C22.3215 64.6909 22.8026 64.5375 23.2003 64.2306C23.598 63.92 23.901 63.4939 24.1094 62.9522C24.3215 62.4068 24.4276 61.7818 24.4276 61.0772C24.4276 60.3803 24.3234 59.7647 24.1151 59.2306C23.9067 58.6928 23.6037 58.2723 23.206 57.9693C22.8082 57.6625 22.3253 57.5091 21.7571 57.5091C21.1738 57.5091 20.6813 57.6681 20.2798 57.9863C19.8821 58.3007 19.5791 58.7269 19.3707 59.2647C19.1662 59.8026 19.0639 60.4068 19.0639 61.0772C19.0639 61.7553 19.1681 62.367 19.3764 62.9125C19.5848 63.4579 19.8878 63.8916 20.2855 64.2136C20.687 64.5318 21.1776 64.6909 21.7571 64.6909Z" fill="#ABACBA"/>
<path opacity="0.6" d="M10.402 59.9821V65.4366H9.39062V56.7093H10.3736V58.0787H10.4645C10.669 57.6317 10.9872 57.2737 11.419 57.0048C11.8546 56.7321 12.3925 56.5957 13.0327 56.5957C13.6198 56.5957 14.1349 56.7188 14.5781 56.965C15.0251 57.2074 15.3717 57.5654 15.6179 58.0389C15.8679 58.5124 15.9929 59.0938 15.9929 59.7832V65.4366H14.9815V59.8457C14.9815 59.1298 14.7808 58.5635 14.3793 58.1468C13.9815 57.7302 13.4474 57.5218 12.777 57.5218C12.3187 57.5218 11.9115 57.6203 11.5554 57.8173C11.1993 58.0143 10.9171 58.2984 10.7088 58.6696C10.5043 59.037 10.402 59.4745 10.402 59.9821Z" fill="#ABACBA"/>
<path opacity="0.6" d="M3.08026 65.6353C2.55374 65.6353 2.07268 65.533 1.63707 65.3285C1.20147 65.1201 0.854877 64.8209 0.597301 64.4308C0.339725 64.0368 0.210938 63.5595 0.210938 62.9989C0.210938 62.5671 0.292377 62.2035 0.455256 61.908C0.618134 61.6126 0.849195 61.3701 1.14844 61.1808C1.44768 60.9914 1.80185 60.8417 2.21094 60.7319C2.62003 60.622 3.07079 60.5368 3.56321 60.4762C4.05185 60.4156 4.46473 60.3626 4.80185 60.3171C5.14276 60.2717 5.40223 60.1997 5.58026 60.1012C5.75829 60.0027 5.8473 59.8436 5.8473 59.6239V59.4194C5.8473 58.8247 5.66927 58.3569 5.31321 58.016C4.96094 57.6713 4.45336 57.4989 3.79048 57.4989C3.1617 57.4989 2.64844 57.6372 2.25071 57.9137C1.85677 58.1902 1.58026 58.516 1.42116 58.891L0.460938 58.5444C0.657907 58.0671 0.930634 57.6864 1.27912 57.4023C1.6276 57.1145 2.01776 56.908 2.44957 56.783C2.88139 56.6542 3.31889 56.5898 3.76207 56.5898C4.09541 56.5898 4.442 56.6334 4.80185 56.7205C5.16548 56.8076 5.5026 56.9592 5.81321 57.1751C6.12382 57.3872 6.37571 57.6845 6.56889 58.0671C6.76207 58.4459 6.85866 58.927 6.85866 59.5103V65.4364H5.8473V64.0558H5.7848C5.66359 64.3133 5.48366 64.5633 5.24503 64.8058C5.00639 65.0482 4.70715 65.247 4.3473 65.4023C3.98745 65.5576 3.5651 65.6353 3.08026 65.6353ZM3.21662 64.7092C3.7545 64.7092 4.22041 64.5898 4.61435 64.3512C5.00829 64.1126 5.31132 63.7963 5.52344 63.4023C5.73935 63.0046 5.8473 62.5671 5.8473 62.0898V60.8285C5.77154 60.9005 5.64465 60.9648 5.46662 61.0217C5.29238 61.0785 5.08973 61.1296 4.85866 61.1751C4.63139 61.2167 4.40412 61.2527 4.17685 61.283C3.94957 61.3133 3.74503 61.3398 3.56321 61.3626C3.07079 61.4232 2.65033 61.5179 2.30185 61.6467C1.95336 61.7754 1.68632 61.9535 1.50071 62.1808C1.3151 62.4042 1.2223 62.6921 1.2223 63.0444C1.2223 63.5747 1.4117 63.9857 1.79048 64.2773C2.16927 64.5652 2.64465 64.7092 3.21662 64.7092Z" fill="#ABACBA"/>
<path d="M301.008 96.4209H355.632V97.6482H301.008V96.4209Z" fill="#FFD761"/>
<path d="M349.546 89.0445C350.22 89.0445 350.867 89.1574 351.489 89.3833C352.116 89.6091 352.674 89.9692 353.164 90.4635C353.658 90.9579 354.048 91.6141 354.334 92.4323C354.624 93.2462 354.771 94.2455 354.775 95.4302C354.775 96.5424 354.649 97.5353 354.398 98.4088C354.151 99.2782 353.795 100.018 353.33 100.627C352.866 101.236 352.305 101.701 351.649 102.02C350.993 102.336 350.26 102.493 349.45 102.493C348.577 102.493 347.805 102.325 347.136 101.988C346.467 101.647 345.928 101.185 345.519 100.601C345.114 100.013 344.869 99.3527 344.784 98.6198H347.514C347.62 99.0971 347.844 99.4678 348.185 99.732C348.526 99.9919 348.947 100.122 349.45 100.122C350.303 100.122 350.95 99.7512 351.394 99.0097C351.837 98.264 352.06 97.2434 352.065 95.9479H351.975C351.779 96.3314 351.515 96.6617 351.183 96.9387C350.85 97.2114 350.469 97.4223 350.038 97.5715C349.612 97.7206 349.158 97.7952 348.677 97.7952C347.906 97.7952 347.217 97.6141 346.612 97.2519C346.007 96.8897 345.53 96.3911 345.18 95.7562C344.831 95.1212 344.656 94.3968 344.656 93.5829C344.652 92.705 344.854 91.9231 345.264 91.237C345.673 90.5509 346.244 90.014 346.977 89.6262C347.714 89.2341 348.57 89.0402 349.546 89.0445ZM349.565 91.2178C349.135 91.2178 348.751 91.3201 348.415 91.5246C348.082 91.7292 347.818 92.004 347.622 92.3492C347.43 92.6944 347.337 93.08 347.341 93.5062C347.341 93.9365 347.435 94.3243 347.622 94.6695C347.814 95.0104 348.074 95.2831 348.402 95.4877C348.734 95.688 349.114 95.7881 349.54 95.7881C349.859 95.7881 350.156 95.7285 350.428 95.6091C350.701 95.4898 350.938 95.3258 351.138 95.1169C351.342 94.9039 351.502 94.6588 351.617 94.3819C351.732 94.1049 351.79 93.8108 351.79 93.4998C351.786 93.0864 351.688 92.7071 351.496 92.362C351.304 92.0168 351.04 91.7398 350.703 91.531C350.367 91.3222 349.987 91.2178 349.565 91.2178Z" fill="#FFD761"/>
<path d="M334.784 89.0445C335.458 89.0445 336.106 89.1574 336.728 89.3833C337.354 89.6091 337.912 89.9692 338.402 90.4635C338.897 90.9579 339.287 91.6141 339.572 92.4323C339.862 93.2462 340.009 94.2455 340.013 95.4302C340.013 96.5424 339.887 97.5353 339.636 98.4088C339.389 99.2782 339.033 100.018 338.569 100.627C338.104 101.236 337.544 101.701 336.887 102.02C336.231 102.336 335.498 102.493 334.689 102.493C333.815 102.493 333.044 102.325 332.375 101.988C331.706 101.647 331.167 101.185 330.758 100.601C330.353 100.013 330.108 99.3527 330.022 98.6198H332.752C332.858 99.0971 333.082 99.4678 333.423 99.732C333.764 99.9919 334.186 100.122 334.689 100.122C335.541 100.122 336.189 99.7512 336.632 99.0097C337.075 98.264 337.299 97.2434 337.303 95.9479H337.213C337.017 96.3314 336.753 96.6617 336.421 96.9387C336.088 97.2114 335.707 97.4223 335.277 97.5715C334.851 97.7206 334.397 97.7952 333.915 97.7952C333.144 97.7952 332.456 97.6141 331.851 97.2519C331.245 96.8897 330.768 96.3911 330.419 95.7562C330.069 95.1212 329.895 94.3968 329.895 93.5829C329.89 92.705 330.093 91.9231 330.502 91.237C330.911 90.5509 331.482 90.014 332.215 89.6262C332.952 89.2341 333.809 89.0402 334.784 89.0445ZM334.804 91.2178C334.373 91.2178 333.99 91.3201 333.653 91.5246C333.321 91.7292 333.057 92.004 332.86 92.3492C332.669 92.6944 332.575 93.08 332.579 93.5062C332.579 93.9365 332.673 94.3243 332.86 94.6695C333.052 95.0104 333.312 95.2831 333.64 95.4877C333.973 95.688 334.352 95.7881 334.778 95.7881C335.098 95.7881 335.394 95.7285 335.667 95.6091C335.939 95.4898 336.176 95.3258 336.376 95.1169C336.581 94.9039 336.74 94.6588 336.856 94.3819C336.971 94.1049 337.028 93.8108 337.028 93.4998C337.024 93.0864 336.926 92.7071 336.734 92.362C336.542 92.0168 336.278 91.7398 335.941 91.531C335.605 91.3222 335.226 91.2178 334.804 91.2178Z" fill="#FFD761"/>
<path d="M320.023 89.0445C320.696 89.0445 321.344 89.1574 321.966 89.3833C322.592 89.6091 323.151 89.9692 323.641 90.4635C324.135 90.9579 324.525 91.6141 324.81 92.4323C325.1 93.2462 325.247 94.2455 325.251 95.4302C325.251 96.5424 325.126 97.5353 324.874 98.4088C324.627 99.2782 324.271 100.018 323.807 100.627C323.342 101.236 322.782 101.701 322.126 102.02C321.47 102.336 320.737 102.493 319.927 102.493C319.053 102.493 318.282 102.325 317.613 101.988C316.944 101.647 316.405 101.185 315.996 100.601C315.591 100.013 315.346 99.3527 315.261 98.6198H317.99C318.097 99.0971 318.32 99.4678 318.661 99.732C319.002 99.9919 319.424 100.122 319.927 100.122C320.779 100.122 321.427 99.7512 321.87 99.0097C322.313 98.264 322.537 97.2434 322.541 95.9479H322.452C322.256 96.3314 321.992 96.6617 321.659 96.9387C321.327 97.2114 320.945 97.4223 320.515 97.5715C320.089 97.7206 319.635 97.7952 319.153 97.7952C318.382 97.7952 317.694 97.6141 317.089 97.2519C316.484 96.8897 316.006 96.3911 315.657 95.7562C315.308 95.1212 315.133 94.3968 315.133 93.5829C315.129 92.705 315.331 91.9231 315.74 91.237C316.149 90.5509 316.72 90.014 317.453 89.6262C318.19 89.2341 319.047 89.0402 320.023 89.0445ZM320.042 91.2178C319.612 91.2178 319.228 91.3201 318.891 91.5246C318.559 91.7292 318.295 92.004 318.099 92.3492C317.907 92.6944 317.813 93.08 317.818 93.5062C317.818 93.9365 317.911 94.3243 318.099 94.6695C318.291 95.0104 318.55 95.2831 318.879 95.4877C319.211 95.688 319.59 95.7881 320.016 95.7881C320.336 95.7881 320.632 95.7285 320.905 95.6091C321.178 95.4898 321.414 95.3258 321.614 95.1169C321.819 94.9039 321.979 94.6588 322.094 94.3819C322.209 94.1049 322.266 93.8108 322.266 93.4998C322.262 93.0864 322.164 92.7071 321.972 92.362C321.781 92.0168 321.516 91.7398 321.18 91.531C320.843 91.3222 320.464 91.2178 320.042 91.2178Z" fill="#FFD761"/>
<path d="M310.699 92.4707L310.232 94.2477H301.66L302.12 92.4707H310.699ZM306.243 102.314L301.871 97.1113L301.877 95.5133H304.038C304.52 95.5133 304.922 95.4238 305.246 95.2448C305.57 95.0658 305.813 94.8229 305.975 94.5161C306.137 94.2093 306.22 93.8599 306.224 93.4678C306.22 92.8798 306.047 92.4004 305.706 92.0296C305.37 91.6546 304.814 91.4671 304.038 91.4671H301.66L302.184 89.2235H304.038C305.125 89.2235 306.03 89.3876 306.755 89.7157C307.483 90.0396 308.029 90.5019 308.391 91.1028C308.757 91.7036 308.943 92.4195 308.947 93.2505C308.943 93.9877 308.819 94.6312 308.576 95.1809C308.338 95.7306 307.961 96.1887 307.445 96.5552C306.934 96.9217 306.267 97.1944 305.444 97.3734L305.342 97.4117L309.254 102.199V102.314H306.243ZM310.711 89.2235L310.232 91.0261H303.175L303.654 89.2235H310.711Z" fill="#FFD761"/>
<path d="M282.802 94.6887V96.8492H276.832V94.6887H282.802Z" fill="#FFD761"/>
<path d="M272.494 88.6099L268.276 104.283H265.93L270.148 88.6099H272.494Z" fill="#FFD761"/>
<path d="M256.742 89.0445C257.415 89.0445 258.063 89.1574 258.685 89.3833C259.311 89.6091 259.869 89.9692 260.359 90.4635C260.854 90.9579 261.244 91.6141 261.529 92.4323C261.819 93.2462 261.966 94.2455 261.97 95.4302C261.97 96.5424 261.845 97.5353 261.593 98.4088C261.346 99.2782 260.99 100.018 260.526 100.627C260.061 101.236 259.501 101.701 258.845 102.02C258.188 102.336 257.455 102.493 256.646 102.493C255.772 102.493 255.001 102.325 254.332 101.988C253.663 101.647 253.124 101.185 252.715 100.601C252.31 100.013 252.065 99.3527 251.979 98.6198H254.709C254.815 99.0971 255.039 99.4678 255.38 99.732C255.721 99.9919 256.143 100.122 256.646 100.122C257.498 100.122 258.146 99.7512 258.589 99.0097C259.032 98.264 259.256 97.2434 259.26 95.9479H259.171C258.974 96.3314 258.71 96.6617 258.378 96.9387C258.046 97.2114 257.664 97.4223 257.234 97.5715C256.808 97.7206 256.354 97.7952 255.872 97.7952C255.101 97.7952 254.413 97.6141 253.808 97.2519C253.202 96.8897 252.725 96.3911 252.376 95.7562C252.026 95.1212 251.852 94.3968 251.852 93.5829C251.847 92.705 252.05 91.9231 252.459 91.237C252.868 90.5509 253.439 90.014 254.172 89.6262C254.909 89.2341 255.766 89.0402 256.742 89.0445ZM256.761 91.2178C256.33 91.2178 255.947 91.3201 255.61 91.5246C255.278 91.7292 255.014 92.004 254.818 92.3492C254.626 92.6944 254.532 93.08 254.536 93.5062C254.536 93.9365 254.63 94.3243 254.818 94.6695C255.009 95.0104 255.269 95.2831 255.597 95.4877C255.93 95.688 256.309 95.7881 256.735 95.7881C257.055 95.7881 257.351 95.7285 257.624 95.6091C257.896 95.4898 258.133 95.3258 258.333 95.1169C258.538 94.9039 258.698 94.6588 258.813 94.3819C258.928 94.1049 258.985 93.8108 258.985 93.4998C258.981 93.0864 258.883 92.7071 258.691 92.362C258.499 92.0168 258.235 91.7398 257.899 91.531C257.562 91.3222 257.183 91.2178 256.761 91.2178Z" fill="#FFD761"/>
<path d="M236.727 100.013V97.8336L242.192 89.2235H244.071V92.2406H242.959L239.513 97.693V97.7952H247.28V100.013H236.727ZM243.01 102.314V99.3485L243.061 98.3833V89.2235H245.656V102.314H243.01Z" fill="#FFD761"/>
<path d="M227.017 102.493C226.063 102.493 225.213 102.329 224.467 102.001C223.725 101.669 223.14 101.213 222.709 100.633C222.283 100.049 222.064 99.3761 222.051 98.6133H224.838C224.855 98.9329 224.959 99.2142 225.151 99.4571C225.347 99.6957 225.607 99.8811 225.931 100.013C226.255 100.145 226.619 100.211 227.024 100.211C227.446 100.211 227.819 100.137 228.142 99.9876C228.466 99.8385 228.72 99.6318 228.903 99.3676C229.086 99.1034 229.178 98.7987 229.178 98.4535C229.178 98.1041 229.08 97.7951 228.884 97.5267C228.692 97.254 228.415 97.0409 228.053 96.8875C227.695 96.7341 227.269 96.6574 226.775 96.6574H225.554V94.6247H226.775C227.192 94.6247 227.561 94.5522 227.88 94.4074C228.204 94.2625 228.456 94.0622 228.635 93.8065C228.814 93.5466 228.903 93.244 228.903 92.8988C228.903 92.5707 228.824 92.2831 228.667 92.0359C228.513 91.7845 228.296 91.5885 228.015 91.4478C227.738 91.3072 227.414 91.2369 227.043 91.2369C226.668 91.2369 226.325 91.3051 226.014 91.4415C225.703 91.5736 225.453 91.7632 225.266 92.0103C225.078 92.2575 224.978 92.5473 224.966 92.8797H222.313C222.326 92.1254 222.541 91.4606 222.958 90.8853C223.376 90.3101 223.939 89.8605 224.646 89.5366C225.358 89.2085 226.161 89.0444 227.056 89.0444C227.959 89.0444 228.75 89.2085 229.427 89.5366C230.105 89.8647 230.631 90.3079 231.006 90.8662C231.385 91.4201 231.573 92.0423 231.569 92.7326C231.573 93.4656 231.345 94.0771 230.885 94.5672C230.429 95.0572 229.834 95.3683 229.101 95.5004V95.6027C230.064 95.7263 230.797 96.0608 231.3 96.6062C231.807 97.1474 232.059 97.825 232.054 98.6389C232.059 99.3846 231.843 100.047 231.409 100.627C230.978 101.206 230.384 101.662 229.625 101.995C228.867 102.327 227.998 102.493 227.017 102.493Z" fill="#FFD761"/>
<path d="M210.546 92.4707L210.08 94.2477H201.508L201.968 92.4707H210.546ZM206.091 102.314L201.719 97.1113L201.725 95.5133H203.886C204.367 95.5133 204.77 95.4238 205.094 95.2448C205.418 95.0658 205.661 94.8229 205.822 94.5161C205.984 94.2093 206.067 93.8599 206.072 93.4678C206.067 92.8798 205.895 92.4004 205.554 92.0296C205.217 91.6546 204.661 91.4671 203.886 91.4671H201.508L202.032 89.2235H203.886C204.972 89.2235 205.878 89.3876 206.602 89.7157C207.331 90.0396 207.876 90.5019 208.239 91.1028C208.605 91.7036 208.79 92.4195 208.795 93.2505C208.79 93.9877 208.667 94.6312 208.424 95.1809C208.185 95.7306 207.808 96.1887 207.293 96.5552C206.781 96.9217 206.114 97.1944 205.292 97.3734L205.19 97.4117L209.102 102.199V102.314H206.091ZM210.559 89.2235L210.08 91.0261H203.023L203.502 89.2235H210.559Z" fill="#FFD761"/>
<path d="M190.241 92.4962V94.5416H184.328V92.4962H190.241ZM185.67 90.1439H188.393V99.2973C188.393 99.5488 188.432 99.7448 188.509 99.8854C188.585 100.022 188.692 100.118 188.828 100.173C188.969 100.228 189.131 100.256 189.314 100.256C189.442 100.256 189.57 100.245 189.697 100.224C189.825 100.199 189.923 100.179 189.991 100.167L190.42 102.193C190.283 102.236 190.092 102.285 189.844 102.34C189.597 102.4 189.297 102.436 188.943 102.449C188.287 102.474 187.712 102.387 187.217 102.187C186.727 101.986 186.346 101.675 186.073 101.253C185.8 100.831 185.666 100.299 185.67 99.6553V90.1439Z" fill="#FFD761"/>
<path d="M174.498 102.5C173.872 102.5 173.314 102.391 172.824 102.174C172.333 101.952 171.946 101.626 171.66 101.196C171.379 100.761 171.238 100.22 171.238 99.5722C171.238 99.0268 171.338 98.5687 171.539 98.198C171.739 97.8272 172.012 97.5289 172.357 97.3031C172.702 97.0772 173.094 96.9068 173.533 96.7917C173.976 96.6766 174.441 96.5957 174.926 96.5488C175.498 96.4891 175.958 96.4337 176.307 96.3826C176.657 96.3272 176.91 96.2462 177.068 96.1397C177.225 96.0332 177.304 95.8755 177.304 95.6667V95.6284C177.304 95.2235 177.176 94.9103 176.921 94.6887C176.669 94.4671 176.311 94.3563 175.847 94.3563C175.357 94.3563 174.967 94.465 174.677 94.6823C174.387 94.8954 174.196 95.1639 174.102 95.4877L171.583 95.2832C171.711 94.6866 171.963 94.171 172.338 93.7363C172.713 93.2974 173.196 92.9607 173.789 92.7264C174.385 92.4877 175.076 92.3684 175.86 92.3684C176.405 92.3684 176.927 92.4323 177.426 92.5602C177.929 92.688 178.374 92.8862 178.762 93.1546C179.154 93.4231 179.463 93.7683 179.689 94.1901C179.914 94.6078 180.027 95.1085 180.027 95.6923V102.314H177.445V100.953H177.368C177.211 101.26 177 101.53 176.735 101.765C176.471 101.995 176.154 102.176 175.783 102.308C175.412 102.436 174.984 102.5 174.498 102.5ZM175.278 100.621C175.679 100.621 176.032 100.542 176.339 100.384C176.646 100.222 176.887 100.005 177.061 99.732C177.236 99.4593 177.324 99.1504 177.324 98.8052V97.7633C177.238 97.8187 177.121 97.8698 176.972 97.9167C176.827 97.9593 176.663 97.9998 176.48 98.0382C176.297 98.0722 176.113 98.1042 175.93 98.134C175.747 98.1596 175.581 98.183 175.431 98.2043C175.112 98.2512 174.833 98.3258 174.594 98.4281C174.355 98.5303 174.17 98.6688 174.038 98.8436C173.906 99.014 173.84 99.2271 173.84 99.4828C173.84 99.8535 173.974 100.137 174.243 100.333C174.515 100.525 174.86 100.621 175.278 100.621Z" fill="#FFD761"/>
<path d="M148.398 102.314L145.727 92.4962H148.482L150.003 99.0928H150.092L151.678 92.4962H154.381L155.992 99.0545H156.075L157.571 92.4962H160.32L157.654 102.314H154.771L153.084 96.1397H152.962L151.275 102.314H148.398Z" fill="#FFD761"/>
<path d="M137.227 102.506C136.234 102.506 135.375 102.295 134.651 101.873C133.931 101.447 133.375 100.855 132.983 100.096C132.591 99.3336 132.395 98.4494 132.395 97.4437C132.395 96.4295 132.591 95.5431 132.983 94.7846C133.375 94.0218 133.931 93.4295 134.651 93.0076C135.375 92.5815 136.234 92.3684 137.227 92.3684C138.22 92.3684 139.076 92.5815 139.797 93.0076C140.521 93.4295 141.079 94.0218 141.471 94.7846C141.863 95.5431 142.059 96.4295 142.059 97.4437C142.059 98.4494 141.863 99.3336 141.471 100.096C141.079 100.855 140.521 101.447 139.797 101.873C139.076 102.295 138.22 102.506 137.227 102.506ZM137.24 100.397C137.691 100.397 138.069 100.269 138.371 100.013C138.674 99.7534 138.902 99.3997 139.055 98.9522C139.213 98.5048 139.292 97.9955 139.292 97.4245C139.292 96.8535 139.213 96.3443 139.055 95.8968C138.902 95.4494 138.674 95.0957 138.371 94.8357C138.069 94.5758 137.691 94.4458 137.24 94.4458C136.784 94.4458 136.4 94.5758 136.089 94.8357C135.782 95.0957 135.55 95.4494 135.392 95.8968C135.239 96.3443 135.162 96.8535 135.162 97.4245C135.162 97.9955 135.239 98.5048 135.392 98.9522C135.55 99.3997 135.782 99.7534 136.089 100.013C136.4 100.269 136.784 100.397 137.24 100.397Z" fill="#FFD761"/>
<path d="M121.434 96.6383V102.314H118.711V92.4962H121.306V94.2285H121.421C121.638 93.6575 122.003 93.2058 122.514 92.8734C123.026 92.5367 123.646 92.3684 124.374 92.3684C125.056 92.3684 125.651 92.5176 126.158 92.8159C126.665 93.1141 127.059 93.5403 127.34 94.0943C127.621 94.644 127.762 95.3002 127.762 96.063V102.314H125.039V96.5488C125.043 95.948 124.89 95.4792 124.579 95.1426C124.268 94.8016 123.839 94.6312 123.294 94.6312C122.928 94.6312 122.604 94.71 122.322 94.8677C122.045 95.0254 121.828 95.2555 121.67 95.558C121.517 95.8563 121.438 96.2164 121.434 96.6383Z" fill="#FFD761"/>
<path d="M100.776 99.4891L100.782 96.2228H101.179L104.324 92.4962H107.449L103.224 97.4309H102.578L100.776 99.4891ZM98.3086 102.314V89.2235H101.032V102.314H98.3086ZM104.445 102.314L101.556 98.0381L103.371 96.1141L107.635 102.314H104.445Z" fill="#FFD761"/>
<path d="M88.8285 102.506C87.8356 102.506 86.9769 102.295 86.2525 101.873C85.5323 101.447 84.9762 100.855 84.5842 100.096C84.1921 99.3336 83.9961 98.4494 83.9961 97.4437C83.9961 96.4295 84.1921 95.5431 84.5842 94.7846C84.9762 94.0218 85.5323 93.4295 86.2525 93.0076C86.9769 92.5815 87.8356 92.3684 88.8285 92.3684C89.8214 92.3684 90.6779 92.5815 91.3981 93.0076C92.1225 93.4295 92.6808 94.0218 93.0728 94.7846C93.4648 95.5431 93.6609 96.4295 93.6609 97.4437C93.6609 98.4494 93.4648 99.3336 93.0728 100.096C92.6808 100.855 92.1225 101.447 91.3981 101.873C90.6779 102.295 89.8214 102.506 88.8285 102.506ZM88.8413 100.397C89.293 100.397 89.6701 100.269 89.9727 100.013C90.2752 99.7534 90.5032 99.3997 90.6566 98.9522C90.8143 98.5048 90.8931 97.9955 90.8931 97.4245C90.8931 96.8535 90.8143 96.3443 90.6566 95.8968C90.5032 95.4494 90.2752 95.0957 89.9727 94.8357C89.6701 94.5758 89.293 94.4458 88.8413 94.4458C88.3853 94.4458 88.0018 94.5758 87.6907 94.8357C87.3839 95.0957 87.1516 95.4494 86.994 95.8968C86.8406 96.3443 86.7639 96.8535 86.7639 97.4245C86.7639 97.9955 86.8406 98.5048 86.994 98.9522C87.1516 99.3997 87.3839 99.7534 87.6907 100.013C88.0018 100.269 88.3853 100.397 88.8413 100.397Z" fill="#FFD761"/>
<path d="M74.9066 102.506C73.9137 102.506 73.055 102.295 72.3306 101.873C71.6104 101.447 71.0543 100.855 70.6623 100.096C70.2702 99.3336 70.0742 98.4494 70.0742 97.4437C70.0742 96.4295 70.2702 95.5431 70.6623 94.7846C71.0543 94.0218 71.6104 93.4295 72.3306 93.0076C73.055 92.5815 73.9137 92.3684 74.9066 92.3684C75.8995 92.3684 76.756 92.5815 77.4762 93.0076C78.2006 93.4295 78.7589 94.0218 79.1509 94.7846C79.543 95.5431 79.739 96.4295 79.739 97.4437C79.739 98.4494 79.543 99.3336 79.1509 100.096C78.7589 100.855 78.2006 101.447 77.4762 101.873C76.756 102.295 75.8995 102.506 74.9066 102.506ZM74.9194 100.397C75.3711 100.397 75.7482 100.269 76.0508 100.013C76.3533 99.7534 76.5813 99.3997 76.7347 98.9522C76.8924 98.5048 76.9712 97.9955 76.9712 97.4245C76.9712 96.8535 76.8924 96.3443 76.7347 95.8968C76.5813 95.4494 76.3533 95.0957 76.0508 94.8357C75.7482 94.5758 75.3711 94.4458 74.9194 94.4458C74.4634 94.4458 74.0799 94.5758 73.7688 94.8357C73.462 95.0957 73.2298 95.4494 73.0721 95.8968C72.9187 96.3443 72.842 96.8535 72.842 97.4245C72.842 97.9955 72.9187 98.5048 73.0721 98.9522C73.2298 99.3997 73.462 99.7534 73.7688 100.013C74.0799 100.269 74.4634 100.397 74.9194 100.397Z" fill="#FFD761"/>
<path d="M55.7422 102.314V89.2235H60.9837C61.9467 89.2235 62.75 89.3663 63.3935 89.6518C64.0369 89.9373 64.5206 90.3336 64.8445 90.8407C65.1683 91.3435 65.3303 91.9231 65.3303 92.5793C65.3303 93.0907 65.228 93.5403 65.0234 93.9281C64.8189 94.3116 64.5376 94.6269 64.1797 94.8741C63.826 95.117 63.4212 95.2896 62.9652 95.3918V95.5197C63.4638 95.541 63.9304 95.6816 64.3651 95.9416C64.804 96.2015 65.1598 96.5658 65.4325 97.0346C65.7053 97.4991 65.8416 98.0531 65.8416 98.6965C65.8416 99.3911 65.669 100.011 65.3239 100.557C64.983 101.098 64.478 101.526 63.8089 101.841C63.1399 102.157 62.3153 102.314 61.3352 102.314H55.7422ZM58.5099 100.052H60.7663C61.5376 100.052 62.1001 99.9046 62.4538 99.6106C62.8075 99.3123 62.9844 98.916 62.9844 98.4217C62.9844 98.0594 62.897 97.7398 62.7223 97.4629C62.5476 97.1859 62.2983 96.9685 61.9744 96.8109C61.6548 96.6532 61.2734 96.5744 60.8303 96.5744H58.5099V100.052ZM58.5099 94.7015H60.5618C60.9411 94.7015 61.2777 94.6354 61.5717 94.5033C61.87 94.367 62.1044 94.1752 62.2749 93.9281C62.4496 93.6809 62.5369 93.3847 62.5369 93.0396C62.5369 92.5666 62.3686 92.1852 62.032 91.8954C61.6996 91.6056 61.2266 91.4607 60.6129 91.4607H58.5099V94.7015Z" fill="#FFD761"/>
</svg>
