<svg width="309" height="69" viewBox="0 0 309 69" fill="none" xmlns="http://www.w3.org/2000/svg">
<path opacity="0.6" d="M128.36 2.82422V27.651H126.153L111.485 6.861H111.291V27.651H109.024V2.82422H111.219L125.935 23.6385H126.129V2.82422H128.36Z" fill="#ABACBA"/>
<path opacity="0.6" d="M90.817 2.82422V27.651H88.5501V2.82422H90.817Z" fill="#ABACBA"/>
<path opacity="0.6" d="M71.4612 15.2372C71.4612 17.8233 71.0005 20.0741 70.0792 21.9894C69.1579 23.8967 67.8891 25.3756 66.2728 26.4262C64.6645 27.4688 62.8138 27.99 60.7207 27.99C58.6275 27.99 56.7728 27.4688 55.1565 26.4262C53.5482 25.3756 52.2834 23.8967 51.3621 21.9894C50.4489 20.0741 49.9923 17.8233 49.9923 15.2372C49.9923 12.6511 50.4489 10.4044 51.3621 8.49711C52.2834 6.58176 53.5523 5.10282 55.1686 4.06029C56.7849 3.00968 58.6356 2.48438 60.7207 2.48438C62.8138 2.48438 64.6645 3.00968 66.2728 4.06029C67.8891 5.10282 69.1579 6.58176 70.0792 8.49711C71.0005 10.4044 71.4612 12.6511 71.4612 15.2372ZM69.2549 15.2372C69.2549 13.0147 68.8831 11.1115 68.1396 9.52752C67.3961 7.93544 66.3819 6.71915 65.0969 5.87866C63.8119 5.03817 62.3532 4.61793 60.7207 4.61793C59.0963 4.61793 57.6416 5.03817 56.3566 5.87866C55.0716 6.71915 54.0533 7.9314 53.3017 9.5154C52.5582 11.0994 52.1865 13.0067 52.1865 15.2372C52.1865 17.4596 52.5582 19.3629 53.3017 20.9469C54.0452 22.5309 55.0595 23.7472 56.3445 24.5957C57.6294 25.4362 59.0882 25.8565 60.7207 25.8565C62.3532 25.8565 63.8119 25.4362 65.0969 24.5957C66.3899 23.7552 67.4082 22.543 68.1517 20.959C68.8952 19.3669 69.263 17.4596 69.2549 15.2372Z" fill="#ABACBA"/>
<path opacity="0.6" d="M30.6397 2.82422H32.9066V20.7291C32.8985 22.3454 32.6076 23.695 32.0338 24.778C31.46 25.8528 30.668 26.657 29.6578 27.1903C28.6476 27.7237 27.4879 27.9904 26.1786 27.9904C24.8937 27.9904 23.7461 27.752 22.7359 27.2752C21.7257 26.7984 20.9296 26.1276 20.3477 25.2629C19.7739 24.3981 19.487 23.3839 19.487 22.2201H21.7176C21.7176 22.9556 21.9115 23.6061 22.2995 24.1719C22.6874 24.7295 23.2167 25.1659 23.8875 25.4811C24.5664 25.7963 25.3301 25.9539 26.1786 25.9539C27.0595 25.9539 27.8313 25.768 28.494 25.3962C29.1648 25.0245 29.6901 24.4547 30.0699 23.687C30.4498 22.9111 30.6397 21.9252 30.6397 20.7291V2.82422Z" fill="#ABACBA"/>
<path d="M270.221 3.08984L288.037 29.758H288.258L306.074 3.08984H308.287L289.254 31.4178L308.287 59.7458H306.074L288.258 33.0777H288.037L270.221 59.7458H268.008L287.041 31.4178L268.008 3.08984H270.221Z" fill="white"/>
<path d="M260.962 3.08984H262.732V40.6023C262.732 44.4384 261.838 47.8687 260.049 50.8933C258.278 53.8995 255.862 56.2786 252.801 58.0307C249.739 59.7643 246.263 60.6311 242.371 60.6311C238.517 60.6311 235.05 59.7551 231.97 58.003C228.89 56.2509 226.455 53.8718 224.666 50.8657C222.877 47.8411 221.992 44.4199 222.011 40.6023V3.08984H223.781V40.6023C223.781 44.1064 224.583 47.2325 226.188 49.9804C227.811 52.7284 230.024 54.8954 232.827 56.4815C235.631 58.0675 238.812 58.8606 242.371 58.8606C245.931 58.8606 249.112 58.0675 251.915 56.4815C254.719 54.8954 256.923 52.7284 258.527 49.9804C260.15 47.2325 260.962 44.1064 260.962 40.6023V3.08984Z" fill="white"/>
<path d="M216.893 0.435547L198.635 68.2678H196.754L215.012 0.435547H216.893Z" fill="white"/>
<path d="M191.589 3.08984V59.7458H189.818V3.08984H191.589Z" fill="white"/>
<path d="M176.575 3.08984H178.345V40.6023C178.345 44.4384 177.451 47.8687 175.662 50.8933C173.891 53.8995 171.475 56.2786 168.414 58.0307C165.352 59.7643 161.876 60.6311 157.984 60.6311C154.13 60.6311 150.663 59.7551 147.583 58.003C144.503 56.2509 142.068 53.8718 140.279 50.8657C138.491 47.8411 137.605 44.4199 137.624 40.6023V3.08984H139.394V40.6023C139.394 44.1064 140.196 47.2325 141.801 49.9804C143.424 52.7284 145.637 54.8954 148.44 56.4815C151.244 58.0675 154.425 58.8606 157.984 58.8606C161.544 58.8606 164.725 58.0675 167.529 56.4815C170.332 54.8954 172.536 52.7284 174.14 49.9804C175.763 47.2325 176.575 44.1064 176.575 40.6023V3.08984Z" fill="white"/>
<path opacity="0.6" d="M129.297 36.798L128.487 37.0268C128.407 36.798 128.294 36.5908 128.149 36.4051C128.003 36.2195 127.812 36.0719 127.577 35.9625C127.345 35.8531 127.056 35.7984 126.711 35.7984C126.194 35.7984 125.77 35.9211 125.438 36.1664C125.107 36.4118 124.941 36.7284 124.941 37.1163C124.941 37.4446 125.053 37.7115 125.279 37.917C125.508 38.1193 125.859 38.2801 126.333 38.3994L127.487 38.6829C128.127 38.8387 128.606 39.0857 128.924 39.4239C129.246 39.7621 129.407 40.1865 129.407 40.6971C129.407 41.1281 129.287 41.5111 129.049 41.8459C128.81 42.1808 128.477 42.4444 128.049 42.6367C127.625 42.8257 127.132 42.9202 126.572 42.9202C125.826 42.9202 125.211 42.7527 124.727 42.4179C124.243 42.0797 123.933 41.5923 123.797 40.9557L124.647 40.7468C124.757 41.2011 124.971 41.5442 125.289 41.7763C125.61 42.0084 126.033 42.1244 126.557 42.1244C127.144 42.1244 127.613 41.9935 127.965 41.7316C128.316 41.4663 128.492 41.1348 128.492 40.7369C128.492 40.4285 128.389 40.1699 128.183 39.9611C127.978 39.7489 127.666 39.593 127.248 39.4936L126 39.1952C125.337 39.036 124.846 38.784 124.528 38.4392C124.21 38.0944 124.051 37.6667 124.051 37.1561C124.051 36.735 124.165 36.3653 124.394 36.0471C124.622 35.7254 124.937 35.4735 125.339 35.2911C125.74 35.1088 126.197 35.0176 126.711 35.0176C127.411 35.0176 127.969 35.1767 128.387 35.495C128.808 35.81 129.112 36.2443 129.297 36.798Z" fill="#ABACBA"/>
<path opacity="0.6" d="M120.997 36.798L120.186 37.0268C120.106 36.798 119.994 36.5908 119.848 36.4051C119.702 36.2195 119.511 36.0719 119.276 35.9625C119.044 35.8531 118.755 35.7984 118.41 35.7984C117.893 35.7984 117.469 35.9211 117.137 36.1664C116.806 36.4118 116.64 36.7284 116.64 37.1163C116.64 37.4446 116.753 37.7115 116.978 37.917C117.207 38.1193 117.558 38.2801 118.032 38.3994L119.186 38.6829C119.826 38.8387 120.305 39.0857 120.624 39.4239C120.945 39.7621 121.106 40.1865 121.106 40.6971C121.106 41.1281 120.987 41.5111 120.748 41.8459C120.509 42.1808 120.176 42.4444 119.748 42.6367C119.324 42.8257 118.831 42.9202 118.271 42.9202C117.525 42.9202 116.91 42.7527 116.426 42.4179C115.942 42.0797 115.632 41.5923 115.496 40.9557L116.346 40.7468C116.456 41.2011 116.67 41.5442 116.988 41.7763C117.31 42.0084 117.732 42.1244 118.256 42.1244C118.843 42.1244 119.312 41.9935 119.664 41.7316C120.015 41.4663 120.191 41.1348 120.191 40.7369C120.191 40.4285 120.088 40.1699 119.883 39.9611C119.677 39.7489 119.365 39.593 118.948 39.4936L117.699 39.1952C117.036 39.036 116.545 38.784 116.227 38.4392C115.909 38.0944 115.75 37.6667 115.75 37.1561C115.75 36.735 115.864 36.3653 116.093 36.0471C116.322 35.7254 116.637 35.4735 117.038 35.2911C117.439 35.1088 117.896 35.0176 118.41 35.0176C119.11 35.0176 119.669 35.1767 120.086 35.495C120.507 35.81 120.811 36.2443 120.997 36.798Z" fill="#ABACBA"/>
<path opacity="0.6" d="M109.081 42.9351C108.621 42.9351 108.2 42.8456 107.818 42.6665C107.437 42.4842 107.134 42.2223 106.908 41.8808C106.683 41.5359 106.57 41.1182 106.57 40.6275C106.57 40.2495 106.641 39.9312 106.784 39.6726C106.926 39.414 107.129 39.2018 107.391 39.036C107.652 38.8702 107.962 38.7393 108.321 38.6431C108.679 38.547 109.073 38.4724 109.504 38.4193C109.932 38.3663 110.293 38.3199 110.588 38.2801C110.887 38.2403 111.114 38.1773 111.27 38.0911C111.426 38.0049 111.503 37.8656 111.503 37.6733V37.4943C111.503 36.9737 111.348 36.5643 111.036 36.2659C110.728 35.9642 110.283 35.8133 109.703 35.8133C109.153 35.8133 108.703 35.9343 108.355 36.1764C108.011 36.4184 107.768 36.7035 107.629 37.0318L106.789 36.7284C106.961 36.3106 107.2 35.9774 107.505 35.7288C107.81 35.4768 108.151 35.2961 108.529 35.1867C108.907 35.0739 109.29 35.0176 109.678 35.0176C109.97 35.0176 110.273 35.0557 110.588 35.132C110.907 35.2082 111.202 35.3408 111.474 35.5298C111.745 35.7155 111.966 35.9758 112.135 36.3106C112.304 36.6422 112.389 37.0633 112.389 37.5739V42.761H111.503V41.5525H111.449C111.343 41.778 111.185 41.9968 110.976 42.209C110.767 42.4212 110.505 42.5953 110.19 42.7312C109.876 42.8671 109.506 42.9351 109.081 42.9351ZM109.201 42.1244C109.672 42.1244 110.079 42.02 110.424 41.8111C110.769 41.6022 111.034 41.3254 111.22 40.9806C111.409 40.6324 111.503 40.2495 111.503 39.8317V38.7277C111.437 38.7907 111.326 38.847 111.17 38.8968C111.018 38.9465 110.84 38.9913 110.638 39.031C110.439 39.0675 110.24 39.099 110.041 39.1255C109.842 39.1521 109.663 39.1753 109.504 39.1952C109.073 39.2482 108.705 39.3311 108.4 39.4438C108.095 39.5566 107.861 39.7124 107.699 39.9113C107.536 40.1069 107.455 40.3589 107.455 40.6673C107.455 41.1314 107.621 41.4912 107.952 41.7465C108.284 41.9985 108.7 42.1244 109.201 42.1244Z" fill="#ABACBA"/>
<path opacity="0.6" d="M103.485 32.5742V42.7596H102.6V32.5742H103.485Z" fill="#ABACBA"/>
<path opacity="0.6" d="M96.6681 42.9202C95.9851 42.9202 95.3899 42.7494 94.8827 42.4079C94.3787 42.0664 93.9875 41.5989 93.709 41.0054C93.4305 40.412 93.2912 39.7356 93.2912 38.9763C93.2912 38.2104 93.4321 37.5291 93.7139 36.9323C93.9991 36.3355 94.3936 35.868 94.8976 35.5298C95.4015 35.1883 95.9867 35.0176 96.6532 35.0176C97.1638 35.0176 97.6263 35.117 98.0407 35.316C98.4552 35.5116 98.7967 35.7884 99.0652 36.1465C99.3371 36.5013 99.5079 36.9157 99.5775 37.3898H98.6823C98.5894 36.9588 98.3656 36.5908 98.0109 36.2858C97.6594 35.9774 97.2118 35.8233 96.6681 35.8233C96.1807 35.8233 95.7497 35.9559 95.375 36.2211C95.0004 36.483 94.7069 36.8494 94.4947 37.3202C94.2859 37.7877 94.1814 38.3298 94.1814 38.9465C94.1814 39.5665 94.2842 40.1152 94.4898 40.5927C94.6953 41.0668 94.9838 41.4381 95.3551 41.7067C95.7298 41.9752 96.1674 42.1095 96.6681 42.1095C97.0063 42.1095 97.3146 42.0465 97.5931 41.9205C97.8749 41.7912 98.1104 41.6089 98.2993 41.3735C98.4916 41.1381 98.6209 40.8579 98.6873 40.533H99.5825C99.5161 40.9938 99.352 41.405 99.0901 41.7664C98.8315 42.1244 98.495 42.4063 98.0805 42.6118C97.6694 42.8174 97.1986 42.9202 96.6681 42.9202Z" fill="#ABACBA"/>
<path opacity="0.6" d="M87.8039 42.7593V35.1202H88.6643V36.2939H88.7289C88.8814 35.9093 89.1467 35.5993 89.5247 35.3639C89.906 35.1252 90.337 35.0059 90.8177 35.0059C90.8907 35.0059 90.9719 35.0075 91.0614 35.0108C91.1509 35.0141 91.2255 35.0175 91.2852 35.0208V35.9209C91.2454 35.9143 91.1758 35.9044 91.0763 35.8911C90.9769 35.8778 90.8691 35.8712 90.7531 35.8712C90.3552 35.8712 90.0004 35.9558 89.6888 36.1249C89.3804 36.2906 89.1367 36.5211 88.9577 36.8161C88.7787 37.1112 88.6891 37.4478 88.6891 37.8257V42.7593H87.8039Z" fill="#ABACBA"/>
<path opacity="0.6" d="M81.6347 42.9202C80.9218 42.9202 80.3051 42.7544 79.7846 42.4228C79.264 42.088 78.8612 41.6255 78.5761 41.0353C78.2942 40.4418 78.1533 39.7588 78.1533 38.9863C78.1533 38.2171 78.2942 37.5341 78.5761 36.9373C78.8612 36.3372 79.2541 35.868 79.7547 35.5298C80.2587 35.1883 80.8406 35.0176 81.5004 35.0176C81.9148 35.0176 82.3143 35.0938 82.6989 35.2464C83.0835 35.3955 83.4284 35.626 83.7334 35.9376C84.0417 36.246 84.2854 36.6356 84.4645 37.1064C84.6435 37.5739 84.733 38.1276 84.733 38.7675V39.2051H78.7651V38.4243H83.8279C83.8279 37.9336 83.7284 37.4926 83.5295 37.1014C83.3339 36.7068 83.0603 36.3952 82.7089 36.1664C82.3608 35.9376 81.9579 35.8233 81.5004 35.8233C81.0163 35.8233 80.5903 35.9526 80.2222 36.2112C79.8542 36.4698 79.5658 36.8113 79.3569 37.2357C79.1513 37.6601 79.0469 38.1242 79.0436 38.6282V39.0957C79.0436 39.7024 79.148 40.2329 79.3569 40.6872C79.5691 41.1381 79.8691 41.4879 80.257 41.7365C80.645 41.9852 81.1042 42.1095 81.6347 42.1095C81.9961 42.1095 82.3127 42.0532 82.5846 41.9404C82.8597 41.8277 83.0902 41.6768 83.2759 41.4879C83.4648 41.2956 83.6074 41.085 83.7036 40.8562L84.544 41.1298C84.428 41.4514 84.2374 41.7481 83.9721 42.02C83.7102 42.2919 83.3819 42.5107 82.9874 42.6765C82.5962 42.8389 82.1453 42.9202 81.6347 42.9202Z" fill="#ABACBA"/>
<path opacity="0.6" d="M75.4973 35.1212V35.8921H71.8518V35.1212H75.4973ZM72.9907 33.291H73.881V40.7659C73.881 41.0842 73.9357 41.3345 74.0451 41.5169C74.1545 41.6959 74.297 41.8236 74.4728 41.8998C74.6485 41.9728 74.8358 42.0092 75.0348 42.0092C75.1508 42.0092 75.2503 42.0026 75.3332 41.9893C75.416 41.9728 75.489 41.9562 75.552 41.9396L75.741 42.7403C75.6548 42.7735 75.5487 42.8033 75.4227 42.8298C75.2967 42.8597 75.1409 42.8746 74.9552 42.8746C74.6303 42.8746 74.3169 42.8033 74.0152 42.6607C73.7168 42.5182 73.4715 42.306 73.2792 42.0242C73.0869 41.7423 72.9907 41.3925 72.9907 40.9748V33.291Z" fill="#ABACBA"/>
<path opacity="0.6" d="M69.3203 36.798L68.5097 37.0268C68.4301 36.798 68.3174 36.5908 68.1715 36.4051C68.0256 36.2195 67.8349 36.0719 67.5995 35.9625C67.3675 35.8531 67.079 35.7984 66.7342 35.7984C66.217 35.7984 65.7926 35.9211 65.461 36.1664C65.1295 36.4118 64.9637 36.7284 64.9637 37.1163C64.9637 37.4446 65.0764 37.7115 65.3019 37.917C65.5306 38.1193 65.8821 38.2801 66.3562 38.3994L67.51 38.6829C68.1499 38.8387 68.629 39.0857 68.9473 39.4239C69.2689 39.7621 69.4297 40.1865 69.4297 40.6971C69.4297 41.1281 69.3104 41.5111 69.0716 41.8459C68.8329 42.1808 68.4997 42.4444 68.072 42.6367C67.6476 42.8257 67.1553 42.9202 66.5949 42.9202C65.8489 42.9202 65.2339 42.7527 64.7498 42.4179C64.2658 42.0797 63.9558 41.5923 63.8198 40.9557L64.6703 40.7468C64.7797 41.2011 64.9935 41.5442 65.3118 41.7763C65.6334 42.0084 66.0562 42.1244 66.58 42.1244C67.1669 42.1244 67.636 41.9935 67.9875 41.7316C68.3389 41.4663 68.5146 41.1348 68.5146 40.7369C68.5146 40.4285 68.4119 40.1699 68.2063 39.9611C68.0007 39.7489 67.6891 39.593 67.2713 39.4936L66.023 39.1952C65.3599 39.036 64.8692 38.784 64.5509 38.4392C64.2326 38.0944 64.0735 37.6667 64.0735 37.1561C64.0735 36.735 64.1878 36.3653 64.4166 36.0471C64.6454 35.7254 64.9604 35.4735 65.3616 35.2911C65.7627 35.1088 66.2203 35.0176 66.7342 35.0176C67.4338 35.0176 67.9924 35.1767 68.4102 35.495C68.8313 35.81 69.1346 36.2443 69.3203 36.798Z" fill="#ABACBA"/>
<path opacity="0.6" d="M57.4052 42.9351C56.9444 42.9351 56.5233 42.8456 56.142 42.6665C55.7607 42.4842 55.4573 42.2223 55.2319 41.8808C55.0064 41.5359 54.8937 41.1182 54.8937 40.6275C54.8937 40.2495 54.965 39.9312 55.1075 39.6726C55.2501 39.414 55.4524 39.2018 55.7143 39.036C55.9762 38.8702 56.2862 38.7393 56.6443 38.6431C57.0024 38.547 57.3969 38.4724 57.8279 38.4193C58.2557 38.3663 58.617 38.3199 58.9121 38.2801C59.2105 38.2403 59.4376 38.1773 59.5935 38.0911C59.7493 38.0049 59.8272 37.8656 59.8272 37.6733V37.4943C59.8272 36.9737 59.6714 36.5643 59.3597 36.2659C59.0514 35.9642 58.6071 35.8133 58.0269 35.8133C57.4765 35.8133 57.0272 35.9343 56.6791 36.1764C56.3343 36.4184 56.0923 36.7035 55.953 37.0318L55.1125 36.7284C55.2849 36.3106 55.5236 35.9774 55.8287 35.7288C56.1337 35.4768 56.4752 35.2961 56.8532 35.1867C57.2311 35.0739 57.6141 35.0176 58.002 35.0176C58.2938 35.0176 58.5972 35.0557 58.9121 35.132C59.2304 35.2082 59.5255 35.3408 59.7974 35.5298C60.0693 35.7155 60.2897 35.9758 60.4588 36.3106C60.6279 36.6422 60.7125 37.0633 60.7125 37.5739V42.761H59.8272V41.5525H59.7725C59.6664 41.778 59.5089 41.9968 59.3 42.209C59.0912 42.4212 58.8292 42.5953 58.5143 42.7312C58.1993 42.8671 57.8296 42.9351 57.4052 42.9351ZM57.5246 42.1244C57.9954 42.1244 58.4032 42.02 58.748 41.8111C59.0928 41.6022 59.3581 41.3254 59.5437 40.9806C59.7327 40.6324 59.8272 40.2495 59.8272 39.8317V38.7277C59.7609 38.7907 59.6498 38.847 59.494 38.8968C59.3415 38.9465 59.1641 38.9913 58.9619 39.031C58.7629 39.0675 58.564 39.099 58.3651 39.1255C58.1661 39.1521 57.9871 39.1753 57.8279 39.1952C57.3969 39.2482 57.0289 39.3311 56.7239 39.4438C56.4188 39.5566 56.1851 39.7124 56.0226 39.9113C55.8602 40.1069 55.7789 40.3589 55.7789 40.6673C55.7789 41.1314 55.9447 41.4912 56.2763 41.7465C56.6078 41.9985 57.0239 42.1244 57.5246 42.1244Z" fill="#ABACBA"/>
<path opacity="0.6" d="M41.9992 32.5742H43.0734L46.7686 41.4466H46.8581L50.5533 32.5742H51.6275V42.7596H50.7522V34.5387H50.6727L47.2361 42.7596H46.3906L42.9541 34.5387H42.8745V42.7596H41.9992V32.5742Z" fill="#ABACBA"/>
<path opacity="0.6" d="M30.6435 42.7593V35.1202H31.5039V36.2939H31.5685C31.7211 35.9093 31.9863 35.5993 32.3643 35.3639C32.7456 35.1252 33.1766 35.0059 33.6573 35.0059C33.7303 35.0059 33.8115 35.0075 33.901 35.0108C33.9906 35.0141 34.0652 35.0175 34.1248 35.0208V35.9209C34.085 35.9143 34.0154 35.9044 33.916 35.8911C33.8165 35.8778 33.7087 35.8712 33.5927 35.8712C33.1948 35.8712 32.8401 35.9558 32.5284 36.1249C32.2201 36.2906 31.9764 36.5211 31.7973 36.8161C31.6183 37.1112 31.5288 37.4478 31.5288 37.8257V42.7593H30.6435Z" fill="#ABACBA"/>
<path opacity="0.6" d="M26.2942 39.8408V35.1211H27.1795V42.7601H26.2942V41.4919H26.2246C26.0456 41.8831 25.7621 42.2097 25.3742 42.4717C24.9862 42.7303 24.5121 42.8596 23.9518 42.8596C23.4644 42.8596 23.0317 42.7535 22.6538 42.5413C22.2758 42.3258 21.979 42.0108 21.7635 41.5963C21.548 41.1819 21.4403 40.673 21.4403 40.0695V35.1211H22.3255V40.0148C22.3255 40.6116 22.5012 41.0924 22.8527 41.4571C23.2041 41.8185 23.6551 41.9992 24.2054 41.9992C24.5503 41.9992 24.8818 41.9163 25.2001 41.7505C25.5184 41.5847 25.7803 41.3427 25.9859 41.0244C26.1914 40.7028 26.2942 40.3083 26.2942 39.8408Z" fill="#ABACBA"/>
<path opacity="0.6" d="M18.2547 37.6675C18.2547 38.7284 18.0657 39.6518 17.6877 40.4376C17.3098 41.2201 16.7892 41.8268 16.1261 42.2578C15.4663 42.6855 14.7071 42.8994 13.8483 42.8994C12.9896 42.8994 12.2287 42.6855 11.5656 42.2578C10.9058 41.8268 10.3869 41.2201 10.0089 40.4376C9.63428 39.6518 9.44695 38.7284 9.44695 37.6675C9.44695 36.6065 9.63428 35.6848 10.0089 34.9023C10.3869 34.1165 10.9074 33.5098 11.5706 33.0821C12.2337 32.6511 12.9929 32.4355 13.8483 32.4355C14.7071 32.4355 15.4663 32.6511 16.1261 33.0821C16.7892 33.5098 17.3098 34.1165 17.6877 34.9023C18.0657 35.6848 18.2547 36.6065 18.2547 37.6675ZM17.3495 37.6675C17.3495 36.7557 17.197 35.9749 16.892 35.325C16.587 34.6719 16.1709 34.1729 15.6437 33.8281C15.1165 33.4833 14.5181 33.3109 13.8483 33.3109C13.1819 33.3109 12.5851 33.4833 12.0579 33.8281C11.5308 34.1729 11.113 34.6702 10.8047 35.3201C10.4996 35.9699 10.3471 36.7524 10.3471 37.6675C10.3471 38.5792 10.4996 39.3601 10.8047 40.0099C11.1097 40.6597 11.5258 41.1587 12.053 41.5069C12.5801 41.8517 13.1786 42.0241 13.8483 42.0241C14.5181 42.0241 15.1165 41.8517 15.6437 41.5069C16.1742 41.1621 16.5919 40.6647 16.897 40.0149C17.202 39.3617 17.3529 38.5792 17.3495 37.6675Z" fill="#ABACBA"/>
<path opacity="0.6" d="M124.506 52.1008V56.8752H123.621V49.2362H124.481V50.4348H124.561C124.74 50.0435 125.018 49.7302 125.396 49.4948C125.778 49.2561 126.248 49.1367 126.809 49.1367C127.323 49.1367 127.774 49.2445 128.161 49.46C128.553 49.6722 128.856 49.9855 129.072 50.3999C129.29 50.8144 129.4 51.3233 129.4 51.9267V56.8752H128.515V51.9815C128.515 51.3548 128.339 50.8591 127.987 50.4944C127.639 50.1297 127.172 49.9474 126.585 49.9474C126.184 49.9474 125.827 50.0336 125.516 50.206C125.204 50.3784 124.957 50.6271 124.775 50.952C124.596 51.2736 124.506 51.6565 124.506 52.1008Z" fill="#ABACBA"/>
<path opacity="0.6" d="M120.529 56.8755V49.2365H121.42V56.8755H120.529ZM120.982 47.9236C120.8 47.9236 120.644 47.8622 120.514 47.7395C120.385 47.6136 120.32 47.4627 120.32 47.287C120.32 47.1113 120.385 46.9621 120.514 46.8394C120.644 46.7134 120.8 46.6504 120.982 46.6504C121.164 46.6504 121.32 46.7134 121.449 46.8394C121.579 46.9621 121.643 47.1113 121.643 47.287C121.643 47.4627 121.579 47.6136 121.449 47.7395C121.32 47.8622 121.164 47.9236 120.982 47.9236Z" fill="#ABACBA"/>
<path opacity="0.6" d="M111.555 57.0354C110.895 57.0354 110.312 56.868 109.805 56.5331C109.301 56.1982 108.906 55.7357 108.621 55.1455C108.336 54.5521 108.193 53.8674 108.193 53.0916C108.193 52.3091 108.336 51.6211 108.621 51.0276C108.906 50.4308 109.301 49.9667 109.805 49.6351C110.312 49.3002 110.895 49.1328 111.555 49.1328C112.215 49.1328 112.797 49.3002 113.301 49.6351C113.805 49.97 114.199 50.4342 114.484 51.0276C114.773 51.6211 114.917 52.3091 114.917 53.0916C114.917 53.8674 114.775 54.5521 114.489 55.1455C114.204 55.7357 113.808 56.1982 113.301 56.5331C112.797 56.868 112.215 57.0354 111.555 57.0354ZM111.555 56.2248C112.086 56.2248 112.535 56.0822 112.903 55.7971C113.271 55.5119 113.549 55.1323 113.738 54.6582C113.931 54.184 114.027 53.6618 114.027 53.0916C114.027 52.5213 113.931 51.9974 113.738 51.52C113.549 51.0426 113.271 50.6596 112.903 50.3712C112.535 50.0827 112.086 49.9385 111.555 49.9385C111.028 49.9385 110.579 50.0827 110.207 50.3712C109.839 50.6596 109.559 51.0426 109.367 51.52C109.178 51.9974 109.083 52.5213 109.083 53.0916C109.083 53.6618 109.178 54.184 109.367 54.6582C109.559 55.1323 109.839 55.5119 110.207 55.7971C110.575 56.0822 111.025 56.2248 111.555 56.2248Z" fill="#ABACBA"/>
<path opacity="0.6" d="M103.967 56.8764V49.2374H104.827V50.4111H104.892C105.044 50.0265 105.309 49.7165 105.687 49.4811C106.069 49.2424 106.5 49.123 106.98 49.123C107.053 49.123 107.135 49.1247 107.224 49.128C107.314 49.1313 107.388 49.1347 107.448 49.138V50.0381C107.408 50.0315 107.339 50.0216 107.239 50.0083C107.14 49.995 107.032 49.9884 106.916 49.9884C106.518 49.9884 106.163 50.0729 105.852 50.242C105.543 50.4078 105.299 50.6382 105.12 50.9333C104.941 51.2284 104.852 51.5649 104.852 51.9429V56.8764H103.967Z" fill="#ABACBA"/>
<path opacity="0.6" d="M95.7094 59.7409V49.2373H96.5698V50.6944H96.6742C96.7803 50.4657 96.9262 50.2319 97.1119 49.9932C97.2975 49.7512 97.5429 49.5473 97.8479 49.3815C98.1563 49.2157 98.5442 49.1328 99.0117 49.1328C99.6416 49.1328 100.192 49.2986 100.663 49.6301C101.137 49.9584 101.505 50.4192 101.767 51.0127C102.032 51.6029 102.165 52.2909 102.165 53.0767C102.165 53.8657 102.032 54.557 101.767 55.1505C101.505 55.744 101.137 56.2065 100.663 56.5381C100.192 56.8696 99.6449 57.0354 99.0216 57.0354C98.5608 57.0354 98.1745 56.9525 97.8628 56.7867C97.5545 56.621 97.3042 56.4171 97.1119 56.175C96.9229 55.9297 96.777 55.691 96.6742 55.4589H96.5946V59.7409H95.7094ZM96.5847 53.0617C96.5847 53.6784 96.6759 54.2255 96.8582 54.7029C97.0439 55.177 97.3091 55.55 97.654 55.8219C98.0021 56.0905 98.4232 56.2248 98.9172 56.2248C99.4245 56.2248 99.8522 56.0855 100.2 55.807C100.552 55.5252 100.819 55.1455 101.001 54.6681C101.187 54.1907 101.28 53.6552 101.28 53.0617C101.28 52.4749 101.188 51.9461 101.006 51.4752C100.827 51.0044 100.562 50.6314 100.21 50.3562C99.8588 50.0777 99.4278 49.9385 98.9172 49.9385C98.4198 49.9385 97.9971 50.0728 97.649 50.3413C97.3009 50.6066 97.0356 50.9746 96.8533 51.4454C96.6742 51.9129 96.5847 52.4517 96.5847 53.0617Z" fill="#ABACBA"/>
<path opacity="0.6" d="M86.3885 57.0503C85.9276 57.0503 85.5066 56.9608 85.1253 56.7818C84.744 56.5994 84.4406 56.3375 84.2152 55.996C83.9897 55.6512 83.877 55.2334 83.877 54.7427C83.877 54.3647 83.9483 54.0464 84.0908 53.7878C84.2334 53.5292 84.4357 53.317 84.6976 53.1512C84.9595 52.9855 85.2695 52.8545 85.6276 52.7584C85.9857 52.6622 86.3802 52.5876 86.8112 52.5346C87.2389 52.4815 87.6003 52.4351 87.8954 52.3953C88.1938 52.3555 88.4209 52.2925 88.5768 52.2063C88.7326 52.1201 88.8105 51.9809 88.8105 51.7886V51.6095C88.8105 51.089 88.6547 50.6795 88.343 50.3811C88.0347 50.0794 87.5904 49.9285 87.0102 49.9285C86.4598 49.9285 86.0105 50.0496 85.6624 50.2916C85.3176 50.5336 85.0756 50.8188 84.9363 51.147L84.0958 50.8436C84.2682 50.4259 84.5069 50.0927 84.812 49.844C85.117 49.592 85.4585 49.4113 85.8365 49.3019C86.2144 49.1892 86.5974 49.1328 86.9853 49.1328C87.2771 49.1328 87.5804 49.1709 87.8954 49.2472C88.2137 49.3235 88.5088 49.4561 88.7807 49.6451C89.0525 49.8307 89.273 50.091 89.4421 50.4259C89.6112 50.7574 89.6958 51.1785 89.6958 51.6891V56.8763H88.8105V55.6677H88.7558C88.6497 55.8932 88.4922 56.112 88.2833 56.3242C88.0745 56.5364 87.8125 56.7105 87.4976 56.8464C87.1826 56.9824 86.8129 57.0503 86.3885 57.0503ZM86.5079 56.2397C86.9787 56.2397 87.3865 56.1352 87.7313 55.9264C88.0761 55.7175 88.3414 55.4406 88.527 55.0958C88.716 54.7477 88.8105 54.3647 88.8105 53.947V52.8429C88.7442 52.9059 88.6331 52.9623 88.4773 53.012C88.3248 53.0617 88.1474 53.1065 87.9452 53.1463C87.7462 53.1827 87.5473 53.2142 87.3484 53.2408C87.1494 53.2673 86.9704 53.2905 86.8112 53.3104C86.3802 53.3634 86.0122 53.4463 85.7072 53.5591C85.4021 53.6718 85.1684 53.8276 85.0059 54.0266C84.8435 54.2222 84.7622 54.4742 84.7622 54.7825C84.7622 55.2467 84.928 55.6064 85.2596 55.8617C85.5911 56.1137 86.0072 56.2397 86.5079 56.2397Z" fill="#ABACBA"/>
<path opacity="0.6" d="M75.5469 57.0354C74.834 57.0354 74.2173 56.8696 73.6968 56.5381C73.1762 56.2032 72.7734 55.7407 72.4883 55.1505C72.2064 54.557 72.0655 53.874 72.0655 53.1015C72.0655 52.3323 72.2064 51.6493 72.4883 51.0525C72.7734 50.4524 73.1663 49.9832 73.6669 49.6451C74.1709 49.3036 74.7528 49.1328 75.4126 49.1328C75.827 49.1328 76.2265 49.2091 76.6111 49.3616C76.9957 49.5108 77.3406 49.7412 77.6456 50.0529C77.9539 50.3612 78.1976 50.7508 78.3767 51.2216C78.5557 51.6891 78.6452 52.2428 78.6452 52.8827V53.3203H72.6772V52.5395H77.7401C77.7401 52.0488 77.6406 51.6079 77.4417 51.2166C77.2461 50.8221 76.9725 50.5104 76.6211 50.2816C76.273 50.0529 75.8701 49.9385 75.4126 49.9385C74.9285 49.9385 74.5025 50.0678 74.1344 50.3264C73.7664 50.585 73.4779 50.9265 73.2691 51.3509C73.0635 51.7753 72.9591 52.2395 72.9558 52.7434V53.2109C72.9558 53.8177 73.0602 54.3482 73.2691 54.8024C73.4813 55.2533 73.7813 55.6031 74.1692 55.8518C74.5572 56.1004 75.0164 56.2248 75.5469 56.2248C75.9082 56.2248 76.2249 56.1684 76.4968 56.0557C76.7719 55.9429 77.0024 55.7921 77.188 55.6031C77.377 55.4108 77.5196 55.2003 77.6157 54.9715L78.4562 55.245C78.3402 55.5666 78.1495 55.8634 77.8843 56.1352C77.6224 56.4071 77.2941 56.6259 76.8996 56.7917C76.5084 56.9542 76.0574 57.0354 75.5469 57.0354Z" fill="#ABACBA"/>
<path opacity="0.6" d="M60.5772 56.8752V49.2362H61.4376V50.4099H61.5171C61.6696 50.0153 61.9233 49.7053 62.278 49.4799C62.6361 49.2511 63.0655 49.1367 63.5661 49.1367C64.0933 49.1367 64.526 49.2611 64.8642 49.5097C65.2057 49.7551 65.461 50.0933 65.6301 50.5243H65.6947C65.8671 50.0999 66.1473 49.7634 66.5352 49.5147C66.9264 49.2627 67.4006 49.1367 67.9576 49.1367C68.6671 49.1367 69.2274 49.3605 69.6385 49.8081C70.0497 50.2524 70.2552 50.9022 70.2552 51.7577V56.8752H69.37V51.7577C69.37 51.1542 69.2158 50.7017 68.9075 50.3999C68.5991 50.0982 68.193 49.9474 67.689 49.9474C67.1055 49.9474 66.6562 50.1264 66.3412 50.4845C66.0263 50.8426 65.8688 51.2968 65.8688 51.8472V56.8752H64.9636V51.6781C64.9636 51.1609 64.8194 50.7431 64.531 50.4248C64.2425 50.1065 63.8363 49.9474 63.3125 49.9474C62.961 49.9474 62.6444 50.0336 62.3626 50.206C62.0841 50.3784 61.8636 50.6188 61.7011 50.9271C61.542 51.2321 61.4624 51.5836 61.4624 51.9815V56.8752H60.5772Z" fill="#ABACBA"/>
<path opacity="0.6" d="M55.4118 57.0354C54.752 57.0354 54.1684 56.868 53.6612 56.5331C53.1572 56.1982 52.7626 55.7357 52.4775 55.1455C52.1924 54.5521 52.0498 53.8674 52.0498 53.0916C52.0498 52.3091 52.1924 51.6211 52.4775 51.0276C52.7626 50.4308 53.1572 49.9667 53.6612 49.6351C54.1684 49.3002 54.752 49.1328 55.4118 49.1328C56.0716 49.1328 56.6534 49.3002 57.1574 49.6351C57.6614 49.97 58.0559 50.4342 58.341 51.0276C58.6295 51.6211 58.7737 52.3091 58.7737 53.0916C58.7737 53.8674 58.6312 54.5521 58.346 55.1455C58.0609 55.7357 57.6647 56.1982 57.1574 56.5331C56.6534 56.868 56.0716 57.0354 55.4118 57.0354ZM55.4118 56.2248C55.9423 56.2248 56.3915 56.0822 56.7595 55.7971C57.1276 55.5119 57.4061 55.1323 57.595 54.6582C57.7873 54.184 57.8835 53.6618 57.8835 53.0916C57.8835 52.5213 57.7873 51.9974 57.595 51.52C57.4061 51.0426 57.1276 50.6596 56.7595 50.3712C56.3915 50.0827 55.9423 49.9385 55.4118 49.9385C54.8846 49.9385 54.4353 50.0827 54.064 50.3712C53.696 50.6596 53.4158 51.0426 53.2235 51.52C53.0345 51.9974 52.94 52.5213 52.94 53.0916C52.94 53.6618 53.0345 54.184 53.2235 54.6582C53.4158 55.1323 53.696 55.5119 54.064 55.7971C54.432 56.0822 54.8813 56.2248 55.4118 56.2248Z" fill="#ABACBA"/>
<path opacity="0.6" d="M47.7712 57.0354C47.0882 57.0354 46.4931 56.8647 45.9858 56.5232C45.4818 56.1817 45.0906 55.7142 44.8121 55.1207C44.5336 54.5272 44.3943 53.8508 44.3943 53.0916C44.3943 52.3257 44.5352 51.6443 44.8171 51.0475C45.1022 50.4507 45.4967 49.9832 46.0007 49.6451C46.5047 49.3036 47.0899 49.1328 47.7563 49.1328C48.2669 49.1328 48.7294 49.2323 49.1438 49.4312C49.5583 49.6268 49.8998 49.9037 50.1683 50.2618C50.4402 50.6165 50.611 51.031 50.6806 51.5051H49.7854C49.6926 51.0741 49.4688 50.706 49.114 50.401C48.7625 50.0927 48.3149 49.9385 47.7712 49.9385C47.2838 49.9385 46.8528 50.0711 46.4781 50.3364C46.1035 50.5983 45.8101 50.9646 45.5979 51.4355C45.389 51.9029 45.2845 52.445 45.2845 53.0617C45.2845 53.6817 45.3873 54.2305 45.5929 54.7079C45.7985 55.182 46.0869 55.5534 46.4582 55.8219C46.8329 56.0905 47.2706 56.2248 47.7712 56.2248C48.1094 56.2248 48.4177 56.1618 48.6962 56.0358C48.9781 55.9065 49.2135 55.7241 49.4024 55.4887C49.5947 55.2533 49.7241 54.9731 49.7904 54.6482H50.6856C50.6192 55.1091 50.4551 55.5202 50.1932 55.8816C49.9346 56.2397 49.5981 56.5215 49.1836 56.7271C48.7725 56.9326 48.3017 57.0354 47.7712 57.0354Z" fill="#ABACBA"/>
<path opacity="0.6" d="M39.8778 57.0354C39.165 57.0354 38.5483 56.8696 38.0277 56.5381C37.5072 56.2032 37.1044 55.7407 36.8192 55.1505C36.5374 54.557 36.3965 53.874 36.3965 53.1015C36.3965 52.3323 36.5374 51.6493 36.8192 51.0525C37.1044 50.4524 37.4973 49.9832 37.9979 49.6451C38.5019 49.3036 39.0837 49.1328 39.7435 49.1328C40.158 49.1328 40.5575 49.2091 40.9421 49.3616C41.3267 49.5108 41.6715 49.7412 41.9765 50.0529C42.2849 50.3612 42.5286 50.7508 42.7076 51.2216C42.8867 51.6891 42.9762 52.2428 42.9762 52.8827V53.3203H37.0082V52.5395H42.071C42.071 52.0488 41.9716 51.6079 41.7726 51.2166C41.577 50.8221 41.3035 50.5104 40.952 50.2816C40.6039 50.0529 40.2011 49.9385 39.7435 49.9385C39.2595 49.9385 38.8334 50.0678 38.4654 50.3264C38.0974 50.585 37.8089 50.9265 37.6 51.3509C37.3945 51.7753 37.29 52.2395 37.2867 52.7434V53.2109C37.2867 53.8177 37.3912 54.3482 37.6 54.8024C37.8122 55.2533 38.1123 55.6031 38.5002 55.8518C38.8881 56.1004 39.3473 56.2248 39.8778 56.2248C40.2392 56.2248 40.5558 56.1684 40.8277 56.0557C41.1029 55.9429 41.3333 55.7921 41.519 55.6031C41.708 55.4108 41.8506 55.2003 41.9467 54.9715L42.7872 55.245C42.6712 55.5666 42.4805 55.8634 42.2153 56.1352C41.9533 56.4071 41.6251 56.6259 41.2306 56.7917C40.8393 56.9542 40.3884 57.0354 39.8778 57.0354Z" fill="#ABACBA"/>
<path opacity="0.6" d="M28.5247 56.8748V46.6895H29.415V50.693H29.4945C29.594 50.4642 29.7366 50.2288 29.9222 49.9868C30.1112 49.7447 30.3582 49.5425 30.6633 49.38C30.9716 49.2142 31.3595 49.1314 31.827 49.1314C32.4537 49.1314 33.004 49.2971 33.4782 49.6287C33.9523 49.9569 34.322 50.4178 34.5872 51.0113C34.8525 51.6014 34.9851 52.2894 34.9851 53.0752C34.9851 53.8643 34.8525 54.5556 34.5872 55.1491C34.3253 55.7425 33.9573 56.2051 33.4831 56.5366C33.0123 56.8682 32.4653 57.0339 31.8419 57.0339C31.3778 57.0339 30.9899 56.9511 30.6782 56.7853C30.3698 56.6195 30.1212 56.4156 29.9322 56.1736C29.7432 55.9282 29.5973 55.6895 29.4945 55.4574H29.3851V56.8748H28.5247ZM29.4 53.0603C29.4 53.677 29.4912 54.224 29.6736 54.7015C29.8593 55.1756 30.1245 55.5486 30.4693 55.8205C30.8174 56.089 31.2385 56.2233 31.7325 56.2233C32.2398 56.2233 32.6692 56.084 33.0206 55.8055C33.3721 55.5237 33.639 55.1441 33.8213 54.6666C34.0037 54.1892 34.0949 53.6538 34.0949 53.0603C34.0949 52.4734 34.0037 51.9446 33.8213 51.4738C33.6423 51.003 33.377 50.63 33.0256 50.3548C32.6741 50.0763 32.2431 49.937 31.7325 49.937C31.2352 49.937 30.8125 50.0713 30.4643 50.3399C30.1195 50.6051 29.8559 50.9731 29.6736 51.4439C29.4912 51.9114 29.4 52.4502 29.4 53.0603Z" fill="#ABACBA"/>
<path opacity="0.6" d="M18.8431 57.0339C18.2164 57.0339 17.6677 56.8682 17.1969 56.5366C16.7261 56.2051 16.3581 55.7425 16.0928 55.1491C15.8309 54.5556 15.6999 53.8643 15.6999 53.0752C15.6999 52.2894 15.8309 51.6014 16.0928 51.0113C16.3581 50.4178 16.7277 49.9569 17.2019 49.6287C17.676 49.2971 18.228 49.1314 18.858 49.1314C19.3222 49.1314 19.7084 49.2142 20.0168 49.38C20.3251 49.5425 20.5721 49.7447 20.7578 49.9868C20.9435 50.2288 21.0877 50.4642 21.1905 50.693H21.27V46.6895H22.1603V56.8748H21.2949V55.4574H21.1905C21.0877 55.6895 20.9418 55.9282 20.7528 56.1736C20.5638 56.4156 20.3135 56.6195 20.0018 56.7853C19.6935 56.9511 19.3072 57.0339 18.8431 57.0339ZM18.9475 56.2233C19.4415 56.2233 19.8626 56.089 20.2107 55.8205C20.5589 55.5486 20.8241 55.1756 21.0065 54.7015C21.1921 54.224 21.285 53.677 21.285 53.0603C21.285 52.4502 21.1938 51.9114 21.0114 51.4439C20.8291 50.9731 20.5638 50.6051 20.2157 50.3399C19.8676 50.0713 19.4448 49.937 18.9475 49.937C18.4369 49.937 18.0059 50.0763 17.6544 50.3548C17.3063 50.63 17.0411 51.003 16.8587 51.4738C16.6797 51.9446 16.5902 52.4734 16.5902 53.0603C16.5902 53.6538 16.6813 54.1892 16.8637 54.6666C17.046 55.1441 17.3113 55.5237 17.6594 55.8055C18.0109 56.084 18.4402 56.2233 18.9475 56.2233Z" fill="#ABACBA"/>
<path opacity="0.6" d="M9.00791 52.1008V56.8752H8.12266V49.2362H8.98304V50.4348H9.06261C9.24165 50.0435 9.52016 49.7302 9.89813 49.4948C10.2794 49.2561 10.7502 49.1367 11.3106 49.1367C11.8245 49.1367 12.2754 49.2445 12.6633 49.46C13.0545 49.6722 13.3579 49.9855 13.5734 50.3999C13.7922 50.8144 13.9016 51.3233 13.9016 51.9267V56.8752H13.0164V51.9815C13.0164 51.3548 12.8407 50.8591 12.4892 50.4944C12.1411 50.1297 11.6736 49.9474 11.0868 49.9474C10.6856 49.9474 10.3292 50.0336 10.0175 50.206C9.70583 50.3784 9.45882 50.6271 9.27647 50.952C9.09743 51.2736 9.00791 51.6565 9.00791 52.1008Z" fill="#ABACBA"/>
<path opacity="0.6" d="M2.60067 57.0503C2.13981 57.0503 1.71873 56.9608 1.33745 56.7818C0.95616 56.5994 0.652788 56.3375 0.427331 55.996C0.201874 55.6512 0.0891457 55.2334 0.0891457 54.7427C0.0891457 54.3647 0.16043 54.0464 0.302998 53.7878C0.445566 53.5292 0.647815 53.317 0.909742 53.1512C1.17167 52.9855 1.48167 52.8545 1.83975 52.7584C2.19783 52.6622 2.59238 52.5876 3.0234 52.5346C3.45111 52.4815 3.8125 52.4351 4.10758 52.3953C4.40598 52.3555 4.6331 52.2925 4.78893 52.2063C4.94476 52.1201 5.02267 51.9809 5.02267 51.7886V51.6095C5.02267 51.089 4.86684 50.6795 4.55518 50.3811C4.24684 50.0794 3.80255 49.9285 3.22233 49.9285C2.67195 49.9285 2.2227 50.0496 1.87457 50.2916C1.52975 50.5336 1.28771 50.8188 1.14846 51.147L0.307971 50.8436C0.48038 50.4259 0.719099 50.0927 1.02413 49.844C1.32916 49.592 1.67066 49.4113 2.04863 49.3019C2.4266 49.1892 2.80955 49.1328 3.19747 49.1328C3.48923 49.1328 3.79261 49.1709 4.10758 49.2472C4.42588 49.3235 4.72096 49.4561 4.99283 49.6451C5.26471 49.8307 5.48519 50.091 5.65428 50.4259C5.82338 50.7574 5.90792 51.1785 5.90792 51.6891V56.8763H5.02267V55.6677H4.96797C4.86187 55.8932 4.70438 56.112 4.4955 56.3242C4.28662 56.5364 4.02469 56.7105 3.70972 56.8464C3.39474 56.9824 3.02506 57.0503 2.60067 57.0503ZM2.72003 56.2397C3.19084 56.2397 3.59865 56.1352 3.94346 55.9264C4.28828 55.7175 4.55352 55.4406 4.73919 55.0958C4.92818 54.7477 5.02267 54.3647 5.02267 53.947V52.8429C4.95636 52.9059 4.84529 52.9623 4.68946 53.012C4.53695 53.0617 4.35956 53.1065 4.15732 53.1463C3.95838 53.1827 3.75945 53.2142 3.56052 53.2408C3.36159 53.2673 3.18255 53.2905 3.0234 53.3104C2.59238 53.3634 2.22435 53.4463 1.91932 53.5591C1.6143 53.6718 1.38055 53.8276 1.21809 54.0266C1.05563 54.2222 0.974396 54.4742 0.974396 54.7825C0.974396 55.2467 1.14017 55.6064 1.47173 55.8617C1.80328 56.1137 2.21938 56.2397 2.72003 56.2397Z" fill="#ABACBA"/>
</svg>
