<svg width="654" height="188" viewBox="0 0 654 188" fill="none" xmlns="http://www.w3.org/2000/svg">
<path d="M624.356 145.823V186.323H619.61L597.54 154.524H597.145V186.323H592.24V145.823H596.986L619.135 177.701H619.531V145.823H624.356Z" fill="white"/>
<path d="M547.151 186.323V145.823H560.836C564 145.823 566.598 146.363 568.628 147.444C570.658 148.512 572.161 149.982 573.137 151.854C574.112 153.726 574.6 155.855 574.6 158.242C574.6 160.628 574.112 162.744 573.137 164.59C572.161 166.436 570.665 167.886 568.648 168.94C566.631 169.982 564.053 170.503 560.915 170.503H549.841V166.073H560.757C562.919 166.073 564.66 165.757 565.978 165.124C567.31 164.491 568.272 163.594 568.865 162.434C569.472 161.261 569.775 159.863 569.775 158.242C569.775 156.62 569.472 155.203 568.865 153.99C568.259 152.777 567.29 151.841 565.958 151.182C564.627 150.509 562.867 150.173 560.678 150.173H552.056V186.323H547.151ZM566.215 168.13L576.182 186.323H570.487L560.678 168.13H566.215Z" fill="white"/>
<path d="M501.712 186.323H496.57L511.442 145.823H516.504L531.376 186.323H526.234L514.131 152.23H513.815L501.712 186.323ZM503.611 170.503H524.336V174.853H503.611V170.503Z" fill="white"/>
<path d="M457.302 186.323V145.823H481.745V150.173H462.206V163.858H480.479V168.209H462.206V181.973H482.061V186.323H457.302Z" fill="white"/>
<path d="M416.509 186.323V145.823H421.413V181.973H440.24V186.323H416.509Z" fill="white"/>
<path d="M350.588 186.323V145.823H355.492V181.973H374.319V186.323H350.588Z" fill="white"/>
<path d="M309.796 186.323V145.823H314.7V181.973H333.527V186.323H309.796Z" fill="white"/>
<path d="M290.495 145.823V186.323H285.591V145.823H290.495Z" fill="white"/>
<path d="M230.619 186.323L219.545 145.823H224.528L232.993 178.809H233.388L242.01 145.823H247.548L256.17 178.809H256.565L265.029 145.823H270.013L258.938 186.323H253.876L244.937 154.049H244.621L235.682 186.323H230.619Z" fill="white"/>
<path d="M173.967 145.823H178.872V172.639C178.872 175.407 178.219 177.879 176.914 180.055C175.622 182.217 173.796 183.924 171.436 185.176C169.076 186.416 166.308 187.035 163.13 187.035C159.953 187.035 157.184 186.416 154.824 185.176C152.464 183.924 150.632 182.217 149.327 180.055C148.035 177.879 147.389 175.407 147.389 172.639V145.823H152.293V172.243C152.293 174.221 152.728 175.981 153.598 177.523C154.468 179.053 155.708 180.259 157.316 181.142C158.938 182.012 160.876 182.447 163.13 182.447C165.385 182.447 167.323 182.012 168.944 181.142C170.566 180.259 171.805 179.053 172.662 177.523C173.532 175.981 173.967 174.221 173.967 172.243V145.823Z" fill="white"/>
<path d="M129.675 166.074C129.675 170.345 128.903 174.037 127.361 177.148C125.818 180.26 123.702 182.659 121.013 184.347C118.323 186.034 115.251 186.878 111.797 186.878C108.343 186.878 105.271 186.034 102.582 184.347C99.8922 182.659 97.7762 180.26 96.2337 177.148C94.6912 174.037 93.9199 170.345 93.9199 166.074C93.9199 161.802 94.6912 158.111 96.2337 154.999C97.7762 151.888 99.8922 149.488 102.582 147.801C105.271 146.113 108.343 145.27 111.797 145.27C115.251 145.27 118.323 146.113 121.013 147.801C123.702 149.488 125.818 151.888 127.361 154.999C128.903 158.111 129.675 161.802 129.675 166.074ZM124.928 166.074C124.928 162.567 124.342 159.607 123.168 157.194C122.008 154.782 120.433 152.956 118.442 151.716C116.464 150.477 114.25 149.858 111.797 149.858C109.345 149.858 107.124 150.477 105.133 151.716C103.155 152.956 101.58 154.782 100.406 157.194C99.2462 159.607 98.6661 162.567 98.6661 166.074C98.6661 169.581 99.2462 172.54 100.406 174.953C101.58 177.366 103.155 179.192 105.133 180.431C107.124 181.67 109.345 182.29 111.797 182.29C114.25 182.29 116.464 181.67 118.442 180.431C120.433 179.192 122.008 177.366 123.168 174.953C124.342 172.54 124.928 169.581 124.928 166.074Z" fill="white"/>
<path d="M47.4229 145.823H53.0392L64.2719 164.728H64.7465L75.9792 145.823H81.5955L66.9614 169.633V186.323H62.057V169.633L47.4229 145.823Z" fill="white"/>
<g opacity="0.7">
<path opacity="0.5" d="M653.123 35.9476H647.143C646.623 33.8674 645.669 31.4116 644.282 28.5803C642.953 25.6912 641.451 22.9754 639.775 20.4329C638.042 17.7749 636.135 15.4636 634.055 13.499C632.032 11.4766 630.068 10.321 628.161 10.0321C626.37 9.80095 624.116 9.6276 621.4 9.51204C618.685 9.39647 616.171 9.33869 613.86 9.33869H608.833V107.714C608.833 109.62 609.237 111.383 610.046 113.001C610.855 114.561 612.271 115.774 614.293 116.641C615.333 117.045 617.5 117.594 620.794 118.288C624.145 118.981 626.745 119.357 628.594 119.415V125.568H570.523V119.415C572.141 119.299 574.597 119.068 577.89 118.721C581.242 118.374 583.553 117.941 584.824 117.421C586.731 116.67 588.118 115.601 588.984 114.214C589.909 112.77 590.371 110.863 590.371 108.494V9.33869H585.344C583.553 9.33869 581.328 9.39647 578.67 9.51204C576.012 9.56982 573.47 9.74317 571.043 10.0321C569.136 10.2632 567.143 11.4189 565.062 13.499C563.04 15.5214 561.162 17.8327 559.429 20.4329C557.695 23.0332 556.164 25.8067 554.835 28.7536C553.506 31.6428 552.581 34.0407 552.061 35.9476H545.994V2.57812H653.123V35.9476Z" fill="#73768D"/>
<path opacity="0.5" d="M513.266 125.567H462.042V119.414C466.549 119.125 470.276 118.547 473.223 117.68C476.227 116.813 477.73 115.744 477.73 114.473C477.73 113.953 477.672 113.318 477.556 112.566C477.441 111.815 477.267 111.151 477.036 110.573L466.809 83.0106H423.732C422.114 87.0554 420.785 90.5801 419.745 93.5848C418.763 96.5895 417.867 99.3631 417.058 101.906C416.307 104.39 415.787 106.413 415.498 107.973C415.209 109.533 415.065 110.804 415.065 111.786C415.065 114.098 416.885 115.889 420.525 117.16C424.165 118.431 428.268 119.182 432.833 119.414V125.567H386.549V119.414C388.051 119.298 389.929 118.98 392.183 118.46C394.436 117.882 396.285 117.131 397.73 116.207C400.041 114.647 401.832 113.029 403.104 111.353C404.375 109.619 405.617 107.25 406.831 104.246C413.013 88.8177 419.832 71.483 427.286 52.2414C434.74 32.9998 441.385 15.8672 447.221 0.84375H454.154L495.151 106.933C496.018 109.186 497 111.006 498.098 112.393C499.196 113.78 500.727 115.138 502.692 116.467C504.021 117.276 505.754 117.969 507.892 118.547C510.03 119.067 511.821 119.356 513.266 119.414V125.567ZM463.689 75.2966L445.054 27.626L426.766 75.2966H463.689Z" fill="#73768D"/>
<path opacity="0.5" d="M345.674 125.568H294.623V119.415C296.009 119.299 298.003 119.126 300.603 118.894C303.261 118.663 305.081 118.317 306.064 117.854C307.797 117.161 309.068 116.121 309.877 114.734C310.686 113.29 311.091 111.441 311.091 109.187V65.4167H253.279V108.234C253.279 110.256 253.597 111.961 254.233 113.347C254.926 114.734 256.255 115.948 258.22 116.988C259.202 117.508 260.935 118.028 263.42 118.548C265.962 119.068 267.956 119.357 269.401 119.415V125.568H218.35V119.415C219.736 119.299 221.73 119.126 224.33 118.894C226.988 118.663 228.808 118.317 229.791 117.854C231.524 117.161 232.795 116.121 233.604 114.734C234.413 113.29 234.818 111.441 234.818 109.187V20.4329C234.818 18.5839 234.442 16.9082 233.691 15.4059C232.94 13.8457 231.64 12.6323 229.791 11.7656C228.23 11.0144 226.324 10.3499 224.07 9.77206C221.874 9.19423 219.968 8.84754 218.35 8.73197V2.57812H269.401V8.73197C267.783 8.78975 265.789 9.04978 263.42 9.51204C261.109 9.9743 259.375 10.4077 258.22 10.8121C256.255 11.5055 254.926 12.6612 254.233 14.2791C253.597 15.897 253.279 17.6594 253.279 19.5662V57.7027H311.091V20.4329C311.091 18.5839 310.715 16.9082 309.964 15.4059C309.213 13.8457 307.913 12.6323 306.064 11.7656C304.503 11.0144 302.597 10.3499 300.343 9.77206C298.147 9.19423 296.241 8.84754 294.623 8.73197V2.57812H345.674V8.73197C344.056 8.78975 342.062 9.04978 339.693 9.51204C337.382 9.9743 335.648 10.4077 334.493 10.8121C332.528 11.5055 331.199 12.6612 330.506 14.2791C329.87 15.897 329.552 17.6594 329.552 19.5662V108.234C329.552 110.256 329.87 111.961 330.506 113.347C331.199 114.734 332.528 115.948 334.493 116.988C335.475 117.508 337.208 118.028 339.693 118.548C342.235 119.068 344.229 119.357 345.674 119.415V125.568Z" fill="#73768D"/>
<path opacity="0.5" d="M176.954 8.73197C175.51 8.78975 173.834 9.13645 171.927 9.77206C170.02 10.3499 168.258 11.1299 166.64 12.1123C164.618 13.3835 162.971 14.8569 161.7 16.5326C160.486 18.1505 159.417 20.4329 158.493 23.3799C154.39 36.7276 149.623 52.3289 144.192 70.1838C138.76 87.9808 132.895 106.962 126.597 127.128H118.623L87.5936 32.4806L55.2642 127.128H47.6369C41.9164 106.905 35.9937 85.9295 29.8688 64.2033C23.7438 42.4192 19.6412 27.8291 17.5611 20.4329C17.041 18.6417 16.261 17.0527 15.2209 15.6659C14.2386 14.2791 12.8807 13.0079 11.1472 11.8522C9.70264 10.8699 7.99805 10.1476 6.03344 9.68538C4.12662 9.16534 2.39314 8.84754 0.833008 8.73197V2.57812H51.0172V8.73197C46.6257 8.9631 42.8698 9.39647 39.7496 10.0321C36.6871 10.6677 35.1559 11.7367 35.1559 13.239C35.1559 13.8168 35.2425 14.5969 35.4159 15.5792C35.5892 16.5037 35.7337 17.2549 35.8493 17.8327C37.1783 22.9176 39.5185 31.325 42.8698 43.0548C46.279 54.7269 51.3061 72.235 57.9511 95.5792L88.6337 4.3116H97.1277L128.07 97.5727C132.231 83.2426 135.813 70.7327 138.818 60.0429C141.823 49.2953 144.307 40.1079 146.272 32.4806C147.659 27.1068 148.525 23.4376 148.872 21.473C149.219 19.4506 149.392 17.7461 149.392 16.3593C149.392 14.3947 148.034 12.7479 145.318 11.4189C142.66 10.0899 138.327 9.19423 132.317 8.73197V2.57812H176.954V8.73197Z" fill="#73768D"/>
</g>
</svg>
