<svg width="102" height="102" viewBox="0 0 102 102" fill="none" xmlns="http://www.w3.org/2000/svg">
<circle opacity="0.2" cx="50.6882" cy="50.696" r="49.9148" fill="#73768D" stroke="white"/>
<path d="M71.9919 60.1943L61.9035 50.106L70.8082 41.2013C72.4278 39.5777 72.4278 36.9405 70.8082 35.3168L66.069 30.5776C64.4474 28.9559 61.8062 28.9559 60.1845 30.5776L51.2798 39.4822L41.1915 29.3939C40.8752 29.0777 40.3624 29.0777 40.0442 29.3939L30.5676 38.8704C30.2514 39.1867 30.2514 39.6995 30.5676 40.0177L40.656 50.1061L34.1228 56.6393C34.1167 56.6453 34.1147 56.6535 34.1106 56.6595C34.0316 56.7426 33.9667 56.8399 33.9282 56.9555L29.189 71.1692C29.0917 71.4611 29.1687 71.7814 29.3856 71.9983C29.5417 72.1544 29.7464 72.2355 29.9593 72.2355C30.0444 72.2355 30.1316 72.2213 30.2167 72.1949L44.4305 67.4557C44.546 67.4172 44.6433 67.3503 44.7264 67.2713C44.7325 67.2652 44.7406 67.2652 44.7467 67.2591L51.2799 60.7259L61.3682 70.8142C61.5263 70.9724 61.7331 71.0514 61.9419 71.0514C62.1486 71.0514 62.3574 70.9724 62.5156 70.8142L71.9921 61.3377C72.3083 61.0215 72.3083 60.5086 71.9921 60.1904L71.9919 60.1943ZM44.5275 65.1869L43.7592 62.8802C43.6781 62.6369 43.4876 62.4484 43.2464 62.3673L40.9376 61.597L60.7578 41.7769L64.3497 45.3688L44.5295 65.189L44.5275 65.1869ZM37.2849 68.1302L33.2572 64.1025L35.2113 58.2402L37.6092 59.0389L38.6653 62.2072C38.6674 62.2153 38.6755 62.2193 38.6775 62.2275C38.714 62.3308 38.7708 62.4261 38.8518 62.5092C38.8599 62.5173 38.866 62.5254 38.8741 62.5315C38.9572 62.6126 39.0545 62.6693 39.1559 62.7058C39.164 62.7079 39.1681 62.716 39.1762 62.718L42.3444 63.7741L43.1431 66.1721L37.2809 68.1261L37.2849 68.1302ZM56.0205 37.0396L59.6125 40.6315L39.7923 60.4517L39.022 58.1429C38.9409 57.8996 38.7504 57.7111 38.5092 57.6301L36.2024 56.8618L56.0226 37.0416L56.0205 37.0396ZM61.3312 31.7289C62.3224 30.7398 63.9319 30.7398 64.9231 31.7289L69.6623 36.4681C70.6515 37.4573 70.6515 39.0708 69.6623 40.0601L65.4968 44.2256L57.1676 35.8964L61.3331 31.7309L61.3312 31.7289ZM39.3985 46.5545L42.3782 43.5748C42.6944 43.2585 42.6944 42.7457 42.3782 42.4275C42.062 42.1113 41.5491 42.1113 41.2309 42.4275L38.2512 45.4072L35.8431 42.9991L38.8228 40.0194C39.1391 39.7032 39.1391 39.1903 38.8228 38.8721C38.5066 38.5559 37.9938 38.5559 37.6756 38.8721L34.6958 41.8518L32.2877 39.4437L40.6169 31.1145L50.1318 40.6295L41.8026 48.9587L39.3945 46.5506L39.3985 46.5545ZM32.6847 65.8236L35.5671 68.706L31.2435 70.1472L32.6847 65.8236ZM61.943 69.0993L59.5349 66.6912L62.5146 63.7114C62.8309 63.3952 62.8309 62.8823 62.5146 62.5641C62.1984 62.2479 61.6855 62.2479 61.3673 62.5641L58.3876 65.5439L55.9795 63.1358L58.9592 60.156C59.2755 59.8398 59.2755 59.327 58.9592 59.0088C58.643 58.6925 58.1302 58.6925 57.812 59.0088L54.8322 61.9885L52.4241 59.5804L60.7533 51.2512L70.2682 60.7661L61.939 69.0953L61.943 69.0993Z" fill="white"/>
</svg>
