<svg width="102" height="102" viewBox="0 0 102 102" fill="none" xmlns="http://www.w3.org/2000/svg">
<circle opacity="0.2" cx="50.6882" cy="50.6121" r="49.9148" fill="#73768D" stroke="white"/>
<path d="M47.9073 61.5095H31.3792C30.399 61.5073 29.6047 60.713 29.6025 59.7329V38.4434L41.0261 45.3158C42.4997 46.2074 44.1126 46.8491 45.7986 47.2098V49.856C45.7986 50.7964 46.562 51.5597 47.5045 51.5597H49.8631H49.8609C50.8035 51.5597 51.5646 50.7963 51.5668 49.856V47.4509C53.6975 47.1567 55.7464 46.4309 57.5873 45.3158L67.7007 39.2291V47.2518C67.7074 47.7364 68.1012 48.1236 68.5858 48.1236C69.0681 48.1236 69.4619 47.7364 69.4708 47.2518V36.167V36.1692C69.4686 34.3615 68.0039 32.8968 66.1962 32.8968H57.3612V28.7637C57.359 27.1463 56.0469 25.8342 54.4295 25.832H42.8734C41.256 25.8342 39.9439 27.1463 39.9417 28.7637V32.8968L31.1044 32.8946C29.2989 32.8968 27.8342 34.3615 27.832 36.1692V59.7334C27.8342 61.6915 29.4207 63.278 31.3788 63.278H47.9069C48.3893 63.2691 48.7742 62.8775 48.7742 62.3951C48.7742 61.9106 48.3892 61.5189 47.9069 61.5101L47.9073 61.5095ZM49.7969 49.7914H47.5688V44.7158H49.7969V49.7914ZM41.7123 28.7631C41.7123 28.1214 42.2323 27.6015 42.874 27.6015H54.4301C55.0695 27.6015 55.5895 28.1214 55.5917 28.7631V32.8962L41.7121 32.894L41.7123 28.7631ZM31.105 34.6663H56.4744L66.1964 34.6641C67.0261 34.6663 67.6987 35.3389 67.701 36.1686V37.1643L56.671 43.8022C55.1046 44.7425 53.3721 45.3664 51.5666 45.6408V44.6496C51.5644 43.7092 50.8033 42.9459 49.8607 42.9459H47.5021H47.5043C46.5617 42.9459 45.7984 43.7093 45.7984 44.6496V45.3996C44.4377 45.0655 43.1367 44.5257 41.9397 43.8L29.6025 36.3787C29.5516 35.9473 29.6866 35.5136 29.972 35.1861C30.2596 34.8609 30.6712 34.6706 31.1048 34.6639L31.105 34.6663Z" fill="white"/>
<path d="M72.8432 68.7685L70.1969 64.7062H70.1947C72.144 61.8387 72.6484 58.232 71.5643 54.94C70.4801 51.6477 67.929 49.0481 64.6591 47.8994C61.3889 46.7511 57.7714 47.1891 54.8685 49.0809C44.7658 55.8428 50.9943 71.4567 62.9712 69.4142L65.6174 73.4743C68.8168 78.0831 75.7665 73.5341 72.8438 68.7682L72.8432 68.7685ZM59.0237 67.6268C50.9148 66.0006 48.8592 55.0087 55.8331 50.5657V50.5635C57.924 49.216 60.4641 48.7492 62.8981 49.2625C65.3319 49.7758 67.4648 51.2273 68.8325 53.3048C73.397 60.2146 67.1089 69.3991 59.0243 67.6268L59.0237 67.6268ZM70.6421 73.1229C70.1 73.5322 69.4097 73.6981 68.7392 73.5809C68.0688 73.4658 67.4758 73.0786 67.1019 72.51L64.7699 68.93H64.7677C66.3829 68.3437 67.8387 67.3901 69.0202 66.1466L71.3589 69.7354V69.7332C72.0957 70.8682 71.7749 72.3839 70.6421 73.1229Z" fill="white"/>
</svg>
