<svg width="102" height="102" viewBox="0 0 102 102" fill="none" xmlns="http://www.w3.org/2000/svg">
<circle opacity="0.2" cx="50.6882" cy="51.3567" r="49.9148" fill="#73768D" stroke="white"/>
<path d="M34.3913 40.3812L31.9696 37.9596C31.707 37.697 31.707 37.2704 31.9696 37.0078C32.2322 36.7447 32.6588 36.7447 32.9214 37.0078L35.343 39.4295C35.6056 39.6921 35.6056 40.1187 35.343 40.3812C35.2117 40.5125 35.0392 40.5785 34.8672 40.5785C34.6952 40.5785 34.5226 40.5125 34.3913 40.3812ZM31.0613 50.5084H27.7629C27.391 50.5084 27.0898 50.8096 27.0898 51.1815C27.0898 51.5534 27.391 51.8546 27.7629 51.8546H31.0613C31.4332 51.8546 31.7344 51.5534 31.7344 51.1815C31.7344 50.8096 31.4332 50.5084 31.0613 50.5084ZM72.7126 61.4727C72.584 61.6013 72.4119 61.6699 72.2367 61.6699C72.1601 61.6699 72.0829 61.657 72.009 61.6302L61.8662 57.9771C61.863 57.976 61.8598 57.9744 61.8566 57.9728C61.8432 57.968 61.8303 57.9621 61.8175 57.9567C61.8094 57.953 61.8014 57.9498 61.7939 57.9455C61.7826 57.9401 61.7714 57.9337 61.7607 57.9273C61.7515 57.9219 61.7424 57.9171 61.7339 57.9112C61.7253 57.9058 61.7167 57.8994 61.7081 57.8935C61.698 57.886 61.6878 57.879 61.6776 57.871C61.6706 57.8656 61.6642 57.8597 61.6578 57.8544C61.647 57.8453 61.6363 57.8356 61.6261 57.826C61.6235 57.8238 61.6208 57.8217 61.6186 57.819L57.9468 54.1471C57.3353 56.147 56.2287 57.9541 54.7009 59.4251C53.4785 60.6013 52.8049 61.4014 52.3992 62.1811C52.8826 62.6666 53.1816 63.3354 53.1816 64.0728C53.1816 64.9115 52.7942 65.6612 52.1897 66.1537C52.701 66.6424 53.0203 67.3305 53.0203 68.092C53.0203 69.3524 52.1463 70.4118 50.9727 70.698C51.0333 71.6106 50.7653 72.5168 50.1935 73.2686C49.4583 74.2359 48.3426 74.7906 47.1326 74.7906H45.1503C43.9419 74.7906 42.8272 74.2359 42.0925 73.2692C41.5207 72.5168 41.2523 71.6106 41.3128 70.698C40.1392 70.4118 39.2652 69.3524 39.2652 68.092C39.2652 67.331 39.584 66.6435 40.0947 66.1553C39.4892 65.6628 39.1012 64.9125 39.1012 64.0733C39.1012 63.3349 39.4013 62.6656 39.8852 62.1801C39.4801 61.4036 38.8059 60.6035 37.5841 59.4251C35.1432 57.0779 33.7986 53.9194 33.7986 50.5315C33.7986 45.0794 37.4025 40.296 42.5239 38.728L42.4242 38.6284C42.4242 38.6284 42.4221 38.6268 42.4216 38.6257C42.4205 38.6246 42.42 38.6241 42.4189 38.623L39.9886 36.1933C37.9362 34.1408 37.9362 30.8012 39.9886 28.7488C42.0416 26.699 45.3797 26.699 47.43 28.7488L52.9201 34.2389L69.0584 50.3771C69.0584 50.3771 69.0627 50.382 69.0648 50.3841C69.075 50.3948 69.0852 50.4061 69.0948 50.4173C69.1002 50.4232 69.105 50.4297 69.1103 50.4356C69.1184 50.4457 69.1264 50.4565 69.1339 50.4677C69.1398 50.4758 69.1452 50.4838 69.1505 50.4924C69.1564 50.5015 69.1618 50.5111 69.1671 50.5208C69.173 50.5315 69.1789 50.5417 69.1843 50.5524C69.1886 50.5604 69.1923 50.569 69.1961 50.5776C69.2014 50.5899 69.2068 50.6022 69.2116 50.6151C69.2127 50.6183 69.2148 50.6215 69.2159 50.6253L72.8691 60.768C72.9575 61.0134 72.8959 61.2878 72.7115 61.4722L72.7126 61.4727ZM67.6318 50.8541L52.4453 35.6676L46.9075 41.2081L58.0577 52.3572C58.062 52.3615 58.0663 52.3653 58.07 52.3696L62.094 56.393L67.6318 50.8552V50.8541ZM45.9547 40.2553L51.4925 34.7148L49.3892 32.6114L43.8486 38.1498L45.9547 40.2553ZM40.9398 35.241L42.8969 37.1975L48.4374 31.6592L46.4782 29.7C44.9526 28.1743 42.4682 28.1748 40.9398 29.7C39.4126 31.2278 39.4126 33.7137 40.9398 35.241ZM41.0304 62.9694C40.6783 63.2106 40.4463 63.6152 40.4463 64.0733C40.4463 64.8102 41.0459 65.4099 41.7828 65.4099V65.4152C41.8369 65.412 41.8916 65.4099 41.9468 65.4099H50.3366C50.3907 65.4099 50.4443 65.412 50.4979 65.4152V65.4099C51.2348 65.4099 51.8344 64.8102 51.8344 64.0733C51.8344 63.5975 51.5836 63.18 51.208 62.9432C51.2037 62.9405 51.1994 62.9383 51.1956 62.9357C50.992 62.8103 50.7535 62.7368 50.4979 62.7368H41.7828C41.5336 62.7368 41.301 62.8065 41.1011 62.926C41.0786 62.9416 41.0551 62.956 41.0304 62.9694ZM49.6276 70.7746H42.6558C42.614 71.37 42.7887 71.9627 43.1627 72.4546C43.6412 73.0838 44.3652 73.4444 45.1492 73.4444H47.1315C47.9171 73.4444 48.6421 73.0832 49.1207 72.4535C49.4947 71.9616 49.6694 71.37 49.6276 70.7746ZM51.6731 68.092C51.6731 67.3551 51.0735 66.7555 50.3366 66.7555H41.9468C41.2099 66.7555 40.6103 67.3551 40.6103 68.092C40.6103 68.8288 41.2099 69.4285 41.9468 69.4285H50.3366C51.0735 69.4285 51.6731 68.8288 51.6731 68.092ZM56.8487 53.0507L45.4863 41.6899C45.4863 41.6899 45.4809 41.6856 45.4783 41.6829C45.4756 41.6802 45.4734 41.6776 45.4713 41.6749L43.6214 39.8255C38.6886 40.9814 35.1437 45.4266 35.1437 50.5309C35.1437 53.5496 36.3414 56.3635 38.5166 58.4551C39.8198 59.7112 40.569 60.6024 41.0459 61.4941C41.2801 61.4271 41.5272 61.3907 41.7823 61.3907H45.467V54.7194L40.7523 50.0047C40.4897 49.7421 40.4897 49.3156 40.7523 49.053C41.0149 48.7899 41.4414 48.7899 41.704 49.053L46.1401 53.489L50.5788 49.053C50.842 48.7904 51.268 48.7904 51.5306 49.053C51.7932 49.3161 51.7932 49.7421 51.5306 50.0047L46.8132 54.7194V61.3907H50.4974C50.7535 61.3907 51.0011 61.4277 51.2358 61.4947C51.7138 60.5997 52.463 59.7085 53.7658 58.4551C55.3038 56.9745 56.3648 55.1117 56.8487 53.0507ZM71.1183 59.8779L68.3092 52.0786L63.319 57.0688L71.1183 59.8779Z" fill="white"/>
</svg>
