<svg width="102" height="102" viewBox="0 0 102 102" fill="none" xmlns="http://www.w3.org/2000/svg">
<circle opacity="0.2" cx="50.6882" cy="51.2507" r="49.9148" fill="#73768D" stroke="white"/>
<path d="M38.6183 37.1499C39.3961 37.1516 40.1568 36.9225 40.8043 36.4917C41.4518 36.0608 41.957 35.4475 42.2558 34.7294C42.5546 34.0114 42.6336 33.2208 42.4829 32.4578C42.3322 31.6948 41.9585 30.9936 41.4092 30.4431C40.8598 29.8925 40.1595 29.5173 39.3968 29.365C38.6341 29.2126 37.8434 29.29 37.1247 29.5872C36.406 29.8844 35.7916 30.3882 35.3593 31.0348C34.927 31.6813 34.6963 32.4416 34.6963 33.2194C34.6963 34.2603 35.1092 35.2588 35.8445 35.9957C36.5798 36.7326 37.5774 37.1477 38.6183 37.1499ZM38.6183 31.0026C39.0592 31.0009 39.4906 31.1302 39.8578 31.374C40.2251 31.6179 40.5116 31.9654 40.6811 32.3724C40.8506 32.7793 40.8954 33.2275 40.8098 33.6599C40.7242 34.0924 40.5121 34.4897 40.2004 34.8014C39.8886 35.1132 39.4913 35.3253 39.0589 35.4109C38.6264 35.4965 38.1783 35.4517 37.7713 35.2822C37.3643 35.1127 37.0169 34.8261 36.773 34.4589C36.5291 34.0916 36.3998 33.6602 36.4015 33.2194C36.4015 32.6314 36.6351 32.0676 37.0508 31.6519C37.4665 31.2361 38.0304 31.0026 38.6183 31.0026Z" fill="white"/>
<path d="M37.7995 44.2774L37.9529 44.4735C38.0332 44.5724 38.1346 44.6521 38.2496 44.7067C38.3647 44.7612 38.4906 44.7894 38.618 44.7889H38.6862L42.037 46.2384C42.1447 46.2843 42.2608 46.3075 42.378 46.3066C42.5717 46.3038 42.7586 46.2352 42.908 46.112C43.0575 45.9888 43.1606 45.8184 43.2003 45.6288C43.24 45.4393 43.2139 45.2418 43.1265 45.069C43.039 44.8962 42.8953 44.7583 42.719 44.6781L40.0504 43.5185C43.853 38.6927 44.7909 37.465 45.0126 37.1239C45.0353 37.1026 45.0527 37.0763 45.0637 37.0472C45.7623 35.8863 46.1308 34.5568 46.1295 33.2019C46.1321 32.1506 45.914 31.1106 45.4893 30.1489C45.0647 29.1873 44.4429 28.3255 43.6642 27.6193C42.8855 26.9131 41.9672 26.3782 40.9688 26.0492C39.9704 25.7202 38.914 25.6045 37.868 25.7094C36.822 25.8144 35.8097 26.1377 34.8966 26.6585C33.9834 27.1793 33.1898 27.886 32.5669 28.7328C31.944 29.5797 31.5059 30.5478 31.2807 31.5747C31.0556 32.6015 31.0485 33.6642 31.2599 34.694C31.5185 35.8176 32.0352 36.8655 32.769 37.7548C33.9542 39.3151 37.0833 43.3651 37.7995 44.2774ZM32.8713 32.3407C33.0561 31.0664 33.6587 29.8894 34.5845 28.9944C35.5104 28.0994 36.7071 27.5371 37.987 27.3956C38.2028 27.3828 38.4192 27.3828 38.635 27.3956C40.0651 27.3904 41.4456 27.9195 42.5059 28.8791C43.5028 29.7742 44.1594 30.9865 44.3646 32.3105C44.5697 33.6344 44.3106 34.9886 43.6313 36.1434C43.5205 36.3139 42.7276 37.3797 38.6521 42.538C37.4925 41.0545 35.1393 38.0192 34.1076 36.6891C33.5475 36.0051 33.1561 35.199 32.9651 34.3359C32.8239 33.6863 32.7922 33.0178 32.8713 32.3578V32.3407Z" fill="white"/>
<path d="M62.7301 39.3145C61.952 39.3128 61.1909 39.5421 60.5432 39.9733C59.8955 40.4046 59.3904 41.0184 59.0918 41.7369C58.7933 42.4555 58.7147 43.2465 58.8661 44.0097C59.0175 44.773 59.392 45.4741 59.9422 46.0243C60.4925 46.5745 61.1936 46.9491 61.9568 47.1005C62.7201 47.2518 63.5111 47.1733 64.2297 46.8747C64.9482 46.5762 65.562 46.0711 65.9933 45.4234C66.4245 44.7757 66.6538 44.0146 66.6521 43.2365C66.6476 42.1977 66.233 41.2027 65.4984 40.4682C64.7639 39.7336 63.7689 39.3189 62.7301 39.3145ZM62.7301 45.4618C62.2896 45.4635 61.8585 45.3344 61.4915 45.0909C61.1244 44.8474 60.8378 44.5005 60.6681 44.094C60.4984 43.6875 60.4531 43.2398 60.538 42.8076C60.6229 42.3754 60.8341 41.9781 61.145 41.666C61.4559 41.3539 61.8524 41.1411 62.2843 41.0546C62.7162 40.968 63.1641 41.0116 63.5712 41.1798C63.9783 41.3479 64.3264 41.6332 64.5713 41.9993C64.8162 42.3654 64.9469 42.796 64.9469 43.2365C64.9503 43.5302 64.8955 43.8216 64.7857 44.094C64.6759 44.3664 64.5133 44.6143 64.3072 44.8236C64.1011 45.0328 63.8557 45.1992 63.585 45.3131C63.3143 45.4271 63.0238 45.4863 62.7301 45.4874V45.4618Z" fill="white"/>
<path d="M67.7266 37.6086C66.7143 36.6966 65.473 36.0771 64.1356 35.8165C62.7982 35.5558 61.4151 35.6638 60.1344 36.129C58.8537 36.5941 57.7237 37.3989 56.8653 38.4571C56.0069 39.5152 55.4524 40.7869 55.2614 42.136C55.1505 42.9876 55.1793 43.8516 55.3467 44.6939C55.5925 45.8444 56.1034 46.9216 56.8387 47.84L60.5817 52.6403C60.4621 52.6739 60.3513 52.7333 60.257 52.8144C60.1627 52.8954 60.0873 52.996 60.036 53.1092C59.9909 53.2122 59.9665 53.323 59.9644 53.4354C59.9623 53.5478 59.9824 53.6596 60.0236 53.7642C60.0648 53.8688 60.1263 53.9642 60.2045 54.0449C60.2827 54.1257 60.3762 54.1902 60.4794 54.2347L61.0166 54.4649L60.8887 54.5416C60.7274 54.6373 60.6021 54.7835 60.5323 54.9575C60.4625 55.1316 60.452 55.3238 60.5025 55.5044C60.553 55.6851 60.6617 55.844 60.8116 55.9566C60.9616 56.0692 61.1445 56.1293 61.332 56.1275C61.4888 56.1264 61.6422 56.0821 61.7754 55.9996L63.3101 55.0532C63.442 54.9713 63.549 54.8549 63.6196 54.7167C63.6902 54.5785 63.7218 54.4236 63.7108 54.2688C63.7108 54.2688 63.7108 54.2091 63.7108 54.175C65.1773 52.3163 68.6219 47.9509 69.142 47.1835L69.1931 47.1068C70.1005 45.6027 70.4508 43.8277 70.1828 42.0917C69.9147 40.3557 69.0454 38.769 67.7266 37.6086ZM67.7266 46.1348C67.4964 46.5014 64.7851 49.9545 62.7474 52.5294L58.2029 46.689C57.7079 46.0896 57.3449 45.3924 57.1378 44.6431C56.9306 43.8938 56.8839 43.1092 57.0007 42.3407C57.1852 41.0653 57.7874 39.8872 58.7132 38.9908C59.6389 38.0943 60.8358 37.5303 62.1164 37.387C62.9294 37.2928 63.7531 37.3735 64.5325 37.6234C65.3118 37.8734 66.0287 38.287 66.6353 38.8364C67.252 39.3887 67.7443 40.0658 68.0794 40.8229C68.4146 41.5799 68.5849 42.3995 68.5793 43.2274C68.5607 44.2554 68.2662 45.2596 67.7266 46.1348Z" fill="white"/>
<path d="M45.8656 64.0404L32.3858 62.8894C32.2128 62.8713 32.0384 62.9065 31.886 62.9903C31.7336 63.0741 31.6105 63.2026 31.5332 63.3583C31.4565 63.51 31.4268 63.6812 31.4481 63.8498C31.4694 64.0184 31.5406 64.1769 31.6525 64.3048L36.0606 69.3352L36.521 76.0367C36.5326 76.2107 36.5974 76.3769 36.7064 76.5129C36.8155 76.6489 36.9636 76.7483 37.1308 76.7975C37.2981 76.8468 37.4764 76.8436 37.6418 76.7883C37.8071 76.7331 37.9516 76.6285 38.0557 76.4886L46.4539 65.4046C46.5449 65.2843 46.6023 65.1419 46.6203 64.9921C46.6382 64.8424 46.6162 64.6905 46.5562 64.552C46.4967 64.4132 46.4015 64.2927 46.2801 64.2028C46.1588 64.113 46.0157 64.0569 45.8656 64.0404ZM38.0812 73.6494L37.7573 68.9259C37.7457 68.7404 37.6738 68.5638 37.5526 68.4229L34.3553 64.7737L44.1775 65.6263L38.0812 73.6494Z" fill="white"/>
<path d="M45.2853 46.6988C45.2374 46.8026 45.211 46.915 45.2074 47.0293C45.2039 47.1436 45.2234 47.2574 45.2648 47.364C45.3061 47.4706 45.3685 47.5678 45.4482 47.6497C45.5279 47.7317 45.6233 47.7969 45.7286 47.8413L49.4119 49.4356C49.5191 49.4845 49.6352 49.5106 49.753 49.5124C49.9501 49.514 50.1417 49.4472 50.2951 49.3235C50.4486 49.1998 50.5544 49.0267 50.5946 48.8337C50.6348 48.6407 50.6069 48.4398 50.5156 48.265C50.4244 48.0903 50.2754 47.9526 50.094 47.8754L46.4107 46.2554C46.3078 46.2102 46.1969 46.1859 46.0845 46.1837C45.9721 46.1816 45.8604 46.2017 45.7558 46.2429C45.6512 46.2841 45.5557 46.3456 45.475 46.4239C45.3942 46.5021 45.3298 46.5955 45.2853 46.6988Z" fill="white"/>
<path d="M57.1282 52.6763C57.3253 52.6779 57.5169 52.6111 57.6704 52.4874C57.8238 52.3636 57.9297 52.1906 57.9699 51.9976C58.0101 51.8046 57.9822 51.6036 57.8909 51.4289C57.7996 51.2542 57.6506 51.1165 57.4693 51.0392L53.7774 49.4449C53.5747 49.3765 53.3536 49.3868 53.1581 49.4739C52.9626 49.561 52.807 49.7184 52.7222 49.9148C52.6374 50.1113 52.6295 50.3325 52.7002 50.5345C52.7709 50.7365 52.915 50.9045 53.1039 51.0051L56.7957 52.5995C56.8996 52.6492 57.0131 52.6754 57.1282 52.6763Z" fill="white"/>
<path d="M50.6225 60.835L47.2121 62.9409C47.0543 63.0387 46.9327 63.1854 46.8658 63.3585C46.799 63.5317 46.7904 63.722 46.8416 63.9005C46.8927 64.0789 47.0007 64.2358 47.1491 64.3474C47.2975 64.4589 47.4783 64.5189 47.664 64.5183C47.8207 64.5172 47.9741 64.4729 48.1073 64.3904L51.5178 62.2844C51.6138 62.2259 51.6973 62.149 51.7635 62.058C51.8296 61.9671 51.8771 61.864 51.9033 61.7547C51.9294 61.6453 51.9337 61.5318 51.9158 61.4208C51.898 61.3098 51.8583 61.2034 51.7991 61.1078C51.7399 61.0125 51.6625 60.9298 51.5713 60.8645C51.48 60.7991 51.3768 60.7525 51.2675 60.7271C51.1582 60.7018 51.0449 60.6982 50.9343 60.7168C50.8236 60.7353 50.7177 60.7754 50.6225 60.835Z" fill="white"/>
<path d="M57.4946 56.6151L54.0842 58.7296C53.927 58.827 53.8057 58.9729 53.7387 59.1452C53.6716 59.3176 53.6624 59.507 53.7125 59.6851C53.7625 59.8631 53.8691 60.02 54.0161 60.1322C54.1631 60.2444 54.3426 60.3057 54.5275 60.3069C54.6872 60.3075 54.8437 60.2631 54.9794 60.1791L58.3472 58.0731C58.5089 57.9457 58.619 57.7642 58.6573 57.562C58.6956 57.3598 58.6594 57.1506 58.5556 56.973C58.4517 56.7953 58.2871 56.6613 58.0921 56.5955C57.8971 56.5297 57.6849 56.5367 57.4946 56.6151Z" fill="white"/>
</svg>
