<svg width="102" height="102" viewBox="0 0 102 102" fill="none" xmlns="http://www.w3.org/2000/svg">
<circle opacity="0.2" cx="50.6882" cy="51.1628" r="49.9148" fill="#73768D" stroke="white"/>
<path d="M25.6826 41.7714C25.6826 50.3813 32.6859 57.3852 41.2964 57.3852C44.1876 57.3852 46.8956 56.5916 49.2205 55.2167L59.5225 75.824C59.6275 76.034 59.8449 76.1683 60.0793 76.1683C60.3162 76.1683 60.5335 76.034 60.6385 75.8216L75.6271 45.8474C75.7248 45.6545 75.7126 45.4225 75.6003 45.2394C75.4855 45.0562 75.2852 44.9439 75.0679 44.9439H56.583C56.7954 43.9183 56.9077 42.8586 56.9077 41.7695C56.9077 33.1615 49.9045 26.1582 41.2965 26.1582C32.6866 26.1582 25.6826 33.1609 25.6826 41.7714ZM74.0567 46.1937L60.0795 74.1462L50.2726 54.5304C53.1125 52.5256 55.2541 49.6026 56.2649 46.1937H74.0567ZM49.7087 53.3995L46.1069 46.1937H54.9587C54.0088 49.1166 52.1457 51.6318 49.7087 53.3995ZM41.2964 27.408C49.2155 27.408 55.6574 33.85 55.6574 41.7715C55.6574 42.8631 55.5304 43.9228 55.3009 44.946L45.0938 44.9435C44.8765 44.9435 44.6763 45.0559 44.5615 45.2415C44.4467 45.427 44.437 45.6566 44.5346 45.8495L48.659 54.0955C46.5053 55.3873 43.9852 56.1321 41.2969 56.1321C33.3753 56.1321 26.9334 49.6876 26.9334 41.7711C26.9334 33.852 33.3753 27.4075 41.2969 27.4075L41.2964 27.408Z" fill="white"/>
</svg>
