<svg width="102" height="102" viewBox="0 0 102 102" fill="none" xmlns="http://www.w3.org/2000/svg">
<circle opacity="0.2" cx="50.6882" cy="50.9304" r="49.9148" fill="#73768D" stroke="white"/>
<path d="M62.38 67.5727C62.2579 67.5714 62.1383 67.5382 62.0329 67.4766C61.9275 67.415 61.84 67.327 61.779 67.2213L43.8541 38.081C43.3766 37.2512 43.241 36.2681 43.4759 35.34C43.7109 34.4119 44.2979 33.6118 45.1127 33.1091C45.9275 32.6065 46.9059 32.4408 47.8408 32.6472C48.7756 32.8536 49.5934 33.4158 50.1208 34.2148L67.8735 62.8595C67.9222 62.938 67.9549 63.0253 67.9699 63.1164C67.9848 63.2075 67.9817 63.3007 67.9607 63.3906C67.9396 63.4805 67.901 63.5654 67.8472 63.6404C67.7933 63.7155 67.7252 63.7791 67.6468 63.8278C67.5683 63.8765 67.481 63.9093 67.3899 63.9242C67.2988 63.9392 67.2056 63.9361 67.1157 63.915C67.0257 63.894 66.9409 63.8554 66.8658 63.8015C66.7908 63.7477 66.7272 63.6796 66.6785 63.6011L48.9293 34.9634C48.5965 34.4839 48.0923 34.1505 47.5208 34.032C46.9494 33.9134 46.3542 34.0188 45.8581 34.3264C45.3621 34.6339 45.0031 35.1202 44.8551 35.6847C44.7072 36.2493 44.7816 36.8492 45.0631 37.3604L62.988 66.5007C63.0493 66.6068 63.0818 66.727 63.0823 66.8494C63.0828 66.9719 63.0513 67.0923 62.9909 67.1989C62.9305 67.3054 62.8434 67.3943 62.7381 67.4568C62.6328 67.5193 62.513 67.5532 62.3905 67.5551L62.38 67.5727Z" fill="white"/>
<path d="M35.272 73.421C34.2293 73.421 33.21 73.1118 32.3431 72.5325C31.4761 71.9532 30.8003 71.1298 30.4013 70.1665C30.0023 69.2032 29.8979 68.1431 30.1013 67.1205C30.3047 66.0978 30.8068 65.1584 31.5441 64.4211C32.2815 63.6838 33.2208 63.1817 34.2435 62.9783C35.2662 62.7748 36.3262 62.8792 37.2896 63.2783C38.2529 63.6773 39.0763 64.353 39.6556 65.22C40.2349 66.087 40.5441 67.1063 40.5441 68.149C40.5441 69.5472 39.9886 70.8882 38.9999 71.8769C38.0112 72.8656 36.6703 73.421 35.272 73.421ZM35.272 64.2828C34.5074 64.2828 33.7599 64.5096 33.1241 64.9344C32.4883 65.3592 31.9928 65.963 31.7002 66.6695C31.4076 67.3759 31.331 68.1533 31.4802 68.9032C31.6293 69.6532 31.9976 70.3421 32.5383 70.8828C33.0789 71.4235 33.7678 71.7917 34.5178 71.9409C35.2677 72.09 36.0451 72.0135 36.7516 71.7209C37.458 71.4282 38.0618 70.9327 38.4866 70.2969C38.9115 69.6611 39.1382 68.9136 39.1382 68.149C39.1382 67.6413 39.0382 67.1385 38.8439 66.6695C38.6496 66.2004 38.3648 65.7742 38.0058 65.4152C37.6468 65.0562 37.2206 64.7714 36.7516 64.5771C36.2825 64.3828 35.7797 64.2828 35.272 64.2828Z" fill="white"/>
<path d="M66.9459 73.421C65.9032 73.421 64.8839 73.1118 64.0169 72.5325C63.1499 71.9532 62.4742 71.1298 62.0751 70.1665C61.6761 69.2032 61.5717 68.1431 61.7751 67.1205C61.9786 66.0978 62.4807 65.1584 63.218 64.4211C63.9553 63.6838 64.8947 63.1817 65.9173 62.9783C66.94 62.7748 68 62.8792 68.9634 63.2783C69.9267 63.6773 70.7501 64.353 71.3294 65.22C71.9087 66.087 72.2179 67.1063 72.2179 68.149C72.2179 69.5472 71.6625 70.8882 70.6738 71.8769C69.6851 72.8656 68.3441 73.421 66.9459 73.421ZM66.9459 64.2828C66.1812 64.2828 65.4337 64.5096 64.7979 64.9344C64.1622 65.3592 63.6666 65.963 63.374 66.6695C63.0814 67.3759 63.0048 68.1533 63.154 68.9032C63.3032 69.6532 63.6714 70.3421 64.2121 70.8828C64.7528 71.4235 65.4417 71.7917 66.1916 71.9409C66.9416 72.09 67.7189 72.0135 68.4254 71.7209C69.1318 71.4282 69.7356 70.9327 70.1605 70.2969C70.5853 69.6611 70.812 68.9136 70.812 68.149C70.812 67.1236 70.4047 66.1402 69.6797 65.4152C68.9546 64.6902 67.9712 64.2828 66.9459 64.2828Z" fill="white"/>
<path d="M43.8401 36.9001C43.7661 36.8999 43.6925 36.8881 43.6222 36.865L32.5369 33.2378C31.9193 33.0178 31.4145 32.5615 31.1333 31.9693C30.8522 31.377 30.8179 30.6974 31.0379 30.0798C31.2578 29.4623 31.7141 28.9574 32.3064 28.6763C32.8986 28.3952 33.5783 28.3608 34.1958 28.5808L45.9314 32.5489C46.1014 32.6132 46.24 32.7408 46.318 32.9051C46.3959 33.0694 46.4072 33.2574 46.3494 33.4298C46.2917 33.6022 46.1693 33.7455 46.0081 33.8296C45.847 33.9138 45.6595 33.9322 45.485 33.881L33.7319 29.9059C33.4662 29.808 33.1725 29.8197 32.9155 29.9383C32.6584 30.0569 32.459 30.2728 32.3611 30.5385C32.2633 30.8042 32.2749 31.0978 32.3936 31.3549C32.5122 31.612 32.7281 31.8114 32.9938 31.9092L44.058 35.5294C44.2167 35.5815 44.3516 35.6885 44.4386 35.8311C44.5256 35.9737 44.559 36.1426 44.5328 36.3075C44.5065 36.4725 44.4224 36.6227 44.2955 36.7313C44.1686 36.8399 44.0072 36.8997 43.8401 36.9001Z" fill="white"/>
<path d="M39.1591 66.0407C39.0325 66.0409 38.9082 66.0068 38.7993 65.9422C38.6904 65.8776 38.6009 65.7847 38.5405 65.6735C38.48 65.5622 38.4507 65.4367 38.4556 65.3102C38.4606 65.1836 38.4996 65.0608 38.5686 64.9546L49.9598 47.3812C50.0688 47.2526 50.2204 47.1674 50.387 47.1413C50.5536 47.1152 50.724 47.1498 50.8672 47.2389C51.0104 47.3279 51.1168 47.4655 51.167 47.6265C51.2172 47.7874 51.2079 47.9611 51.1407 48.1157L39.7496 65.6892C39.6895 65.7934 39.6036 65.8805 39.5002 65.942C39.3968 66.0035 39.2794 66.0375 39.1591 66.0407Z" fill="white"/>
<path d="M35.6444 64.2828C35.5186 64.2828 35.3951 64.2491 35.2867 64.1851C35.1784 64.121 35.0892 64.0291 35.0285 63.9189C34.9679 63.8086 34.9379 63.6841 34.9417 63.5583C34.9456 63.4326 34.9831 63.3101 35.0505 63.2038L47.3519 43.873C47.4015 43.795 47.466 43.7275 47.5417 43.6745C47.6174 43.6214 47.7028 43.5837 47.793 43.5637C47.8833 43.5436 47.9766 43.5415 48.0676 43.5575C48.1587 43.5735 48.2457 43.6072 48.3237 43.6569C48.4017 43.7065 48.4692 43.771 48.5222 43.8467C48.5753 43.9224 48.613 44.0078 48.633 44.098C48.6531 44.1882 48.6552 44.2816 48.6392 44.3726C48.6232 44.4637 48.5895 44.5507 48.5398 44.6287L36.2384 63.9595C36.1746 64.059 36.0867 64.1408 35.9829 64.1973C35.8791 64.2538 35.7627 64.2832 35.6444 64.2828Z" fill="white"/>
</svg>
