<svg width="102" height="102" viewBox="0 0 102 102" fill="none" xmlns="http://www.w3.org/2000/svg">
<circle opacity="0.2" cx="50.6882" cy="50.698" r="49.9148" fill="#73768D" stroke="white"/>
<path d="M61.0183 44.7286C62.298 43.8798 63.2707 42.6419 63.7926 41.1978C64.3146 39.7536 64.3582 38.1799 63.917 36.7091C63.4757 35.2382 62.573 33.9484 61.3423 33.03C60.1116 32.1117 58.6181 31.6136 57.0826 31.6094H45.156C43.6204 31.6136 42.1269 32.1117 40.8962 33.03C39.6655 33.9484 38.7628 35.2382 38.3216 36.7091C37.8803 38.1799 37.9239 39.7536 38.4459 41.1978C38.9679 42.6419 39.9405 43.8798 41.2202 44.7286C40.2361 45.3814 39.4289 46.2675 38.8705 47.308C38.3121 48.3486 38.0198 49.5111 38.0198 50.692C38.0198 51.8728 38.3121 53.0354 38.8705 54.0759C39.4289 55.1164 40.2361 56.0025 41.2202 56.6553C40.1855 57.3366 39.3455 58.275 38.7823 59.3784C38.219 60.4818 37.9519 61.7126 38.0071 62.9502C38.0622 64.1879 38.4378 65.39 39.0969 66.439C39.756 67.4879 40.6762 68.3478 41.7674 68.9345C42.8585 69.5211 44.0833 69.8144 45.3218 69.7857C46.5604 69.757 47.7702 69.4072 48.833 68.7706C49.8958 68.134 50.7752 67.2324 51.385 66.1541C51.9948 65.0757 52.3142 63.8574 52.3119 62.6186V56.0589C53.6503 57.1841 55.3344 57.8156 57.0826 57.8479C58.6181 57.8437 60.1116 57.3456 61.3423 56.4273C62.573 55.5089 63.4757 54.219 63.917 52.7482C64.3582 51.2774 64.3146 49.7037 63.7926 48.2595C63.2707 46.8154 62.298 45.5775 61.0183 44.7286ZM52.3119 33.9947H57.0826C58.3478 33.9947 59.5613 34.4973 60.4559 35.392C61.3506 36.2867 61.8532 37.5001 61.8532 38.7653C61.8532 40.0306 61.3506 41.244 60.4559 42.1387C59.5613 43.0334 58.3478 43.536 57.0826 43.536H52.3119V33.9947ZM40.3853 38.7653C40.3853 37.5001 40.8879 36.2867 41.7826 35.392C42.6773 34.4973 43.8907 33.9947 45.156 33.9947H49.9266V43.536H45.156C43.8907 43.536 42.6773 43.0334 41.7826 42.1387C40.8879 41.244 40.3853 40.0306 40.3853 38.7653ZM40.3853 50.692C40.3853 49.4267 40.8879 48.2133 41.7826 47.3186C42.6773 46.4239 43.8907 45.9213 45.156 45.9213H49.9266V55.4626H45.156C43.8907 55.4626 42.6773 54.96 41.7826 54.0653C40.8879 53.1706 40.3853 51.9572 40.3853 50.692ZM49.9266 62.6186C49.9266 63.5621 49.6468 64.4845 49.1226 65.269C48.5984 66.0535 47.8533 66.665 46.9816 67.0261C46.1099 67.3871 45.1507 67.4816 44.2252 67.2975C43.2998 67.1135 42.4498 66.6591 41.7826 65.9919C41.1154 65.3247 40.6611 64.4747 40.477 63.5493C40.2929 62.6239 40.3874 61.6646 40.7485 60.7929C41.1095 59.9212 41.721 59.1761 42.5055 58.6519C43.2901 58.1277 44.2124 57.8479 45.156 57.8479H49.9266V62.6186ZM57.0826 55.4626C56.139 55.4626 55.2167 55.1828 54.4321 54.6586C53.6476 54.1344 53.0361 53.3893 52.6751 52.5176C52.314 51.6459 52.2195 50.6867 52.4036 49.7612C52.5877 48.8358 53.042 47.9858 53.7092 47.3186C54.3764 46.6514 55.2264 46.1971 56.1519 46.013C57.0773 45.8289 58.0365 45.9234 58.9082 46.2845C59.7799 46.6455 60.525 47.257 61.0492 48.0415C61.5734 48.8261 61.8532 49.7484 61.8532 50.692C61.8532 51.9572 61.3506 53.1706 60.4559 54.0653C59.5613 54.96 58.3478 55.4626 57.0826 55.4626Z" fill="white"/>
</svg>
