<svg width="102" height="102" viewBox="0 0 102 102" fill="none" xmlns="http://www.w3.org/2000/svg">
<circle opacity="0.2" cx="50.6882" cy="50.8484" r="49.9148" fill="#73768D" stroke="white"/>
<path d="M36.5177 45.6043C36.5177 45.3108 36.7561 45.0725 37.0495 45.0725H47.2823C47.5757 45.0725 47.8141 45.3108 47.8141 45.6043C47.8141 45.8977 47.5757 46.1361 47.2823 46.1361H37.0495C36.7561 46.1361 36.5177 45.8977 36.5177 45.6043ZM37.0495 48.5201H47.2823C47.5757 48.5201 47.8141 48.2817 47.8141 47.9882C47.8141 47.6948 47.5757 47.4564 47.2823 47.4564H37.0495C36.7561 47.4564 36.5177 47.6948 36.5177 47.9882C36.5177 48.2817 36.7561 48.5201 37.0495 48.5201ZM52.77 60.6142H52.7654L41.1114 60.7196C40.818 60.7242 40.5842 60.9626 40.5842 61.256C40.5888 61.5494 40.8226 61.7832 41.116 61.7832H41.1206L52.7746 61.6778C53.068 61.6732 53.3018 61.4348 53.3018 61.1414C53.2973 60.848 53.0589 60.6142 52.77 60.6142ZM52.77 63.3603H52.7654L41.1114 63.4658C40.818 63.4704 40.5842 63.7088 40.5842 64.0022C40.5888 64.2956 40.8226 64.5294 41.116 64.5294H41.1206L52.7746 64.424C53.068 64.4194 53.3018 64.181 53.3018 63.8876C53.2973 63.5941 53.0589 63.3603 52.77 63.3603ZM52.77 66.001H52.7654L41.1114 66.1065C40.818 66.1111 40.5842 66.3495 40.5842 66.6429C40.5888 66.9363 40.8226 67.1701 41.116 67.1701H41.1206L52.7746 67.0647C53.068 67.0601 53.3018 66.8217 53.3018 66.5283C53.2973 66.2349 53.0589 66.001 52.77 66.001ZM47.8141 50.3218C47.8141 50.0284 47.5757 49.79 47.2823 49.79H37.0495C36.7561 49.79 36.5177 50.0284 36.5177 50.3218C36.5177 50.6152 36.7561 50.8536 37.0495 50.8536H47.2823C47.5803 50.8536 47.8141 50.6152 47.8141 50.3218ZM68.784 69.0681L67.0143 70.0905C66.6338 70.3106 66.212 70.4206 65.7856 70.4206C65.5702 70.4206 65.3501 70.3931 65.1392 70.3335C64.4974 70.1638 63.9656 69.7512 63.6355 69.1827L63.4292 68.8297V69.4991C63.4292 70.9845 62.2234 72.1902 60.738 72.1902H36.3756C34.9085 72.1902 33.7119 71.0074 33.6844 69.5449H33.5744C32.3503 69.5449 31.3555 68.5501 31.3555 67.326V31.7267C31.3555 30.5027 32.3503 29.5078 33.5744 29.5078H57.405C58.6291 29.5078 59.624 30.5027 59.624 31.7267V32.0339H60.7334C62.2188 32.0339 63.4246 33.2397 63.4246 34.7251V46.2415C64.0756 46.8192 64.6441 47.5069 65.0934 48.2862C66.1891 50.1888 66.4825 52.4032 65.914 54.5213C65.4876 56.1075 64.6166 57.5012 63.4108 58.5603L64.6808 60.7609C65.749 60.4583 66.9272 60.903 67.5049 61.9024L69.6871 65.6847C70.3748 66.8675 69.9668 68.385 68.784 69.0681ZM62.5627 59.2113C62.4068 59.3167 62.2509 59.4176 62.0859 59.5093C61.9254 59.601 61.7604 59.6927 61.5908 59.7752L62.7552 61.7878L63.7272 61.2285L62.5627 59.2113ZM59.8303 45.4805C59.2159 45.3154 58.5879 45.2329 57.9644 45.2329C56.7265 45.2329 55.5024 45.5584 54.3976 46.1957C52.7425 47.1493 51.5597 48.6943 51.0646 50.5419C50.5694 52.3894 50.8216 54.315 51.7798 55.97C52.7334 57.625 54.2784 58.8078 56.1259 59.303C57.9735 59.7981 59.899 59.546 61.5541 58.5878C63.2091 57.6342 64.3919 56.0892 64.8871 54.2416C65.3822 52.394 65.13 50.4685 64.1719 48.8135C63.2183 47.163 61.6779 45.9756 59.8303 45.4805ZM33.5744 68.4813H33.6844V41.2077C33.6844 41.0655 33.7394 40.9326 33.8403 40.8317L42.4822 32.1898C42.5831 32.0889 42.716 32.0339 42.8582 32.0339H58.5649V31.7267C58.5649 31.0895 58.0469 30.5714 57.4096 30.5714H33.5744C32.9371 30.5714 32.4191 31.0895 32.4191 31.7267V67.326C32.4191 67.9632 32.9371 68.4813 33.5744 68.4813ZM35.4999 40.6758H42.3309V33.8448L35.4999 40.6758ZM62.3655 66.9867L61.4486 65.4005C61.1185 64.8274 61.0314 64.1626 61.2057 63.5208C61.3248 63.0807 61.5541 62.691 61.875 62.3792L60.6051 60.1786C59.7615 60.4629 58.8813 60.6096 57.9919 60.6096C57.2767 60.6096 56.5615 60.5179 55.8509 60.3253C53.7282 59.7569 51.9586 58.3952 50.8583 56.4972C49.758 54.5992 49.4691 52.3803 50.0376 50.2622C50.6061 48.1395 51.9677 46.3699 53.8657 45.2696C55.7683 44.1739 57.9827 43.8805 60.1008 44.4489C60.9122 44.6644 61.6687 44.9991 62.361 45.4346V34.7251C62.361 33.8265 61.632 33.0975 60.7334 33.0975H43.39V41.2122C43.39 41.5057 43.1516 41.744 42.8582 41.744H34.7435V69.5037C34.7435 70.4022 35.4724 71.1312 36.371 71.1312H60.7334C61.632 71.1312 62.361 70.4022 62.361 69.5037V66.9867H62.3655ZM68.7702 66.2165L66.5879 62.4342C66.1983 61.7603 65.3318 61.5265 64.6578 61.9162L62.8882 62.9386C62.5627 63.1265 62.3289 63.4337 62.2326 63.7959C62.1363 64.1626 62.1822 64.5432 62.3701 64.8687L64.5524 68.6509C64.7404 68.9764 65.0475 69.2103 65.4097 69.3065C65.7765 69.4028 66.157 69.357 66.4825 69.169L68.2521 68.1466C68.9307 67.7615 69.1599 66.895 68.7702 66.2165ZM63.287 49.3269C64.9788 52.2565 63.9701 56.0113 61.0452 57.703C60.0824 58.2577 59.028 58.5236 57.9919 58.5236C55.8692 58.5236 53.8061 57.4233 52.6738 55.4611C50.982 52.5316 51.9906 48.7768 54.9156 47.0851C56.3322 46.2644 57.9873 46.049 59.569 46.4707C61.1461 46.8971 62.471 47.9103 63.287 49.3269ZM62.3655 49.8587C61.687 48.6851 60.5959 47.8461 59.2893 47.4977C58.8538 47.3785 58.4091 47.3235 57.9689 47.3235C57.0887 47.3235 56.2222 47.5527 55.4428 48.0066C53.0222 49.4049 52.1924 52.5086 53.5861 54.9293C54.5259 56.5522 56.2314 57.46 57.9827 57.4646C58.84 57.4646 59.7111 57.2445 60.5088 56.786C62.934 55.3878 63.7638 52.2794 62.3655 49.8587Z" fill="white"/>
</svg>
