<svg width="102" height="101" viewBox="0 0 102 101" fill="none" xmlns="http://www.w3.org/2000/svg">
<circle opacity="0.2" cx="50.6882" cy="50.5925" r="49.9148" fill="#73768D" stroke="white"/>
<path d="M59.6903 68.0001L60.8601 63.7585C60.8878 63.6635 60.9709 63.4735 61.2401 63.4656H66.8654C67.9501 63.4656 68.8407 62.5749 68.8407 61.4903V55.7266C68.8407 55.5405 68.9694 55.3842 69.1416 55.3426L71.9482 54.4697L68.8962 49.193C68.8032 49.0307 68.8566 48.4804 68.8566 48.2726C68.8566 44.5595 67.677 40.8105 65.28 37.9466C60.5673 32.3177 51.6864 31.3854 45.5447 35.1163C46.1108 35.3577 46.5106 35.9198 46.5106 36.5691V38.109C46.5106 38.9778 45.802 39.6924 44.9271 39.6924H44.3413C44.2423 39.9774 44.1275 40.2585 43.9929 40.5316L44.4086 40.9472C45.0202 41.5588 45.0202 42.5702 44.4086 43.1838L43.32 44.2724C42.7084 44.884 41.697 44.884 41.0834 44.2724L40.6677 43.8568C40.3946 43.9914 40.1155 44.1062 39.8265 44.2051V44.795C39.8265 45.6184 39.1872 46.3012 38.3777 46.3685C37.6018 53.0762 41.2397 59.4712 47.407 62.1912C47.595 62.2723 47.6841 62.4801 47.6247 62.6682L46.7558 66.2646C51.0687 66.8405 55.3874 67.3667 59.6903 68.0001ZM49.2001 54.6993H57.812C58.2632 54.0461 59.144 53.0486 60.003 52.0629C62.0021 49.7551 62.6355 46.5445 61.634 43.6391L52.7865 50.9603C52.7252 51.0158 52.644 51.0553 52.553 51.0613L49.113 51.3641C48.8398 51.3879 48.6261 51.1286 48.7013 50.8614L49.6355 47.554C49.6553 47.4729 49.6989 47.3996 49.7662 47.3402L58.9222 39.7636C55.5059 36.9867 50.5399 37.244 47.4283 40.3574C44.2337 43.552 44.0615 48.6627 47.0087 52.0611C47.8637 53.0487 48.7489 54.0482 49.2001 54.6993ZM40.7763 62.1574C42.7081 62.1574 43.6819 64.5048 42.3122 65.8705C40.9425 67.2402 38.5951 66.2664 38.5951 64.3346C38.5991 63.1312 39.5729 62.1574 40.7763 62.1574ZM41.758 63.3529C40.8851 62.484 39.3928 63.1035 39.3928 64.3346C39.3928 65.5638 40.8851 66.1832 41.758 65.3124C42.2984 64.772 42.2984 63.8952 41.758 63.3529ZM34.8386 57.0491C36.7704 57.0491 37.7442 59.3965 36.3785 60.7661C35.0088 62.1358 32.6614 61.158 32.6614 59.2262C32.6614 58.0248 33.6352 57.0491 34.8386 57.0491ZM35.8183 58.2465C34.9494 57.3777 33.4531 57.9972 33.4531 59.2243C33.4531 60.4554 34.9494 61.0769 35.8183 60.206C36.3587 59.6677 36.3587 58.7889 35.8183 58.2465ZM33.4135 48.4987C35.3453 48.4987 36.3191 50.8461 34.9534 52.2158C33.5837 53.5854 31.2363 52.6077 31.2363 50.6759C31.2363 49.4745 32.2101 48.4987 33.4135 48.4987ZM34.3932 49.6962C33.5244 48.8273 32.028 49.4468 32.028 50.674C32.028 51.9051 33.5243 52.5265 34.3932 51.6557C34.9336 51.1173 34.9336 50.2385 34.3932 49.6962ZM44.3311 34.9624C50.833 30.4497 60.6918 31.2374 65.8855 37.4405C68.4071 40.4569 69.6461 44.3878 69.6461 48.2752C69.6461 48.4652 69.6422 48.675 69.6343 48.8967L72.8684 54.4861C73.007 54.7038 72.9021 55.0007 72.6507 55.0759L69.6323 56.0181V61.4909C69.6323 63.015 68.3893 64.2599 66.8653 64.2599H61.5409L60.476 68.1156C60.765 68.1591 61.054 68.2027 61.339 68.2462C61.4854 68.27 61.6002 68.3689 61.6477 68.4976L63.1065 72.3374C63.249 72.7135 63.0055 72.8718 62.7383 72.8718H42.435C42.1796 72.8718 41.9916 72.6343 42.051 72.3869L43.1277 66.1484C43.1633 65.9327 43.3732 65.7862 43.5889 65.8278C44.3826 65.9386 45.1763 66.0495 45.9719 66.1563L46.7874 62.7718C40.5054 59.8484 36.8197 53.2712 37.5797 46.3695L36.7068 46.3714C35.838 46.3714 35.1274 45.6629 35.1274 44.792V44.2021C34.8384 44.1032 34.5573 43.9884 34.2861 43.8538L33.8705 44.2694C33.2589 44.881 32.2495 44.881 31.6339 44.2694L30.5453 43.1808C29.9337 42.5692 29.9337 41.5578 30.5453 40.9442L30.9609 40.5286C30.8303 40.2554 30.7115 39.9764 30.6126 39.6894H30.0267C29.1579 39.6894 28.4473 38.9769 28.4473 38.1059L28.4492 36.572C28.4492 35.7031 29.1578 34.9925 30.0287 34.9925H30.6146C30.7135 34.7036 30.8303 34.4265 30.9629 34.1513L30.5473 33.7357C29.9357 33.1241 29.9357 32.1146 30.5473 31.5031L31.6359 30.4105C32.2494 29.7989 33.2589 29.7989 33.8725 30.4105L34.2881 30.8262C34.5613 30.6955 34.8403 30.5768 35.1293 30.4778L35.1274 29.892C35.1274 29.0231 35.8359 28.3125 36.7068 28.3125H38.2467C39.1156 28.3125 39.8262 29.0211 39.8262 29.892V30.4778C40.1152 30.5768 40.3962 30.6936 40.6674 30.8262L41.0831 30.4105C41.6947 29.7989 42.7061 29.7989 43.3197 30.4105L44.4083 31.5031C45.0199 32.1146 45.0199 33.1241 44.4083 33.7357L43.9926 34.1513C44.1213 34.4146 44.2341 34.6853 44.3311 34.9624ZM29.2391 36.5716V38.1115C29.2391 38.545 29.5954 38.8993 30.0269 38.8993L30.9017 38.9032C31.072 38.9032 31.2303 39.0141 31.2818 39.1863C31.4045 39.6019 31.5747 40.0097 31.7786 40.3936C31.8795 40.548 31.8617 40.7558 31.7271 40.8904L31.1076 41.51C30.8028 41.8128 30.8028 42.3215 31.1076 42.6223L32.1961 43.7149C32.501 44.0177 33.0077 44.0177 33.3125 43.7149L33.926 43.0973C34.0467 42.9746 34.2387 42.939 34.3971 43.026C34.785 43.2339 35.1888 43.4061 35.6064 43.5308C35.7846 43.5703 35.9191 43.7267 35.9191 43.9187V44.7936C35.9191 45.225 36.2754 45.5813 36.7069 45.5813H38.2468C38.6783 45.5813 39.0346 45.2251 39.0346 44.7936V43.9187C39.0346 43.7287 39.1692 43.5703 39.3473 43.5308C39.7669 43.4041 40.1707 43.2339 40.5566 43.026C40.717 42.939 40.907 42.9726 41.0277 43.0973L41.6453 43.7149C41.9481 44.0177 42.4568 44.0177 42.7576 43.7149L43.8462 42.6223C44.151 42.3195 44.151 41.8108 43.8462 41.51L43.2286 40.8904C43.0941 40.7558 43.0743 40.548 43.1772 40.3936C43.3811 40.0116 43.5493 39.6019 43.674 39.1863C43.7255 39.0121 43.8818 38.9032 44.054 38.9032L44.9269 38.8993C45.3604 38.8993 45.7186 38.547 45.7186 38.1115L45.7206 36.5716C45.7206 36.1401 45.3643 35.7838 44.9289 35.7838H44.056C43.8858 35.7838 43.7274 35.673 43.676 35.5008C43.5533 35.0852 43.383 34.6774 43.1792 34.2935C43.0762 34.1391 43.096 33.9312 43.2306 33.7947L43.8482 33.1771C44.153 32.8723 44.153 32.3656 43.8482 32.0608L42.7596 30.9722C42.4568 30.6674 41.9481 30.6674 41.6473 30.9722L41.0297 31.5858C40.909 31.7125 40.717 31.7461 40.5586 31.659C40.1707 31.4492 39.7709 31.279 39.3493 31.1543C39.1711 31.1147 39.0366 30.9564 39.0366 30.7664V29.8915C39.0366 29.46 38.6803 29.1037 38.2488 29.1037H36.7069C36.2754 29.1037 35.9192 29.46 35.9192 29.8915V30.7664C35.9192 30.9544 35.7885 31.1147 35.6064 31.1543C35.1888 31.281 34.783 31.4492 34.3971 31.659C34.2387 31.7461 34.0468 31.7125 33.926 31.5858L33.3125 30.9722C33.0076 30.6674 32.5009 30.6674 32.1962 30.9722L31.1076 32.0608C30.8028 32.3656 30.8028 32.8723 31.1076 33.1771L31.7271 33.7947C31.8617 33.9332 31.8775 34.1391 31.7786 34.2935C31.5747 34.6755 31.4065 35.0852 31.2818 35.5008C31.2303 35.671 31.0739 35.7838 30.9017 35.7838H30.0269C29.5954 35.7819 29.2391 36.1381 29.2391 36.5716ZM41.4135 37.3415C41.4135 39.5148 39.6519 41.2783 37.4767 41.2783C35.3035 41.2783 33.54 39.5167 33.54 37.3415C33.54 35.1683 35.3015 33.4048 37.4767 33.4048C39.654 33.4067 41.4135 35.1683 41.4135 37.3415ZM40.6218 37.3415C40.6218 35.6037 39.2126 34.1965 37.4767 34.1965C35.7389 34.1965 34.3317 35.6057 34.3317 37.3415C34.3317 39.0794 35.7409 40.4866 37.4767 40.4866C39.2146 40.4886 40.6218 39.0794 40.6218 37.3415ZM50.5617 47.7091L52.5588 50.1218L59.4666 44.4058L57.4438 42.0148L50.5617 47.7091ZM51.7156 50.3395L50.1896 48.4968L49.6156 50.5236L51.7156 50.3395ZM62.2792 43.1014C63.5084 46.3316 62.8512 49.9772 60.5988 52.5781C59.8625 53.4253 58.9758 54.4406 58.5819 54.9731C59.8605 55.8063 59.4013 57.7639 57.9169 57.9697C58.5937 59.0544 57.7981 60.4636 56.5254 60.4636H56.4304C56.3908 61.1208 56.1751 61.6314 55.7179 61.9956C54.7421 62.7715 51.9474 62.7715 50.9716 61.9956C50.5084 61.6275 50.2947 61.1128 50.259 60.4498C49.0972 60.2894 48.4638 58.9772 49.0913 57.9697C47.6068 57.7659 47.1476 55.8064 48.4223 54.9771C48.0304 54.4387 47.1437 53.4253 46.4073 52.5782C43.1929 48.867 43.375 43.2914 46.8645 39.7957C50.3065 36.3537 55.8148 36.1123 59.5401 39.2495L60.6247 38.3509C61.1096 37.9392 61.8756 38.0005 62.2992 38.5092L63.7876 40.3084C64.2033 40.8131 64.132 41.5653 63.6273 41.9829L62.2792 43.1014ZM61.5172 42.7055L59.524 40.2928L58.0554 41.508L60.0783 43.899L61.5172 42.7055ZM60.1317 39.788L62.1248 42.2008L63.1303 41.3735C63.2985 41.2329 63.3203 40.9816 63.1818 40.8113L61.6835 39.0023C61.5528 38.8419 61.3133 38.8202 61.1194 38.9706L60.1317 39.788ZM57.6932 57.1941C58.4334 57.1941 58.8254 56.2896 58.2909 55.7532C58.1366 55.6027 57.9268 55.5058 57.6932 55.5058H49.3129C48.5747 55.5058 48.1808 56.4103 48.7191 56.9447C48.8696 57.0991 49.0833 57.1941 49.3129 57.1941L57.6932 57.1941ZM51.0509 60.4639C51.0846 60.8716 51.2112 61.1764 51.4626 61.3763C52.1276 61.9068 54.5622 61.9068 55.2272 61.3763C55.4786 61.1784 55.6072 60.8716 55.6389 60.4639H51.0509ZM50.4749 57.9838C49.7387 57.9898 49.3507 58.8904 49.8851 59.4248C50.0355 59.5752 50.2493 59.6722 50.4789 59.6722H56.5238C57.264 59.6722 57.656 58.7676 57.1215 58.2333C56.9711 58.0789 56.7593 57.9859 56.5297 57.9839L50.4749 57.9838ZM62.1685 72.0822L60.9928 68.9945C55.2884 68.1196 49.5567 67.4665 43.8401 66.6629L42.9058 72.082L62.1685 72.0822Z" fill="white"/>
</svg>
