<svg width="102" height="102" viewBox="0 0 102 102" fill="none" xmlns="http://www.w3.org/2000/svg">
<circle opacity="0.2" cx="50.6882" cy="51.3367" r="49.9148" fill="#73768D" stroke="white"/>
<path d="M65.6067 34.9173H45.5423V32.1696C45.5423 30.7654 44.3999 29.623 42.9958 29.623H40.608C39.2038 29.623 38.0615 30.7654 38.0615 32.1696V34.9173H36.1347C33.8547 34.9173 32 36.7721 32 39.0516V57.83C32 60.1096 33.8547 61.9643 36.1347 61.9643H46.309C46.7887 62.7629 46.9465 63.4386 46.7891 64.0226C46.4697 65.2098 44.8019 66.0328 43.3305 66.7585C41.6493 67.5881 40.0611 68.3714 40.0611 69.798C40.0611 70.117 40.3195 70.3759 40.639 70.3759H61.1034C61.4223 70.3759 61.6812 70.1174 61.6812 69.798C61.6812 68.371 60.093 67.5876 58.4119 66.7585C56.9405 66.0328 55.2727 65.2098 54.9532 64.0226C54.7959 63.4386 54.9537 62.7625 55.4334 61.9643H65.6076C67.8876 61.9643 69.7424 60.1096 69.7424 57.83V39.0521C69.7424 36.7721 67.8876 34.9178 65.6076 34.9178L65.6067 34.9173ZM39.2167 32.1696C39.2167 31.4024 39.8408 30.7783 40.608 30.7783H42.9958C43.7629 30.7783 44.3871 31.4024 44.3871 32.1696V41.0908C44.3871 41.4098 44.6455 41.6682 44.9649 41.6682H47.3274L44.6316 45.6471L41.8009 49.8223L38.9721 45.6471L36.2744 41.6682H38.6388C38.9578 41.6682 39.2167 41.4098 39.2167 41.0908V32.1696ZM36.1347 36.0726H38.0615V40.5134H35.185C34.9714 40.5134 34.7749 40.6317 34.6748 40.8205C34.5747 41.0093 34.5871 41.2382 34.7072 41.4151L38.0162 46.2955L41.3227 51.1759C41.43 51.3347 41.6093 51.4296 41.8009 51.4296C41.9926 51.4296 42.1714 51.3347 42.2792 51.1759L45.5881 46.2955L48.8946 41.4151C49.0143 41.2382 49.0267 41.0093 48.9266 40.8205C48.8265 40.6317 48.63 40.5134 48.4164 40.5134H45.5423V36.0726H65.6067C67.2492 36.0726 68.5861 37.4091 68.5861 39.0521V56.9957H33.1553V39.0521C33.1553 37.4095 34.4917 36.0726 36.1347 36.0726ZM53.8371 64.3235C54.2924 66.0156 56.2091 66.9611 57.9003 67.795C58.8338 68.2556 59.7898 68.7271 60.248 69.2211H41.4934C41.9516 68.7271 42.9076 68.2556 43.8411 67.795C45.5323 66.9606 47.449 66.0151 47.9043 64.3235C48.1017 63.5897 48.0078 62.8116 47.6164 61.9648H54.1241C53.7326 62.8116 53.6387 63.5897 53.8361 64.3235H53.8371ZM65.6071 60.8095H36.1343C34.5999 60.8095 33.3326 59.6433 33.1724 58.1509H68.568C68.4078 59.6438 67.141 60.8095 65.6062 60.8095H65.6071ZM53.3112 59.4812C53.3112 59.8002 53.0527 60.059 52.7333 60.059H49.0057C48.6868 60.059 48.4279 59.8006 48.4279 59.4812C48.4279 59.1617 48.6863 58.9033 49.0057 58.9033H52.7333C53.0523 58.9033 53.3112 59.1617 53.3112 59.4812ZM50.4485 41.1471C50.4485 40.8281 50.7069 40.5697 51.0264 40.5697H66.4654C66.7843 40.5697 67.0432 40.8281 67.0432 41.1471C67.0432 41.4661 66.7848 41.7245 66.4654 41.7245H51.0264C50.7074 41.7245 50.4485 41.4661 50.4485 41.1471ZM50.4485 44.7393C50.4485 44.4203 50.7069 44.1619 51.0264 44.1619H66.4654C66.7843 44.1619 67.0432 44.4203 67.0432 44.7393C67.0432 45.0582 66.7848 45.3166 66.4654 45.3166H51.0264C50.7074 45.3166 50.4485 45.0582 50.4485 44.7393ZM50.4485 48.3314C50.4485 48.0124 50.7069 47.7535 51.0264 47.7535H66.4654C66.7843 47.7535 67.0432 48.012 67.0432 48.3314C67.0432 48.6509 66.7848 48.9093 66.4654 48.9093H51.0264C50.7074 48.9093 50.4485 48.6509 50.4485 48.3314ZM50.4485 51.9212C50.4485 51.6022 50.7069 51.3433 51.0264 51.3433H66.4654C66.7843 51.3433 67.0432 51.6017 67.0432 51.9212C67.0432 52.2406 66.7848 52.499 66.4654 52.499H51.0264C50.7074 52.499 50.4485 52.2406 50.4485 51.9212Z" fill="white"/>
</svg>
