<svg width="102" height="102" viewBox="0 0 102 102" fill="none" xmlns="http://www.w3.org/2000/svg">
<circle opacity="0.2" cx="50.6882" cy="50.6765" r="49.9148" fill="#73768D" stroke="white"/>
<path d="M69.0913 38.0547H32.2832V52.2521H69.0913V38.0547Z" stroke="white"/>
<path fill-rule="evenodd" clip-rule="evenodd" d="M32.0195 51.9887L69.0905 38.5801Z" fill="white"/>
<path d="M32.0195 51.9887L69.0905 38.5801" stroke="white"/>
<path fill-rule="evenodd" clip-rule="evenodd" d="M69.3535 51.9887L32.2825 38.5801Z" fill="white"/>
<path d="M69.3535 51.9887L32.2825 38.5801" stroke="white"/>
<path d="M63.3082 55.9336H38.0684V56.9853H63.3082V55.9336Z" fill="white"/>
<path d="M58.0494 58.5625H43.3262V59.6142H58.0494V58.5625Z" fill="white"/>
<path d="M32.8095 68.0274H47.5327V64.3466H32.8095V68.0274ZM31.7578 63.2949H48.5844V69.0791H31.7578V63.2949Z" fill="white"/>
<path d="M53.8427 68.0274H68.5659V64.3466H53.8427V68.0274ZM52.791 63.2949H69.6176V69.0791H52.791V63.2949Z" fill="white"/>
<path d="M36.2262 31.7455C36.6619 31.7455 37.015 31.3923 37.015 30.9567C37.015 30.5211 36.6619 30.168 36.2262 30.168C35.7906 30.168 35.4375 30.5211 35.4375 30.9567C35.4375 31.3923 35.7906 31.7455 36.2262 31.7455Z" fill="white"/>
<path d="M30.9684 31.7455C31.404 31.7455 31.7572 31.3923 31.7572 30.9567C31.7572 30.5211 31.404 30.168 30.9684 30.168C30.5328 30.168 30.1797 30.5211 30.1797 30.9567C30.1797 31.3923 30.5328 31.7455 30.9684 31.7455Z" fill="white"/>
<path d="M33.5973 31.7455C34.033 31.7455 34.3861 31.3923 34.3861 30.9567C34.3861 30.5211 34.033 30.168 33.5973 30.168C33.1617 30.168 32.8086 30.5211 32.8086 30.9567C32.8086 31.3923 33.1617 31.7455 33.5973 31.7455Z" fill="white"/>
<path d="M27.8145 33.8485H73.6389V32.7969H27.8145V33.8485Z" fill="white"/>
<path d="M28.6024 29.1161V72.2342H72.7721V29.1161H28.6024ZM28.6024 28.0645H72.7721C73.353 28.0645 73.8238 28.5353 73.8238 29.1161V72.2342C73.8238 72.815 73.353 73.2858 72.7721 73.2858H28.6024C28.0216 73.2858 27.5508 72.815 27.5508 72.2342V29.1161C27.5508 28.5353 28.0216 28.0645 28.6024 28.0645Z" fill="white"/>
</svg>
