<svg width="23" height="24" viewBox="0 0 23 24" fill="none" xmlns="http://www.w3.org/2000/svg">
<path d="M21.4953 8.97197H20.0982C19.3458 8.97197 18.7009 8.29906 18.7009 7.51402C18.7009 3.36449 15.4766 0 11.5 0H7.20093C3.22429 0 0 3.36449 0 7.51402V16.486C0 20.6355 3.22429 24 7.20093 24H15.7991C19.7757 24 23 20.6355 23 16.486V10.542C23 9.64481 22.3551 8.97197 21.4953 8.97197ZM7.09346 6.05608H12.2524C13.0047 6.05608 13.6495 6.72897 13.6495 7.51402C13.6495 8.29906 13.0047 8.97197 12.2524 8.97197H7.09346C6.34113 8.97197 5.69626 8.29906 5.69626 7.51402C5.69626 6.72897 6.34113 6.05608 7.09346 6.05608ZM15.9065 17.9439H7.20093C6.4486 17.9439 5.80374 17.2711 5.80374 16.486C5.80374 15.7009 6.4486 15.028 7.20093 15.028H15.9065C16.6589 15.028 17.3038 15.7009 17.3038 16.486C17.3038 17.2711 16.6589 17.9439 15.9065 17.9439Z" fill="white"/>
</svg>
