<svg width="19" height="15" viewBox="0 0 19 15" fill="none" xmlns="http://www.w3.org/2000/svg">
<path d="M17.959 8.44908C17.8936 8.35853 17.2139 7.43169 16.1029 6.37175L17.5585 4.91554C17.8227 4.65218 17.8227 4.22452 17.5585 3.96176C17.2957 3.69779 16.8681 3.69779 16.6045 3.96176L15.0871 5.47894C14.5569 5.05128 13.968 4.63273 13.3276 4.26787L14.3059 2.65162C14.4986 2.33255 14.3969 1.91765 14.0778 1.72458C13.7589 1.53111 13.3438 1.63402 13.1512 1.95249L12.1103 3.67328C11.5068 3.42693 10.8713 3.24197 10.2116 3.14553V1.19866C10.2116 0.826104 9.90957 0.523438 9.5364 0.523438C9.16384 0.523438 8.86178 0.826104 8.86178 1.19866V3.0799C7.95986 3.12446 7.09764 3.34488 6.29155 3.67348L5.25085 1.9533C5.05839 1.63443 4.64309 1.53111 4.32401 1.72499C4.00534 1.91805 3.90324 2.33275 4.0961 2.65203L5.0744 4.26828C4.43483 4.63293 3.8451 5.05168 3.31492 5.47975L1.79713 3.96196C1.53377 3.69799 1.10611 3.69799 0.842741 3.96196C0.579377 4.22472 0.579377 4.65259 0.842741 4.91575L2.29955 6.37195C1.18815 7.43169 0.508674 8.35873 0.443035 8.44929C0.293728 8.65653 0.293728 8.9357 0.443035 9.14356C0.602269 9.36316 4.38236 14.5243 9.20132 14.5243C14.0205 14.5243 17.8002 9.36316 17.9592 9.14335C18.1085 8.9357 18.1085 8.65654 17.959 8.44908ZM9.20132 12.8173C6.9846 12.8173 5.18055 11.0136 5.18055 8.79571C5.18055 6.57839 6.9844 4.77454 9.20132 4.77454C11.4188 4.77454 13.2229 6.57839 13.2229 8.79571C13.2229 11.0136 11.4186 12.8173 9.20132 12.8173ZM1.6774 8.79571C2.24404 8.09922 3.65365 6.50525 5.49315 5.40459C4.67348 6.30064 4.16822 7.48882 4.16822 8.79571C4.16822 10.1036 4.67327 11.2916 5.49355 12.1878C3.65446 11.087 2.24424 9.49322 1.6774 8.79571ZM12.903 12.1947C13.7265 11.2981 14.2342 10.1067 14.2342 8.79591C14.2342 7.48902 13.7292 6.30104 12.9095 5.4048C14.7492 6.50647 16.159 8.10043 16.7254 8.79693C16.1592 9.49484 14.748 11.0935 12.903 12.1947Z" fill="white"/>
<path d="M17.959 8.44908C17.8936 8.35853 17.2139 7.43169 16.1029 6.37175L17.5585 4.91554C17.8227 4.65218 17.8227 4.22452 17.5585 3.96176C17.2957 3.69779 16.8681 3.69779 16.6045 3.96176L15.0871 5.47894C14.5569 5.05128 13.968 4.63273 13.3276 4.26787L14.3059 2.65162C14.4986 2.33255 14.3969 1.91765 14.0778 1.72458C13.7589 1.53111 13.3438 1.63402 13.1512 1.95249L12.1103 3.67328C11.5068 3.42693 10.8713 3.24197 10.2116 3.14553V1.19866C10.2116 0.826104 9.90957 0.523438 9.5364 0.523438C9.16384 0.523438 8.86178 0.826104 8.86178 1.19866V3.0799C7.95986 3.12446 7.09764 3.34488 6.29155 3.67348L5.25085 1.9533C5.05839 1.63443 4.64309 1.53111 4.32401 1.72499C4.00534 1.91805 3.90324 2.33275 4.0961 2.65203L5.0744 4.26828C4.43483 4.63293 3.8451 5.05168 3.31492 5.47975L1.79713 3.96196C1.53377 3.69799 1.10611 3.69799 0.842741 3.96196C0.579377 4.22472 0.579377 4.65259 0.842741 4.91575L2.29955 6.37195C1.18815 7.43169 0.508674 8.35873 0.443035 8.44929C0.293728 8.65653 0.293728 8.9357 0.443035 9.14356C0.602269 9.36316 4.38236 14.5243 9.20132 14.5243C14.0205 14.5243 17.8002 9.36316 17.9592 9.14335C18.1085 8.9357 18.1085 8.65654 17.959 8.44908ZM9.20132 12.8173C6.9846 12.8173 5.18055 11.0136 5.18055 8.79571C5.18055 6.57839 6.9844 4.77454 9.20132 4.77454C11.4188 4.77454 13.2229 6.57839 13.2229 8.79571C13.2229 11.0136 11.4186 12.8173 9.20132 12.8173ZM1.6774 8.79571C2.24404 8.09922 3.65365 6.50525 5.49315 5.40459C4.67348 6.30064 4.16822 7.48882 4.16822 8.79571C4.16822 10.1036 4.67327 11.2916 5.49355 12.1878C3.65446 11.087 2.24424 9.49322 1.6774 8.79571ZM12.903 12.1947C13.7265 11.2981 14.2342 10.1067 14.2342 8.79591C14.2342 7.48902 13.7292 6.30104 12.9095 5.4048C14.7492 6.50647 16.159 8.10043 16.7254 8.79693C16.1592 9.49484 14.748 11.0935 12.903 12.1947Z" fill="url(#paint0_linear_2360_3206)"/>
<path d="M9.20169 6.4707C9.03739 6.4707 8.87795 6.48752 8.72378 6.52054C9.0619 6.74197 9.28617 7.12263 9.28617 7.55657C9.28617 8.24173 8.73128 8.79621 8.04653 8.79621C7.58017 8.79621 7.17905 8.53649 6.96755 8.15603C6.9092 8.35963 6.87598 8.57417 6.87598 8.79621C6.87598 10.0806 7.91728 11.1215 9.20169 11.1215C10.4855 11.1215 11.527 10.0806 11.527 8.79621C11.527 7.51201 10.4857 6.4707 9.20169 6.4707Z" fill="white"/>
<path d="M9.20169 6.4707C9.03739 6.4707 8.87795 6.48752 8.72378 6.52054C9.0619 6.74197 9.28617 7.12263 9.28617 7.55657C9.28617 8.24173 8.73128 8.79621 8.04653 8.79621C7.58017 8.79621 7.17905 8.53649 6.96755 8.15603C6.9092 8.35963 6.87598 8.57417 6.87598 8.79621C6.87598 10.0806 7.91728 11.1215 9.20169 11.1215C10.4855 11.1215 11.527 10.0806 11.527 8.79621C11.527 7.51201 10.4857 6.4707 9.20169 6.4707Z" fill="url(#paint1_linear_2360_3206)"/>
<defs>
<linearGradient id="paint0_linear_2360_3206" x1="1.39155" y1="2.27791" x2="14.4228" y2="13.0033" gradientUnits="userSpaceOnUse">
<stop stop-color="#007BFF"/>
<stop offset="1" stop-color="#FFEB3B"/>
</linearGradient>
<linearGradient id="paint1_linear_2360_3206" x1="7.15401" y1="7.0535" x2="11.1842" y2="9.6715" gradientUnits="userSpaceOnUse">
<stop stop-color="#007BFF"/>
<stop offset="1" stop-color="#FFEB3B"/>
</linearGradient>
</defs>
</svg>
