<svg width="25" height="25" viewBox="0 0 25 25" fill="none" xmlns="http://www.w3.org/2000/svg">
<g clip-path="url(#clip0_2100_1176)">
<path d="M12.5662 0.884766C5.9388 0.884766 0.566162 6.25741 0.566162 12.8848C0.566162 18.5123 4.44072 23.2345 9.66744 24.5315V16.552H7.19304V12.8848H9.66744V11.3046C9.66744 7.22029 11.5159 5.32717 15.5258 5.32717C16.2862 5.32717 17.598 5.47645 18.1346 5.62525V8.94925C17.8514 8.91949 17.3594 8.90461 16.7484 8.90461C14.7809 8.90461 14.0206 9.65005 14.0206 11.5878V12.8848H17.9402L17.2668 16.552H14.0206V24.7969C19.9625 24.0793 24.5666 19.0201 24.5666 12.8848C24.5662 6.25741 19.1935 0.884766 12.5662 0.884766Z" fill="white"/>
</g>
<defs>
<clipPath id="clip0_2100_1176">
<rect width="24" height="24" fill="white" transform="translate(0.566162 0.884766)"/>
</clipPath>
</defs>
</svg>
