<svg width="25" height="24" viewBox="0 0 25 24" fill="none" xmlns="http://www.w3.org/2000/svg">
<g clip-path="url(#clip0_2100_1178)">
<path d="M12.5662 2.95566C15.7724 2.95566 16.1521 2.96914 17.413 3.02305C18.5849 3.07246 19.2177 3.26113 19.6396 3.41836C20.1974 3.625 20.6005 3.87656 21.0177 4.27637C21.4396 4.68066 21.6974 5.0625 21.913 5.59707C22.0771 6.00137 22.274 6.6123 22.3255 7.73086C22.3818 8.94375 22.3959 9.30762 22.3959 12.3758C22.3959 15.4484 22.3818 15.8123 22.3255 17.0207C22.274 18.1438 22.0771 18.7502 21.913 19.1545C21.6974 19.6891 21.4349 20.0754 21.0177 20.4752C20.5958 20.8795 20.1974 21.1266 19.6396 21.3332C19.2177 21.4904 18.5802 21.6791 17.413 21.7285C16.1474 21.7824 15.7677 21.7959 12.5662 21.7959C9.35991 21.7959 8.98023 21.7824 7.71929 21.7285C6.54741 21.6791 5.9146 21.4904 5.49272 21.3332C4.93491 21.1266 4.53179 20.875 4.1146 20.4752C3.69272 20.0709 3.43491 19.6891 3.21929 19.1545C3.05522 18.7502 2.85835 18.1393 2.80679 17.0207C2.75054 15.8078 2.73647 15.4439 2.73647 12.3758C2.73647 9.30313 2.75054 8.93926 2.80679 7.73086C2.85835 6.60781 3.05522 6.00137 3.21929 5.59707C3.43491 5.0625 3.69741 4.67617 4.1146 4.27637C4.53647 3.87207 4.93491 3.625 5.49272 3.41836C5.9146 3.26113 6.5521 3.07246 7.71929 3.02305C8.98023 2.96914 9.35991 2.95566 12.5662 2.95566ZM12.5662 0.884766C9.30835 0.884766 8.90054 0.898242 7.62085 0.952148C6.34585 1.00605 5.46929 1.20371 4.70991 1.48672C3.91772 1.7832 3.24741 2.17402 2.58179 2.81641C1.91147 3.4543 1.50366 4.09668 1.19429 4.85137C0.898975 5.58359 0.692725 6.41914 0.636475 7.64102C0.580225 8.87187 0.566162 9.2627 0.566162 12.3848C0.566162 15.5068 0.580225 15.8977 0.636475 17.124C0.692725 18.3459 0.898975 19.1859 1.19429 19.9137C1.50366 20.6729 1.91147 21.3152 2.58179 21.9531C3.24741 22.591 3.91773 22.9863 4.70522 23.2783C5.46929 23.5613 6.34116 23.759 7.61616 23.8129C8.89585 23.8668 9.30366 23.8803 12.5615 23.8803C15.8193 23.8803 16.2271 23.8668 17.5068 23.8129C18.7818 23.759 19.6584 23.5613 20.4177 23.2783C21.2052 22.9863 21.8755 22.591 22.5412 21.9531C23.2068 21.3152 23.6193 20.6729 23.924 19.9182C24.2193 19.1859 24.4255 18.3504 24.4818 17.1285C24.538 15.9021 24.5521 15.5113 24.5521 12.3893C24.5521 9.26719 24.538 8.87637 24.4818 7.65C24.4255 6.42812 24.2193 5.58809 23.924 4.86035C23.6287 4.09668 23.2209 3.4543 22.5505 2.81641C21.8849 2.17852 21.2146 1.7832 20.4271 1.49121C19.663 1.2082 18.7912 1.01055 17.5162 0.956641C16.2318 0.898242 15.824 0.884766 12.5662 0.884766Z" fill="white"/>
<path d="M12.5662 6.47656C9.16304 6.47656 6.4021 9.12246 6.4021 12.3838C6.4021 15.6451 9.16304 18.291 12.5662 18.291C15.9693 18.291 18.7302 15.6451 18.7302 12.3838C18.7302 9.12246 15.9693 6.47656 12.5662 6.47656ZM12.5662 16.2156C10.3583 16.2156 8.56772 14.4996 8.56772 12.3838C8.56772 10.268 10.3583 8.55195 12.5662 8.55195C14.774 8.55195 16.5646 10.268 16.5646 12.3838C16.5646 14.4996 14.774 16.2156 12.5662 16.2156Z" fill="white"/>
<path d="M20.413 6.24434C20.413 7.00801 19.7662 7.62344 18.974 7.62344C18.1771 7.62344 17.5349 7.00352 17.5349 6.24434C17.5349 5.48066 18.1818 4.86523 18.974 4.86523C19.7662 4.86523 20.413 5.48516 20.413 6.24434Z" fill="white"/>
</g>
<defs>
<clipPath id="clip0_2100_1178">
<rect width="24" height="23" fill="white" transform="translate(0.566162 0.884766)"/>
</clipPath>
</defs>
</svg>
