<svg width="25" height="25" viewBox="0 0 25 25" fill="none" xmlns="http://www.w3.org/2000/svg">
<g clip-path="url(#clip0_2100_1179)">
<path d="M22.7896 0.884766H2.33804C1.35835 0.884766 0.566162 1.6582 0.566162 2.61445V23.1504C0.566162 24.1066 1.35835 24.8848 2.33804 24.8848H22.7896C23.7693 24.8848 24.5662 24.1066 24.5662 23.1551V2.61445C24.5662 1.6582 23.7693 0.884766 22.7896 0.884766ZM7.68647 21.3363H4.12397V9.88008H7.68647V21.3363ZM5.90522 8.31914C4.76147 8.31914 3.83804 7.3957 3.83804 6.25664C3.83804 5.11758 4.76147 4.19414 5.90522 4.19414C7.04429 4.19414 7.96772 5.11758 7.96772 6.25664C7.96772 7.39102 7.04429 8.31914 5.90522 8.31914ZM21.0177 21.3363H17.4599V15.7676C17.4599 14.441 17.4365 12.7301 15.6083 12.7301C13.7568 12.7301 13.4755 14.1785 13.4755 15.6738V21.3363H9.92241V9.88008H13.3349V11.4457H13.3818C13.8552 10.5457 15.0177 9.59414 16.7474 9.59414C20.3521 9.59414 21.0177 11.966 21.0177 15.0504V21.3363V21.3363Z" fill="white"/>
</g>
<defs>
<clipPath id="clip0_2100_1179">
<rect width="24" height="24" fill="white" transform="translate(0.566162 0.884766)"/>
</clipPath>
</defs>
</svg>
