<svg width="25" height="25" viewBox="0 0 25 25" fill="none" xmlns="http://www.w3.org/2000/svg">
<path d="M14.582 4.47958C14.6074 4.38439 14.6514 4.29516 14.7113 4.21697C14.7713 4.13879 14.8461 4.07318 14.9314 4.0239C15.0167 3.97463 15.1109 3.94264 15.2086 3.92978C15.3063 3.91692 15.4055 3.92344 15.5007 3.94895C16.8911 4.31172 18.1596 5.03855 19.1757 6.05461C20.1917 7.07066 20.9186 8.3392 21.2813 9.72958C21.3069 9.82474 21.3134 9.92401 21.3005 10.0217C21.2876 10.1194 21.2557 10.2136 21.2064 10.2989C21.1571 10.3842 21.0915 10.459 21.0133 10.5189C20.9351 10.5789 20.8459 10.6229 20.7507 10.6483C20.6874 10.665 20.6221 10.6735 20.5566 10.6736C20.3914 10.6736 20.2307 10.619 20.0997 10.5183C19.9686 10.4176 19.8745 10.2765 19.832 10.1168C19.5361 8.98175 18.9429 7.94618 18.1135 7.11678C17.2841 6.28739 16.2485 5.69419 15.1135 5.39833C15.0183 5.37297 14.9289 5.32908 14.8506 5.26916C14.7723 5.20925 14.7066 5.13449 14.6573 5.04916C14.6079 4.96382 14.5758 4.8696 14.5629 4.77186C14.55 4.67413 14.5565 4.57481 14.582 4.47958ZM14.3635 8.39833C15.6563 8.74333 16.487 9.57395 16.832 10.8668C16.8745 11.0265 16.9686 11.1676 17.0997 11.2683C17.2307 11.369 17.3914 11.4236 17.5566 11.4236C17.6221 11.4235 17.6874 11.415 17.7507 11.3983C17.8459 11.3729 17.9351 11.3289 18.0133 11.2689C18.0915 11.209 18.1571 11.1342 18.2064 11.0489C18.2557 10.9636 18.2876 10.8694 18.3005 10.7717C18.3134 10.674 18.3069 10.5747 18.2813 10.4796C17.8013 8.68333 16.547 7.42895 14.7507 6.94895C14.6555 6.92353 14.5563 6.9171 14.4586 6.93003C14.361 6.94296 14.2668 6.975 14.1816 7.02432C14.0963 7.07363 14.0216 7.13926 13.9617 7.21745C13.9018 7.29565 13.8579 7.38488 13.8324 7.48004C13.807 7.57521 13.8006 7.67445 13.8135 7.77211C13.8264 7.86976 13.8585 7.96391 13.9078 8.04918C13.9571 8.13445 14.0227 8.20917 14.1009 8.26908C14.1791 8.32898 14.2684 8.3729 14.3635 8.39833ZM22.0454 17.3374C21.8782 18.6077 21.2544 19.7738 20.2903 20.6178C19.3263 21.4617 18.0879 21.9259 16.8066 21.9236C9.3629 21.9236 3.30665 15.8674 3.30665 8.42364C3.30435 7.14235 3.76854 5.90403 4.61252 4.93998C5.4565 3.97592 6.62256 3.35205 7.8929 3.18489C8.21414 3.14566 8.53944 3.21138 8.82026 3.37224C9.10108 3.53309 9.32234 3.78045 9.45102 4.07739L11.431 8.4977V8.50895C11.5295 8.73625 11.5702 8.98441 11.5495 9.23127C11.5287 9.47813 11.4471 9.716 11.312 9.92364C11.2951 9.94895 11.2773 9.97239 11.2585 9.99583L9.30665 12.3096C10.0088 13.7364 11.5013 15.2158 12.947 15.9199L15.2288 13.9783C15.2512 13.9595 15.2747 13.942 15.2991 13.9258C15.5066 13.7875 15.7453 13.703 15.9936 13.6801C16.2419 13.6572 16.4921 13.6965 16.7213 13.7946L16.7335 13.8002L21.1501 15.7793C21.4475 15.9075 21.6955 16.1286 21.8569 16.4094C22.0183 16.6903 22.0844 17.0158 22.0454 17.3374ZM20.5566 17.1499C20.5566 17.1499 20.5501 17.1499 20.5463 17.1499L16.1401 15.1764L13.8573 17.118C13.8351 17.1368 13.812 17.1543 13.7879 17.1705C13.572 17.3145 13.3225 17.4001 13.0637 17.4188C12.8049 17.4375 12.5457 17.3888 12.3113 17.2774C10.5554 16.4289 8.80509 14.6918 7.95571 12.9546C7.84324 12.7219 7.79277 12.4642 7.80919 12.2063C7.82562 11.9484 7.90838 11.6992 8.04946 11.4827C8.06536 11.4573 8.08323 11.4331 8.1029 11.4105L10.0566 9.09395L8.0879 4.6877C8.08753 4.68396 8.08753 4.68019 8.0879 4.67645C7.17876 4.79504 6.34403 5.24098 5.74004 5.93075C5.13604 6.62051 4.80419 7.5068 4.80665 8.42364C4.81012 11.6052 6.07552 14.6554 8.3252 16.9051C10.5749 19.1548 13.6251 20.4202 16.8066 20.4236C17.7229 20.4268 18.609 20.0961 19.2991 19.4934C19.9893 18.8907 20.4363 18.0573 20.5566 17.1489V17.1499Z" fill="white"/>
</svg>
