<svg width="31" height="29" viewBox="0 0 31 29" fill="none" xmlns="http://www.w3.org/2000/svg">
<path d="M13.4495 1.40931C14.0482 -0.433314 16.655 -0.433309 17.2537 1.40931L19.3951 7.99986C19.6629 8.82391 20.4308 9.38183 21.2972 9.38183H28.2269C30.1644 9.38183 30.9699 11.8611 29.4025 12.9999L23.7962 17.073C23.0953 17.5823 22.802 18.4851 23.0697 19.3091L25.2111 25.8997C25.8098 27.7423 23.7008 29.2745 22.1334 28.1357L16.5272 24.0625C15.8262 23.5533 14.877 23.5533 14.176 24.0625L8.56976 28.1357C7.00233 29.2745 4.89337 27.7423 5.49208 25.8997L7.63348 19.3091C7.90123 18.4851 7.60791 17.5823 6.90693 17.073L1.30067 12.9999C-0.266753 11.8611 0.538802 9.38183 2.47625 9.38183H9.40596C10.2724 9.38183 11.0403 8.82391 11.3081 7.99986L13.4495 1.40931Z" fill="#C79B0E"/>
</svg>
