<svg width="25" height="25" viewBox="0 0 25 25" fill="none" xmlns="http://www.w3.org/2000/svg">
<g clip-path="url(#clip0_2100_1180)">
<path d="M24.3271 8.08555C24.3271 8.08555 24.0927 6.43086 23.3708 5.7043C22.4568 4.74805 21.4349 4.74336 20.9662 4.68711C17.6099 4.44336 12.5709 4.44336 12.5709 4.44336H12.5615C12.5615 4.44336 7.52241 4.44336 4.16616 4.68711C3.69741 4.74336 2.67554 4.74805 1.76147 5.7043C1.0396 6.43086 0.809912 8.08555 0.809912 8.08555C0.809912 8.08555 0.566162 10.0309 0.566162 11.9715V13.7902C0.566162 15.7309 0.805225 17.6762 0.805225 17.6762C0.805225 17.6762 1.0396 19.3309 1.75679 20.0574C2.67085 21.0137 3.87085 20.9809 4.40522 21.084C6.3271 21.2668 12.5662 21.323 12.5662 21.323C12.5662 21.323 17.6099 21.3137 20.9662 21.0746C21.4349 21.0184 22.4568 21.0137 23.3708 20.0574C24.0927 19.3309 24.3271 17.6762 24.3271 17.6762C24.3271 17.6762 24.5662 15.7355 24.5662 13.7902V11.9715C24.5662 10.0309 24.3271 8.08555 24.3271 8.08555ZM10.0865 15.998V9.25273L16.5693 12.6371L10.0865 15.998Z" fill="white"/>
</g>
<defs>
<clipPath id="clip0_2100_1180">
<rect width="24" height="24" fill="white" transform="translate(0.566162 0.884766)"/>
</clipPath>
</defs>
</svg>
